<?xml version="1.0" standalone="no"?>
<!DOCTYPE svg PUBLIC "-//W3C//DTD SVG 1.1//EN" "http://www.w3.org/Graphics/SVG/1.1/DTD/svg11.dtd" >
<svg xmlns="http://www.w3.org/2000/svg" xmlns:xlink="http://www.w3.org/1999/xlink" version="1.1">
<metadata>
Created by FontForge 20201107 at Thu Jun 26 10:48:21 2025
 By 
Antonis Tsolomitis. This work is released under the GUST Font License --  see http://tug.org/fonts/licenses/GUST-FONT-LICENSE.txt for details.
</metadata>
<defs>
<font id="NewCM10-Italic" horiz-adv-x="1046" >
  <font-face 
    font-family="NewComputerModern10"
    font-weight="400"
    font-style="italic"
    font-stretch="normal"
    units-per-em="2048"
    panose-1="0 0 5 0 0 0 0 0 0 0"
    ascent="1651"
    descent="-397"
    x-height="905"
    cap-height="1399"
    bbox="-2054 -1481 3146 2494"
    underline-thickness="81"
    underline-position="-298"
    slope="-14.0362"
    unicode-range="U+0020-1D703"
  />
<missing-glyph horiz-adv-x="573" 
 />
    <glyph glyph-name="exclamdown" unicode="&#x21;`" horiz-adv-x="628" 
d="M655 936q0 -51 -41 -90t-90 -39q-43 0 -67.5 27t-24.5 61q0 48 40.5 88.5t92.5 40.5q38 0 64 -25t26 -63zM344 -319q-6 -34 -21.5 -59t-32 -37t-36.5 -18.5t-28.5 -7.5t-14.5 -1q-43 0 -67.5 25.5t-24.5 58.5q0 14 10 43l305 921q9 25 14.5 30t22.5 5q31 0 31 -25
q0 -6 -4 -24z" />
    <glyph glyph-name="questiondown" unicode="&#x3f;`" 
d="M905 76q0 -29 -19.5 -87.5t-61.5 -133t-97.5 -140.5t-137 -111.5t-169.5 -45.5q-111 0 -178.5 71.5t-67.5 182.5q0 47 10 90.5t30.5 80t39.5 64.5t50 57.5t48.5 44t46.5 37.5l160 129q48 38 68.5 54.5t46 39.5t33.5 38.5t14 35t6 43.5q0 28 -12.5 49t-38.5 21
q-47 0 -94 -39.5t-68 -99.5q-6 -21 -11.5 -26t-23.5 -5q-30 0 -30 20q0 19 17 50.5t45 64.5t72.5 56.5t92.5 23.5q60 0 91.5 -43t31.5 -100q0 -37 -11.5 -72t-22.5 -55.5t-37.5 -48.5t-34.5 -35.5t-36 -30.5l-247 -195q-34 -28 -52.5 -45.5t-49.5 -55t-46.5 -82t-15.5 -95.5
q0 -86 50 -133t124 -47q122 0 228.5 105.5t164.5 266.5q-41 0 -59.5 20t-18.5 46q0 40 30.5 70t70.5 30q26 0 47.5 -15t21.5 -50zM864 936q0 -51 -41 -90t-90 -39q-43 0 -67.5 27t-24.5 61q0 48 40.5 88.5t92.5 40.5q38 0 64 -25t26 -63z" />
    <glyph glyph-name="I_J" unicode="IJ" horiz-adv-x="1785" 
d="M692 39q0 -39 -41 -39t-126.5 3t-127.5 3t-126.5 -3t-125.5 -3q-28 0 -28 27q0 26 12 31t49 5q100 0 130 15.5t42 68.5l279 1115q6 18 6 38q0 9 -4 15t-14.5 9.5t-19.5 6t-27 3.5t-29.5 1h-34.5q-34 0 -44.5 4t-10.5 23q0 37 38 37q42 0 128 -3t128 -3t126.5 3t125.5 3
q29 0 29 -25q0 -19 -8 -27.5t-18.5 -10t-36.5 -1.5q-71 0 -104 -8t-45 -23.5t-21 -52.5l-277 -1106l-8 -45q0 -14 4.5 -20.5t33 -11.5t89.5 -5q20 0 27 -0.5t16 -2.5t11.5 -7t2.5 -14zM1985 1374q0 -14 -3.5 -22.5t-12.5 -12t-16 -4t-22 -0.5q-67 0 -88.5 -14t-32.5 -59
l-239 -967q-34 -140 -158 -240t-268 -100q-102 0 -172 60t-70 161q0 44 13 76.5t29.5 47.5t38 23.5t30.5 9.5t16 1q35 0 59.5 -21t24.5 -59q0 -43 -34.5 -82t-88.5 -39q-18 0 -22 2q12 -62 60 -98.5t112 -36.5q83 0 160.5 89t107.5 208l238 954q8 29 8 41q0 22 -12 28
t-50 11q-37 4 -94 4h-24q-20 0 -29 1t-16 6.5t-7 17.5q0 18 8 27.5t15 10.5t20 1q45 0 139 -3t140 -3q35 0 106 3t105 3q29 0 29 -25z" />
    <glyph glyph-name="i_j" unicode="ij" horiz-adv-x="1193" 
d="M688 1251q0 -49 -40.5 -89t-90.5 -40q-42 0 -67 26t-25 62q0 49 40.5 89t90.5 40q43 0 67.5 -26.5t24.5 -61.5zM1022 -113q-32 -129 -138.5 -218t-224.5 -89q-70 0 -117.5 32t-47.5 87q0 54 32.5 81t67.5 27q36 0 54 -20.5t18 -44.5q0 -11 -3.5 -25.5t-23 -38.5
t-51.5 -34q38 -19 69 -19q45 0 85.5 26t69.5 68t48.5 86.5t30.5 88.5l194 780q15 62 15 104q0 82 -56 82q-73 0 -134 -72.5t-105 -183.5q-9 -26 -14 -30.5t-25 -4.5q-31 0 -31 21q0 6 12.5 38t39.5 79t62 91t88 75.5t110 31.5q82 0 129 -54t47 -130q0 -35 -11 -68zM678 293
q0 -6 -8 -36t-28.5 -78.5t-48.5 -93t-74.5 -76.5t-100.5 -32q-75 0 -115.5 49t-40.5 115q0 29 7 54t30 88l76 202l61 170q37 103 37 148q0 57 -45 57q-122 0 -190 -258q-6 -22 -11.5 -27.5t-25.5 -5.5q-31 0 -31 21q0 6 8.5 36.5t29 78.5t48.5 92t75 76t101 32
q63 0 108.5 -42.5t45.5 -121.5q0 -40 -25 -114l-131 -351q-2 -5 -10 -27.5t-10 -28.5t-8.5 -25t-8.5 -26.5l-6 -22.5t-5.5 -24t-3 -20.5t-1.5 -21.5q0 -19 4.5 -31.5t12.5 -17.5t14 -6.5t14 -1.5q121 0 190 256q6 24 10.5 29t24.5 5q31 0 31 -20zM1317 1251q0 -49 -40.5 -89
t-90.5 -40q-42 0 -67 26t-25 62q0 49 40.5 89t90.5 40q43 0 67.5 -26.5t24.5 -61.5z" />
    <glyph glyph-name="endash" unicode="&#x2d;&#x2d;" 
d="M1128 545q0 -16 -11.5 -19.5t-39.5 -3.5h-835q-20 0 -28.5 1t-16 6t-7.5 16q0 8 3 13t12 6.5t15 2t22 0.5h835q16 0 21.5 -0.5t14.5 -2t12 -6.5t3 -13z" />
    <glyph glyph-name="emdash" unicode="&#x2d;&#x2d;&#x2d;" horiz-adv-x="2093" 
d="M2122 545q0 -16 -11.5 -19.5t-39.5 -3.5h-1776q-19 0 -27.5 1t-16 6t-7.5 16q0 16 11 19t40 3h1776q16 0 21.5 -0.5t14.5 -2t12 -6.5t3 -13z" />
    <glyph glyph-name="quotedblleft" unicode="``" horiz-adv-x="1003" 
d="M655 938q0 -48 -37.5 -89.5t-95.5 -41.5q-31 0 -52 13.5t-30 35.5t-12.5 41t-3.5 39q0 83 40 175.5t92 157t98.5 107.5t62.5 43q9 0 14.5 -7t5.5 -13t-4 -11.5t-24 -23.5q-97 -80 -157.5 -180.5t-78.5 -198.5q39 39 92 39q38 0 64 -20.5t26 -65.5zM1030 938
q0 -48 -37.5 -89.5t-95.5 -41.5q-31 0 -52 13.5t-30 35.5t-12.5 41t-3.5 39q0 83 40 175.5t92 157t98.5 107.5t62.5 43q9 0 14.5 -7t5.5 -13t-4 -11t-25 -24q-97 -79 -157 -180t-78 -199q39 39 92 39q38 0 64 -20.5t26 -65.5z" />
    <glyph glyph-name="quotedblright" unicode="&#x27;&#x27;" horiz-adv-x="1003" 
d="M760 1292q0 -83 -40 -175.5t-92 -157t-98.5 -107.5t-62.5 -43q-9 0 -15 7t-6 13t4 11t25 24q97 80 157.5 180.5t78.5 198.5q-39 -39 -93 -39q-38 0 -64 20.5t-26 65.5q0 48 38 89.5t96 41.5q31 0 52 -13.5t30 -35.5t12.5 -41t3.5 -39zM1135 1292q0 -83 -40 -175.5
t-92 -157t-98.5 -107.5t-62.5 -43q-9 0 -15 7t-6 13t4 11t25 24q97 79 157 180t78 199q-39 -39 -92 -39q-38 0 -64 20.5t-26 65.5q0 48 37.5 89.5t95.5 41.5q31 0 52.5 -13.5t30.5 -35.5t12.5 -41t3.5 -39z" />
    <glyph glyph-name="quotedblbase" unicode="&#x2c;&#x2c;" horiz-adv-x="1003" 
d="M459 84q0 -83 -40 -175.5t-92 -157t-98.5 -107.5t-62.5 -43q-9 0 -15 7t-6 13t4 11t25 24q97 80 157.5 180.5t78.5 198.5q-39 -39 -93 -39q-38 0 -64 20.5t-26 65.5q0 48 37.5 89.5t95.5 41.5q31 0 52.5 -13.5t30.5 -35.5t12.5 -41t3.5 -39zM834 84q0 -83 -40 -175.5
t-92 -157t-98.5 -107.5t-62.5 -43q-9 0 -15 7t-6 13t4 11t25 24q97 79 157 180t78 199q-39 -39 -92 -39q-38 0 -64 20.5t-26 65.5q0 48 37.5 89.5t95.5 41.5q31 0 52.5 -13.5t30.5 -35.5t12.5 -41t3.5 -39z" />
    <glyph glyph-name="f_b" unicode="fb" horiz-adv-x="1617" 
d="M1153 797q115 108 217 108q101 0 173.5 -82.5t72.5 -236.5q0 -147 -69 -289.5t-178.5 -231t-221.5 -88.5q-109 0 -172.5 89t-63.5 223q0 35 5.5 76.5t10.5 63.5t7 28l94 362h-461l-127 -655q-110 -584 -329 -584q-61 0 -111.5 34.5t-50.5 100.5q0 51 30.5 82t71.5 31
q28 0 49 -17.5t21 -48.5q0 -34 -23.5 -63.5t-66.5 -36.5q26 -37 80 -37q21 0 39 12.5t29 28t22 43.5t15 43t11 43l64 281l143 743h-127q-20 0 -28.5 1t-15.5 6.5t-7 17.5q0 19 8 27.5t17.5 10t31.5 1.5h133q16 86 24.5 128t25 108.5t31 98.5t39 77.5t53.5 66t69 43.5
t90.5 31t114.5 8q108 0 172 -29q82 -36 82 -106h2l18 71q9 29 17.5 35t40.5 6h30q20 0 28.5 -0.5t15 -5t6.5 -14.5q-5 -25 -7 -31zM1364 217q43 94 79 243.5t36 217.5q0 28 -5 56.5t-16.5 58.5t-35.5 48.5t-56 18.5q-106 0 -215 -151q-22 -29 -28 -42t-17 -53
q-50 -197 -64 -264.5t-14 -130.5q0 -104 36 -150t83 -46q36 0 73 22.5t66 56.5t47.5 62.5t30.5 52.5zM1044 883l89 360h-3q-9 -17 -33.5 -32t-52.5 -15q-27 0 -48 17t-21 49q0 31 21 59.5t59 38.5q-51 39 -160 39q-76 0 -140 -31t-89 -102q-25 -67 -86 -383h464z" />
    <glyph glyph-name="f_f_b" unicode="ffb" horiz-adv-x="2246" 
d="M1075 883q16 86 24.5 128t25 108.5t31 98.5t39 77.5t53.5 66t69 43.5t90.5 31t114.5 8q108 0 172 -29q82 -36 82 -106h2l18 71q9 29 17 35t40 6h31q20 0 28 -0.5t14.5 -5t6.5 -14.5q-4 -25 -6 -31l-145 -573q115 108 217 108q101 0 173.5 -82.5t72.5 -236.5
q0 -147 -69 -289.5t-178.5 -231t-221.5 -88.5q-109 0 -172.5 89t-63.5 223q0 35 5.5 76.5t10.5 63.5t7 28l94 362h-461l-127 -655q-110 -584 -330 -584q-61 0 -111 34.5t-50 100.5q0 51 30.5 82t71.5 31q28 0 49 -17.5t21 -48.5q0 -34 -24 -63.5t-67 -36.5q26 -37 80 -37
q26 0 46.5 16t34.5 47.5t20.5 52t15.5 54.5l64 281l143 743h-498l-125 -651q-23 -124 -50.5 -220.5t-67 -184.5t-93 -135.5t-118.5 -47.5q-63 0 -112.5 35t-49.5 100q0 51 30.5 82t71.5 31q28 0 49 -17.5t21 -48.5q0 -34 -23.5 -63.5t-66.5 -36.5q29 -37 80 -37q25 0 45 15
t34 45.5t21 52.5t16 59q28 103 62 277l145 745h-127q-30 0 -40.5 4t-10.5 23q0 18 7.5 26t16.5 9.5t31 1.5h135l37 194q17 85 42.5 146.5t70.5 114t118 79.5t173 27q42 0 81 -5.5t79 -19.5t64 -42.5t24 -69.5q0 -48 -30.5 -79.5t-72.5 -31.5q-27 0 -48 17t-21 49t20.5 60
t58.5 38q-51 39 -153 39q-46 0 -86 -10t-79 -40t-58 -77q-13 -34 -23 -78t-65 -311h497zM1993 217q42 94 78 243.5t36 217.5q0 29 -5 57t-16.5 58t-35 48.5t-55.5 18.5q-106 0 -215 -151q-22 -29 -28 -42t-17 -53q-50 -197 -64 -264.5t-14 -130.5q0 -104 36 -150t83 -46
q36 0 73 22.5t66 56.5t47.5 62.5t30.5 52.5zM1673 883l88 360h-2q-9 -17 -33.5 -32t-52.5 -15q-27 0 -48 17t-21 49t20.5 60t58.5 38q-51 39 -159 39q-76 0 -140.5 -31t-89.5 -102q-25 -67 -86 -383h465z" />
    <glyph glyph-name="f_f_h" unicode="ffh" horiz-adv-x="2351" 
d="M1462 57l195 762h-461l-127 -655q-110 -584 -330 -584q-61 0 -111 34.5t-50 100.5q0 51 30.5 82t71.5 31q28 0 49 -17.5t21 -48.5q0 -34 -24 -63.5t-67 -36.5q26 -37 80 -37q26 0 46.5 16t34.5 47.5t20.5 52t15.5 54.5l64 281l143 743h-498l-125 -651
q-23 -124 -50.5 -220.5t-67 -184.5t-93 -135.5t-118.5 -47.5q-63 0 -112.5 35t-49.5 100q0 51 30.5 82t71.5 31q28 0 49 -17.5t21 -48.5q0 -34 -23.5 -63.5t-66.5 -36.5q29 -37 80 -37q25 0 45 15t34 45.5t21 52.5t16 59q28 103 62 277l145 745h-127q-30 0 -40.5 4t-10.5 23
q0 18 7.5 26t16.5 9.5t31 1.5h135l37 194q17 85 42.5 146.5t70.5 114t118 79.5t173 27q42 0 81 -5.5t79 -19.5t64 -42.5t24 -69.5q0 -48 -30.5 -79.5t-72.5 -31.5q-27 0 -48 17t-21 49t20.5 60t58.5 38q-51 39 -153 39q-46 0 -86 -10t-79 -40t-58 -77q-13 -34 -23 -78
t-65 -311h497q16 86 24.5 128t25 108.5t31 98.5t39 77.5t53.5 66t69 43.5t90.5 31t114.5 8q108 0 172 -29q82 -36 82 -106h2l18 71q9 29 17 35t40 6h31q20 0 28 -0.5t14.5 -5t6.5 -14.5q-4 -25 -6 -31l-151 -598q33 32 51.5 48t54.5 40t76.5 34.5t89.5 10.5q41 0 76 -10
t67.5 -33t51 -66.5t18.5 -103.5q0 -124 -125 -456l-8 -24l-9 -27t-7.5 -25t-6.5 -27t-4 -25t-2 -26q0 -18 2 -29t12.5 -20.5t30.5 -9.5q117 0 191 256q6 24 10.5 29t24.5 5q30 0 30 -20q0 -6 -8.5 -36.5t-29 -78.5t-48.5 -92.5t-74.5 -76.5t-99.5 -32q-71 0 -113 47t-42 117
q0 32 5.5 55t26.5 76q119 336 119 453q0 135 -94 135q-152 0 -273 -194q-28 -50 -36 -69.5t-21 -74.5q-5 -23 -16.5 -66.5t-16.5 -66.5l-88 -354q-5 -21 -25.5 -39.5t-49.5 -18.5q-28 0 -44.5 17.5t-13.5 36.5q2 22 4 26zM1673 883l88 360h-2q-9 -17 -33.5 -32t-52.5 -15
q-27 0 -48 17t-21 49t20.5 60t58.5 38q-51 39 -159 39q-76 0 -140.5 -31t-89.5 -102q-25 -67 -86 -383h465z" />
    <glyph glyph-name="f_f_j" unicode="ffj" horiz-adv-x="1771" 
d="M1620 819h-424l-127 -655q-4 -24 -17.5 -84t-47 -164t-68.5 -160q-9 -13 -22.5 -29.5t-43.5 -44.5t-62 -49t-78 -37t-93 -16q-48 0 -92.5 11.5t-79.5 44t-35 81.5q0 48 30 79.5t72 31.5q28 0 49 -17.5t21 -48.5q0 -39 -26 -66t-58 -34q46 -37 121 -37q69 0 137 68
q37 37 54 70t32 81q31 99 66 273l135 702h-498l-125 -651q-23 -124 -50.5 -220.5t-67 -184.5t-93 -135.5t-118.5 -47.5q-63 0 -112.5 35t-49.5 100q0 51 30.5 82t71.5 31q28 0 49 -17.5t21 -48.5q0 -34 -23.5 -63.5t-66.5 -36.5q29 -37 80 -37q25 0 45 15t34 45.5t21 52.5
t16 59q28 103 62 277l145 745h-127q-30 0 -40.5 4t-10.5 23q0 18 7.5 26t16.5 9.5t31 1.5h135l37 194q17 85 42.5 146.5t70.5 114t118 79.5t173 27q42 0 81 -5.5t79 -19.5t64 -42.5t24 -69.5q0 -48 -30.5 -79.5t-72.5 -31.5q-27 0 -48 17t-21 49t20.5 60t58.5 38
q-51 39 -153 39q-46 0 -86 -10t-79 -40t-58 -77q-13 -34 -23 -78t-65 -311h497q42 217 63 290.5t64 129.5q67 85 157 113t210 28q21 0 36.5 -0.5t49.5 -3.5t60 -8t58 -16.5t53 -27t35.5 -40.5t14.5 -56q0 -57 -33 -86.5t-69 -29.5t-54 20.5t-18 44.5q0 3 0.5 9t5.5 21
t13.5 27.5t26.5 25t42 17.5q-54 58 -215 58q-60 0 -103.5 -10t-76 -19.5t-58 -48.5t-40.5 -62t-33 -97.5t-26.5 -117t-28.5 -156.5q-1 -3 -1 -5l414 2q82 0 129 -54t47 -131q0 -37 -10 -67l-184 -746q-31 -122 -130 -214.5t-221 -92.5q-68 0 -123 29.5t-55 91.5
q0 49 32.5 77.5t68.5 28.5t53.5 -20t17.5 -45q0 -8 -2 -21t-20.5 -39t-50.5 -36q39 -21 81 -21t79.5 26t60.5 61.5t41 76t25.5 64.5t8.5 32l191 768q18 74 18 105t-11.5 46t-47.5 15z" />
    <glyph glyph-name="f_f_k" unicode="ffk" horiz-adv-x="2248" 
d="M1075 883q16 86 24.5 128t25 108.5t31 98.5t39 77.5t53.5 66t69 43.5t90.5 31t114.5 8q108 0 172 -29q82 -36 82 -106h2l18 71q9 29 17 35t40 6h31q20 0 28 -0.5t14.5 -5t6.5 -14.5q-4 -25 -6 -31l-209 -835q53 26 92 62t129 140q65 76 129 122t138 46q63 0 96 -38.5
t33 -84.5q0 -54 -32 -84t-71 -30q-36 0 -53.5 20t-17.5 45q0 14 5 31.5t28.5 41.5t62.5 30q-16 24 -55 24q-30 0 -60.5 -12.5t-53.5 -27t-58 -49t-54.5 -56t-62.5 -70.5q-85 -97 -146 -135q53 -7 98 -21.5t86 -39t65 -63.5t24 -89q0 -29 -10 -72q-17 -85 -17 -114
q0 -25 3 -42t17 -31.5t40 -14.5t48.5 16.5t37 38t29.5 59t22 63t18 66.5q9 34 14.5 40.5t24.5 6.5q31 0 31 -20q0 -5 -8.5 -38t-27 -84.5t-38.5 -86.5q-63 -107 -158 -107q-67 0 -119.5 49t-52.5 150q0 31 9 70q6 29 6 51q0 42 -21 75t-55 52.5t-66 30t-65 14.5l-105 -416
q-17 -76 -79 -76q-27 0 -42.5 17t-15.5 37q2 22 4 26l193 762h-461l-127 -655q-110 -584 -330 -584q-61 0 -111 34.5t-50 100.5q0 51 30.5 82t71.5 31q28 0 49 -17.5t21 -48.5q0 -34 -24 -63.5t-67 -36.5q26 -37 80 -37q26 0 46.5 16t34.5 47.5t20.5 52t15.5 54.5l64 281
l143 743h-498l-125 -651q-23 -124 -50.5 -220.5t-67 -184.5t-93 -135.5t-118.5 -47.5q-63 0 -112.5 35t-49.5 100q0 51 30.5 82t71.5 31q28 0 49 -17.5t21 -48.5q0 -34 -23.5 -63.5t-66.5 -36.5q29 -37 80 -37q25 0 45 15t34 45.5t21 52.5t16 59q28 103 62 277l145 745h-127
q-30 0 -40.5 4t-10.5 23q0 18 7.5 26t16.5 9.5t31 1.5h135l37 194q17 85 42.5 146.5t70.5 114t118 79.5t173 27q42 0 81 -5.5t79 -19.5t64 -42.5t24 -69.5q0 -48 -30.5 -79.5t-72.5 -31.5q-27 0 -48 17t-21 49t20.5 60t58.5 38q-51 39 -153 39q-46 0 -86 -10t-79 -40
t-58 -77q-13 -34 -23 -78t-65 -311h497zM1673 883l88 360h-2q-9 -17 -33.5 -32t-52.5 -15q-27 0 -48 17t-21 49t20.5 60t58.5 38q-51 39 -159 39q-76 0 -140.5 -31t-89.5 -102q-25 -67 -86 -383h465z" />
    <glyph glyph-name="f_f_t" unicode="fft" horiz-adv-x="1923" 
d="M1075 883l43 225q67 336 266 336q68 0 118 -36t50 -99q0 -51 -30.5 -82t-71.5 -31q-28 0 -49 17.5t-21 48.5q0 34 23.5 63.5t66.5 36.5q-30 37 -86 37q-26 0 -46 -17t-33 -48.5t-19.5 -57t-13.5 -62.5l-66 -331h455l80 325q19 74 80 74q20 0 37.5 -12t17.5 -41
q0 -14 -8 -43l-76 -303h164q20 0 28.5 -1t15.5 -6.5t7 -17.5q0 -19 -8 -27.5t-17.5 -10t-31.5 -1.5h-174l-152 -608q-14 -57 -14 -105q0 -18 1 -28t5.5 -25t17 -22.5t31.5 -7.5q41 0 80 24.5t68.5 65t50.5 80t37 81.5q12 29 17.5 34t23.5 5q30 0 30 -20q0 -5 -12 -36.5
t-38.5 -79t-61 -92t-88 -76.5t-111.5 -32q-78 0 -126 53.5t-48 131.5q0 29 10 69l148 588h-451l-123 -643q-15 -80 -31.5 -147.5t-38.5 -138t-48.5 -124.5t-58 -97t-71 -66t-84.5 -23q-62 0 -111.5 34.5t-49.5 100.5q0 51 30.5 82t71.5 31q28 0 49 -17.5t21 -48.5
q0 -34 -24 -63.5t-67 -36.5q12 -16 32 -25.5t34 -10.5l14 -1q18 0 33 7.5t27 23.5t20 29.5t16 37t10.5 33.5t8.5 31l68 301l141 731h-498l-125 -651q-23 -124 -50.5 -220.5t-67 -184.5t-93 -135.5t-118.5 -47.5q-63 0 -112.5 35t-49.5 100q0 51 30.5 82t71.5 31
q28 0 49 -17.5t21 -48.5q0 -34 -23.5 -63.5t-66.5 -36.5q29 -37 80 -37q25 0 45 15t34 45.5t21 52.5t16 59q28 103 62 277l145 745h-127q-30 0 -40.5 4t-10.5 23q0 18 7.5 26t16.5 9.5t31 1.5h135l37 194q17 85 42.5 146.5t70.5 114t118 79.5t173 27q42 0 81 -5.5t79 -19.5
t64 -42.5t24 -69.5q0 -48 -30.5 -79.5t-72.5 -31.5q-27 0 -48 17t-21 49t20.5 60t58.5 38q-51 39 -153 39q-46 0 -86 -10t-79 -40t-58 -77q-13 -34 -23 -78t-65 -311h497z" />
    <glyph glyph-name="f_h" unicode="fh" horiz-adv-x="1722" 
d="M446 883q16 86 24.5 128t25 108.5t31 98.5t39 77.5t53.5 66t69 43.5t90.5 31t114.5 8q108 0 172 -29q82 -36 82 -106h2l18 71q9 29 17.5 35t40.5 6h30q20 0 28.5 -0.5t15 -5t6.5 -14.5q-5 -25 -7 -31l-151 -598q33 32 51.5 48t54.5 40t76.5 34.5t89.5 10.5q41 0 76 -10
t67.5 -33t51 -66.5t18.5 -103.5q0 -124 -125 -456l-8 -24l-9 -27t-7.5 -25t-6.5 -27t-4 -25t-2 -26q0 -18 2 -29t13 -20.5t31 -9.5q116 0 190 256q6 24 10.5 29t24.5 5q31 0 31 -20q0 -6 -8.5 -37t-29 -78.5t-49 -92t-75 -76.5t-99.5 -32q-71 0 -113 47t-42 117q0 31 6 53.5
t27 77.5q118 334 118 453q0 135 -94 135q-151 0 -272 -194q-29 -52 -37 -71.5t-21 -72.5q-5 -23 -16 -67t-16 -66l-88 -354q-5 -21 -26 -39.5t-50 -18.5q-28 0 -44.5 17.5t-13.5 36.5q3 22 5 26l194 762h-461l-127 -655q-110 -584 -329 -584q-61 0 -111.5 34.5t-50.5 100.5
q0 51 30.5 82t71.5 31q28 0 49 -17.5t21 -48.5q0 -34 -23.5 -63.5t-66.5 -36.5q26 -37 80 -37q21 0 39 12.5t29 28t22 43.5t15 43t11 43l64 281l143 743h-127q-30 0 -40.5 4t-10.5 23q0 18 7.5 26t16.5 9.5t31 1.5h135zM1044 883l89 360h-3q-9 -17 -33.5 -32t-52.5 -15
q-27 0 -48 17t-21 49q0 31 21 59.5t59 38.5q-51 39 -160 39q-76 0 -140 -31t-89 -102q-25 -67 -86 -383h464z" />
    <glyph glyph-name="f_j" unicode="fj" horiz-adv-x="1290" 
d="M594 883q42 217 63 290.5t64 129.5q67 85 156.5 113t209.5 28q21 0 36.5 -0.5t50 -3.5t60.5 -8t58 -16.5t53 -27t35.5 -40.5t14.5 -56q0 -57 -33.5 -86.5t-69.5 -29.5t-53.5 20t-17.5 45q0 3 0.5 9t5.5 21t13.5 27.5t26.5 25t42 17.5q-54 58 -215 58q-60 0 -103.5 -10
t-76 -19.5t-58 -48.5t-40.5 -62t-33 -97.5t-26.5 -117t-28.5 -156.5q-1 -3 -1 -5l414 2q82 0 129 -54t47 -131q0 -37 -10 -67l-185 -746q-31 -122 -129.5 -214.5t-220.5 -92.5q-68 0 -123 29.5t-55 91.5q0 50 32 78t68 28t54 -20.5t18 -44.5q0 -3 -0.5 -8t-5 -19
t-11.5 -25.5t-22 -24.5t-35 -19q39 -21 82 -21q42 0 79.5 26t60.5 61.5t41 76t25.5 64.5t8.5 32l191 768q18 74 18 105t-11.5 46t-47.5 15h-424l-127 -655q-4 -24 -17.5 -84t-47 -164t-68.5 -160q-9 -13 -22.5 -29.5t-43.5 -44.5t-62 -49t-78 -37t-93 -16q-48 0 -92.5 11.5
t-79.5 44t-35 81.5q0 48 30 79.5t72 31.5q28 0 49 -17.5t21 -48.5q0 -39 -26 -66t-58 -34q46 -37 121 -37q69 0 137 68q37 37 54 70t32 81q28 89 65 273l136 702h-127q-31 0 -41.5 4t-10.5 23q0 18 8 26t17 9.5t31 1.5h135z" />
    <glyph glyph-name="longs_b" unicode="&#x17f;b" horiz-adv-x="1617" 
d="M934 457l199 786h-3q-9 -17 -33.5 -32t-52.5 -15q-27 0 -48 17t-21 49q0 31 21 59.5t59 38.5q-51 39 -160 39q-76 0 -140 -31t-89 -102q-25 -67 -86 -383l-140 -719q-110 -584 -329 -584q-61 0 -111.5 34.5t-50.5 100.5q0 51 30.5 82t71.5 31q28 0 49 -17.5t21 -48.5
q0 -34 -23.5 -63.5t-66.5 -36.5q26 -37 80 -37q21 0 39 12.5t29 28t22 43.5t15 43t11 43l64 281l143 743h-127q-20 0 -28.5 1t-15.5 6.5t-7 17.5q0 19 8 27.5t17.5 10t31.5 1.5h133q16 86 24.5 128t25 108.5t31 98.5t39 77.5t53.5 66t69 43.5t90.5 31t114.5 8q108 0 172 -29
q82 -36 82 -106h2l18 71q9 29 17.5 35t40.5 6h30q20 0 28.5 -0.5t15 -5t6.5 -14.5q-5 -25 -7 -31l-145 -573q115 108 217 108q101 0 173.5 -82.5t72.5 -236.5q0 -147 -69 -289.5t-178.5 -231t-221.5 -88.5q-109 0 -172.5 89t-63.5 223q0 35 5.5 76.5t10.5 63.5t7 28z
M1364 217q43 94 79 243.5t36 217.5q0 28 -5 56.5t-16.5 58.5t-35.5 48.5t-56 18.5q-106 0 -215 -151q-22 -29 -28 -42t-17 -53q-50 -197 -64 -264.5t-14 -130.5q0 -104 36 -150t83 -46q36 0 73 22.5t66 56.5t47.5 62.5t30.5 52.5z" />
    <glyph glyph-name="longs_h" unicode="&#x17f;h" horiz-adv-x="1722" 
d="M1133 1243h-3q-9 -17 -33.5 -32t-52.5 -15q-27 0 -48 17t-21 49q0 31 21 59.5t59 38.5q-51 39 -160 39q-76 0 -140 -31t-89 -102q-25 -67 -86 -383l-140 -719q-110 -584 -329 -584q-61 0 -111.5 34.5t-50.5 100.5q0 51 30.5 82t71.5 31q28 0 49 -17.5t21 -48.5
q0 -34 -23.5 -63.5t-66.5 -36.5q26 -37 80 -37q21 0 39 12.5t29 28t22 43.5t15 43t11 43l64 281l143 743h-127q-30 0 -40.5 4t-10.5 23q0 18 7.5 26t16.5 9.5t31 1.5h135q16 86 24.5 128t25 108.5t31 98.5t39 77.5t53.5 66t69 43.5t90.5 31t114.5 8q108 0 172 -29
q82 -36 82 -106h2l18 71q9 29 17.5 35t40.5 6h30q20 0 28.5 -0.5t15 -5t6.5 -14.5q-5 -25 -7 -31l-151 -598q33 32 51.5 48t54.5 40t76.5 34.5t89.5 10.5q41 0 76 -10t67.5 -33t51 -66.5t18.5 -103.5q0 -124 -125 -456l-8 -24l-9 -27t-7.5 -25t-6.5 -27t-4 -25t-2 -26
q0 -18 2 -29t13 -20.5t31 -9.5q116 0 190 256q6 24 10.5 29t24.5 5q31 0 31 -20q0 -6 -8.5 -37t-29 -78.5t-49 -92t-75 -76.5t-99.5 -32q-71 0 -113 47t-42 117q0 31 6 53.5t27 77.5q118 334 118 453q0 135 -94 135q-151 0 -272 -194q-29 -52 -37 -71.5t-21 -72.5
q-5 -23 -16 -67t-16 -66l-88 -354q-5 -21 -26 -39.5t-50 -18.5q-28 0 -44.5 17.5t-13.5 36.5q3 22 5 26z" />
    <glyph glyph-name="longs_i" unicode="&#x17f;i" horiz-adv-x="1150" 
d="M1210 293q0 -6 -8 -36t-28.5 -78.5t-48.5 -93t-74.5 -76.5t-100.5 -32q-74 0 -114.5 49t-40.5 115q0 30 6.5 55.5t29.5 86.5l76 202l62 170q37 103 37 148q0 57 -45 57q-123 0 -191 -258q-6 -22 -11.5 -27.5t-25.5 -5.5q-31 0 -31 21q0 6 8.5 36.5t29 78.5t49 92t75.5 76
t101 32q63 0 108 -42t45 -122q0 -43 -24 -114l-131 -351q-3 -7 -13 -36t-13.5 -38t-10.5 -31.5t-9.5 -34t-5 -27.5t-2.5 -29q0 -19 4.5 -31.5t12.5 -17.5t14 -6.5t14 -1.5q34 0 64.5 22t49.5 50t37 69.5t25.5 64.5t14.5 50q6 24 10.5 29t24.5 5q30 0 30 -20zM614 1073
l-172 -897q-15 -81 -31.5 -148t-38.5 -138t-48 -124t-57.5 -96.5t-71 -66.5t-84.5 -23q-62 0 -112 34.5t-50 100.5q0 51 30.5 82t71.5 31q28 0 49 -17.5t21 -48.5q0 -34 -23.5 -63.5t-66.5 -36.5q12 -16 32 -25.5t34 -10.5l14 -1q18 0 33 7.5t26.5 24t19.5 28.5t16 37
t10.5 33.5t8.5 31.5l68 301l141 731h-127q-20 0 -28.5 1t-15.5 6.5t-7 17.5q0 19 8 27.5t17.5 10t31.5 1.5h133l37 192q20 107 58.5 179.5t96.5 113.5t127.5 58.5t162.5 17.5q18 0 32.5 -0.5t47 -3.5t57.5 -8t56 -16.5t51.5 -27.5t34.5 -41t14 -57q0 -54 -32 -84t-71 -30
q-36 0 -53.5 20t-17.5 45q0 3 0.5 9t5.5 21t13.5 27.5t27 25t43.5 17.5q-58 58 -205 58q-53 0 -94.5 -8.5t-71 -21t-53 -37.5t-37.5 -47t-26.5 -62t-19 -69.5t-16.5 -80.5z" />
    <glyph glyph-name="longs_k" unicode="&#x17f;k" horiz-adv-x="1622" 
d="M1133 1243h-3q-9 -17 -33.5 -32t-52.5 -15q-27 0 -48 17t-21 49q0 31 21 59.5t59 38.5q-51 39 -160 39q-76 0 -140 -31t-89 -102q-25 -67 -86 -383l-140 -719q-110 -584 -329 -584q-61 0 -111.5 34.5t-50.5 100.5q0 51 30.5 82t71.5 31q28 0 49 -17.5t21 -48.5
q0 -34 -23.5 -63.5t-66.5 -36.5q26 -37 80 -37q21 0 39 12.5t29 28t22 43.5t15 43t11 43l64 281l143 743h-127q-20 0 -28.5 1t-15.5 6.5t-7 17.5q0 19 8 27.5t17.5 10t31.5 1.5h133q16 86 24.5 128t25 108.5t31 98.5t39 77.5t53.5 66t69 43.5t90.5 31t114.5 8q108 0 172 -29
q82 -36 82 -106h2l18 71q9 29 17.5 35t40.5 6h30q20 0 28.5 -0.5t15 -5t6.5 -14.5q-5 -25 -7 -31l-208 -835q53 26 92 62t129 140q65 77 128.5 122.5t137.5 45.5q63 0 96 -38.5t33 -84.5q0 -54 -32 -84t-70 -30q-36 0 -54 20.5t-18 44.5q0 14 5 31.5t28.5 41.5t62.5 30
q-16 24 -55 24q-30 0 -60.5 -12.5t-53.5 -27t-58 -49t-54.5 -56t-62.5 -70.5q-86 -99 -145 -135q53 -7 98 -21.5t86 -39t64.5 -63.5t23.5 -89q0 -29 -10 -72q-17 -85 -17 -114q0 -25 3 -42t17 -31.5t40 -14.5t48.5 16.5t37 38t29.5 59t22 63t18 66.5q9 34 14.5 40.5
t24.5 6.5q31 0 31 -20q0 -5 -8.5 -38t-27 -84.5t-38.5 -86.5q-63 -107 -157 -107q-67 0 -119.5 49t-52.5 150q0 35 8 70q6 29 6 51q0 42 -21 75t-55 52.5t-66 30t-65 14.5l-104 -416q-17 -76 -80 -76q-27 0 -42.5 17t-15.5 37q3 22 5 26z" />
    <glyph glyph-name="longs_l" unicode="&#x17f;l" horiz-adv-x="1204" 
d="M580 883q61 316 86 383q25 71 89 102t140 31q109 0 160 -39q-38 -10 -59 -38.5t-21 -59.5q0 -32 21 -49t48 -17q28 0 52.5 15t33.5 32h3l-252 -1012q-11 -44 -11 -69q0 -81 49 -133t123 -52q93 0 150 115q16 35 31.5 85t22.5 83l7 33q0 20 -30 20q-19 0 -24.5 -6.5
t-14.5 -40.5q-13 -52 -24.5 -88t-28 -75t-38 -59.5t-46.5 -20.5q-54 0 -54 83q0 44 15 105l290 1163q7 21 7 27q0 14 -10.5 17t-39.5 3h-30q-32 0 -40.5 -6t-17.5 -35l-18 -71h-2q0 70 -82 106q-64 29 -172 29q-64 0 -114.5 -8t-90.5 -31t-69 -43.5t-53.5 -66t-39 -77.5
t-31 -98.5t-25 -108.5t-24.5 -128h-133q-22 0 -31.5 -1.5t-17.5 -10t-8 -27.5q0 -17 11 -21t40 -4h127l-143 -743l-64 -281q-7 -28 -11 -43t-15 -43t-22 -43.5t-29 -28t-39 -12.5q-54 0 -80 37q43 7 66.5 36.5t23.5 63.5q0 31 -21 48.5t-49 17.5q-41 0 -71.5 -31t-30.5 -82
q0 -66 50.5 -100.5t111.5 -34.5q219 0 329 584z" />
    <glyph glyph-name="longs_longs" unicode="&#x17f;&#x17f;" horiz-adv-x="1255" 
d="M1042 819l-139 -717q-48 -249 -86 -331q-6 -13 -19.5 -32t-38 -47.5t-59.5 -47.5t-71 -19q-73 0 -113 37q36 8 61 35.5t25 64.5q0 31 -21 48.5t-49 17.5q-42 0 -72 -31.5t-30 -79.5q0 -37 19.5 -65t50.5 -43t63 -22t64 -7q96 0 180.5 64.5t124.5 140.5q68 131 102 315
l154 783q15 74 27.5 150.5t33.5 170.5q8 37 13 56t16 50.5t22.5 47t30.5 28.5t43 13q59 0 92 -37q-36 -8 -61 -35.5t-25 -64.5q0 -31 21 -48.5t49 -17.5q40 0 71 30.5t31 82.5q0 62 -53.5 98.5t-124.5 36.5q-63 0 -122 -39.5t-89 -97.5q-30 -59 -48 -132t-60 -292h-135
q-22 0 -31 -1.5t-17 -10t-8 -27.5q0 -17 11 -21t40 -4h127zM578 883q31 167 53.5 263t30 118t18.5 45q14 29 64 59.5t118 30.5q82 0 129 -37q-26 -7 -54 -33t-28 -67q0 -31 21 -48.5t49 -17.5q42 0 72 31.5t30 79.5q0 68 -63.5 102.5t-157.5 34.5q-80 0 -143 -23t-100.5 -56
t-65.5 -84t-41 -92.5t-23 -94.5l-41 -211h-135q-22 0 -31 -1.5t-16.5 -10t-7.5 -27.5q0 -17 11 -21t40 -4h127l-149 -766q-33 -165 -62 -272q-38 -156 -112 -156q-53 0 -80 37q43 7 66.5 36.5t23.5 63.5q0 31 -21 48.5t-49 17.5q-41 0 -71.5 -31t-30.5 -82q0 -66 50 -100.5
t112 -34.5q63 0 115.5 45.5t92 130t68 183.5t53.5 227z" />
    <glyph glyph-name="longs_longs_i" unicode="&#x17f;&#x17f;i" horiz-adv-x="1806" 
d="M1862 293q0 -6 -8 -36t-28.5 -78.5t-48.5 -93t-74.5 -76.5t-100.5 -32q-75 0 -115.5 49t-40.5 115q0 29 7 54t30 88l76 202l61 170q37 103 37 148q0 57 -45 57q-123 0 -191 -258q-6 -22 -11.5 -27.5t-25.5 -5.5q-30 0 -30 21q0 6 8.5 36.5t29 78.5t48.5 92t75 76t101 32
q63 0 108 -42t45 -122q0 -43 -24 -114l-131 -351q-2 -5 -10 -27.5t-10 -28.5t-8.5 -25t-8.5 -26.5l-6 -22.5t-5.5 -24t-3 -20.5t-1.5 -21.5q0 -19 4.5 -31.5t12.5 -17.5t14 -6.5t14 -1.5q121 0 190 256q6 24 10.5 29t24.5 5q31 0 31 -20zM1208 883q49 250 71 319
q37 117 104 158q63 39 192 39q161 0 215 -58q-38 -8 -60 -33t-25 -46l-3 -21q0 -24 18 -44.5t54 -20.5t69 29.5t33 86.5q0 31 -14.5 56t-35.5 40.5t-53 27t-58 16.5t-60 8t-49.5 3.5t-36.5 0.5q-120 0 -210 -28t-157 -113q-10 -13 -18.5 -26t-16 -30t-13 -29.5t-13 -37.5
t-11.5 -39.5t-12 -50.5t-12.5 -56.5t-15 -70.5t-17.5 -80h-135q-22 0 -31 -1.5t-16.5 -9.5t-7.5 -26q0 -19 10.5 -23t40.5 -4h127l-133 -702q-28 -151 -66 -273q-10 -32 -17.5 -51t-25 -46.5t-43.5 -53.5q-68 -68 -137 -68q-75 0 -121 37q32 7 58 34t26 66q0 31 -21 48.5
t-49 17.5q-42 0 -72 -31.5t-30 -79.5q0 -49 35 -81.5t79.5 -44t92.5 -11.5q47 0 93 16t78 37t62 49t43.5 44.5t22.5 29.5q35 56 68.5 160t47 164t17.5 84zM578 883q32 165 49 243t22.5 97.5t16.5 48.5q19 47 58 77t79 40t86 10q102 0 153 -39q-38 -10 -58.5 -38t-20.5 -60
t21 -49t48 -17q42 0 72.5 31.5t30.5 79.5q0 41 -24 69.5t-64 42.5t-79 19.5t-81 5.5q-100 0 -173 -27t-118 -79.5t-70.5 -114t-42.5 -146.5l-37 -194h-135q-22 0 -31 -1.5t-16.5 -9.5t-7.5 -26q0 -19 10.5 -23t40.5 -4h127l-145 -745q-34 -174 -62 -277q-9 -37 -16 -59
t-21 -52.5t-34 -45.5t-45 -15q-51 0 -80 37q43 7 66.5 36.5t23.5 63.5q0 31 -21 48.5t-49 17.5q-41 0 -71.5 -31t-30.5 -82q0 -65 49.5 -100t112.5 -35q65 0 118.5 47.5t93 135.5t67 184.5t50.5 220.5z" />
    <glyph glyph-name="longs_longs_l" unicode="&#x17f;&#x17f;l" horiz-adv-x="1830" 
d="M1759 1243h-2q-9 -17 -33.5 -32t-52.5 -15q-27 0 -48 17t-21 49t20.5 60t58.5 38q-51 39 -157 39q-42 0 -77 -8t-58.5 -18.5t-43.5 -31t-31 -37t-21.5 -44.5t-15 -44.5t-11.5 -46.5q-21 -85 -60 -286l-135 -707q-67 -322 -147 -436q-137 -160 -287 -160q-79 0 -144 34
t-65 103q0 48 30 79.5t72 31.5q28 0 49 -17.5t21 -48.5q0 -28 -19.5 -58.5t-64.5 -39.5q43 -39 121 -39q39 0 76.5 19.5t63.5 48.5t40.5 49t20.5 33q42 93 90 350l131 694h-125q-21 0 -29.5 1t-16 6.5t-7.5 17.5q0 19 8 27.5t17.5 10t31.5 1.5h133q45 228 73 308
q53 150 156 206q84 47 220 47q108 0 172 -29q82 -36 82 -106h2l18 71q9 29 17 35t40 6h31q20 0 28 -0.5t14.5 -5t6.5 -14.5q0 -9 -6 -27l-291 -1163q-14 -57 -14 -105q0 -16 1 -26t5.5 -25.5t16 -23.5t30.5 -8q25 0 46.5 20.5t38 59.5t28 75t24.5 88q9 34 14.5 40.5
t24.5 6.5q31 0 31 -20q-24 -123 -61 -201q-57 -115 -150 -115q-74 0 -123 52t-49 133q0 29 10 69zM438 162l193 993q13 69 28 110.5t21.5 50t19.5 19.5q64 64 162 64q82 0 129 -37q-26 -7 -54 -33t-28 -67q0 -31 21 -48.5t49 -17.5q42 0 72 31.5t30 79.5q0 68 -63.5 102.5
t-157.5 34.5q-79 0 -141.5 -22.5t-101 -55.5t-66.5 -84t-41.5 -94t-24.5 -98l-41 -207h-133q-22 0 -31.5 -1.5t-17.5 -10t-8 -27.5q0 -17 11.5 -21t41.5 -4h125l-143 -745q-23 -121 -64 -281q-7 -31 -14 -52.5t-20.5 -52t-34 -47t-45.5 -16.5q-51 0 -80 37q43 7 66.5 36.5
t23.5 63.5q0 31 -21 48.5t-49 17.5q-41 0 -71.5 -31t-30.5 -82q0 -65 50 -100t112 -35q52 0 97 33.5t78.5 87t63 132t49.5 156.5t39 173z" />
    <glyph glyph-name="uniE021" unicode="&#x1fb0;&#x384;" horiz-adv-x="1024" 
d="M606 1853q13 0 31 -5.5t37.5 -24t19.5 -47.5q0 -8 -1 -13t-2.5 -11t-7 -14l-11 -16t-18 -24t-24.5 -31t-35 -43t-44 -55l-133 -166q-1 -1 -14 5.5t-13 8.5q0 3 76 195.5t80 199.5q21 41 59 41zM156 1372h47q5 -87 58 -150.5t129 -92.5t163 -29q86 0 161.5 28t129.5 91.5
t59 152.5h47q-3 -109 -62.5 -191.5t-147.5 -122.5t-187 -40q-101 0 -188.5 40t-146 122.5t-62.5 191.5zM84 440q0 196 92 329.5t219 133.5q37 0 69 -13t56.5 -32.5t47.5 -53.5t38 -63.5t32 -76t26.5 -78.5t23.5 -82q26 67 46.5 129t31 100t20 71t14.5 50t13 29.5t18 16
t27 3.5h57q25 0 35.5 -5.5t10.5 -20.5q0 -14 -28 -109.5t-76.5 -232.5t-92.5 -228q-8 -24 -8 -28q0 -8 9.5 -32.5t27 -56t50 -55.5t70.5 -24q21 0 36 6.5t20.5 15t12.5 15t15 6.5q27 0 27 -33q0 -49 -32 -95t-85 -46q-114 0 -190 233q-63 -93 -102 -134q-101 -102 -218 -102
q-90 0 -162.5 65.5t-111.5 171t-39 226.5zM137 440q0 -144 70 -236.5t184 -92.5q24 0 46.5 8.5t56 34.5t72 86.5t77.5 150.5q8 24 8 31q0 12 -7.5 47.5t-27 87.5t-47.5 99t-75 80.5t-103 33.5q-115 0 -184.5 -91t-69.5 -239z" />
    <glyph glyph-name="uniE022" unicode="&#x1fb1;&#x384;" horiz-adv-x="1024" 
d="M606 1751q13 0 31 -5.5t37.5 -24.5t19.5 -48q0 -8 -1 -13t-2.5 -11t-7 -14l-11 -16t-18 -24t-24.5 -31t-35 -43t-44 -55l-133 -166q-1 -1 -14 6t-13 9q0 3 76 195.5t80 199.5q21 41 59 41zM186 1157h740v-63h-740v63zM84 440q0 196 92 329.5t219 133.5q37 0 69 -13
t56.5 -32.5t47.5 -53.5t38 -63.5t32 -76t26.5 -78.5t23.5 -82q26 67 46.5 129t31 100t20 71t14.5 50t13 29.5t18 16t27 3.5h57q25 0 35.5 -5.5t10.5 -20.5q0 -14 -28 -109.5t-76.5 -232.5t-92.5 -228q-8 -24 -8 -28q0 -8 9.5 -32.5t27 -56t50 -55.5t70.5 -24q21 0 36 6.5
t20.5 15t12.5 15t15 6.5q27 0 27 -33q0 -49 -32 -95t-85 -46q-114 0 -190 233q-65 -98 -111 -143q-98 -93 -209 -93q-132 0 -222.5 135.5t-90.5 327.5zM137 440q0 -144 70 -236.5t184 -92.5q24 0 46.5 8.5t56 34.5t72 86.5t77.5 150.5q8 24 8 31q0 12 -7.5 47.5t-27 87.5
t-47.5 99t-75 80.5t-103 33.5q-115 0 -184.5 -91t-69.5 -239z" />
    <glyph glyph-name="uniE023" unicode="&#x1fd0;&#x384;" horiz-adv-x="512" 
d="M279 1853q13 0 31 -5.5t37.5 -24t19.5 -47.5q0 -8 -1 -13t-2.5 -11t-7 -14t-11.5 -16t-18.5 -23.5t-24.5 -31t-34.5 -43t-44.5 -55.5l-133 -166q-1 -1 -14 5.5t-13 8.5q0 3 76 195.5t80 199.5q21 41 60 41zM-213 1372h47q5 -87 58 -150.5t129 -92.5t163 -29q63 0 123 17
t110 49t82 85.5t36 120.5h47q-2 -82 -37.5 -150.5t-91.5 -112t-126 -67.5t-143 -24q-101 0 -188.5 40t-146 122.5t-62.5 191.5zM113 864q0 24 9.5 31.5t33.5 7.5h55q32 0 43.5 -6.5t11.5 -28.5q0 -11 -31.5 -302t-31.5 -306q0 -44 24 -66t47 -22q25 0 40.5 14.5t20 31.5
t11 31.5t16.5 14.5q21 0 52.5 -38.5t31.5 -94.5q0 -62 -44 -110t-111 -48q-32 0 -57.5 11.5t-42 27.5t-28.5 44.5t-18.5 51t-10.5 59.5t-4.5 57t-1.5 56t-1 46z" />
    <glyph glyph-name="uniE024" unicode="&#x1fd1;&#x384;" horiz-adv-x="512" 
d="M279 1608q13 0 31 -5.5t37.5 -24.5t19.5 -48q0 -8 -1 -13t-2.5 -11t-7 -14t-11.5 -16t-18.5 -23.5t-24.5 -31t-34.5 -43t-44.5 -55.5l-133 -166q-1 -1 -14 5.5t-13 8.5q0 3 76 196t80 200q21 41 60 41zM-213 1018v67h795v-67h-795zM113 864q0 24 9.5 31.5t33.5 7.5h55
q32 0 43.5 -6.5t11.5 -28.5q0 -11 -31.5 -302t-31.5 -306q0 -44 24 -66t47 -22q25 0 40.5 14.5t20 31.5t11 31.5t16.5 14.5q21 0 52.5 -38.5t31.5 -94.5q0 -62 -44 -110t-111 -48q-32 0 -57.5 11.5t-42 27.5t-28.5 44.5t-18.5 51t-10.5 59.5t-4.5 57t-1.5 56t-1 46z" />
    <glyph glyph-name="uniE025" unicode="&#x1fe0;&#x384;" horiz-adv-x="1024" 
d="M606 1853q13 0 31 -5.5t37.5 -24t19.5 -47.5q0 -8 -1 -13t-2.5 -11t-7 -14l-11 -16t-18 -24t-24.5 -31t-35 -43t-44 -55l-133 -166q-1 -1 -14 5.5t-13 8.5q0 3 76 195.5t80 199.5q21 41 59 41zM111 1391h47q5 -87 58 -150.5t129 -93t163 -29.5q86 0 161.5 28.5t129.5 92
t59 152.5h47q-3 -109 -62.5 -191.5t-147.5 -123t-187 -40.5q-101 0 -188.5 40.5t-146 123t-62.5 191.5zM82 860q0 30 23.5 52t54.5 22q55 0 73.5 -61.5t18.5 -233.5q0 -79 -7 -157t-7 -97q0 -133 68 -227.5t161 -94.5t180.5 84t138 205t50.5 234q0 65 -15 124.5t-32.5 93
t-32.5 61t-15 36.5t6 15t15 6q11 0 26 -15q47 -53 97.5 -186.5t50.5 -271.5q0 -137 -54.5 -246.5t-141 -167.5t-185.5 -58q-65 0 -129.5 28.5t-119.5 81t-91.5 136.5t-42.5 185q0 5 -1.5 47.5t-2.5 58.5t-6 59t-12.5 73t-21 75t-32.5 90q-14 42 -14 49z" />
    <glyph glyph-name="uniE026" unicode="&#x1fe1;&#x384;" horiz-adv-x="1024" 
d="M606 1628q13 0 31 -5.5t37.5 -24.5t19.5 -48q0 -8 -1 -13t-2.5 -11t-7 -14l-11 -16t-18 -24t-24.5 -31t-35 -43t-44 -55l-133 -165q-1 -1 -14 5.5t-13 8.5q0 3 76 195.5t80 199.5q21 41 59 41zM111 1036v68h794v-68h-794zM82 860q0 30 23.5 52t54.5 22q55 0 73.5 -61.5
t18.5 -233.5q0 -79 -7 -157t-7 -97q0 -133 68 -227.5t161 -94.5t180.5 84t138 205t50.5 234q0 65 -15 124.5t-32.5 93t-32.5 61t-15 36.5t6 15t15 6q11 0 26 -15q47 -53 97.5 -186.5t50.5 -271.5q0 -137 -54.5 -246.5t-141 -167.5t-185.5 -58q-65 0 -129.5 28.5t-119.5 81
t-91.5 136.5t-42.5 185q0 5 -1.5 47.5t-2.5 58.5t-6 59t-12.5 73t-21 75t-32.5 90q-14 42 -14 49z" />
    <glyph glyph-name="f_k" unicode="fk" horiz-adv-x="1622" 
d="M1669 293q0 -5 -8.5 -38t-27 -84.5t-38.5 -86.5q-63 -107 -157 -107q-67 0 -119.5 49t-52.5 150q0 35 8 70q6 29 6 51q0 42 -21 75t-55 52.5t-66 30t-65 14.5l-104 -416q-17 -76 -80 -76q-27 0 -42.5 17t-15.5 37q3 22 5 26l192 762h-461l-127 -655q-110 -584 -329 -584
q-61 0 -111.5 34.5t-50.5 100.5q0 51 30.5 82t71.5 31q28 0 49 -17.5t21 -48.5q0 -34 -23.5 -63.5t-66.5 -36.5q26 -37 80 -37q21 0 39 12.5t29 28t22 43.5t15 43t11 43l64 281l143 743h-127q-20 0 -28.5 1t-15.5 6.5t-7 17.5q0 19 8 27.5t17.5 10t31.5 1.5h133
q16 86 24.5 128t25 108.5t31 98.5t39 77.5t53.5 66t69 43.5t90.5 31t114.5 8q108 0 172 -29q82 -36 82 -106h2l18 71q9 29 17.5 35t40.5 6h30q20 0 28.5 -0.5t15 -5t6.5 -14.5q-5 -25 -7 -31l-208 -835q53 26 92 62t129 140q65 77 128.5 122.5t137.5 45.5q63 0 96 -38.5
t33 -84.5q0 -54 -32 -84t-70 -30q-36 0 -54 20.5t-18 44.5q0 14 5 31.5t28.5 41.5t62.5 30q-16 24 -55 24q-30 0 -60.5 -12.5t-53.5 -27t-58 -49t-54.5 -56t-62.5 -70.5q-86 -99 -145 -135q53 -7 98 -21.5t86 -39t64.5 -63.5t23.5 -89q0 -29 -10 -72q-17 -85 -17 -114
q0 -25 3 -42t17 -31.5t40 -14.5t48.5 16.5t37 38t29.5 59t22 63t18 66.5q9 34 14.5 40.5t24.5 6.5q31 0 31 -20zM1044 883l89 360h-3q-9 -17 -33.5 -32t-52.5 -15q-27 0 -48 17t-21 49q0 31 21 59.5t59 38.5q-51 39 -160 39q-76 0 -140 -31t-89 -102q-25 -67 -86 -383h464z
" />
    <glyph glyph-name="uni0410_acutecomb" unicode="&#x410;&#x301;" horiz-adv-x="1521" 
d="M973 1567q0 14 10 22q17 14 237 134q37 20 70 38q35 21 60 21t40 -17.5t15 -40.5q0 -22 -13 -38t-26 -22.5t-35 -14.5q-125 -43 -249 -87q-75 -26 -83 -26q-26 0 -26 31zM121 29q0 22 13.5 28.5t40 9t58 11.5t74 47.5t82.5 105.5l670 1180q2 3 7.5 12.5t9.5 15t11.5 13
t16.5 11t20 3.5q7 0 12.5 -1.5t9.5 -3.5t7 -6.5t4.5 -7.5t2.5 -9.5t1.5 -9t1 -10t0.5 -9.5l88 -1272q3 -46 23.5 -59t83.5 -15h7.5h8h7.5t7.5 -0.5t6.5 -1.5t6 -2.5t5 -3.5t4 -5t2 -6.5t1 -8.5q0 -13 -9.5 -24t-31.5 -11q-10 0 -73.5 3t-137.5 3q-70 0 -122 -1.5t-77.5 -3
t-29.5 -1.5q-14 0 -22.5 9t-8.5 20q0 21 17 28.5t40 6.5t54 5.5t53 24.5q16 14 16 56q0 13 -3 49.5t-8.5 113t-10.5 158.5h-467q-18 -32 -40 -70.5t-35 -60t-28.5 -49t-23.5 -42t-17.5 -32.5t-14 -28.5t-8.5 -21.5t-5.5 -19t-1.5 -15q0 -29 17.5 -44.5t38.5 -18.5t38.5 -10
t17.5 -21q0 -39 -41 -39q-5 0 -28.5 1.5t-64.5 3t-89 1.5q-39 0 -86.5 -3t-54.5 -3q-25 0 -35 6t-10 23zM629 532h426l-45 670z" />
    <glyph glyph-name="ff" unicode="ff" horiz-adv-x="1255" 
d="M1552 1309q0 -52 -31 -82.5t-71 -30.5q-28 0 -49 17.5t-21 48.5q0 37 25 64.5t61 35.5q-33 37 -92 37q-24 0 -43 -13t-30.5 -28.5t-22.5 -47t-16 -50.5t-13 -56q-20 -91 -32.5 -166.5t-28.5 -154.5h158q21 0 29.5 -1t16 -6.5t7.5 -17.5q0 -19 -8.5 -27.5t-18 -10
t-31.5 -1.5h-165l-142 -719q-34 -184 -102 -315q-40 -76 -124.5 -140.5t-180.5 -64.5q-32 0 -64 7t-63 22t-50.5 43t-19.5 65q0 48 30 79.5t72 31.5q28 0 49 -17.5t21 -48.5q0 -37 -25 -64.5t-61 -35.5q40 -37 113 -37q36 0 71 19t59.5 47.5t38 47.5t19.5 32q38 82 86 331
l139 717h-477l-125 -653q-25 -128 -53.5 -227t-68 -183.5t-92 -130t-115.5 -45.5q-62 0 -112 34.5t-50 100.5q0 51 30.5 82t71.5 31q28 0 49 -17.5t21 -48.5q0 -34 -23.5 -63.5t-66.5 -36.5q12 -16 32 -25.5t34 -10.5l14 -1q74 0 112 156q29 107 62 272l149 766h-127
q-20 0 -28.5 1t-15.5 6.5t-7 17.5q0 19 7.5 27.5t16.5 10t31 1.5h135l41 211q10 53 23 94.5t41 92.5t65.5 84t100.5 56t143 23q94 0 157.5 -34.5t63.5 -102.5q0 -48 -30 -79.5t-72 -31.5q-28 0 -49 17.5t-21 48.5q0 41 28 67t54 33q-47 37 -129 37q-68 0 -118 -30.5
t-64 -59.5q-11 -23 -18.5 -45t-30 -118t-53.5 -263h477q42 219 60 292t48 132q30 58 89 97.5t122 39.5q71 0 124.5 -36.5t53.5 -98.5z" />
    <glyph glyph-name="fi" unicode="fi" horiz-adv-x="1150" 
d="M1200 293q-24 -123 -61 -201q-57 -115 -150 -115q-74 0 -123 52t-49 133q0 29 10 69l148 588h-410l-123 -643q-15 -81 -31.5 -148t-38.5 -138t-48 -124t-57.5 -96.5t-71 -66.5t-84.5 -23q-62 0 -112 34.5t-50 100.5q0 51 30.5 82t71.5 31q28 0 49 -17.5t21 -48.5
q0 -34 -23.5 -63.5t-66.5 -36.5q12 -16 32 -25.5t34 -10.5l14 -1q18 0 33 7.5t26.5 24t19.5 28.5t16 37t10.5 33.5t8.5 31.5l68 301l141 731h-127q-20 0 -28.5 1t-15.5 6.5t-7 17.5q0 19 8 27.5t17.5 10t31.5 1.5h133l37 192q20 107 58.5 179.5t96.5 113.5t127.5 58.5
t162.5 17.5q18 0 32.5 -0.5t47 -3.5t57.5 -8t56 -16.5t51.5 -27.5t34.5 -41t14 -57q0 -54 -32 -84t-71 -30q-36 0 -53.5 20t-17.5 45q0 3 0.5 9t5.5 21t13.5 27.5t27 25t43.5 17.5q-58 58 -205 58q-73 0 -125.5 -17t-82.5 -39t-53 -72.5t-32 -86t-25 -111.5l-36 -190h489
q21 0 29 -1t14 -6t6 -16q-4 -14 -6 -26l-156 -623q-14 -57 -14 -105q0 -16 1 -26t5.5 -25.5t16 -23.5t30.5 -8q25 0 46.5 20.5t38 59.5t28 75t24.5 88q9 34 14.5 40.5t24.5 6.5q31 0 31 -20z" />
    <glyph glyph-name="fl" unicode="fl" horiz-adv-x="1204" 
d="M1253 293q-24 -123 -61 -201q-57 -115 -150 -115q-74 0 -123 52t-49 133q0 25 11 69l147 588h-461l-127 -655q-110 -584 -329 -584q-61 0 -111.5 34.5t-50.5 100.5q0 51 30.5 82t71.5 31q28 0 49 -17.5t21 -48.5q0 -34 -23.5 -63.5t-66.5 -36.5q26 -37 80 -37
q21 0 39 12.5t29 28t22 43.5t15 43t11 43l64 281l143 743h-127q-20 0 -28.5 1t-15.5 6.5t-7 17.5q0 19 8 27.5t17.5 10t31.5 1.5h133q16 86 24.5 128t25 108.5t31 98.5t39 77.5t53.5 66t69 43.5t90.5 31t114.5 8q108 0 172 -29q82 -36 82 -106h2l18 71q9 29 17.5 35t40.5 6
h30q20 0 28.5 -0.5t15 -5t6.5 -14.5q0 -6 -7 -27l-290 -1163q-15 -61 -15 -105q0 -83 54 -83q25 0 46.5 20.5t38 59.5t28 75t24.5 88q9 34 14.5 40.5t24.5 6.5q30 0 30 -20zM1044 883l89 360h-3q-9 -17 -33.5 -32t-52.5 -15q-27 0 -48 17t-21 49q0 31 21 59.5t59 38.5
q-51 39 -160 39q-76 0 -140 -31t-89 -102q-25 -67 -86 -383h464z" />
    <glyph glyph-name="ffi" unicode="ffi" horiz-adv-x="1806" 
d="M1855 293q-24 -123 -61 -201q-27 -54 -61.5 -84.5t-87.5 -30.5q-74 0 -123 52t-49 133q0 29 10 69l147 588h-434l-127 -655q-4 -24 -17.5 -84t-47 -164t-68.5 -160q-9 -13 -22.5 -29.5t-43.5 -44.5t-62 -49t-78 -37t-93 -16q-48 0 -92.5 11.5t-79.5 44t-35 81.5
q0 48 30 79.5t72 31.5q28 0 49 -17.5t21 -48.5q0 -39 -26 -66t-58 -34q46 -37 121 -37q69 0 137 68q37 37 54 70t32 81q31 99 66 273l135 702h-498l-125 -651q-23 -124 -50.5 -220.5t-67 -184.5t-93 -135.5t-118.5 -47.5q-63 0 -112.5 35t-49.5 100q0 51 30.5 82t71.5 31
q28 0 49 -17.5t21 -48.5q0 -34 -23.5 -63.5t-66.5 -36.5q29 -37 80 -37q25 0 45 15t34 45.5t21 52.5t16 59q28 103 62 277l145 745h-127q-30 0 -40.5 4t-10.5 23q0 18 7.5 26t16.5 9.5t31 1.5h135l37 194q17 85 42.5 146.5t70.5 114t118 79.5t173 27q42 0 81 -5.5t79 -19.5
t64 -42.5t24 -69.5q0 -48 -30.5 -79.5t-72.5 -31.5q-27 0 -48 17t-21 49t20.5 60t58.5 38q-51 39 -153 39q-46 0 -86 -10t-79 -40t-58 -77q-13 -34 -23 -78t-65 -311h497q42 217 63 290.5t64 129.5q67 85 157 113t210 28q21 0 36.5 -0.5t49.5 -3.5t60 -8t58 -16.5t53 -27
t35.5 -40.5t14.5 -56q0 -57 -33 -86.5t-69 -29.5t-54 20.5t-18 44.5q0 3 0.5 9t5.5 21t13.5 27.5t26.5 25t42 17.5q-54 58 -215 58q-60 0 -103.5 -10t-76 -19.5t-58 -48.5t-40.5 -62t-33 -97.5t-26.5 -117t-28.5 -156.5q-1 -3 -1 -5h514q21 0 29.5 -1t14.5 -6t6 -16
q-5 -14 -7 -26l-155 -623q-15 -61 -15 -105q0 -83 54 -83q25 0 46.5 20.5t38 59.5t28 75t24.5 88q9 34 14.5 40.5t24.5 6.5q30 0 30 -20z" />
    <glyph glyph-name="ffl" unicode="ffl" horiz-adv-x="1830" 
d="M1880 293q-24 -123 -61 -201q-57 -115 -150 -115q-74 0 -123 52t-49 133q0 29 10 69l148 588h-461l-123 -643q-67 -322 -147 -436q-137 -160 -287 -160q-79 0 -144 34t-65 103q0 48 30 79.5t72 31.5q28 0 49 -17.5t21 -48.5q0 -28 -19.5 -58.5t-64.5 -39.5
q43 -39 121 -39q39 0 76.5 19.5t63.5 48.5t40.5 49t20.5 33q37 81 90 350l135 694h-498l-127 -657q-110 -582 -327 -582q-62 0 -112 35t-50 100q0 51 30.5 82t71.5 31q28 0 49 -17.5t21 -48.5q0 -34 -23.5 -63.5t-66.5 -36.5q29 -37 80 -37q25 0 45.5 16.5t34 47t20.5 52
t14 52.5q41 160 64 281l143 745h-125q-21 0 -29.5 1t-16 6.5t-7.5 17.5q0 19 8 27.5t17.5 10t31.5 1.5h133l41 207q11 55 24.5 98t41.5 94t66.5 84t101 55.5t141.5 22.5q94 0 157.5 -34.5t63.5 -102.5q0 -48 -30 -79.5t-72 -31.5q-28 0 -49 17.5t-21 48.5q0 41 28 67t54 33
q-47 37 -129 37q-98 0 -162 -64q-10 -9 -17.5 -20t-21.5 -51t-30 -109l-53 -272h497q17 94 26 141.5t28 119.5t38.5 107t52 79.5t73 64.5t97.5 34.5t130 14.5q108 0 172 -29q82 -36 82 -106h2l18 71q9 29 17 35t40 6h31q20 0 28 -0.5t14.5 -5t6.5 -14.5q0 -9 -6 -27
l-291 -1163q-14 -57 -14 -105q0 -16 1 -26t5.5 -25.5t16 -23.5t30.5 -8q25 0 46.5 20.5t38 59.5t28 75t24.5 88q9 34 14.5 40.5t24.5 6.5q31 0 31 -20zM1671 883l88 360h-2q-9 -17 -33.5 -32t-52.5 -15q-27 0 -48 17t-21 49t20.5 60t58.5 38q-51 39 -157 39q-42 0 -77 -8
t-58.5 -18.5t-43.5 -31t-31 -37t-21.5 -44.5t-15 -44.5t-11.5 -46.5q-11 -37 -60 -286h465z" />
    <glyph glyph-name="longs_t" unicode="&#x17f;t" horiz-adv-x="1253" 
d="M989 883l82 325q19 74 80 74q20 0 37.5 -12t17.5 -41q0 -14 -8 -43l-76 -303h164q20 0 28.5 -1t15.5 -6.5t7 -17.5q0 -19 -8 -27.5t-17.5 -10t-31.5 -1.5h-174l-152 -608q-14 -57 -14 -105q0 -18 1 -28t5.5 -25t17 -22.5t31.5 -7.5q41 0 80 24.5t68.5 65t50.5 80t37 81.5
q12 29 17.5 34t23.5 5q31 0 31 -20q0 -5 -12 -36.5t-38.5 -79t-61.5 -92t-88.5 -76.5t-111.5 -32q-78 0 -126 53.5t-48 131.5q0 29 10 69l146 588h-164q-20 0 -28.5 1t-15.5 6.5t-7 17.5q0 19 8 27.5t17.5 10t31.5 1.5h174zM643 1214l-201 -1038q-15 -81 -31.5 -148
t-38.5 -138t-48 -124t-57.5 -96.5t-71 -66.5t-84.5 -23q-62 0 -112 34.5t-50 100.5q0 51 30.5 82t71.5 31q28 0 49 -17.5t21 -48.5q0 -34 -23.5 -63.5t-66.5 -36.5q12 -16 32 -25.5t34 -10.5l14 -1q18 0 33 7.5t26.5 24t19.5 28.5t16 37t10.5 33.5t8.5 31.5l68 301l141 731
h-127q-20 0 -28.5 1t-15.5 6.5t-7 17.5q0 19 8 27.5t17.5 10t31.5 1.5h133l43 225q67 336 267 336q68 0 118 -36t50 -99q0 -51 -31 -82t-72 -31q-27 0 -48 17t-21 49q0 34 23.5 63.5t66.5 36.5q-30 37 -86 37q-26 0 -46.5 -17t-33 -48.5t-19.5 -57.5t-14 -62z" />
    <glyph glyph-name=".notdef" horiz-adv-x="573" 
 />
    <glyph glyph-name=".null" horiz-adv-x="0" 
 />
    <glyph glyph-name="nonmarkingreturn" horiz-adv-x="682" 
 />
    <glyph glyph-name="space" unicode=" " horiz-adv-x="733" 
 />
    <glyph glyph-name="exclam" unicode="!" horiz-adv-x="628" 
d="M758 1339l-305 -921q-9 -25 -14.5 -30t-22.5 -5q-31 0 -31 25q0 6 4 24l154 911q6 34 21.5 59t32 37t36.5 18.5t28.5 7.5t14.5 1q43 0 67.5 -25.5t24.5 -58.5q0 -14 -10 -43zM455 129q0 -48 -40.5 -88.5t-92.5 -40.5q-39 0 -65 25t-26 63q0 51 41 90t90 39q43 0 68 -27
t25 -61z" />
    <glyph glyph-name="quotedbl" unicode="&#x22;" horiz-adv-x="821" 
d="M725 1378l-164 -512h-61l94 512q4 27 29 46.5t53 19.5t42 -19t7 -47zM918 1378l-164 -512h-62l94 512q4 27 29 46.5t53 19.5t42.5 -19t7.5 -47z" />
    <glyph glyph-name="numbersign" unicode="#" horiz-adv-x="1675" 
d="M1696 711q0 -14 -6 -23.5t-18.5 -12.5t-21.5 -4t-24 -1h-321l-156 -316h379q21 0 32.5 -1.5t23 -11t11.5 -28.5t-11.5 -28.5t-23 -11t-32.5 -1.5h-422l-326 -657q-12 -12 -30 -12q-20 0 -30.5 12.5t-10.5 28.5q0 9 10 34l295 594h-338l-326 -657q-12 -12 -31 -12
q-20 0 -30 12.5t-10 28.5q0 9 10 34l295 594h-279q-15 0 -23.5 1t-21 4t-18.5 12t-6 24q0 19 12.5 28.5t24 11t32.5 1.5h322l155 316h-379q-21 0 -32.5 1.5t-23 11t-11.5 28.5t11.5 28.5t23 11t32.5 1.5h422l326 657q12 12 31 12q20 0 30.5 -12.5t10.5 -28.5q0 -7 -11 -34
l-294 -594h337l326 657q12 12 31 12q20 0 30.5 -12.5t10.5 -28.5q0 -7 -11 -34l-294 -594h278q15 0 24 -1t21.5 -4t18.5 -12.5t6 -23.5zM1212 670h-338l-155 -316h338z" />
    <glyph glyph-name="dollar" unicode="$" horiz-adv-x="1024" 
d="M1190 1147q-11 -95 -47 -133q-31 -33 -80 -33q-34 0 -57.5 20.5t-20.5 59.5q4 46 38.5 77t78.5 31q20 0 35 -6q0 105 -71 158.5t-179 58.5l-139 -557q59 -15 82.5 -22.5t59 -30t66.5 -59.5l4 -5l7 -10.5t8.5 -14t9.5 -18t9.5 -22t9 -26t8 -30.5t5.5 -34.5t2.5 -38.5
t-1.5 -43q-10 -121 -79 -230.5t-176.5 -179.5t-225.5 -79l-23 -95h-63l22 95q-61 3 -112.5 23t-91.5 56.5t-60.5 97t-13.5 138.5q2 19 3.5 28t6 34.5t13 41t22 34t34.5 27.5t48 9q29 0 54.5 -19t22.5 -63q-3 -41 -35 -73.5t-83 -32.5q-23 0 -35 6q-6 -115 62.5 -177.5
t180.5 -68.5l154 612q-83 23 -125 43t-82 64q-79 88 -69 229q4 52 23.5 106.5t57.5 111.5t90 104t127.5 82.5t163.5 48.5q11 3 13 10q1 3 3 13.5t3 13.5l14 57h64l-21 -94q142 -6 219 -86t66 -209zM823 1378q-130 -15 -227.5 -107t-106.5 -202q-14 -181 199 -229zM897 391
q8 110 -48.5 169.5t-146.5 76.5l-147 -594q137 20 235 124.5t107 223.5z" />
    <glyph glyph-name="percent" unicode="%" horiz-adv-x="1675" 
d="M1733 1495q0 -13 -23 -43l-1329 -1540q-22 -27 -43 -27q-16 0 -28.5 12t-12.5 29q0 16 22 41l1174 1362v2q-128 -59 -250 -59q-85 0 -155 26t-113 60q6 -29 6 -80q0 -130 -53.5 -262.5t-140 -218.5t-173.5 -86q-86 0 -140 74t-54 198q0 130 58 259.5t149 211.5t182 82
q77 0 123 -66q114 -153 313 -153q113 0 220.5 51t176.5 131q19 22 28.5 29.5t23.5 7.5q15 0 27 -12t12 -29zM1614 453q0 -92 -31.5 -193.5t-81.5 -184t-118.5 -136.5t-137.5 -54q-88 0 -141 77t-53 196q0 128 57 257t148.5 212.5t185.5 83.5q48 0 83.5 -26t53.5 -67
t26.5 -82.5t8.5 -82.5zM920 1288q0 51 -10 95t-36 76t-65 32q-62 0 -118 -67.5t-91 -162.5t-55.5 -188t-20.5 -153q0 -26 3.5 -50.5t12.5 -52t29 -44.5t49 -17q64 0 135 80t119 205.5t48 246.5zM1550 463q0 90 -28 146.5t-80 56.5q-64 0 -121 -69.5t-91.5 -166t-54.5 -188.5
t-20 -148q0 -20 2.5 -40.5t10.5 -52t29 -51.5t52 -20q47 0 101 48t98 122t73 172t29 191z" />
    <glyph glyph-name="ampersand" unicode="&#x26;" horiz-adv-x="1570" 
d="M1503 637q0 -47 -9.5 -102.5t-34 -122t-61 -130t-94.5 -123.5t-130 -105t-173.5 -72t-218.5 -27q-123 0 -224 33t-165.5 89.5t-99.5 129t-35 153.5q0 75 46.5 196t144.5 228l6 13q0 4 -4 14q-19 60 -19 123q0 95 37.5 192t98 171.5t140.5 121.5t160 47q101 0 159 -68
t58 -167q0 -21 -3 -42t-12.5 -51.5t-33 -49.5t-59.5 -19t-54 20.5t-18 45.5q0 4 0.5 11t7 24t17.5 30t35 24t57 11q-1 53 -16 91.5t-39.5 58t-48.5 28t-50 8.5q-68 0 -128.5 -55.5t-99.5 -139.5t-63 -177t-26 -175q106 70 201 70q57 0 93 -33t36 -90q0 -72 -59.5 -129
t-137.5 -57q-43 0 -84.5 16.5t-57 28t-24.5 20.5q-38 -68 -71 -183.5t-33 -197.5q0 -71 23 -128t60 -92t87 -58t99 -32t101 -9q111 0 205 26.5t159.5 69.5t118 101t83.5 117t52 120.5t28.5 109.5t7.5 87q0 149 -107 287q-52 -32 -75 -47t-58.5 -39t-50 -37.5t-34.5 -34.5
t-27.5 -38t-13 -39t-5.5 -48q0 -29 6 -45q11 29 36 47t56 18q27 0 46.5 -15.5t19.5 -47.5q0 -38 -27.5 -67t-70.5 -29q-55 0 -92 39.5t-37 105.5q0 51 21 95.5t62 82.5t72.5 60t81.5 53q49 31 82 54.5t81 65t85.5 94.5t62.5 116q-69 3 -69 63q0 43 30 69.5t66 26.5
q27 0 47.5 -16.5t20.5 -46.5q0 -17 -14 -59t-41.5 -101t-82.5 -126t-123 -116q117 -153 117 -319zM819 831q0 35 -19.5 51.5t-47.5 16.5q-31 0 -62.5 -14.5t-57 -37.5t-41 -39.5t-26.5 -31.5q16 -43 47.5 -69.5t75.5 -26.5q55 0 93 46.5t38 104.5z" />
    <glyph glyph-name="quotesingle" unicode="'" horiz-adv-x="628" 
d="M725 1378l-164 -512h-61l94 512q4 27 29 46.5t53 19.5t42 -19t7 -47z" />
    <glyph glyph-name="parenleft" unicode="(" horiz-adv-x="837" 
d="M555 -492q0 -20 -20 -20q-23 0 -77.5 79.5t-90.5 176.5q-56 154 -56 352q0 90 14 196.5t45 235.5t90.5 274t139.5 277q50 82 111 158.5t113 128.5t99 92t76 59t37 19q21 0 21 -20q0 -6 -31 -37q-140 -119 -252 -285.5t-177 -327.5t-108.5 -330.5t-59 -293.5t-15.5 -219
q0 -133 26 -252.5t101 -233.5q6 -9 9.5 -16t3.5 -10z" />
    <glyph glyph-name="parenright" unicode=")" horiz-adv-x="837" 
d="M782 928q0 -90 -14 -196.5t-45 -235.5t-90 -274t-139 -277q-50 -82 -111 -158.5t-113.5 -128.5t-99.5 -92t-76 -59t-37 -19q-20 0 -20 20q0 6 31 37q140 119 252 285.5t177 327.5t108.5 330.5t59 293.5t15.5 219q0 133 -26 252.5t-101 233.5q-6 9 -9.5 16t-3.5 10l-1 3
q0 20 20 20q23 0 77.5 -79.5t90.5 -176.5q55 -152 55 -352z" />
    <glyph glyph-name="asterisk" unicode="*" 
d="M1100 915q0 -24 -21 -44.5t-45 -20.5q-19 0 -41 22l-184 181l-55 -330q-2 -13 -6 -26t-20 -28.5t-40 -15.5q-20 0 -31.5 10.5t-11.5 26.5q0 1 8 33l111 330l-289 -191q-20 -12 -35 -12q-19 0 -30 11t-11 30q0 38 50 61l307 144l-232 141q-18 11 -23 17.5t-5 19.5
q0 24 19.5 44.5t45.5 20.5q12 0 18.5 -4t20.5 -18l184 -180l56 329q10 70 67 70q16 0 28.5 -10.5t12.5 -26.5q0 -1 -8 -33l-109 -329l287 190q18 12 35 12q18 0 28 -10t11.5 -17.5t1.5 -13.5q0 -41 -49 -61l-307 -143l231 -140q31 -19 31 -39z" />
    <glyph glyph-name="plus" unicode="+" horiz-adv-x="1570" 
d="M1540 512q0 -19 -12 -28.5t-23.5 -11t-31.5 -1.5h-527l-133 -537q-4 -15 -7.5 -24t-13.5 -18t-24 -9q-16 0 -28.5 11.5t-12.5 31.5l8 39l127 506h-508q-12 0 -18.5 0.5t-17 2.5t-16.5 6t-10.5 12t-4.5 20q0 19 12 28.5t23.5 11t31.5 1.5h529l133 537q11 51 45 51
q18 0 29.5 -11.5t11.5 -29.5q0 -10 -8 -39l-127 -508h506q12 0 18.5 -0.5t17 -2.5t16.5 -6t10.5 -12t4.5 -20z" />
    <glyph glyph-name="comma" unicode="," horiz-adv-x="628" 
d="M459 96q0 -69 -26.5 -144t-65 -134.5t-80 -109t-73.5 -76.5t-44 -27q-9 0 -14.5 7t-5.5 13q0 9 26 35q81 69 144.5 165t85.5 206q-39 -31 -84 -31q-38 0 -64.5 20.5t-26.5 65.5q0 48 38 89.5t96 41.5q47 0 70.5 -33.5t23.5 -87.5z" />
    <glyph glyph-name="hyphen" unicode="-" horiz-adv-x="733" 
d="M678 408q-4 -18 -13.5 -21.5t-41.5 -3.5h-394q-32 0 -42.5 4t-10.5 23t14 61q6 20 14 23.5t40 3.5h399q20 0 28.5 -1t15.5 -6.5t7 -17.5q0 -17 -16 -65z" />
    <glyph glyph-name="period" unicode="." horiz-adv-x="628" 
d="M455 129q0 -47 -41 -88t-92 -41q-40 0 -65.5 24.5t-25.5 63.5q0 50 42 89.5t92 39.5q41 0 65.5 -26t24.5 -62z" />
    <glyph glyph-name="slash" unicode="/" 
d="M1262 1495q-1 -12 -15 -39l-1120 -1931q-21 -37 -47 -37q-15 0 -27 12t-12 29q0 12 14 39l1121 1931q21 37 47 37q15 0 27 -12t12 -29z" />
    <glyph glyph-name="zero" unicode="0" 
d="M975 336q-48 -106 -108.5 -184t-122.5 -119t-118.5 -59.5t-111.5 -18.5q-56 0 -101 16.5t-73 40.5t-48.5 60.5t-30 66t-15 68.5t-6 56t-0.5 40q0 139 57 365t131 366q88 167 202.5 248.5t231.5 81.5q54 0 98 -15.5t72 -39t49 -57.5t31 -64.5t16.5 -67.5t7.5 -58.5
t1 -45.5q0 -124 -49.5 -330.5t-112.5 -349.5zM778 201q66 146 149 478t83 447q0 93 -45.5 143t-112.5 50q-63 0 -133.5 -47t-122.5 -152q-56 -113 -140.5 -454.5t-84.5 -464.5q0 -108 46 -154.5t107 -46.5q75 0 146 61t108 140z" />
    <glyph glyph-name="one" unicode="1" 
d="M854 39q0 -39 -41 -39q-45 0 -137 3t-137 3q-44 0 -134.5 -3t-134.5 -3q-30 0 -30 25q0 19 8 27.5t17 9.5t32 1h16q80 0 118.5 9t52 25t22.5 53l242 970q-62 -47 -126 -65.5t-102 -18.5q-33 0 -33 25q0 16 7.5 25.5t11.5 10.5t14 3q27 3 45.5 6t60.5 17.5t77.5 36.5
t84 66.5t93.5 104.5q19 23 24.5 28t14.5 5q10 0 17 -7t7 -18q-4 -20 -6 -26l-293 -1170q-6 -24 -6 -39q0 -20 10 -25.5t47 -10.5q67 -5 88 -5h17q22 0 30 -0.5t15.5 -6t7.5 -17.5z" />
    <glyph glyph-name="two" unicode="2" 
d="M1055 334q0 -8 -8.5 -36.5t-24.5 -72t-44 -90t-62.5 -87t-84.5 -67t-106 -26.5q-38 0 -78 14.5t-62 28t-59 39.5t-55.5 37t-53 25t-65.5 14q-41 0 -70 -39.5t-44 -91.5q-5 -18 -11 -22.5t-24 -4.5q-31 0 -31 20q3 16 10.5 45t49.5 113t106 160q31 38 62 68.5t70 58
t61.5 41.5t70.5 43q83 49 146.5 102.5t119 125t85.5 163.5t30 199q0 117 -53.5 171t-126.5 54q-60 0 -116.5 -29t-99.5 -76t-79.5 -104t-59.5 -115.5t-36 -109t-13 -84.5q0 -39 12 -53.5t33 -14.5q44 0 84 34.5t64 82t38.5 92t14.5 68.5q0 33 -20 75l-2 13q0 9 6.5 15.5
t15.5 6.5q19 0 32 -37.5t13 -70.5q0 -32 -16.5 -84t-46 -107t-79 -94t-106.5 -39q-32 0 -54.5 13.5t-32.5 36t-13.5 41.5t-3.5 38q0 42 19.5 108t60 142.5t94.5 142.5t132.5 110t164.5 44q62 0 118 -21.5t101.5 -62.5t72.5 -109t27 -153q0 -65 -14 -120.5t-46.5 -105
t-70.5 -90.5t-101 -86t-121.5 -81t-147.5 -86q-34 -20 -49 -29t-58.5 -40t-73 -59t-68 -73.5t-67.5 -95.5q12 6 45 6q55 0 217 -35q103 -25 170 -25q48 0 91 22t73 57.5t50 70.5t32 71q6 25 11 30t24 5q31 0 31 -20z" />
    <glyph glyph-name="three" unicode="3" 
d="M983 416q0 -120 -75 -227.5t-194.5 -170.5t-246.5 -63q-125 0 -198.5 76t-73.5 186q0 22 2.5 42t12 50.5t33.5 49t60 18.5q33 0 51.5 -19.5t18.5 -46.5q0 -34 -28.5 -68.5t-86.5 -29.5q3 -106 63.5 -159.5t145.5 -53.5q68 0 134 33.5t110 87.5q48 55 78.5 140.5
t38.5 138.5t8 83q0 170 -158 170h-57q-30 0 -41 3.5t-11 17.5q0 21 7 30.5t16 11t31 1.5h47q69 0 126 22t93 55t63.5 77.5t41.5 84.5t22 82t10 63t2 34q0 52 -16 90t-43 57.5t-55.5 28t-59.5 8.5q-96 0 -186.5 -54.5t-144.5 -137t-54 -162.5q0 -76 53 -76q46 0 85.5 38
t39.5 89q0 14 -4 28.5t-8 22.5l-4 8q-8 16 -8 23q0 9 6.5 15.5t15.5 6.5q18 0 32.5 -35t14.5 -67q0 -73 -54.5 -123.5t-115.5 -50.5q-55 0 -84.5 37t-29.5 94q0 65 36.5 134t96.5 125.5t144.5 93t172.5 36.5q125 0 209 -74t84 -200q0 -124 -89.5 -243t-242.5 -171
q54 -25 90.5 -63.5t50.5 -80.5t18.5 -67.5t4.5 -48.5z" />
    <glyph glyph-name="four" unicode="4" 
d="M971 29q0 -23 -70 -41.5t-121 -18.5q-29 0 -41 2l-75 -299q-18 -69 -78 -69q-20 0 -38 12t-18 41q0 8 9 43l75 305l-120 47q-72 23 -150 23q-57 0 -91 -5t-44.5 -10.5t-22.5 -15.5q-6 -4 -18 -13t-19 -14t-15.5 -9.5t-12.5 -4.5q-11 0 -21 13.5t-10 21.5q0 21 29 43
t51 31q8 6 24.5 20t56 52t80 82.5t93.5 114t98 142.5q189 310 303 740q7 26 11.5 40t14 30.5t24.5 24t36 7.5q20 0 38 -12t18 -41q-3 -14 -8 -39t-28.5 -104t-53.5 -159.5t-85.5 -195.5t-121.5 -222t-164 -229.5t-211 -226.5q27 2 55 2q83 0 156 -22q20 -7 29.5 -12
t95.5 -35l86 340q4 18 8 29.5t13 27t24 23.5t37 8q8 0 18 -2.5t23.5 -16t13.5 -37.5q0 -10 -8 -41l-90 -364q10 -2 32 -2q65 0 123 22l29 8q12 0 21.5 -12.5t9.5 -21.5z" />
    <glyph glyph-name="five" unicode="5" 
d="M1020 543q0 -113 -47.5 -222.5t-122.5 -189t-172.5 -128t-194.5 -48.5q-126 0 -195 82.5t-69 202.5q0 31 4 58t15.5 58.5t37 50.5t62.5 19q35 0 54.5 -19.5t19.5 -50.5q0 -39 -30 -72.5t-79 -33.5q-14 0 -20 2q1 -57 15 -101t35 -69.5t48.5 -42t52 -22t49.5 -5.5
q43 0 88.5 17t101 66.5t97.5 127.5q34 65 68 197t34 213q0 86 -31.5 134t-92.5 48q-158 0 -277 -141l-5 -5l-5 -5l-4 -4t-4.5 -3.5t-4 -1.5t-5 -1.5t-5.5 -0.5q-26 0 -26 25q2 21 4 27l155 622q9 35 25 35q9 0 29 -10q97 -54 229 -54q134 0 264 58q15 6 25 6q6 0 12 -5
t6 -14q0 -10 -20 -32.5t-58.5 -51t-86.5 -55t-112 -44t-128 -17.5q-77 0 -127 18l-27 6q-4 -1 -10 -24l-94 -377q121 94 254 94q85 0 147.5 -46t91.5 -116.5t29 -154.5z" />
    <glyph glyph-name="six" unicode="6" 
d="M1038 553q0 -112 -45 -222.5t-117 -192t-166.5 -132.5t-189.5 -51q-56 0 -101 18.5t-73 44.5t-48.5 65.5t-30 71.5t-15 72.5t-6 58t-0.5 38.5q0 61 10.5 139.5t33 177t68.5 204.5t107 193q109 156 241 241t259 85q93 0 145.5 -43t52.5 -119q0 -61 -27.5 -98t-78.5 -37
q-36 0 -53 20t-17 46q0 9 3.5 22t13.5 31.5t34 31.5t58 13q-22 82 -133 82q-85 0 -162.5 -52.5t-134.5 -125.5q-67 -86 -110 -189.5t-81 -251.5q121 178 277 178q66 0 118 -23.5t82.5 -59t51 -80.5t27.5 -83.5t7 -72.5zM778 197q32 61 72.5 222t40.5 230q0 78 -37 129
q-16 23 -38.5 34.5t-36 13t-34.5 1.5q-77 0 -142 -50t-105 -124t-68 -163t-39.5 -163t-11.5 -128q0 -26 6 -54.5t20.5 -60.5t45 -52t73.5 -20q80 0 144.5 52t109.5 133z" />
    <glyph glyph-name="seven" unicode="7" 
d="M1280 1343q0 -7 -18 -34q-160 -246 -258 -459q-164 -350 -269 -760q-7 -33 -13.5 -52t-19 -41t-32.5 -32t-49 -10t-50.5 18t-21.5 50q0 13 15 73.5t71 210.5t139 316q52 102 87.5 164t189.5 315q-48 -23 -93 -23q-30 0 -53.5 14.5t-46.5 55.5q-28 46 -42 59t-42 13
q-35 0 -76.5 -12.5t-99.5 -45t-122 -105.5t-118 -177q-5 -8 -7 -11t-7.5 -4.5t-17.5 -1.5q-31 0 -31 21q0 5 12 30l197 418q11 22 16.5 26.5t22.5 4.5q30 0 30 -21q0 -6 -47 -108q136 129 275 129q24 0 41.5 -7.5t27.5 -18t16.5 -31.5t9 -37t5.5 -45q5 -58 15 -79.5
t42 -21.5q59 0 116 50t120 143l31 41q8 6 26 6q29 0 29 -21z" />
    <glyph glyph-name="eight" unicode="8" 
d="M1012 426q0 -116 -69.5 -225.5t-185 -177.5t-241.5 -68q-134 0 -225.5 77.5t-91.5 203.5q0 33 6.5 67t30 85.5t63 98.5t114 102t173.5 101q-94 84 -107 101q-49 66 -49 157q0 101 60 197.5t160.5 157.5t209.5 61q114 0 194.5 -65t80.5 -177q0 -113 -84 -212t-238 -173
q126 -110 139 -125q60 -80 60 -186zM1042 1126q0 87 -52 137t-136 50q-118 0 -214.5 -84.5t-96.5 -186.5q0 -76 57 -124l156 -132l18 -14q5 0 32.5 15.5t67 47.5t77.5 73t64.5 99.5t26.5 118.5zM891 340q0 43 -16 78t-31.5 51t-50.5 47l-168 141q-148 -70 -236 -190
t-88 -236q0 -98 61.5 -158.5t159.5 -60.5q92 0 178 47.5t138.5 124t52.5 156.5z" />
    <glyph glyph-name="nine" unicode="9" 
d="M1133 999q0 -46 -8.5 -116.5t-30.5 -176t-73 -226.5t-122 -222q-39 -56 -86.5 -106t-107 -96t-130.5 -73.5t-141 -27.5q-99 0 -160 42.5t-61 121.5q0 58 27.5 95.5t78.5 37.5q36 0 53 -20t17 -46q0 -8 -3 -19.5t-12 -30.5t-32 -33t-57 -17q34 -74 153 -74q139 0 269 160
q67 85 110.5 188t83.5 267q-117 -178 -276 -178q-67 0 -120 25t-83.5 61.5t-50 82.5t-26.5 83t-7 69q0 148 75.5 286.5t198.5 223t254 84.5q55 0 98.5 -18t71 -44t47.5 -65t29 -70.5t14.5 -71.5t6 -58t0.5 -38zM999 1126q0 48 -12 88t-44 69.5t-81 29.5q-51 0 -97 -21.5
t-78.5 -55.5t-50.5 -58.5t-32 -49.5q-40 -71 -79.5 -231t-39.5 -225q0 -16 1 -30.5t9 -44t22 -50t43.5 -37t70.5 -16.5q80 0 146 52t105.5 128t67 166.5t38.5 163t11 122.5z" />
    <glyph glyph-name="colon" unicode=":" horiz-adv-x="628" 
d="M455 129q0 -47 -41 -88t-92 -41q-40 0 -65.5 24.5t-25.5 63.5q0 50 42 89.5t92 39.5q41 0 65.5 -26t24.5 -62zM621 795q0 -48 -41 -88.5t-93 -40.5q-41 0 -65.5 25.5t-24.5 62.5q0 48 40.5 88.5t92.5 40.5q41 0 66 -25.5t25 -62.5z" />
    <glyph glyph-name="semicolon" unicode=";" horiz-adv-x="628" 
d="M446 109q0 -86 -37.5 -181.5t-86.5 -163.5t-93 -113.5t-59 -45.5q-9 0 -14.5 6.5t-5.5 15.5q0 13 14 21q176 170 225 370q-36 -18 -67 -18q-38 0 -64.5 20.5t-26.5 65.5q0 48 38 89.5t96 41.5q81 0 81 -108zM621 795q0 -48 -41 -88.5t-93 -40.5q-41 0 -65.5 25.5
t-24.5 62.5q0 48 40.5 88.5t92.5 40.5q41 0 66 -25.5t25 -62.5z" />
    <glyph glyph-name="less" unicode="&#x3c;" horiz-adv-x="1593" 
d="M1411 -41q-5 -17 -19.5 -29t-31.5 -12q-10 0 -33 14l-1001 535q-34 17 -27 45q4 17 15.5 26.5t33.5 18.5l1268 535q31 14 41 14q17 0 26 -12t5 -29q-4 -16 -15.5 -25.5t-34.5 -19.5l-1202 -508l948 -508q18 -11 24.5 -20t2.5 -25z" />
    <glyph glyph-name="equal" unicode="=" horiz-adv-x="1570" 
d="M1491 313q0 -15 -5.5 -24t-17.5 -12t-20.5 -4t-24.5 -1h-1118q-15 0 -23.5 1t-21 4t-18.5 12t-6 24q0 19 12.5 28.5t24 11t32.5 1.5h1118q16 0 24.5 -1t20.5 -4t17.5 -12t5.5 -24zM1591 711q0 -19 -12.5 -28.5t-24 -11t-32.5 -1.5h-1119q-21 0 -32.5 1.5t-23 11
t-11.5 28.5t11.5 28.5t23 11t32.5 1.5h1119q15 0 23.5 -1t21 -4t18.5 -12t6 -24z" />
    <glyph glyph-name="greater" unicode="&#x3e;" horiz-adv-x="1593" 
d="M1550 512q-4 -17 -16.5 -26.5t-34.5 -18.5l-1268 -535q-31 -14 -41 -14q-17 0 -26 12t-4 29q6 26 51 45l1202 508l-948 508q-35 18 -29 45q5 17 19.5 29t31.5 12q10 0 33 -14l1002 -535q35 -17 28 -45z" />
    <glyph glyph-name="question" unicode="?" 
d="M1128 1212q0 -47 -10 -90.5t-30.5 -80t-39.5 -64.5t-50 -57.5t-48.5 -44t-46.5 -37.5l-160 -129q-48 -38 -68.5 -54.5t-46 -39.5t-33.5 -38.5t-14 -35t-6 -43.5q0 -28 13 -49t39 -21q48 0 95.5 39t68.5 100q6 21 11 26t23 5q31 0 31 -20q0 -49 -69 -122t-160 -73
q-60 0 -91.5 43t-31.5 100q0 37 11 71.5t22.5 56t37 49t35 35.5t35.5 30l248 195q34 28 52.5 45.5t49.5 55t46.5 82t15.5 95.5q0 86 -50 133t-124 47q-122 0 -229 -106t-165 -266q41 0 59.5 -20t18.5 -46q0 -40 -30 -70t-70 -30q-27 0 -48.5 15t-21.5 50q0 24 14.5 69.5
t41.5 104t70 118.5t94.5 111t121.5 83t144 32q111 0 178 -71.5t67 -182.5zM664 129q0 -48 -41 -88.5t-93 -40.5q-38 0 -64 25t-26 63q0 51 41 90t90 39q43 0 68 -27t25 -61z" />
    <glyph glyph-name="at" unicode="@" horiz-adv-x="1570" 
d="M1446 139q0 -21 -116.5 -60.5t-186.5 -55.5q-182 -46 -348 -46q-118 0 -212 44t-153 118.5t-90 169t-31 199.5q0 174 72.5 346t188.5 301t268 209t303 80q98 0 184 -36t151 -102.5t102.5 -168.5t37.5 -226q0 -177 -87 -414l-1 -3q-86 -232 -242 -232q-21 0 -42 5
t-47.5 17.5t-44 41t-19.5 69.5q-140 -133 -279 -133q-121 0 -202 88.5t-81 235.5q0 107 44 212.5t113.5 184t160 127.5t180.5 49q163 0 231 -174h54q20 0 28 -1t13.5 -5t5.5 -14q-2 -21 -4 -27l-133 -539q-1 -4 -3 -12.5t-3 -16t-1 -12.5q0 -23 7.5 -35.5t14 -14t15.5 -1.5
q63 0 116.5 80.5t82.5 190t45 202.5t16 138q0 208 -113.5 344.5t-301.5 136.5q-135 0 -274 -76t-247 -198.5t-176.5 -288t-68.5 -332.5q0 -99 27 -185t78.5 -152.5t133.5 -105t185 -38.5q262 0 528 122q25 11 35 13t35 2q32 0 41.5 -3.5t9.5 -17.5zM1167 549l82 332l6 28
q0 16 -8.5 45t-27 67.5t-58 65.5t-92.5 27q-85 0 -172.5 -83.5t-144 -215.5t-56.5 -262q0 -39 8 -78.5t25 -79t51 -64t80 -24.5q95 0 193 88t114 154z" />
    <glyph glyph-name="A" unicode="A" horiz-adv-x="1521" 
d="M1417 37q0 -17 -7.5 -26t-14 -10t-15.5 -1q-35 0 -107 3t-108 3q-39 0 -118 -3t-117 -3q-31 0 -31 25q0 18 8 27t15.5 10t23.5 1q65 0 101 17.5t36 48.5l-22 340h-467l-148 -258q-28 -54 -28 -78q0 -10 2.5 -19t7 -15t10 -11.5t12.5 -9t13 -6t13.5 -4.5t11.5 -2.5
t10 -1.5l6 -1q2 0 6 -0.5t6 -1t5.5 -1t5 -1.5t4 -3t3.5 -4t2 -5.5t1 -7.5q0 -39 -37 -39q-30 0 -94.5 3t-96.5 3q-27 0 -83 -3t-81 -3q-24 0 -24 25q1 36 24 38q36 2 58.5 6.5t57.5 20t68 51t64 90.5l680 1199q10 20 20 28t33 8q24 0 29.5 -8t7.5 -43l88 -1282
q3 -43 22.5 -56.5t94.5 -13.5q21 0 28.5 -0.5t14 -6.5t6.5 -19zM1057 532l-47 670l-381 -670h428z" />
    <glyph glyph-name="B" unicode="B" horiz-adv-x="1441" 
d="M1386 449q0 -79 -42 -160t-111.5 -144.5t-168 -104t-204.5 -40.5h-676q-20 0 -28.5 1t-15.5 6.5t-7 17.5q0 18 8 27t17 10t30 1q70 0 102.5 8t44.5 24t21 55l277 1112q8 29 8 38q0 23 -29 29t-90 6q-23 0 -32.5 1t-16 6.5t-6.5 17.5q0 19 8 27.5t17 10t30 1.5h637
q160 0 252 -81t92 -198q0 -124 -110 -236.5t-291 -152.5q119 -15 201.5 -88.5t82.5 -193.5zM1323 1133q0 23 -3.5 45.5t-15.5 52.5t-31.5 51.5t-56.5 37t-86 15.5h-241q-26 0 -35.5 -0.5t-23.5 -3.5t-19 -11.5t-11 -21.5t-12 -36l-126 -512h270q111 0 203 60t140 147t48 176
zM1204 475q0 22 -2.5 45t-14.5 58.5t-32 61.5t-60 45.5t-94 19.5h-352l-143 -576q0 -1 -4 -19.5t-4 -25.5q0 -9 2.5 -12.5t16.5 -6t44 -2.5h254q108 0 199 61.5t140.5 156t49.5 194.5z" />
    <glyph glyph-name="C" unicode="C" horiz-adv-x="1466" 
d="M1659 1395l-125 -498q-6 -25 -12.5 -31t-24.5 -6q-31 0 -31 21q0 1 3 21.5t5.5 50.5t2.5 53q0 71 -15.5 134.5t-48 118.5t-91 88t-136.5 33q-124 0 -254.5 -73t-231.5 -209q-109 -150 -162 -348t-53 -326q0 -105 30.5 -185.5t82 -127.5t112.5 -70t128 -23q53 0 110.5 16
t119.5 53t117.5 91t104 136t78.5 182q6 16 33 16q31 0 31 -20q0 -32 -25.5 -93.5t-79.5 -138t-125.5 -144.5t-175.5 -114.5t-217 -46.5q-217 0 -359.5 150t-142.5 397q0 176 76 349.5t196.5 302.5t277.5 209.5t312 80.5q201 0 310 -174l129 151q8 10 16 16t12 7h4
q9 0 14.5 -5t7.5 -11l1 -5q0 -12 -4 -28z" />
    <glyph glyph-name="D" unicode="D" horiz-adv-x="1546" 
d="M1587 897q0 -135 -43.5 -269.5t-119.5 -246t-173.5 -198t-212.5 -135t-229 -48.5h-629q-20 0 -28.5 1t-15.5 6.5t-7 17.5q0 18 8 27t17 10t30 1q70 0 102.5 8t44.5 24t21 55l277 1112q8 29 8 38q0 23 -29 29t-90 6q-23 0 -32.5 1t-16 6.5t-6.5 17.5q0 19 8 27.5t17 10
t30 1.5h639q196 0 313 -140t117 -362zM1417 975q0 78 -18 140t-49 102.5t-73.5 67.5t-88.5 38.5t-98 11.5h-199q-54 0 -70.5 -10.5t-29.5 -62.5l-283 -1133q0 -1 -4 -19.5t-4 -25.5q0 -9 2.5 -12.5t16.5 -6t44 -2.5h211q118 0 224.5 55.5t185.5 147.5q61 72 109 178.5
t73.5 209.5t38 186t12.5 135z" />
    <glyph glyph-name="E" unicode="E" horiz-adv-x="1388" 
d="M1407 506q-6 -21 -8 -25l-182 -448q-11 -23 -19 -28t-39 -5h-981q-20 0 -28.5 1t-15.5 6.5t-7 17.5q0 18 8 27t17 10t30 1q70 0 102.5 8t44.5 24t21 55l275 1097l8 47q0 12 -4 18t-31.5 11.5t-83.5 5.5q-34 0 -44.5 4t-10.5 23q0 18 7.5 26t16.5 9.5t31 1.5h956
q35 0 44.5 -8.5t5.5 -45.5l-47 -362q-3 -29 -8.5 -37t-26.5 -8q-31 0 -31 24q0 15 4 35q10 82 10 131q0 114 -56 160.5t-216 46.5h-256q-54 0 -70.5 -10t-27.5 -59l-125 -504h166q121 0 167 38.5t76 151.5q11 40 18 45q6 4 21 4q33 0 33 -24q-4 -21 -6 -27l-113 -450
q-6 -27 -12.5 -34t-24.5 -7q-32 0 -32 24l4 23q18 66 18 104q0 31 -9 48t-43.5 28.5t-101.5 11.5h-178l-141 -563q0 -1 -4 -19.5t-4 -25.5q0 -9 2.5 -12.5t16.5 -6t44 -2.5h250q61 0 110.5 5.5t91 20t73.5 31t61 46t50 56.5t45 73t41.5 84t43.5 100q13 35 19.5 42t23.5 7
q31 0 31 -22z" />
    <glyph glyph-name="F" unicode="F" horiz-adv-x="1337" 
d="M1448 977q-3 -29 -8.5 -37t-26.5 -8q-31 0 -31 24l2 33q13 102 13 135q0 75 -20 117t-78 65t-166 23h-240q-54 0 -70.5 -10t-27.5 -59l-131 -531h159q64 0 104 9.5t66 35.5t40.5 59t29.5 93q8 29 14 36t25 7q31 0 31 -23q0 -8 -5 -28l-112 -451q-7 -28 -14 -34.5
t-25 -6.5q-31 0 -31 25q0 7 6 28q17 70 17 101q0 46 -29.5 66t-122.5 20h-170l-129 -516q-8 -31 -8 -44q0 -17 5 -24t38.5 -13t105.5 -6h21q21 0 29 -0.5t15 -6t7 -17.5q0 -18 -8 -27.5t-15 -10.5t-20 -1q-46 0 -140.5 3t-141.5 3q-41 0 -125 -3t-125 -3q-29 0 -29 25
q0 18 8 27t17 10t30 1q70 0 102.5 8t44.5 24t21 55l275 1097l8 47q0 12 -4 18t-31.5 11.5t-83.5 5.5q-34 0 -44.5 4t-10.5 23q0 18 7.5 26t16.5 9.5t31 1.5h932q35 0 44 -8t5 -46z" />
    <glyph glyph-name="G" unicode="G" horiz-adv-x="1585" 
d="M1573 532q0 -13 -3 -21t-12 -11t-14.5 -3.5t-19.5 -0.5q-62 0 -79.5 -13.5t-27.5 -54.5l-98 -391q-9 -35 -25 -35t-43.5 41.5t-42.5 81.5q-51 -66 -159 -118t-238 -52q-221 0 -362.5 151t-141.5 396q0 176 76 349.5t196.5 302.5t277.5 209.5t312 80.5q201 0 310 -174
l129 151q8 10 16 16t12 7h4q9 0 14.5 -5t7.5 -11l1 -5q0 -12 -4 -28l-125 -498q-6 -25 -12.5 -31t-24.5 -6q-31 0 -31 21q0 1 3 21.5t5.5 50.5t2.5 53q0 71 -15.5 134.5t-48 118.5t-91 88t-136.5 33q-124 0 -254.5 -73t-231.5 -209q-76 -104 -128 -248t-69.5 -248
t-17.5 -176q0 -195 104 -301.5t259 -106.5q68 0 142.5 25t135.5 80q44 41 60 80t51 182q16 57 16 70q0 20 -11.5 26t-47.5 11q-54 4 -88 4h-16q-17 0 -22.5 0.5t-15 2t-13 6.5t-3.5 13q0 14 4 23.5t12 12.5t13 4t14 1q44 0 134.5 -3t134.5 -3q33 0 100 3t98 3q27 0 27 -27z
" />
    <glyph glyph-name="H" unicode="H" horiz-adv-x="1521" 
d="M1411 37q0 -37 -39 -37q-40 0 -122.5 3t-123.5 3q-40 0 -121 -3t-120 -3q-29 0 -29 25q0 18 8 27t17 10t30 1q70 0 102.5 8t44.5 24t21 55l135 546h-561l-137 -557q-8 -29 -8 -41t4 -18t31.5 -11.5t83.5 -5.5h4q23 0 31.5 -1t14 -6.5t5.5 -18.5q0 -37 -39 -37
q-40 0 -122.5 3t-123.5 3q-40 0 -121 -3t-120 -3q-29 0 -29 25q0 18 8 27t17 10t30 1q70 0 102.5 8t44.5 24t21 55l277 1112q8 29 8 38q0 23 -29 29t-90 6q-23 0 -32.5 1t-16 6.5t-6.5 17.5q0 18 8 27.5t14.5 10.5t16.5 1q40 0 122 -3t123 -3q40 0 121.5 3t120.5 3
q29 0 29 -27q0 -26 -12.5 -31.5t-49.5 -5.5q-94 0 -121.5 -15t-39.5 -67l-123 -493h561l125 502q8 29 8 38q0 23 -29 29t-90 6q-23 0 -32.5 1t-16 6.5t-6.5 17.5q0 18 8 27.5t14.5 10.5t16.5 1q40 0 122.5 -3t123.5 -3q40 0 121 3t120 3q29 0 29 -27q0 -26 -12.5 -31.5
t-49.5 -5.5q-94 0 -121.5 -15t-39.5 -67l-277 -1108l-8 -47q0 -12 4 -18t31.5 -11.5t83.5 -5.5h4q23 0 31.5 -1t14 -6.5t5.5 -18.5z" />
    <glyph glyph-name="I" unicode="I" horiz-adv-x="790" 
d="M692 39q0 -39 -41 -39t-126.5 3t-127.5 3t-126.5 -3t-125.5 -3q-28 0 -28 27q0 26 12 31t49 5q100 0 130 15.5t42 68.5l279 1115q6 18 6 38q0 9 -4 15t-14.5 9.5t-19.5 6t-27 3.5t-29.5 1h-34.5q-34 0 -44.5 4t-10.5 23q0 37 38 37q42 0 128 -3t128 -3t126.5 3t125.5 3
q29 0 29 -25q0 -19 -8 -27.5t-18.5 -10t-36.5 -1.5q-71 0 -104 -8t-45 -23.5t-21 -52.5l-277 -1106l-8 -45q0 -14 4.5 -20.5t33 -11.5t89.5 -5q20 0 27 -0.5t16 -2.5t11.5 -7t2.5 -14z" />
    <glyph glyph-name="J" unicode="J" horiz-adv-x="1075" 
d="M1274 1374q0 -14 -3.5 -22.5t-12 -12t-15.5 -4t-22 -0.5q-67 0 -88.5 -14t-32.5 -59l-240 -967q-34 -140 -158 -240t-268 -100q-102 0 -171.5 60t-69.5 161q0 44 13 76.5t29 47.5t37.5 23.5t30.5 9.5t16 1q35 0 59.5 -21t24.5 -59q0 -43 -34 -82t-88 -39q-19 0 -23 2
q12 -62 60 -98.5t112 -36.5q83 0 160.5 89t107.5 208l238 954q8 29 8 41q0 22 -11.5 28t-49.5 11q-37 4 -95 4h-24q-20 0 -28.5 1t-15.5 6.5t-7 17.5q0 18 8 27.5t15 10.5t20 1q45 0 138.5 -3t139.5 -3q35 0 106 3t105 3q29 0 29 -25z" />
    <glyph glyph-name="K" unicode="K" horiz-adv-x="1574" 
d="M1452 39q0 -39 -35 -39q-29 0 -92 3t-94 3q-38 0 -115.5 -3t-114.5 -3q-28 0 -28 27q0 17 8 25.5t14 9.5t17 1q104 0 104 68q0 10 -12 41l-213 571l-285 -235l-71 -295q-27 -100 -27 -115q0 -12 4 -18t31.5 -11.5t83.5 -5.5h4q23 0 31.5 -1t14 -6.5t5.5 -18.5
q0 -37 -39 -37q-40 0 -122.5 3t-123.5 3q-40 0 -121 -3t-120 -3q-29 0 -29 25q0 18 8 27t17 10t30 1q70 0 102.5 8t44.5 24t21 55l277 1112q8 29 8 38q0 23 -29 29t-90 6q-23 0 -32.5 1t-16 6.5t-6.5 17.5q0 18 8 27.5t14.5 10.5t16.5 1q40 0 122 -3t123 -3q40 0 121.5 3
t120.5 3q29 0 29 -27q0 -26 -12.5 -31.5t-49.5 -5.5q-94 0 -121.5 -15t-39.5 -67l-162 -653l721 600q32 26 49.5 47.5t17.5 46.5q0 37 -53 41q-29 0 -29 25q0 18 8 27.5t14.5 10.5t16.5 1q35 0 109 -3t110 -3q24 0 72.5 3t69.5 3q22 0 22 -25q0 -12 -3 -20t-10 -12t-11 -5
t-13 -2q-133 -12 -321 -168l-377 -313l268 -711q19 -47 43 -62.5t80 -17.5q13 0 18.5 -0.5t12 -6t6.5 -17.5z" />
    <glyph glyph-name="L" unicode="L" horiz-adv-x="1284" 
d="M1278 504l-8 -27l-156 -440q-9 -26 -17.5 -31.5t-41.5 -5.5h-877q-20 0 -28.5 1t-15.5 6.5t-7 17.5q0 18 8 27t17 10t30 1q70 0 102.5 8t44.5 24t21 55l277 1112q8 29 8 38q0 23 -29 29t-90 6q-23 0 -32.5 1t-16 6.5t-6.5 17.5q0 18 8 27.5t14.5 10.5t16.5 1
q41 0 125.5 -3t126.5 -3q47 0 141.5 3t140.5 3q31 0 31 -25q0 -19 -8 -27.5t-17.5 -10t-31.5 -1.5h-21q-83 0 -121.5 -9t-51.5 -25.5t-23 -57.5l-279 -1114q0 -1 -4 -19.5t-4 -25.5q0 -9 2.5 -12.5t16.5 -6t44 -2.5h166q66 0 123.5 15t98 35.5t78 58.5t60 68t47 81t36 80.5
t30.5 81.5q11 31 17 38t24 7q31 0 31 -24z" />
    <glyph glyph-name="M" unicode="M" horiz-adv-x="1837" 
d="M1718 37q0 -37 -39 -37q-38 0 -118 3t-119 3t-117.5 -3t-116.5 -3q-28 0 -28 25q0 18 8 27t17 10t30 1q70 0 102.5 8t44.5 24t21 55l289 1159h-2l-764 -1272q-10 -20 -20 -28.5t-29 -8.5q-15 0 -22 6t-8.5 13.5t-4.5 29.5l-125 1241h-2l-273 -1087q-8 -33 -8 -51
q0 -16 3 -27t13.5 -26.5t37 -25t67.5 -10.5q15 0 22 -1t12 -7t5 -18q0 -17 -7.5 -26t-14 -10t-15.5 -1q-31 0 -99.5 3t-101.5 3q-32 0 -98 -3t-96 -3q-27 0 -27 25q0 17 7 26t14 10.5t18 1.5q51 2 87 13t67 43.5t45 87.5l262 1055q8 29 8 38q0 23 -29 29t-90 6
q-23 0 -32.5 1t-16 6.5t-6.5 17.5q0 19 8 27.5t17 10t30 1.5h273q38 0 46 -6t11 -39l115 -1149l696 1157q17 27 28 32t46 5h262q30 0 40.5 -4t10.5 -23q0 -26 -12 -31.5t-49 -5.5q-94 0 -122 -15.5t-40 -66.5l-277 -1108l-8 -47q0 -12 4 -18t31.5 -11.5t83.5 -5.5h4
q23 0 31.5 -1t14 -6.5t5.5 -18.5z" />
    <glyph glyph-name="N" unicode="N" horiz-adv-x="1521" 
d="M1745 1372q0 -16 -7 -25t-13 -10.5t-11 -1.5q-32 -1 -54.5 -4.5t-57 -16t-59 -42.5t-36.5 -76l-286 -1155q-7 -28 -14.5 -34.5t-26.5 -6.5q-21 0 -27 5.5t-14 29.5l-441 1222l-264 -1054q-8 -33 -8 -51q0 -16 3 -27t13.5 -26.5t37 -25t67.5 -10.5q15 0 22 -1t12 -7t5 -18
q0 -17 -7.5 -26t-14 -10t-15.5 -1q-31 0 -99.5 3t-101.5 3q-32 0 -98 -3t-96 -3q-27 0 -27 25q0 17 7 26t14 10.5t18 1.5q79 3 129 34t70 110l270 1085l6 27q0 16 -125 16q-23 0 -32.5 1t-16 6.5t-6.5 17.5q0 19 8 27.5t17 10t30 1.5h256q32 0 40 -5t17 -30l383 -1065
l226 899q8 32 8 49q0 39 -25.5 62t-97.5 26q-37 0 -37 25q0 39 37 39q31 0 98.5 -3t100.5 -3t99 3t97 3q27 0 27 -27z" />
    <glyph glyph-name="O" unicode="O" horiz-adv-x="1570" 
d="M1614 909q0 -144 -47.5 -288t-130.5 -262t-188.5 -210t-229 -143t-244.5 -51q-209 0 -340 148t-131 380q0 174 73.5 350t190.5 309.5t271.5 217.5t308.5 84q97 0 182 -37t148.5 -104t100 -169t36.5 -225zM1440 995q0 194 -88.5 296t-218.5 102t-260 -96.5t-214 -245.5
q-50 -88 -86.5 -188.5t-53.5 -187.5t-24.5 -149.5t-7.5 -105.5q0 -185 81.5 -298.5t219.5 -113.5q119 0 245.5 91t223.5 257q80 137 131.5 319t51.5 320z" />
    <glyph glyph-name="P" unicode="P" horiz-adv-x="1388" 
d="M1495 1096q0 -116 -79.5 -221t-203 -166.5t-251.5 -61.5h-318l-125 -508q-8 -29 -8 -41t4 -18t31.5 -11.5t83.5 -5.5h4q23 0 31.5 -1t14 -6.5t5.5 -18.5q0 -37 -39 -37q-40 0 -122.5 3t-123.5 3q-40 0 -121 -3t-120 -3q-29 0 -29 25q0 18 8 27t17 10t30 1q70 0 102.5 8
t44.5 24t21 55l277 1112q8 29 8 38q0 23 -29 29t-90 6q-23 0 -32.5 1t-16 6.5t-6.5 17.5q0 19 8 27.5t17 10t30 1.5h615q164 0 263 -85.5t99 -217.5zM1315 1151q0 94 -67 139t-181 45h-176q-55 0 -71 -10t-29 -63l-140 -562h258q190 0 297 119q51 58 80 169.5t29 162.5z" />
    <glyph glyph-name="Q" unicode="Q" horiz-adv-x="1570" 
d="M1423 -2q-2 -8 -5.5 -22.5t-16.5 -55.5t-29 -78t-43.5 -83t-58.5 -78.5t-75 -55t-93 -22.5q-162 0 -162 188q0 56 21 195q-95 -31 -187 -31q-209 0 -340 148t-131 380q0 174 73.5 350t190.5 309.5t271.5 217.5t308.5 84q97 0 182 -37t148.5 -104t100 -169t36.5 -225
q0 -181 -75.5 -361t-209.5 -322t-301 -214q1 -68 10.5 -112t27 -66.5t37 -30.5t48.5 -8q64 0 128 50.5t97 150.5q8 27 25 27q9 0 15.5 -7.5t6.5 -17.5zM1442 983q0 184 -84.5 297t-224.5 113q-115 0 -236.5 -81t-214.5 -222q-103 -158 -154 -354t-51 -322q0 -79 17 -150
t62 -136t114 -97q-11 27 -11 57q0 78 59 146.5t140 68.5q151 0 164 -217q94 59 170 156t121 198t75.5 210t42 190.5t11.5 142.5zM969 53q2 16 2 58q0 23 -0.5 36.5t-6.5 37.5t-17 37.5t-33 24.5t-54 11q-64 0 -109.5 -55t-45.5 -115q0 -82 83 -82q89 0 181 47z" />
    <glyph glyph-name="R" unicode="R" horiz-adv-x="1492" 
d="M1481 188q0 -10 -13 -43.5t-38.5 -78t-74.5 -78t-108 -33.5q-106 0 -180 55t-74 162q0 35 31 164q4 17 9.5 38.5t8 31.5t6 23.5t5 20t3 14.5t2 13l1 10t0.5 11q0 52 -17.5 89.5t-47.5 56t-61 26.5t-67 8h-221l-133 -539q-8 -29 -8 -41t4 -18t31.5 -11.5t83.5 -5.5h4
q23 0 31.5 -1t14 -6.5t5.5 -18.5q0 -37 -39 -37q-40 0 -122 3t-122 3q-39 0 -118.5 -3t-118.5 -3q-29 0 -29 25q0 18 8 27t17 10t30 1q70 0 102.5 8t44.5 24t21 55l277 1112q8 29 8 38q0 23 -29 29t-90 6q-23 0 -32.5 1t-16 6.5t-6.5 17.5q0 19 8 27.5t17 10t30 1.5h541
q186 0 298.5 -88.5t112.5 -214.5q0 -58 -27 -116.5t-78.5 -113t-135.5 -100t-189 -72.5q80 -29 128.5 -91t48.5 -146q0 -48 -17 -181q-12 -106 -12 -155q0 -39 3.5 -62t19 -41t44.5 -18q48 0 91 47.5t69 132.5q5 21 10.5 28t24.5 7q31 0 31 -27zM1286 1143q0 40 -12.5 71.5
t-29.5 51t-48.5 34t-55 21t-64.5 10t-61.5 4t-60.5 0.5q-104 0 -118 -4q-10 -3 -15.5 -6t-14.5 -19t-15 -44l-134 -539h207q193 0 303 106q31 31 54.5 74.5t35.5 80.5t19 75.5t8.5 56.5t1.5 27z" />
    <glyph glyph-name="S" unicode="S" horiz-adv-x="1150" 
d="M1102 487q0 -95 -40 -191.5t-105.5 -171.5t-156 -122t-184.5 -47q-216 0 -313 141q-44 -60 -96 -116q-13 -17 -18 -21t-15 -4q-9 0 -15.5 5.5t-6.5 14.5q0 6 6 27l106 428q6 23 12 29t25 6q31 0 31 -23l-2 -12q-17 -65 -17 -125q0 -77 26 -134.5t71 -89.5t97.5 -47.5
t113.5 -15.5q88 0 168 59t127 150t47 183q0 90 -45 147q-26 27 -51 38.5t-107 35.5l-101 28q-70 18 -88 27q-84 39 -123.5 111t-39.5 159q0 117 65.5 230t176.5 185.5t233 72.5q185 0 266 -139l92 114q13 17 18 21t13 4q9 0 14.5 -5t6.5 -11l1 -5q0 -12 -4 -28l-106 -424
q-6 -25 -12.5 -31t-24.5 -6q-31 0 -31 20l2 29q10 56 10 113q0 61 -12 110t-39.5 91t-77.5 65.5t-120 23.5q-84 0 -162 -52.5t-124 -133.5t-46 -164q0 -134 104 -180q28 -11 113 -33q152 -45 192.5 -63t77.5 -64q68 -85 68 -209z" />
    <glyph glyph-name="T" unicode="T" horiz-adv-x="1466" 
d="M1587 969q-5 -28 -11 -35.5t-26 -7.5q-30 0 -30 26q0 8 4 31q20 121 20 184q0 66 -21.5 98t-75 45t-163.5 13q-90 0 -106 -4q-10 -1 -16.5 -4.5t-15.5 -19.5t-16 -44l-274 -1101q-8 -29 -8 -39q0 -22 12.5 -30.5t54.5 -12.5q2 0 21 -1t43 -2.5t39 -1.5h31q16 0 21.5 -0.5
t14.5 -2t12 -6.5t3 -13q0 -19 -8 -28.5t-15 -11t-20 -1.5q-52 0 -160.5 3t-161.5 3q-52 0 -158.5 -3t-158.5 -3q-35 0 -35 25q0 19 8 27.5t17 9.5t32 1h33q90 0 133.5 9t58.5 26.5t25 57.5l275 1099q8 24 8 45q0 9 -1.5 12.5t-12.5 7t-33 3.5h-70q-70 0 -116 -4t-88 -18
t-68.5 -35t-53 -61t-47 -89t-45.5 -125q-20 -53 -26 -59t-23 -6q-31 0 -31 22q1 8 11 35l120 367q9 26 18 31t42 5h1050q22 0 29.5 -0.5t15 -6t7.5 -17.5q0 -19 -2 -27z" />
    <glyph glyph-name="U" unicode="U" horiz-adv-x="1521" 
d="M1745 1372q0 -16 -7 -25t-13 -10.5t-11 -1.5q-32 -1 -54.5 -4.5t-57 -16t-59 -42.5t-36.5 -76l-186 -750q-21 -85 -72 -171.5t-121.5 -158t-163 -116.5t-186.5 -45q-152 0 -258 104t-106 281q0 65 16 131l197 791q8 29 8 38q0 23 -29 29t-90 6q-23 0 -32.5 1t-16 6.5
t-6.5 17.5q0 18 8 27.5t14.5 10.5t16.5 1q40 0 122 -3t123 -3q40 0 121.5 3t120.5 3q29 0 29 -27q0 -26 -12.5 -31.5t-49.5 -5.5q-94 0 -121.5 -15t-39.5 -67l-205 -823q-21 -95 -21 -156q0 -129 64.5 -192.5t154.5 -63.5q96 0 193.5 57t174 161.5t108.5 232.5l182 729
q8 32 8 49q0 39 -25.5 62t-97.5 26q-37 0 -37 25q0 39 37 39q31 0 97.5 -3t99.5 -3q32 0 97 3t95 3q27 0 27 -27z" />
    <glyph glyph-name="V" unicode="V" horiz-adv-x="1521" 
d="M1778 1376q0 -18 -7.5 -27.5t-13 -10.5t-18.5 -3q-67 -5 -120.5 -38.5t-109.5 -127.5l-702 -1175q-16 -26 -26.5 -32.5t-30.5 -6.5q-24 0 -30 9t-9 40l-123 1262q-3 42 -21 55.5t-90 13.5q-18 0 -26.5 1t-15.5 6.5t-7 17.5q0 39 37 39q34 0 104 -3t105 -3q39 0 118 3
t117 3q29 0 29 -25q0 -18 -7.5 -27t-16 -10.5t-27.5 -1.5q-14 0 -29.5 -1.5t-41.5 -7t-42 -19.5t-16 -35l104 -1073l592 989q31 54 31 82q0 33 -25 48t-57 17q-1 0 -4.5 0.5t-5 0.5t-4.5 1l-4.5 1.5t-4 1.5t-3.5 2l-3 3t-2.5 4t-1 5t-0.5 6q0 18 7.5 27.5t14 10.5t15.5 1
q29 0 93 -3t95 -3q26 0 79 3t77 3q10 0 17 -5.5t8 -11.5z" />
    <glyph glyph-name="W" unicode="W" horiz-adv-x="2045" 
d="M2302 1376q0 -38 -29 -41q-75 -6 -120 -40t-97 -128l-641 -1175q-9 -17 -19.5 -26t-16.5 -10t-17 -1q-13 0 -20 2t-10.5 9.5t-4.5 14.5t-2 25l-45 1020l-563 -1030q-13 -25 -22 -33t-31 -8q-23 0 -29 9t-8 42l-58 1264q-1 29 -5 40t-24 18t-65 7q-18 0 -26.5 1t-15.5 6.5
t-7 17.5q0 39 37 39q31 0 99.5 -3t101.5 -3q38 0 115.5 3t115.5 3q29 0 29 -25q0 -14 -3.5 -22.5t-12 -12t-15.5 -4t-21 -0.5q-49 -1 -78.5 -9t-40.5 -24.5t-13 -28.5t-1 -34l45 -1001l478 876q12 20 12 41q-6 129 -8 137q-3 25 -20.5 34t-78.5 9q-14 0 -21 1t-14.5 6.5
t-7.5 17.5q0 39 37 39q31 0 99.5 -3t101.5 -3q38 0 115.5 3t115.5 3q29 0 29 -23q0 -14 -3.5 -23.5t-11 -12.5t-12.5 -4t-14 -1q-47 -1 -78 -7.5t-44.5 -18t-18 -22.5t-4.5 -27l2 -15l45 -1007l518 954q22 42 22 65q0 41 -32.5 58.5t-71.5 19.5q-33 0 -33 25q0 18 8 27.5
t14.5 10.5t16.5 1q33 0 101.5 -3t101.5 -3q25 0 75.5 3t73.5 3q11 0 17.5 -5.5t7.5 -11.5v-6z" />
    <glyph glyph-name="X" unicode="X" horiz-adv-x="1521" 
d="M1434 37q0 -17 -7.5 -26t-14 -10t-15.5 -1q-34 0 -105 3t-106 3q-39 0 -119 -3t-119 -3q-30 0 -30 25q0 33 32 38q51 3 84 23.5t33 38.5q0 1 -6 25l-180 489l-394 -449l-2 -4q-4 -8 -8 -12q-16 -23 -16 -49q0 -9 2.5 -17.5t9.5 -18.5t22 -17t37 -9q27 -2 27 -22
q0 -41 -39 -41q-34 0 -105 3t-106 3q-30 0 -91 -3t-89 -3q-13 0 -19 8t-6 17q2 36 25 38q29 2 47 4t53.5 11t64 23.5t66 43t72.5 68.5l426 485l-211 572q-10 27 -18 38t-35.5 19t-81.5 8q-18 0 -26.5 1t-15.5 6.5t-7 17.5q0 18 8 27.5t14.5 10.5t16.5 1q34 0 104 -3t105 -3
q40 0 120 3t119 3q29 0 29 -27q0 -37 -33 -37q-35 -3 -63.5 -15t-41 -24t-12.5 -20l9 -25l149 -407l303 348q43 50 43 82q0 51 -73 61q-25 0 -25 25q0 18 7.5 27.5t14 10.5t15.5 1q34 0 106 -3t107 -3q30 0 90 3t88 3q10 0 18.5 -6.5t8.5 -18.5q0 -17 -7 -26t-13.5 -10.5
t-22.5 -2.5q-55 -4 -101 -18.5t-82 -40.5t-53.5 -42.5t-44.5 -45.5l-25 -21l-333 -383l243 -659q9 -24 16.5 -34.5t35.5 -19t81 -8.5q21 0 28.5 -0.5t14.5 -6.5t7 -19z" />
    <glyph glyph-name="Y" unicode="Y" horiz-adv-x="1521" 
d="M1790 1376q0 -18 -7 -27.5t-12.5 -10.5t-19.5 -3q-75 -6 -138.5 -44t-133.5 -124l-484 -587q-2 -3 -4 -5t-3.5 -4.5t-2.5 -4t-2.5 -5t-2 -5l-2 -6t-2 -7t-2.5 -9t-3 -10.5l-64 -252q-39 -164 -39 -174q0 -23 29 -29t90 -6q20 0 26 -0.5t15 -2.5t11.5 -7t2.5 -14
q0 -18 -8 -27.5t-14 -10.5t-16 -1q-39 0 -121.5 3t-122.5 3q-39 0 -119 -3t-119 -3q-28 0 -28 25q0 14 3 22.5t12 11.5t15 3.5t21 0.5l64.5 1.5t43 6.5t29.5 10.5t18 22t13.5 31.5t11.5 49q94 367 94 375q0 11 -8 31l-217 684q-11 36 -36 48.5t-95 12.5q-18 0 -26.5 1
t-15.5 6.5t-7 17.5q0 18 8 27.5t14.5 10.5t16.5 1q34 0 106 -3t107 -3q40 0 120 3t119 3q29 0 29 -25q0 -14 -3.5 -22.5t-11 -12t-13.5 -4t-17 -0.5q-115 0 -115 -49q0 -6 8 -26l195 -615l448 547q0 1 6.5 9t13.5 17.5t14.5 22t12.5 25t5 22.5q0 43 -64 47q-31 0 -31 25
q0 18 7.5 27.5t14 10.5t15.5 1q30 0 94.5 -3t96.5 -3q26 0 78.5 3t76.5 3q11 0 17.5 -5.5t7.5 -11.5v-6z" />
    <glyph glyph-name="Z" unicode="Z" horiz-adv-x="1255" 
d="M1239 522q-8 -29 -10 -33l-139 -452q-9 -27 -17.5 -32t-42.5 -5h-819q-15 0 -21.5 0.5t-14 2t-9.5 5t-2 10.5q0 26 22 52l1059 1265h-287q-94 0 -167 -20.5t-119 -51.5t-82.5 -82t-55.5 -96t-40 -110q-8 -24 -13.5 -30.5t-23.5 -6.5q-31 0 -31 23q4 22 6 26l111 371
q9 29 17 35t42 6h793q29 0 38 -3t9 -16q0 -24 -25 -53l-1055 -1257h302q58 0 108.5 7.5t89.5 18.5t73.5 32.5t59 41t47.5 52.5t38 58.5t32 67.5t27 71t26 77q12 37 18 44t23 7q33 0 33 -25z" />
    <glyph glyph-name="bracketleft" unicode="[" horiz-adv-x="628" 
d="M422 -455q-8 -37 -14 -47q-10 -10 -48 -10h-157q-21 0 -29.5 1t-16 6.5t-7.5 17.5q4 20 6 26l489 1958q7 29 15 34t42 5h158q21 0 29.5 -1t16 -6.5t7.5 -17.5q-8 -37 -14 -47q-6 -6 -13.5 -8t-33.5 -2h-133l-471 -1884h121q21 0 29.5 -1t16 -6.5t7.5 -17.5z" />
    <glyph glyph-name="backslash" unicode="\" horiz-adv-x="1024" 
d="M791 -471q-4 -17 -19.5 -29t-32.5 -12q-14 0 -21.5 7t-9.5 15t-3 23l-216 1925q-2 12 -2 21t1 13l1 3q3 17 18.5 29t33.5 12q14 0 21 -7.5t8.5 -14.5t2.5 -23l215 -1925z" />
    <glyph glyph-name="bracketright" unicode="]" horiz-adv-x="628" 
d="M240 -473q-7 -29 -15.5 -34t-42.5 -5h-157q-21 0 -30 1t-16.5 6.5t-7.5 17.5q9 37 15 47q6 7 13.5 8.5t33.5 1.5h133l471 1884h-121q-21 0 -29.5 1t-16 6.5t-7.5 17.5q8 37 14 47q5 5 8 6.5t11.5 2.5t27.5 1h158q21 0 29.5 -1t16 -6.5t7.5 -17.5q-4 -20 -6 -26z" />
    <glyph glyph-name="asciicircum" unicode="^" horiz-adv-x="1138" 
d="M1448 1196l-35 -45l-495 252l-617 -252l-12 45l661 328z" />
    <glyph glyph-name="underscore" unicode="_" horiz-adv-x="1521" 
d="M1489 -256q-3 -12 -14.5 -21.5t-24.5 -9.5h-1522q-12 0 -18.5 9.5t-3.5 21.5t14.5 21.5t24.5 9.5h1521q12 0 19 -9.5t4 -21.5z" />
    <glyph glyph-name="grave" unicode="`" 
d="M909 1069q-6 -12 -22 -23.5t-27 -11.5q-9 0 -20 17l-205 252q-26 26 -8 65q13 26 39 41.5t47 15.5q14 0 23.5 -5.5t13 -11t10.5 -17.5l145 -291q11 -21 4 -31z" />
    <glyph glyph-name="a" unicode="a" 
d="M1075 293q-24 -123 -61 -201q-57 -115 -150 -115q-58 0 -106 36.5t-64 107.5q-59 -72 -123 -108t-122 -36q-112 0 -180 91.5t-68 226.5q0 146 69.5 288.5t179 232t220.5 89.5q116 0 170 -121q2 9 5 17.5t11.5 25t25.5 27t40 10.5q20 0 37.5 -12t17.5 -41q0 -14 -8 -43
l-140 -557q-14 -57 -14 -105q0 -16 1 -26t5.5 -25.5t16 -23.5t30.5 -8q25 0 46.5 20.5t38.5 59.5t28.5 75.5t24.5 87.5q9 34 14 40.5t24 6.5q31 0 31 -20zM709 254l96 387l6 27q0 71 -39 131.5t-102 60.5q-62 0 -126.5 -65.5t-103.5 -161.5q-30 -70 -65 -213t-35 -215
q0 -27 4.5 -54.5t15.5 -58.5t35 -50t58 -19q52 0 111.5 44.5t97.5 97.5t47 89z" />
    <glyph glyph-name="b" unicode="b" horiz-adv-x="942" 
d="M940 586q0 -147 -69 -289.5t-178.5 -231t-221.5 -88.5q-109 0 -172 89t-63 223q0 35 5.5 76.5t10 63.5t6.5 28l203 809q6 28 6 34q0 12 -4.5 18.5t-28 11.5t-69.5 5q-18 0 -26.5 1t-16 6t-7.5 16q0 18 7.5 28t15.5 12t24 3l203 16q12 4 33 4q29 0 29 -24q-4 -21 -6 -27
l-144 -573q115 108 217 108q101 0 173.5 -82.5t72.5 -236.5zM688 217q43 94 79 243.5t36 217.5q0 28 -5 56.5t-16.5 58.5t-35.5 48.5t-56 18.5q-106 0 -215 -151q-22 -29 -28 -42t-17 -53q-50 -197 -64 -264.5t-14 -130.5q0 -104 36 -150t83 -46q36 0 73 22.5t66 56.5
t47.5 62.5t30.5 52.5z" />
    <glyph glyph-name="c" unicode="c" horiz-adv-x="942" 
d="M958 213q0 -10 -19 -36t-58 -60.5t-89 -65.5t-121 -52.5t-145 -21.5q-135 0 -218 93t-83 245q0 109 45.5 218t118 190t167 131.5t187.5 50.5q97 0 158.5 -50t61.5 -126q0 -56 -31 -89.5t-74 -33.5q-33 0 -51.5 19.5t-18.5 46.5q0 4 0.5 10t6.5 21.5t15.5 28.5t30.5 25
t50 15q-11 29 -31.5 48.5t-45.5 27t-40 10t-29 2.5q-70 0 -142 -53.5t-126 -151.5q-40 -73 -74 -206.5t-34 -215.5q0 -94 40.5 -152t120.5 -58q17 0 37.5 2t63.5 13t83 30.5t91 60t94 94.5q18 23 27 23q11 0 21.5 -12t10.5 -21z" />
    <glyph glyph-name="d" unicode="d" 
d="M1096 293q-25 -123 -62 -201q-27 -54 -61.5 -84.5t-87.5 -30.5q-58 0 -106 36.5t-64 107.5q-59 -72 -123.5 -108t-122.5 -36q-112 0 -180 91.5t-68 226.5q0 146 69.5 288.5t179 232t220.5 89.5q113 0 172 -119l119 480q6 28 6 34q0 12 -4.5 18.5t-28 11.5t-69.5 5
q-18 0 -26.5 1t-15.5 6t-7 16q0 18 7.5 28t15.5 12t24 3l202 16q12 4 33 4q29 0 29 -24q-4 -21 -6 -27l-293 -1169q-12 -49 -12 -95q0 -16 1 -26t5.5 -25.5t16 -23.5t30.5 -8q25 0 46.5 20.5t38 59.5t28 75t24.5 88q9 34 14.5 40.5t24.5 6.5q31 0 31 -20zM727 250l98 393
q6 18 6 27q0 28 -12 66.5t-28 64.5q-38 59 -101 59q-61 0 -125.5 -65.5t-103.5 -161.5q-31 -71 -66 -213.5t-35 -214.5q0 -27 4.5 -54.5t15.5 -58.5t35 -50t58 -19q76 0 157.5 84t96.5 143z" />
    <glyph glyph-name="e" unicode="e" horiz-adv-x="942" 
d="M958 213q0 -10 -19 -36t-58 -60.5t-89 -65.5t-121 -52.5t-145 -21.5q-93 0 -161.5 52t-100 132t-31.5 175q0 104 32 197.5t85 160t119.5 115t136.5 72.5t135 24q95 0 151 -50.5t56 -123.5q0 -10 -1 -21.5t-9.5 -40t-24 -52.5t-48.5 -52t-79 -47q-113 -45 -297 -45h-79
q-35 -138 -35 -225q0 -36 6 -70t21 -71.5t48 -60.5t80 -23q17 0 37.5 2t63.5 13t83 30.5t91 60t94 94.5q18 23 27 23q11 0 21.5 -12t10.5 -21zM870 735q0 54 -34.5 89.5t-94.5 35.5q-9 0 -20 -1t-36.5 -8t-50 -19.5t-56 -38t-58.5 -60.5t-53.5 -90.5t-44.5 -124.5h43
q25 0 44.5 0.5t64.5 4.5t79.5 11.5t77.5 24t71.5 38.5t48 57.5t19.5 80.5z" />
    <glyph glyph-name="f" unicode="f" horiz-adv-x="628" 
d="M926 1309q0 -51 -31 -82t-72 -31q-27 0 -48 17t-21 49q0 34 23.5 63.5t66.5 36.5q-30 37 -86 37q-26 0 -46 -16.5t-33 -49.5t-19.5 -56t-14.5 -63l-65 -331h159q31 0 41.5 -4t10.5 -23q0 -18 -8 -26t-17 -9.5t-31 -1.5h-168l-143 -735q-5 -27 -10.5 -52t-20 -79.5
t-30.5 -99t-42.5 -97.5t-55.5 -89.5t-68.5 -61.5t-83.5 -25q-64 0 -114 35.5t-50 99.5q0 51 30.5 82t71.5 31q28 0 49 -17.5t21 -48.5q0 -34 -23.5 -63.5t-66.5 -36.5q27 -37 82 -37q21 0 39 12.5t29 28.5t21.5 43.5t15.5 45.5t11 46q27 97 58 254l149 764h-127
q-19 0 -27.5 1t-16 6t-7.5 16q0 28 12.5 34.5t42.5 6.5h136l43 225q67 336 266 336q68 0 118 -36t50 -99z" />
    <glyph glyph-name="g" unicode="g" horiz-adv-x="942" 
d="M766 -129q-31 -122 -143 -206.5t-267 -84.5q-129 0 -188 28.5t-59 90.5q0 54 32.5 81t67.5 27q36 0 54 -20.5t18 -44.5q0 -28 -18 -55t-48 -39q55 -23 145 -23q113 0 195 96q40 49 56.5 89.5t37.5 126.5l43 172q-109 -109 -217 -109q-113 0 -181.5 89.5t-68.5 223.5
q0 141 68 279.5t176.5 225.5t220.5 87q114 0 172 -117q5 39 30 57.5t50 18.5q20 0 37.5 -12t17.5 -41q0 -12 -8 -43zM733 270l92 373l6 29q0 12 -5.5 37t-18.5 62t-44 63t-73 26q-58 0 -119.5 -58.5t-101.5 -144.5q-33 -75 -68.5 -219t-35.5 -215q0 -13 1 -28t7.5 -44
t17.5 -50.5t34 -38.5t54 -17q77 0 158 82.5t96 142.5z" />
    <glyph glyph-name="h" unicode="h" 
d="M1096 293q0 -6 -8.5 -36.5t-29 -78.5t-48.5 -92.5t-74.5 -76.5t-99.5 -32q-71 0 -113.5 47t-42.5 117q0 31 6 53.5t27 77.5q118 334 118 453q0 135 -94 135q-151 0 -272 -194q-28 -50 -36 -69.5t-21 -74.5q-5 -23 -16.5 -67t-16.5 -66l-88 -354q-5 -21 -26 -39.5
t-50 -18.5q-27 0 -42 17t-15 37q2 22 4 26l303 1209q6 28 6 34q0 12 -4.5 18.5t-28 11.5t-69.5 5q-18 0 -26.5 1t-16 6t-7.5 16q0 18 7.5 28t15.5 12t24 3l203 16q12 4 33 4q29 0 29 -24q-4 -21 -6 -27l-150 -598q33 32 51.5 48t54.5 40t76.5 34.5t89.5 10.5q41 0 76 -10
t67.5 -33t51 -66.5t18.5 -103.5q0 -124 -125 -456q-36 -110 -36 -154q0 -18 2 -29t12.5 -20.5t30.5 -9.5q116 0 190 256q6 24 10.5 29t24.5 5q31 0 31 -20z" />
    <glyph glyph-name="i" unicode="i" horiz-adv-x="628" 
d="M678 293q0 -6 -8 -36t-28.5 -78.5t-48.5 -93t-74.5 -76.5t-100.5 -32q-75 0 -115.5 49t-40.5 115q0 29 7 54t30 88l76 202l61 170q37 103 37 148q0 57 -45 57q-122 0 -190 -258q-6 -22 -11.5 -27.5t-25.5 -5.5q-31 0 -31 21q0 6 8.5 36.5t29 78.5t48.5 92t75 76t101 32
q63 0 108.5 -42.5t45.5 -121.5q0 -40 -25 -114l-131 -351q-2 -5 -10 -27.5t-10 -28.5t-8.5 -25t-8.5 -26.5l-6 -22.5t-5.5 -24t-3 -20.5t-1.5 -21.5q0 -19 4.5 -31.5t12.5 -17.5t14 -6.5t14 -1.5q121 0 190 256q6 24 10.5 29t24.5 5q31 0 31 -20zM733 1251q0 -49 -40.5 -89
t-90.5 -40q-42 0 -67 26t-25 62q0 49 40.5 89t90.5 40q43 0 67.5 -26.5t24.5 -61.5z" />
    <glyph glyph-name="j" unicode="j" horiz-adv-x="628" 
d="M457 -113q-31 -122 -130 -214.5t-221 -92.5q-68 0 -123 29.5t-55 91.5q0 49 32.5 77.5t68.5 28.5t53.5 -20t17.5 -45q0 -8 -2 -21t-20.5 -39t-50.5 -36q39 -21 82 -21q42 0 79.5 26t60.5 61.5t41 76t25.5 64.5t8.5 32l196 789q15 62 15 104q0 82 -56 82q-73 0 -134 -72.5
t-105 -183.5q-9 -26 -14 -30.5t-25 -4.5q-31 0 -31 21q0 6 12.5 38t39 79t61.5 91t88 75.5t110 31.5q82 0 129 -54t47 -130q0 -38 -10 -68zM733 1251q0 -49 -40.5 -89t-90.5 -40q-42 0 -67 26t-25 62q0 49 40.5 89t90.5 40q43 0 67.5 -26.5t24.5 -61.5z" />
    <glyph glyph-name="k" unicode="k" horiz-adv-x="942" 
d="M991 293q0 -5 -8.5 -38t-26.5 -84.5t-38 -86.5q-63 -107 -158 -107q-67 0 -119.5 49t-52.5 150q0 35 8 70q6 29 6 51q0 42 -21 75t-55 52.5t-66 30t-65 14.5l-104 -416q-17 -76 -80 -76q-27 0 -42 17t-15 37q2 22 4 26l303 1209q6 28 6 34q0 12 -4.5 18.5t-28 11.5
t-69.5 5q-18 0 -26.5 1t-16 6t-7.5 16q0 18 7.5 28t15.5 12t24 3l203 16q12 4 33 4q29 0 29 -24q-4 -21 -6 -27l-209 -835q53 26 92 62t129 140q65 77 128.5 122.5t137.5 45.5q63 0 96 -38.5t33 -84.5q0 -54 -32 -84t-70 -30q-36 0 -54 20.5t-18 44.5q0 14 5 31.5t28.5 41.5
t62.5 30q-16 24 -55 24q-30 0 -60.5 -12.5t-53.5 -27t-58 -49t-54.5 -56t-62.5 -70.5q-86 -99 -145 -135q53 -7 98 -21.5t86 -39t64.5 -63.5t23.5 -89q0 -29 -10 -72q-16 -80 -16 -114q0 -19 1.5 -31.5t7 -27t18 -22t32.5 -7.5q26 0 48.5 16.5t37.5 38t29.5 59t22.5 63.5
t18 66q9 34 14.5 40.5t24.5 6.5q30 0 30 -20z" />
    <glyph glyph-name="l" unicode="l" horiz-adv-x="524" 
d="M573 293q0 -5 -8 -39.5t-23.5 -86t-31.5 -83.5q-25 -48 -58.5 -77.5t-86.5 -29.5q-74 0 -123 52t-49 133q0 32 12 80l256 1024q6 28 6 34q0 12 -4.5 18.5t-28 11.5t-69.5 5q-18 0 -26.5 1t-16 6t-7.5 16q0 18 7.5 28t15.5 12t24 3l203 16q12 4 33 4q29 0 29 -24
q-4 -21 -6 -27l-293 -1169q-13 -53 -13 -95q0 -83 54 -83q41 0 72 57.5t59 171.5l14 51q6 10 29 10q30 0 30 -20z" />
    <glyph glyph-name="m" unicode="m" horiz-adv-x="1675" 
d="M1724 293q0 -6 -8.5 -36.5t-29 -78.5t-48.5 -92.5t-74.5 -76.5t-99.5 -32q-71 0 -113 47t-42 117q0 32 5.5 55t26.5 76q119 336 119 453q0 135 -94 135q-50 0 -95 -19t-81 -54t-61.5 -69.5t-51.5 -78.5q-5 -9 -8.5 -15t-6 -11.5t-5.5 -13t-4.5 -12t-5 -16.5t-5.5 -19.5
t-7 -27t-9 -32.5q-5 -23 -16.5 -67t-16.5 -67l-82 -327q-10 -27 -31 -40.5t-42 -13.5q-28 0 -43 17t-15 37q0 10 6 28l134 533q18 81 18 133q0 135 -94 135q-50 0 -95 -19t-81 -54t-61.5 -69.5t-51.5 -78.5q-5 -9 -8.5 -15t-6 -11.5t-5.5 -13t-4.5 -12t-5 -16.5t-5.5 -19.5
t-7 -27t-9 -32.5q-5 -22 -16.5 -66.5t-16.5 -67.5l-82 -327q-10 -27 -31 -40.5t-43 -13.5q-28 0 -42.5 17t-14.5 37q0 10 6 28l154 615q14 58 14 104q0 82 -53 82q-44 0 -76 -62t-63 -182q-7 -34 -13 -40.5t-26 -6.5q-31 0 -31 21q27 125 66 207q28 52 62 80t85 28
q67 0 114.5 -44t57.5 -118q121 162 293 162q37 0 70.5 -8.5t65 -28t52.5 -56t27 -87.5q53 78 130.5 129t176.5 51q40 0 75 -9.5t68 -32t52.5 -66.5t19.5 -105q0 -124 -125 -456l-8 -24l-9 -27t-7.5 -25t-6.5 -27t-4 -25t-2 -26q0 -18 2 -29t12.5 -20.5t30.5 -9.5
q117 0 191 256q6 24 10.5 29t24.5 5q30 0 30 -20z" />
    <glyph glyph-name="n" unicode="n" horiz-adv-x="1150" 
d="M1200 293q0 -6 -8.5 -36.5t-29 -78.5t-48.5 -92.5t-74.5 -76.5t-99.5 -32q-71 0 -113.5 47t-42.5 117q0 31 6 53.5t27 77.5q119 336 119 453q0 135 -94 135q-157 0 -277 -203q-25 -42 -32.5 -62.5t-28.5 -102.5q-5 -22 -16.5 -66.5t-16.5 -67.5l-82 -327
q-10 -27 -31 -40.5t-43 -13.5q-28 0 -42.5 17t-14.5 37q0 10 6 28l154 615q14 58 14 104q0 82 -53 82q-44 0 -76 -62t-63 -182q-7 -34 -13 -40.5t-26 -6.5q-31 0 -31 21q27 125 66 207q28 52 62 80t85 28q67 0 114.5 -44t57.5 -118q11 16 24.5 32.5t41.5 41t59 43t75.5 32
t92.5 13.5q41 0 76 -10t67.5 -33t51 -66.5t18.5 -103.5q0 -124 -125 -456l-8 -24l-9 -27t-7.5 -25t-6.5 -27t-4 -25t-2 -26q0 -18 2 -29t12.5 -20.5t30.5 -9.5q117 0 191 256q6 25 10.5 29.5t23.5 4.5q31 0 31 -20z" />
    <glyph glyph-name="o" unicode="o" 
d="M1042 569q0 -147 -76 -285t-196.5 -222.5t-245.5 -84.5q-131 0 -215 91.5t-84 246.5q0 109 45.5 218t118 190t167 131.5t187.5 50.5q133 0 216 -94.5t83 -241.5zM899 649q0 93 -42.5 152t-115.5 59q-63 0 -131 -48t-123 -138q-47 -79 -82.5 -219t-35.5 -222
q0 -104 45 -157t110 -53q73 0 145.5 58t118.5 146q46 86 78.5 217.5t32.5 204.5z" />
    <glyph glyph-name="p" unicode="p" 
d="M1044 586q0 -111 -42 -223t-107.5 -196t-150 -137t-166.5 -53q-69 0 -112.5 39t-59.5 80l-74 -299q-23 -95 -23 -98q0 -12 4 -18t28 -10.5t73 -4.5q19 0 26.5 -0.5t15 -6t7.5 -17.5q0 -18 -8 -27.5t-14.5 -10.5t-16.5 -1q-31 0 -98.5 3t-100.5 3q-29 0 -87 -3t-85 -3
q-11 0 -17.5 6.5t-6.5 17.5q0 18 8 27.5t15 10.5t20 1q61 2 80.5 14t31.5 58l234 938q14 57 14 102q0 82 -53 82q-44 0 -76 -62t-63 -182q-7 -34 -13 -40.5t-26 -6.5q-31 0 -31 21q27 125 66 207q28 52 62 80t85 28q52 0 101.5 -32t66.5 -111q121 143 248 143
q101 0 173 -82.5t72 -236.5zM793 217q42 94 78 243.5t36 217.5q0 29 -5 57t-16.5 58t-35 48.5t-55.5 18.5q-77 0 -159.5 -84t-96.5 -147l-97 -387q-6 -24 -6 -29q0 -8 3 -26t12 -47.5t23.5 -54.5t41 -43.5t59.5 -18.5q36 0 73.5 22.5t66 56.5t47.5 62.5t31 52.5z" />
    <glyph glyph-name="q" unicode="q" horiz-adv-x="942" 
d="M879 -358q0 -18 -8 -27.5t-14.5 -10.5t-16.5 -1q-33 0 -103 3t-104 3t-103 -3t-102 -3q-27 0 -27 24q0 14 3.5 22.5t12 12t15 4t19.5 0.5q36 1 55.5 1.5t37.5 6t25 9t15.5 18t11.5 25t10 38.5q19 75 38.5 156.5t41.5 165.5q-113 -109 -217 -109q-112 0 -180 91.5
t-68 226.5q0 146 69.5 288.5t179 232t220.5 89.5q120 0 176 -131q25 42 68.5 85.5t60.5 43.5q7 0 15 -5t8 -17q-4 -21 -6 -27l-281 -1118q-6 -36 -6 -37q0 -8 1 -11.5t6 -8.5t15.5 -7.5t31 -4t50.5 -1.5q15 0 20.5 -0.5t14.5 -2.5t12 -7t3 -14zM727 250l98 393q6 18 6 27
q0 28 -12 66.5t-28 64.5q-38 59 -101 59q-61 0 -125.5 -65.5t-103.5 -161.5q-31 -71 -66 -213.5t-35 -214.5q0 -27 4.5 -54.5t15.5 -58.5t35 -50t58 -19q76 0 157.5 84t96.5 143z" />
    <glyph glyph-name="r" unicode="r" horiz-adv-x="864" 
d="M1001 776q0 -54 -32.5 -81t-67.5 -27q-36 0 -54 20.5t-18 44.5q0 11 3.5 25.5t23 38.5t51.5 34q-41 29 -108 29q-49 0 -95.5 -28.5t-75.5 -64t-54.5 -80.5t-33.5 -65.5t-12 -31.5l-133 -537q-19 -76 -80 -76q-28 0 -42.5 17t-14.5 37q0 10 6 28l154 615q14 58 14 104
q0 82 -53 82q-44 0 -76 -62t-63 -182q-7 -34 -13 -40.5t-26 -6.5q-31 0 -31 21q27 125 66 207q28 52 62 80t85 28q58 0 106 -35.5t64 -111.5q19 26 34.5 43.5t47.5 45.5t74.5 43t91.5 15q30 0 61 -5.5t64 -18.5t54 -40.5t21 -64.5z" />
    <glyph glyph-name="s" unicode="s" horiz-adv-x="837" 
d="M805 322q0 -26 -7.5 -58.5t-23.5 -72.5t-46.5 -77t-71 -68t-102 -50t-134.5 -19q-113 0 -188.5 54t-75.5 145q0 63 31.5 95t72.5 32q32 0 51 -18t19 -47q0 -4 -0.5 -10t-6.5 -22.5t-16 -29t-31.5 -24.5t-50.5 -15q12 -36 37.5 -61t57.5 -35.5t55.5 -14t46.5 -3.5
q74 0 129.5 26t83.5 64.5t40.5 74t12.5 64.5q0 32 -11.5 56.5t-25.5 38.5t-43 26t-47.5 17t-54.5 13q-25 5 -42.5 10t-48.5 20t-50 34.5t-34.5 54.5t-15.5 80q0 44 17.5 93t53.5 97.5t102 80.5t151 32q98 0 158.5 -50.5t60.5 -123.5q0 -59 -27.5 -86t-60.5 -27t-47 18
t-14 40q0 23 19.5 51t62.5 33q-16 54 -59.5 77t-94.5 23q-57 0 -100.5 -22t-65 -54.5t-31.5 -61t-10 -50.5q0 -25 9 -44.5t20.5 -31t31.5 -20.5t33.5 -12.5t36.5 -8.5q35 -8 58.5 -14.5t62.5 -24.5t62.5 -40.5t42 -62.5t18.5 -91z" />
    <glyph glyph-name="t" unicode="t" horiz-adv-x="679" 
d="M729 293q0 -5 -12 -36.5t-38.5 -79t-61 -92t-88 -76.5t-111.5 -32q-78 0 -126 53.5t-48 131.5q0 29 10 69l147 588h-163q-20 0 -29 1t-16 6.5t-7 17.5q0 19 8.5 27.5t18 10t31.5 1.5h174l80 325q19 74 80 74q20 0 37.5 -12t17.5 -41q0 -14 -8 -43l-76 -303h164
q20 0 28.5 -1t15.5 -6.5t7 -17.5q0 -19 -8 -27.5t-17.5 -10t-31.5 -1.5h-175l-151 -608q-14 -57 -14 -105q0 -18 1 -28t5.5 -25t17 -22.5t31.5 -7.5q41 0 80 24.5t68.5 65t50 80t36.5 81.5q12 29 17.5 34t23.5 5q31 0 31 -20z" />
    <glyph glyph-name="u" unicode="u" horiz-adv-x="1099" 
d="M1149 293q-25 -123 -62 -201q-27 -54 -61.5 -84.5t-87.5 -30.5q-19 0 -38 4t-44 15.5t-47 38t-35 65.5q-99 -123 -227 -123q-95 0 -162.5 57.5t-67.5 180.5q0 71 28 167t79 234q49 135 49 185q0 36 -12 47.5t-33 11.5q-34 0 -64 -21.5t-49.5 -50t-37 -69t-25 -65.5
t-14.5 -52q-6 -22 -11.5 -27.5t-25.5 -5.5q-31 0 -31 21q0 7 8.5 37.5t29.5 78.5t49.5 92t75 75.5t99.5 31.5q67 0 111.5 -45.5t44.5 -120.5q0 -37 -27 -110q-36 -98 -55.5 -156t-41.5 -146.5t-22 -146.5q0 -29 4.5 -54t16 -49.5t34.5 -39t56 -14.5q107 0 188 118
q18 27 29 68l150 598q19 76 79 76q28 0 43 -17t15 -37q0 -10 -6 -28l-148 -590q-14 -57 -14 -105q0 -16 1 -26t5.5 -25.5t16 -23.5t30.5 -8q25 0 46.5 20.5t38 59.5t28 75t24.5 88q9 34 14.5 40.5t24.5 6.5q31 0 31 -20z" />
    <glyph glyph-name="v" unicode="v" horiz-adv-x="942" 
d="M1010 770q0 -25 -12 -103t-44.5 -198.5t-79 -228t-126.5 -185.5t-177 -78q-48 0 -91 13t-80 40t-59 76.5t-22 116.5q0 66 25 153t80 240q49 135 49 185q0 36 -12 47.5t-33 11.5q-34 0 -64 -21.5t-49.5 -50t-37 -69t-25 -65.5t-14.5 -52q-6 -22 -11.5 -27.5t-25.5 -5.5
q-31 0 -31 21q0 7 8.5 37.5t29.5 78.5t49.5 92t75 75.5t99.5 31.5q67 0 111.5 -45.5t44.5 -120.5q0 -14 -2.5 -29t-5 -23.5t-8 -26.5t-7.5 -23q-37 -99 -58 -159t-42 -145t-21 -140q0 -29 5.5 -56t19.5 -54t42 -43.5t67 -16.5q66 0 124.5 54t94.5 130.5t63 161t38 144
t11 81.5q0 103 -55 162q-1 1 -5.5 6t-5.5 6.5t-4.5 6.5t-5 8t-3.5 7.5t-2.5 9.5t-0.5 11q0 35 31.5 64.5t67.5 29.5q42 0 63 -38.5t21 -96.5z" />
    <glyph glyph-name="w" unicode="w" horiz-adv-x="1359" 
d="M1427 770q0 -81 -47.5 -269.5t-93.5 -293.5q-97 -230 -270 -230q-88 0 -149 36.5t-85 95.5q-77 -132 -198 -132q-119 0 -193 64q-69 64 -69 188q0 36 3.5 63.5t27 110.5t71.5 213q49 135 49 185q0 36 -12 47.5t-33 11.5q-34 0 -64 -21.5t-49.5 -50t-37 -69t-25 -65.5
t-14.5 -52q-6 -22 -11.5 -27.5t-25.5 -5.5q-31 0 -31 21q0 7 8.5 37.5t29.5 78.5t49.5 92t75 75.5t99.5 31.5q67 0 111.5 -45.5t44.5 -120.5q0 -38 -25 -108q-58 -156 -87.5 -255.5t-29.5 -174.5q0 -15 1 -29.5t9 -44t21.5 -50.5t43 -37.5t69.5 -16.5q38 0 72.5 26.5
t55 61.5t32.5 64t12 40q0 64 16 129l117 467q18 72 78 72q28 0 42.5 -17t14.5 -37q0 -11 -33 -135l-86 -344q-24 -94 -24 -157q0 -73 32 -121.5t103 -48.5q124 0 205 190q30 73 65 198.5t35 182.5q0 103 -55 162q-1 1 -5.5 6t-5.5 6.5t-4.5 6.5t-5 8t-3.5 7.5t-2.5 9.5
t-0.5 11q0 35 31 64.5t67 29.5q42 0 63 -38.5t21 -96.5z" />
    <glyph glyph-name="x" unicode="x" horiz-adv-x="950" 
d="M999 293q0 -14 -12 -48.5t-38.5 -80.5t-62 -87.5t-89.5 -70.5t-113 -29q-33 0 -66 9.5t-71.5 43t-57.5 87.5q-33 -57 -83.5 -98.5t-116.5 -41.5q-74 0 -127 34.5t-53 92.5q0 49 31 80t71 31q27 0 48.5 -15t21.5 -50q0 -29 -19.5 -58.5t-60.5 -40.5q34 -28 90 -28
q26 0 48.5 10t39 24.5t32 40.5t25.5 48t21 57t17 57t15 59l48 187q43 182 43 225q0 61 -27 95t-72 34q-67 0 -135.5 -66t-107.5 -190q-8 -25 -12.5 -30t-24.5 -5q-31 0 -31 21q0 16 12.5 51t39.5 80.5t63 86.5t89 69t111 28q24 0 47 -5t52.5 -18t55.5 -43t42 -73
q10 19 25 39t40 44.5t60.5 40t75.5 15.5q26 0 53.5 -6t57 -19t48.5 -40t19 -64q0 -54 -32.5 -81t-67.5 -27q-36 0 -54 20.5t-18 44.5q0 3 0.5 8.5t5 20t12 26.5t24.5 24.5t40 18.5q-33 29 -90 29q-66 0 -110.5 -62.5t-70.5 -156.5l-69 -281q-39 -171 -39 -206
q0 -72 29 -101.5t67 -29.5q70 0 137.5 65.5t106.5 190.5q7 24 12.5 29t24.5 5q30 0 30 -20z" />
    <glyph glyph-name="y" unicode="y" horiz-adv-x="995" 
d="M850 -6q-26 -103 -91 -197t-161.5 -155.5t-198.5 -61.5q-86 0 -141 48.5t-55 127.5q0 33 8.5 57.5t20.5 37t28 20.5t26.5 10t20.5 2q29 0 49.5 -17t20.5 -48q0 -30 -22.5 -61t-65.5 -38l-17 -6q0 -4 3.5 -13t13 -22t23 -25t36.5 -20t51 -8q42 0 85 20.5t89.5 66t88 133.5
t69.5 208q-76 -76 -184 -76q-95 0 -162.5 57.5t-67.5 180.5q0 71 28 167t79 234q49 135 49 185q0 36 -12 47.5t-33 11.5q-34 0 -64 -21.5t-49.5 -50t-37 -69t-25 -65.5t-14.5 -52q-6 -22 -11.5 -27.5t-25.5 -5.5q-31 0 -31 21q0 7 8.5 37.5t29.5 78.5t49.5 92t75 75.5
t99.5 31.5q67 0 111.5 -45.5t44.5 -120.5q0 -37 -27 -110q-36 -98 -55.5 -156t-41.5 -146.5t-22 -146.5q0 -29 4.5 -54t16 -49.5t34.5 -39t56 -14.5q81 0 142 62.5t75 119.5l150 602q19 76 79 76q28 0 43 -17t15 -37q0 -3 -2.5 -13t-3.5 -15z" />
    <glyph glyph-name="z" unicode="z" horiz-adv-x="837" 
d="M887 293q0 -22 -21 -70.5t-58 -105t-99 -98.5t-131 -42q-29 0 -54.5 13t-38 26.5t-34.5 40.5q-22 31 -33 43.5t-27.5 21.5t-38.5 9q-11 0 -22.5 -3t-21 -7t-20.5 -11.5t-18.5 -13.5t-17 -17t-15 -17t-14.5 -18.5t-12 -17t-11.5 -16.5t-9.5 -14q-5 -9 -7 -11.5t-8 -5
t-17 -2.5q-31 0 -31 21q0 19 67.5 114t145.5 171l336 333q12 12 82 91q-21 0 -31 1t-34 7.5t-56 21.5q-83 37 -123 37q-54 0 -96.5 -29.5t-55.5 -66.5q-8 -20 -13 -24.5t-23 -4.5q-31 0 -31 23q0 18 17 54.5t45.5 77t76.5 71t101 30.5q23 0 42.5 -6.5t36 -22t23.5 -24
t22 -27.5q31 -42 50.5 -57.5t46.5 -15.5q28 0 54 23t73 104q9 19 14.5 22.5t24.5 3.5q28 0 28 -20q0 -10 -28.5 -55.5t-82 -114t-108.5 -123.5l-297 -293q-45 -45 -115 -125q10 2 37 2q48 0 127 -35q73 -32 115 -32q67 0 131.5 48.5t91.5 123.5q6 21 11.5 26.5t23.5 5.5
q31 0 31 -20z" />
    <glyph glyph-name="braceleft" unicode="{" horiz-adv-x="1024" 
d="M1253 1513q-6 -18 -24 -22q-67 -4 -120.5 -21.5t-76 -32t-53.5 -40.5q-44 -36 -62 -78.5t-49 -165.5l-92 -369q-6 -26 -12.5 -44.5t-28.5 -55t-52 -64t-86.5 -58t-129.5 -50.5q191 -59 184 -211q-4 -36 -43 -186l-76 -308q-20 -79 -18 -98q0 -65 50.5 -117t160.5 -59
q26 -3 28 -10q1 -4 -1 -12q-3 -16 -12.5 -19.5t-32.5 -3.5q-62 0 -140 18.5t-127 59.5q-26 22 -40.5 46.5t-20.5 43.5t-3 52.5t7.5 54t15.5 67.5l103 406q10 51 9 89.5t-19 66t-38 45.5t-49.5 29.5t-53 16t-48.5 6.5q-10 1 -13.5 1.5t-9.5 3t-5 6.5t1 12q5 23 33 23
q60 4 113 22.5t75 33t50 36.5q49 41 67.5 85.5t55.5 196.5l94 375q30 108 164 180t291 72q16 0 22 -1t10.5 -6t1.5 -16z" />
    <glyph glyph-name="bar" unicode="|" horiz-adv-x="569" 
d="M215 -444q-13 -46 -27 -58q-12 -10 -30 -10q-44 0 -25 68l477 1912q6 20 10.5 31.5t17.5 24t32 12.5q27 0 29.5 -23t-7.5 -45z" />
    <glyph glyph-name="braceright" unicode="}" horiz-adv-x="1024" 
d="M1004 512q-7 -23 -35 -23q-135 -8 -236 -92q-49 -41 -67.5 -85t-57.5 -197l-94 -375q-30 -108 -163 -180t-290 -72q-13 0 -19.5 1t-12.5 6t-4 16q6 18 24 22q67 4 121 21.5t75.5 31.5t55.5 41q43 36 60.5 78.5t48.5 165.5l92 369q6 26 12.5 44.5t28.5 55t52 64t87 58
t131 50.5q-193 58 -186 211q1 9 8 40.5t18.5 78t16.5 67.5l78 308q18 81 18 98q0 65 -51.5 117t-161.5 59q-26 3 -28 10q-1 4 1 12q6 23 47 23q62 0 138.5 -19t126.5 -59q26 -22 40.5 -46.5t20.5 -43.5t3 -52.5t-7.5 -54t-15.5 -67.5l-103 -406q-10 -51 -9 -89.5t19 -66
t38 -45.5t49.5 -29.5t53 -16t48.5 -6.5q13 -1 18 -2.5t9 -6.5t2 -14z" />
    <glyph glyph-name="asciitilde" unicode="~" horiz-adv-x="1138" 
d="M1284 594l-133 -90q-49 -35 -133 -72q-94 -37 -160 -37q-55 0 -97 18.5t-89 51.5q-40 27 -61.5 39.5t-58 24.5t-75.5 12q-140 0 -350 -146l-21 35l134 90q52 35 135 72q94 37 160 37q38 0 74.5 -11.5t57.5 -23.5t54 -35q40 -27 61 -39.5t58 -24.5t75 -12q137 0 351 146z
" />
    <glyph glyph-name="uni00A0" unicode="&#xa0;" 
 />
    <glyph glyph-name="cent" unicode="&#xa2;" horiz-adv-x="942" 
d="M958 213q0 -10 -18 -35.5t-55.5 -59t-85 -64t-116 -53t-140.5 -24.5l-8 -38q-5 -12 -16 -21.5t-23 -9.5q-13 0 -20.5 9.5t-2.5 21.5l10 41q-118 15 -188 105.5t-70 229.5q0 105 42 210t110 185t157 133t179 60l10 41q3 12 15 21.5t24 9.5t18.5 -9.5t3.5 -21.5l-10 -41
q85 -7 137 -55.5t52 -118.5q0 -56 -31 -89.5t-74 -33.5q-33 0 -51.5 19.5t-18.5 46.5q0 4 0.5 10t6.5 21.5t15.5 28.5t30.5 25t50 15q-27 77 -127 88l-209 -835q30 2 64 10.5t82 28t100.5 60.5t97.5 99q18 23 27 23q11 0 21.5 -12t10.5 -21zM494 27l206 827
q-60 -14 -119.5 -65.5t-103.5 -133.5q-40 -73 -74 -206.5t-34 -215.5t31.5 -137.5t93.5 -68.5z" />
    <glyph glyph-name="sterling" unicode="&#xa3;" horiz-adv-x="1574" 
d="M1296 283q0 -20 -15.5 -56t-47.5 -79t-74.5 -81.5t-104 -64t-128.5 -25.5q-74 0 -131 29t-187 121q-56 -68 -137 -109t-154 -41q-57 0 -97 25.5t-40 75.5q0 73 80 140t189 67q62 0 120 -25q15 42 58 207l53 213h-107q-20 0 -28 0.5t-14.5 5t-6.5 14.5q0 21 8 30.5t17 11
t31 1.5h116l80 328q37 151 159 263t257 112q116 0 177 -78t61 -194q0 -191 -113 -191q-28 0 -49 17.5t-21 48.5q0 45 37 77q17 14 33.5 17.5t48.5 3.5v35q0 104 -46.5 161.5t-125.5 57.5q-78 0 -155 -73t-121 -224l-91 -361h158q20 0 28 -0.5t14.5 -5t6.5 -14.5
q0 -21 -7.5 -30.5t-16.5 -11t-31 -1.5h-168l-82 -334q-16 -66 -61 -141q128 -91 179.5 -117.5t115.5 -26.5q85 0 160.5 60.5t105.5 146.5q8 25 13 30t24 5q30 0 30 -20zM528 174q-62 27 -116 27q-63 0 -109.5 -41t-46.5 -84q0 -19 14.5 -36t46.5 -17q50 0 109 39t102 112z
" />
    <glyph glyph-name="currency" unicode="&#xa4;" horiz-adv-x="1570" 
d="M1257 76q-35 -27 -69 -6l-21 26l-82 109q-131 -88 -270 -88q-142 0 -227 88l-137 -111q-16 -12 -22 -16t-20.5 -11.5t-26 -6t-22.5 9.5q-34 22 29 69l154 123q-61 113 -25 250q33 137 150 250l-99 129q-28 33 2 59q38 26 68 6q7 -5 20 -26l84 -109q130 86 269 86
q142 0 227 -88l137 111q42 31 61 33q16 1 29 -9q35 -22 -28 -69l-156 -123q64 -111 27 -250q-33 -137 -148 -248l99 -129q7 -12 10 -18t1 -18t-14 -23zM1227 512q32 130 -36.5 221.5t-199.5 91.5t-245 -91.5t-146 -221.5q-34 -130 35.5 -221.5t200.5 -91.5q129 0 244 91.5
t147 221.5z" />
    <glyph glyph-name="yen" unicode="&#xa5;" horiz-adv-x="1521" 
d="M1790 1376q0 -18 -7 -27.5t-12.5 -10.5t-19.5 -3q-75 -6 -138.5 -44t-133.5 -124l-400 -485h310q12 0 19.5 -9.5t4.5 -21.5t-15 -21t-24 -9h-346l-33 -41q-2 -3 -4 -5t-3.5 -4.5t-2.5 -4t-2.5 -5t-2 -5l-2 -6t-2 -7t-2.5 -9t-3 -10.5l-31 -121h379q12 0 19.5 -9t4.5 -21
t-14.5 -21.5t-23.5 -9.5h-379l-19 -70q-39 -164 -39 -174q0 -23 29 -29t90 -6q20 0 26 -0.5t15 -2.5t11.5 -7t2.5 -14q0 -18 -8 -27.5t-14 -10.5t-16 -1q-39 0 -121.5 3t-122.5 3q-39 0 -119 -3t-119 -3q-28 0 -28 25q0 14 3 22.5t12 11.5t15 3.5t21 0.5l64.5 1.5t43 6.5
t29.5 10.5t18 22t13.5 31.5t11.5 49l41 158h-375q-13 0 -19 9.5t-3 21.5t13.5 21t23.5 9h374q7 30 18 72.5t16 62t5 21.5q0 11 -8 31l-10 31h-340q-13 0 -19.5 9t-3.5 21q3 13 13.5 22t23.5 9h307l-188 592q-11 36 -36 48.5t-95 12.5q-18 0 -26.5 1t-15.5 6.5t-7 17.5
q0 18 8 27.5t14.5 10.5t16.5 1q34 0 106 -3t107 -3q40 0 120 3t119 3q29 0 29 -25q0 -14 -3.5 -22.5t-11 -12t-13.5 -4t-17 -0.5q-115 0 -115 -49q0 -6 8 -26l183 -578h43l417 510q0 1 6.5 9t13.5 17.5t14.5 22t12.5 25t5 22.5q0 43 -64 47q-31 0 -31 25q0 18 7.5 27.5
t14 10.5t15.5 1q30 0 94.5 -3t96.5 -3q26 0 78.5 3t76.5 3q11 0 17.5 -5.5t7.5 -11.5v-6z" />
    <glyph glyph-name="brokenbar" unicode="&#xa6;" horiz-adv-x="569" 
d="M502 702q-3 -13 -18 -21.5t-31 -8.5t-26 8.5t-7 21.5l190 766q6 20 10.5 31.5t17.5 24t32 12.5q27 0 29.5 -23t-7.5 -45zM215 -444q-13 -46 -27 -58q-12 -10 -30 -10q-44 0 -25 68l191 766q3 13 18 21.5t31 8.5t26 -8.5t7 -21.5z" />
    <glyph glyph-name="section" unicode="&#xa7;" horiz-adv-x="1003" 
d="M1038 397q-21 -78 -85 -141.5t-154 -103.5q55 -110 22 -230q-35 -147 -160.5 -252.5t-267.5 -105.5q-136 0 -197 112t-22 265q7 34 37.5 58t64.5 24t52 -24t10 -58q-9 -34 -38.5 -58t-63.5 -24h-11q2 -87 53 -144t138 -57q97 0 180.5 78.5t110.5 185.5q20 81 -20 145.5
t-118 108.5l-166 98q-103 61 -156 151.5t-26 201.5q21 78 85.5 141t154.5 104q-55 110 -23 230q35 147 160.5 252.5t267.5 105.5q136 0 197 -112t22 -265q-7 -34 -37.5 -58t-64.5 -24q-33 0 -51 24t-10 58q9 34 38.5 58t63.5 24h10q-2 88 -52.5 144.5t-137.5 56.5
q-97 0 -180.5 -78.5t-110.5 -185.5q-20 -81 19.5 -145.5t117.5 -108.5l166 -98q103 -61 156 -151.5t26 -201.5zM891 397q19 74 -18.5 134.5t-108.5 101.5l-166 98q-62 38 -106 94q-86 -59 -123 -198q-19 -74 18.5 -134.5t108.5 -101.5l166 -98q67 -44 106 -94q86 56 123 198
z" />
    <glyph glyph-name="dieresis" unicode="&#xa8;" 
d="M750 1249q0 -44 -37 -80t-80 -36q-39 0 -61.5 23t-22.5 56q0 44 37.5 80.5t81.5 36.5q39 0 60.5 -24t21.5 -56zM1112 1249q0 -44 -37 -80t-80 -36q-39 0 -61.5 23t-22.5 56q0 44 37.5 80.5t81.5 36.5q39 0 60.5 -24t21.5 -56z" />
    <glyph glyph-name="copyright" unicode="&#xa9;" horiz-adv-x="1398" 
d="M1399 700q0 -190 -94 -351.5t-255 -255t-350 -93.5q-143 0 -272.5 55.5t-223 149t-149 223t-55.5 272.5q0 189 93.5 350t255 255t351.5 94q142 0 271.5 -55.5t223 -149t149 -223t55.5 -271.5zM1317 700q0 125 -49 239.5t-131.5 197t-197 131.5t-239.5 49
q-126 0 -240.5 -49t-197 -131.5t-131.5 -197t-49 -239.5q0 -126 49 -240.5t131.5 -197t197 -131.5t240.5 -49q125 0 239.5 49t197 131.5t131.5 197t49 240.5zM1114 1116l-76 -299q-3 -14 -6.5 -17t-15.5 -3q-19 0 -19 12q7 43 7 74q0 92 -42.5 158.5t-132.5 66.5
q-73 0 -151 -44t-137 -126q-65 -90 -97 -208.5t-32 -194.5q0 -121 62 -181.5t149 -60.5q31 0 65 9.5t71.5 31.5t70.5 54t62.5 81t47.5 109q4 10 18 10q19 0 19 -13q0 -19 -15 -56t-47.5 -82.5t-75 -86.5t-105 -68.5t-130.5 -27.5q-129 0 -214 90t-85 238q0 105 45 209
t117 181t166.5 125t187.5 48q120 0 185 -105l77 93q4 5 9 8t8 3l2 1q5 0 8.5 -3t4.5 -6l1 -3q0 -2 -1 -8.5t-1 -8.5z" />
    <glyph glyph-name="ordfeminine" unicode="&#xaa;" horiz-adv-x="968" 
d="M1112 1016q-16 -87 -43 -142q-46 -79 -123 -79q-48 0 -89.5 25.5t-57.5 74.5q-94 -100 -201 -100q-94 0 -154 64t-65 159q-5 102 48 201.5t142 162t183 62.5q97 0 145 -84q14 55 68 55q45 0 47 -37q0 -10 -4 -30l-99 -390q-8 -33 -8 -73q0 -58 47 -58q28 0 50 28
t33.5 60.5t23.5 81.5q8 24 11.5 28.5t18.5 4.5q27 0 27 -14zM1008 713q-3 -9 -14 -16t-23 -7h-629q-12 0 -20 7t-5 16q1 9 12 14.5t25 5.5h627q14 0 21 -5.5t6 -14.5zM807 989l67 271l5 18q-3 51 -38.5 93t-88.5 42q-51 0 -103 -46t-82 -114q-22 -48 -46 -148t-23 -151
q1 -19 5.5 -38.5t15 -40.5t31.5 -34.5t50 -13.5q64 0 130 59.5t77 102.5z" />
    <glyph glyph-name="guillemotleft" unicode="&#xab;" horiz-adv-x="1150" 
d="M817 961q-117 -252 -295 -469q69 -225 60 -472q0 -20 -21 -20h-4q-7 0 -12.5 5t-5.5 13q-18 265 -148 465q-4 8 -4 13q0 6 8 14q235 209 383 469q3 10 17 10h4q20 0 20 -20q0 -6 -2 -8zM1130 961q-118 -254 -294 -469q68 -223 59 -472q0 -20 -21 -20h-4q-8 0 -13 5t-5 13
q-19 266 -147 465q-5 10 -5 13q0 5 9 14q235 209 383 469q3 10 16 10h4q21 0 21 -20q0 -5 -3 -8z" />
    <glyph glyph-name="logicalnot" unicode="&#xac;" horiz-adv-x="1570" 
d="M1593 711l-100 -398q-3 -17 -18 -29t-33 -12q-17 0 -25.5 11.5t-5.5 29.5l90 357h-1136q-17 0 -26 12t-5 29q5 17 19.5 29t31.5 12h1178q17 0 26 -12t4 -29z" />
    <glyph glyph-name="uni00AD" unicode="&#xad;" horiz-adv-x="733" 
d="M678 408q-4 -18 -13.5 -21.5t-41.5 -3.5h-394q-32 0 -42.5 4t-10.5 23t14 61q6 20 14 23.5t40 3.5h399q20 0 28.5 -1t15.5 -6.5t7 -17.5q0 -17 -16 -65z" />
    <glyph glyph-name="registered" unicode="&#xae;" horiz-adv-x="1398" 
d="M1399 700q0 -190 -94 -351.5t-255 -255t-350 -93.5q-143 0 -272.5 55.5t-223 149t-149 223t-55.5 272.5q0 189 93.5 350t255 255t351.5 94q142 0 271.5 -55.5t223 -149t149 -223t55.5 -271.5zM1317 700q0 125 -49 239.5t-131.5 197t-197 131.5t-239.5 49
q-126 0 -240.5 -49t-197 -131.5t-131.5 -197t-49 -239.5q0 -126 49 -240.5t131.5 -197t197 -131.5t240.5 -49q125 0 239.5 49t197 131.5t131.5 197t49 240.5zM1124 408q0 -6 -8 -26.5t-23 -47t-44 -46.5t-64 -20q-64 0 -107.5 32.5t-43.5 96.5q0 23 16 99q22 86 22 96
q0 60 -33.5 84t-82.5 24h-131l-80 -321q-6 -18 -6 -25q0 -8 2 -11.5t18.5 -7t50.5 -3.5q20 0 26.5 -2.5t6.5 -12.5q0 -11 -4.5 -16t-7.5 -5.5t-10 -0.5q-23 0 -73 2t-73 2t-71 -2t-72 -2q-17 0 -17 14q0 11 5 16t10.5 6t17.5 1q60 0 76.5 9.5t24.5 43.5l165 666q4 16 4 22
q0 14 -17 17.5t-52 3.5q-21 0 -28 2t-7 12q0 17 8 21t27 4h323q110 0 178 -54t68 -129q0 -73 -67 -140.5t-191 -98.5q49 -18 78 -55.5t29 -88.5q0 -32 -11 -106q-8 -66 -8 -94q0 -35 8 -53.5t33 -18.5q30 0 55.5 28t40.5 80l4 12t5 6t12 3q18 0 18 -16zM1008 979
q0 28 -8.5 48.5t-26.5 32.5t-34.5 19.5t-44 10.5t-43 3.5t-42.5 0.5q-62 0 -72 -2q-6 -1 -9 -3t-8 -11.5t-9 -26.5l-80 -324h125q112 0 180 64q30 30 48 78t21 72t3 38z" />
    <glyph glyph-name="macron" unicode="&#xaf;" 
d="M1171 1239q0 -19 -7.5 -27.5t-16.5 -10t-31 -1.5h-573q-30 0 -40.5 4t-10.5 23q0 24 12 29.5t43 5.5h573q19 0 27.5 -1t16 -6t7.5 -16z" />
    <glyph glyph-name="degree" unicode="&#xb0;" horiz-adv-x="784" 
d="M938 1139q-26 -108 -122 -185t-204 -77q-109 0 -166.5 76.5t-29.5 185.5q26 107 122 183.5t205 76.5q107 0 165 -76.5t30 -183.5zM856 1139q19 73 -20 125.5t-113 52.5q-75 0 -140.5 -52t-84.5 -126q-19 -75 20.5 -128t114.5 -53q74 0 139 53t84 128z" />
    <glyph glyph-name="plusminus" unicode="&#xb1;" horiz-adv-x="1570" 
d="M1423 41q0 -19 -12 -28.5t-23.5 -11t-31.5 -1.5h-1118q-15 0 -23.5 1t-20.5 4t-18 12t-6 24t6 24t18 12t20.5 4t23.5 1h526l127 506h-508q-15 0 -23.5 1t-20.5 4t-18 12t-6 24t6 24t18 12t20.5 4t23.5 1h528l133 536q11 51 46 51q18 0 29 -11t11 -29q0 -10 -8 -39
l-127 -508h506q15 0 23.5 -1t20.5 -4t18 -12t6 -24t-6 -24t-18 -12t-20.5 -4t-23.5 -1h-526l-125 -506h506q12 0 18.5 -0.5t17 -2.5t16.5 -6t10.5 -12t4.5 -20z" />
    <glyph glyph-name="two.superior" unicode="&#xb2;" horiz-adv-x="790" 
d="M905 827q1 -6 -6 -29t-24 -57t-41.5 -65t-65 -53.5t-88.5 -22.5q-62 0 -145 49q-3 2 -19 10t-21.5 10.5t-19.5 9t-22.5 8.5t-21 4.5t-23.5 2.5q-31 0 -51 -24t-29 -56q-3 -9 -7.5 -11.5t-17.5 -2.5q-20 0 -22 12q1 10 6 27t32.5 67.5t71.5 96.5q28 29 62 54t56 37t66 34
q58 30 101.5 62t81.5 75t57 98t16 119q-3 70 -43.5 102.5t-93.5 32.5q-62 0 -117.5 -37t-88.5 -89t-51.5 -102.5t-16.5 -82.5q2 -39 35 -39q59 0 98 63t37 103q0 21 -17 45l-2 6q0 6 5.5 10t11.5 4q13 0 24 -23t11 -42q1 -28 -15.5 -71.5t-58 -83.5t-94.5 -40q-74 0 -80 78
q-1 25 10.5 64.5t38.5 85.5t64 85.5t92.5 66t117.5 26.5q94 0 165 -54t75 -153q3 -58 -17.5 -104t-70.5 -87.5t-105.5 -73.5t-150.5 -77q-27 -14 -34.5 -18t-40 -23.5t-51 -35.5t-45.5 -43.5t-46 -57.5q4 4 31 4q46 0 157 -21q58 -14 123 -14q67 0 110.5 41t61.5 90
q3 15 7 19t16 4q22 0 22 -13z" />
    <glyph glyph-name="three.superior" unicode="&#xb3;" horiz-adv-x="735" 
d="M852 877q4 -71 -47 -136t-135 -103t-176 -38q-90 0 -145 45.5t-58 110.5q-3 9 -0.5 25t7.5 31.5t21.5 27.5t42.5 12q25 0 38.5 -11.5t15.5 -27.5q0 -20 -19.5 -41t-60.5 -18q6 -63 51.5 -95t106.5 -32q48 0 94 19.5t78 51.5q46 47 63 116t14 101q-4 103 -118 103h-41h-17
t-10.5 1.5t-7.5 4t-2 6.5q-1 13 4 19t11.5 7t21.5 1h32q58 0 103 17t70 44t42 56.5t22.5 60t7.5 47.5t1 25q-3 60 -41.5 85t-89.5 25q-103 0 -186 -69t-80 -144q5 -45 41 -45q33 0 60 23t26 53q0 8 -3.5 17.5t-6.5 14.5l-4 5l-7 12q0 6 5.5 10t11.5 4q11 0 23 -21t14 -40
q1 -43 -36.5 -73.5t-80.5 -30.5q-40 0 -63 21.5t-25 55.5q-3 82 91.5 158t221.5 76q90 0 153 -44.5t66 -119.5t-57 -146t-168 -102q115 -44 125 -155z" />
    <glyph glyph-name="acute" unicode="&#xb4;" 
d="M1104 1368q0 -38 -41 -65l-330 -252q-19 -17 -28 -17q-11 0 -22 11.5t-11 23.5q0 11 20 31l291 291q34 34 64 34q21 0 39 -15.5t18 -41.5z" />
    <glyph glyph-name="uni00B5" unicode="&#xb5;" 
d="M1096 293q0 -4 -8 -38t-23 -82.5t-29 -78.5q-35 -64 -66 -89q-37 -28 -83 -28q-56 0 -104 35.5t-62 102.5q-64 -73 -123.5 -105.5t-130.5 -32.5q-113 0 -182 60q-93 -364 -95 -373q-7 -27 -11.5 -42t-14 -32t-24.5 -24.5t-36 -7.5q-27 0 -42 16t-15 37q0 5 6 35l295 1175
q18 82 82 82q22 0 38.5 -14t16.5 -39l-30 -129l-93 -369q-24 -99 -24 -159q0 -33 6 -61t20.5 -53.5t42.5 -40.5t68 -15q49 0 95 24t77.5 60t52 71t27.5 62l141 563q4 14 7 22.5t12 24t24.5 23.5t36.5 8t38.5 -13t17.5 -41q0 -18 -31 -129q-5 -21 -35 -139l-61 -252
q-41 -174 -41 -203q0 -81 53 -81q38 0 69.5 48.5t67.5 196.5q8 31 13.5 38t25.5 7q31 0 31 -20z" />
    <glyph glyph-name="paragraph" unicode="&#xb6;" horiz-adv-x="1251" 
d="M1538 1380q-4 -15 -12 -24t-21 -12t-21.5 -4t-23.5 -1h-102l-418 -1669q-13 -46 -28 -58q-12 -9 -29 -9q-27 0 -31 22.5t6 44.5l418 1669h-143l-418 -1669q-6 -22 -9.5 -32t-16.5 -22.5t-32 -12.5q-27 0 -30.5 22.5t6.5 44.5l201 801q-81 3 -158 22.5t-147.5 57
t-116.5 93.5t-65.5 132t5.5 172q31 127 126 236t229.5 173t275.5 64h498h15t15 -1.5t13.5 -4t10 -7t5 -11.5t-1.5 -17z" />
    <glyph glyph-name="periodcentered" unicode="&#xb7;" horiz-adv-x="1570" 
d="M1071 721q0 -47 -41 -88t-92 -41q-40 0 -65 24t-25 64q0 50 41.5 89.5t91.5 39.5q41 0 65.5 -26t24.5 -62z" />
    <glyph glyph-name="cedilla" unicode="&#xb8;" horiz-adv-x="942" 
d="M688 -223q0 -27 -10.5 -50.5t-26.5 -39.5t-42.5 -29.5t-50 -21.5t-58 -14t-58.5 -9t-59 -4.5t-52 -1.5h-44h-51q-27 0 -27 22q0 16 11 19.5t40 3.5h21q276 0 276 127q0 27 -22.5 49.5t-75.5 26.5q-1 0 -6 0.5t-6.5 1t-5.5 1.5t-5.5 3t-3.5 4.5t-3 6.5t-1 9q0 4 7 31
t15 58.5t9 37.5q3 8 11 10t40 2h27h23t15.5 -1.5t12 -4.5t4.5 -8l-29 -117q62 -12 93.5 -41.5t31.5 -70.5z" />
    <glyph glyph-name="one.superior" unicode="&#xb9;" horiz-adv-x="768" 
d="M770 649q1 -8 -1.5 -13t-9 -6.5t-9.5 -2t-9 -0.5q-31 0 -98 2t-98 2t-97 -2t-98 -2q-20 0 -22 14q0 16 9 19.5t32 3.5h12q57 0 84.5 5.5t36 15t14.5 32.5l146 581q-81 -51 -162 -51q-23 0 -25 17q0 6 1.5 10t5 6t6 3t6 2t4.5 1q26 2 44.5 6t55.5 16.5t76.5 42.5t77.5 74
q21 18 26 19q16 0 19 -14q-2 -13 -4 -17l-177 -700q0 -1 -1.5 -10.5t-0.5 -14.5q0 -12 7.5 -15t33.5 -5q40 -4 64 -4h12q21 0 30 -2.5t9 -12.5z" />
    <glyph glyph-name="ordmasculine" unicode="&#xba;" horiz-adv-x="878" 
d="M1059 1210q4 -77 -30.5 -153.5t-92.5 -133.5t-136 -92.5t-157 -35.5q-108 0 -182 64.5t-80 172.5q-5 102 54 198t157 155t203 59q113 0 185.5 -65.5t78.5 -168.5zM918 713q-8 -23 -37 -23h-537q-13 0 -21 7t-6 16q7 20 37 20h539q12 0 19 -5.5t6 -14.5zM936 1266
q-3 65 -40.5 106t-100.5 41q-52 0 -108.5 -34t-98.5 -97q-37 -56 -62 -153t-22 -154q4 -73 43.5 -110.5t95.5 -37.5q61 0 119.5 41t93.5 103q36 60 59 152t21 143z" />
    <glyph glyph-name="guillemotright" unicode="&#xbb;" horiz-adv-x="1150" 
d="M1014 496q0 -9 -8 -17q-235 -206 -383 -469q-3 -10 -17 -10h-4q-20 0 -20 20q0 7 2 9q112 245 295 471q-68 222 -62 471q4 18 21 18h4q20 0 20 -18q18 -261 148 -465q4 -8 4 -10zM700 496q0 -9 -8 -17q-235 -206 -383 -469q-3 -10 -16 -10h-4q-21 0 -21 20q0 7 2 9
q112 245 295 471q-67 219 -61 471q4 18 20 18h4q9 0 15 -5t6 -13q18 -263 147 -465q4 -8 4 -10z" />
    <glyph glyph-name="onequarter" unicode="&#xbc;" horiz-adv-x="1652" 
d="M770 649q1 -11 -4.5 -16t-10 -5.5t-12.5 -0.5q-33 0 -99 2t-99 2q-31 0 -96 -2t-97 -2q-22 0 -24 14q0 16 9 19.5t32 3.5h12q82 0 105.5 10t31.5 43l144 581q-81 -51 -162 -51q-25 0 -25 17q0 6 1.5 10t5 6t6 3t6 2t4.5 1q27 2 46 6t56 16.5t76 42.5t76 74q20 18 24 19
q21 0 21 -14q-2 -13 -4 -17l-177 -700q-4 -12 -4 -25q1 -12 9.5 -15t35.5 -5q32 -4 62 -4h12q39 0 39 -15zM1499 16q0 -12 -49.5 -23t-85.5 -11q-21 0 -31 2l-45 -181q-8 -41 -53 -41q-41 0 -43 31q0 1 1 8.5t5 18.5l43 182l-86 29q-51 14 -108 14q-86 0 -113 -18
q-40 -25 -47 -25q-8 0 -15.5 8t-7.5 13q-1 12 21.5 26.5t34.5 16.5q17 11 42.5 30.5t87.5 83t109 133.5q130 186 199 445q5 22 9 32t16 19.5t32 9.5q15 0 28 -7.5t13 -25.5q-3 -16 -9.5 -44.5t-38 -113.5t-75.5 -166.5t-130 -187.5t-193 -192h39q57 0 114 -12q11 -3 18 -7
t72 -22q0 4 24.5 98.5t27.5 104.5q9 34 20 43q13 10 35 10q41 0 41 -33q2 -5 -4 -24l-54 -220h25q45 0 86 13l23 6q8 0 15 -8.5t7 -14.5zM1708 1358q-3 -12 -12 -21l-1166 -1319q-18 -18 -41 -18q-17 0 -25 11.5t-5 29.5q3 13 12 22l1167 1317q16 19 39 19q17 0 26 -12
t5 -29z" />
    <glyph glyph-name="onehalf" unicode="&#xbd;" horiz-adv-x="1652" 
d="M770 649q1 -11 -4.5 -16t-10 -5.5t-12.5 -0.5q-33 0 -99 2t-99 2q-31 0 -96 -2t-97 -2q-22 0 -24 14q0 16 9 19.5t32 3.5h12q82 0 105.5 10t31.5 43l144 581q-81 -51 -162 -51q-25 0 -25 17q0 6 1.5 10t5 6t6 3t6 2t4.5 1q27 2 46 6t56 16.5t76 42.5t76 74q20 18 24 19
q21 0 21 -14q-2 -13 -4 -17l-177 -700q-4 -12 -4 -25q1 -12 9.5 -15t35.5 -5q32 -4 62 -4h12q39 0 39 -15zM1544 201q0 -10 -12.5 -42.5t-36.5 -76t-71 -76.5t-105 -33q-60 0 -145 50l-13 6.5t-14 7.5t-13 6.5t-15 6.5t-14 5.5t-15.5 5t-14.5 4t-15.5 3t-15.5 0.5
q-53 0 -77 -78q-3 -11 -7.5 -14t-17.5 -3q-22 0 -24 13q2 10 7 27t33 67t72 96q14 15 30 29t27.5 23.5t32 22t29 17.5t33 18.5t30.5 16.5q58 29 102 61t82 74.5t56.5 97.5t15.5 119q-3 70 -42.5 103t-92.5 33q-63 0 -118.5 -37t-88 -88.5t-51 -102t-16.5 -82.5q2 -41 35 -41
q58 0 97.5 63.5t37.5 102.5q0 15 -17 45l-2 8q-1 4 4 8.5t11 4.5q13 0 24 -23.5t11 -42.5q2 -19 -8 -49.5t-29 -63t-53.5 -56t-75.5 -23.5q-45 0 -62.5 24t-17.5 51q-1 25 10.5 65t38.5 86t63.5 86t91.5 66.5t117 26.5q94 0 165 -54.5t77 -154.5q2 -47 -13.5 -86.5t-40 -70
t-73.5 -64t-95 -58.5t-122 -63q-147 -65 -219 -178q4 4 33 4q47 0 157 -20q94 -15 121 -15q67 0 110.5 42t61.5 92q3 13 7 16.5t18 3.5q20 0 22 -12zM1559 1358q0 -4 -11 -21l-1167 -1319q-18 -18 -39 -18q-17 0 -26 12t-5 29q3 12 13 22l1165 1317q16 19 39 19
q18 0 27 -11.5t4 -29.5z" />
    <glyph glyph-name="threequarters" unicode="&#xbe;" horiz-adv-x="1652" 
d="M946 877q4 -109 -106.5 -193t-251.5 -84q-90 0 -146 45.5t-59 110.5q0 96 74 96q25 0 39 -11.5t14 -27.5q0 -21 -18.5 -41.5t-61.5 -17.5q6 -63 51.5 -95t106.5 -32q48 0 94 19.5t76 51.5q33 33 53 85.5t23.5 82t3.5 49.5q-4 103 -119 103h-41h-17.5t-11 1.5t-7 4
t-1.5 6.5q-1 19 6.5 23t30.5 4h33q65 0 113.5 22.5t72.5 52t38.5 68.5t18 61.5t4.5 40.5v5q-3 41 -25.5 67t-49.5 34.5t-58 8.5q-105 0 -187 -68.5t-79 -144.5q5 -45 41 -45q33 0 60 23t26 53q-1 8 -4.5 17.5t-6.5 14.5l-3 5q-2 3 -3.5 7t-2.5 5q0 6 5 10t11 4q13 0 24 -21
t13 -40q3 -43 -35.5 -73.5t-83.5 -30.5q-38 0 -60.5 21.5t-25.5 55.5q-3 82 91.5 158t221.5 76q90 0 153 -44t67 -120q3 -75 -58 -146t-170 -102q117 -44 127 -155zM1499 16q0 -12 -49.5 -23t-85.5 -11q-21 0 -31 2l-45 -181q-8 -41 -53 -41q-41 0 -43 31q0 1 1 8.5t5 18.5
l43 182l-86 29q-51 14 -108 14q-86 0 -113 -18q-40 -25 -47 -25q-8 0 -15.5 8t-7.5 13q-1 12 21.5 26.5t34.5 16.5q17 11 42.5 30.5t87.5 83t109 133.5q130 186 199 445q5 22 9 32t16 19.5t32 9.5q15 0 28 -7.5t13 -25.5q-3 -16 -9.5 -44.5t-38 -113.5t-75.5 -166.5
t-130 -187.5t-193 -192h39q57 0 114 -12q11 -3 18 -7t72 -22q0 4 24.5 98.5t27.5 104.5q9 34 20 43q13 10 35 10q41 0 41 -33q2 -5 -4 -24l-54 -220h25q45 0 86 13l23 6q8 0 15 -8.5t7 -14.5zM1708 1358q-3 -12 -12 -21l-1166 -1319q-18 -18 -41 -18q-17 0 -25 11.5t-5 29.5
q3 13 12 22l1167 1317q16 19 39 19q17 0 26 -12t5 -29z" />
    <glyph glyph-name="Agrave" unicode="&#xc0;" horiz-adv-x="1521" 
d="M1200 1628q-6 -12 -22 -23.5t-27 -11.5q-10 0 -21 17l-204 252q-26 26 -8 65q13 26 39 42t47 16q14 0 23.5 -6t13 -11t10.5 -18l145 -291q11 -21 4 -31zM1417 37q0 -17 -7.5 -26t-14 -10t-15.5 -1q-35 0 -107 3t-108 3q-39 0 -118 -3t-117 -3q-31 0 -31 25q0 18 8 27
t15.5 10t23.5 1q65 0 101 17.5t36 48.5l-22 340h-467l-148 -258q-28 -54 -28 -78q0 -10 2.5 -19t7 -15t10 -11.5t12.5 -9t13 -6t13.5 -4.5t11.5 -2.5t10 -1.5l6 -1q2 0 6 -0.5t6 -1t5.5 -1t5 -1.5t4 -3t3.5 -4t2 -5.5t1 -7.5q0 -39 -37 -39q-30 0 -94.5 3t-96.5 3
q-27 0 -83 -3t-81 -3q-24 0 -24 25q1 36 24 38q36 2 58.5 6.5t57.5 20t68 51t64 90.5l680 1199q10 20 20 28t33 8q24 0 29.5 -8t7.5 -43l88 -1282q3 -43 22.5 -56.5t94.5 -13.5q21 0 28.5 -0.5t14 -6.5t6.5 -19zM1057 532l-47 670l-381 -670h428z" />
    <glyph glyph-name="Aacute" unicode="&#xc1;" horiz-adv-x="1521" 
d="M1522 1892q0 -38 -41 -65l-330 -252q-18 -16 -29 -16t-21.5 11t-10.5 23q0 11 20 31l291 291q13 13 19 18t18 11t26 6q21 0 39.5 -16t18.5 -42zM1417 37q0 -17 -7.5 -26t-14 -10t-15.5 -1q-35 0 -107 3t-108 3q-39 0 -118 -3t-117 -3q-31 0 -31 25q0 18 8 27t15.5 10
t23.5 1q65 0 101 17.5t36 48.5l-22 340h-467l-148 -258q-28 -54 -28 -78q0 -10 2.5 -19t7 -15t10 -11.5t12.5 -9t13 -6t13.5 -4.5t11.5 -2.5t10 -1.5l6 -1q2 0 6 -0.5t6 -1t5.5 -1t5 -1.5t4 -3t3.5 -4t2 -5.5t1 -7.5q0 -39 -37 -39q-30 0 -94.5 3t-96.5 3q-27 0 -83 -3
t-81 -3q-24 0 -24 25q1 36 24 38q36 2 58.5 6.5t57.5 20t68 51t64 90.5l680 1199q10 20 20 28t33 8q24 0 29.5 -8t7.5 -43l88 -1282q3 -43 22.5 -56.5t94.5 -13.5q21 0 28.5 -0.5t14 -6.5t6.5 -19zM1057 532l-47 670l-381 -670h428z" />
    <glyph glyph-name="Acircumflex" unicode="&#xc2;" horiz-adv-x="1521" 
d="M1384 1583q10 -15 -7 -30t-29 -3l-201 203l-303 -203q-19 -12 -29.5 3t6.5 30l340 295q7 6 16.5 6t14.5 -6zM1417 37q0 -17 -7.5 -26t-14 -10t-15.5 -1q-35 0 -107 3t-108 3q-39 0 -118 -3t-117 -3q-31 0 -31 25q0 18 8 27t15.5 10t23.5 1q65 0 101 17.5t36 48.5l-22 340
h-467l-148 -258q-28 -54 -28 -78q0 -10 2.5 -19t7 -15t10 -11.5t12.5 -9t13 -6t13.5 -4.5t11.5 -2.5t10 -1.5l6 -1q2 0 6 -0.5t6 -1t5.5 -1t5 -1.5t4 -3t3.5 -4t2 -5.5t1 -7.5q0 -39 -37 -39q-30 0 -94.5 3t-96.5 3q-27 0 -83 -3t-81 -3q-24 0 -24 25q1 36 24 38
q36 2 58.5 6.5t57.5 20t68 51t64 90.5l680 1199q10 20 20 28t33 8q24 0 29.5 -8t7.5 -43l88 -1282q3 -43 22.5 -56.5t94.5 -13.5q21 0 28.5 -0.5t14 -6.5t6.5 -19zM1057 532l-47 670l-381 -670h428z" />
    <glyph glyph-name="Atilde" unicode="&#xc3;" horiz-adv-x="1521" 
d="M1501 1753q0 -11 -45 -55t-109.5 -86.5t-107.5 -42.5q-26 0 -47.5 14t-31 27t-25.5 39q-16 28 -30.5 41.5t-35.5 13.5q-27 0 -72.5 -30t-77.5 -60l-32 -29q-17 -14 -27 -14q-22 0 -22 20q0 10 27 38t54 51l27 22q96 74 152 74q26 0 47 -13t32.5 -28.5t30.5 -46.5
q28 -48 60 -48q39 0 104.5 50t79.5 69q15 15 27 15q9 0 15.5 -6t6.5 -15zM1417 37q0 -17 -7.5 -26t-14 -10t-15.5 -1q-35 0 -107 3t-108 3q-39 0 -118 -3t-117 -3q-31 0 -31 25q0 18 8 27t15.5 10t23.5 1q65 0 101 17.5t36 48.5l-22 340h-467l-148 -258q-28 -54 -28 -78
q0 -10 2.5 -19t7 -15t10 -11.5t12.5 -9t13 -6t13.5 -4.5t11.5 -2.5t10 -1.5l6 -1q2 0 6 -0.5t6 -1t5.5 -1t5 -1.5t4 -3t3.5 -4t2 -5.5t1 -7.5q0 -39 -37 -39q-30 0 -94.5 3t-96.5 3q-27 0 -83 -3t-81 -3q-24 0 -24 25q1 36 24 38q36 2 58.5 6.5t57.5 20t68 51t64 90.5
l680 1199q10 20 20 28t33 8q24 0 29.5 -8t7.5 -43l88 -1282q3 -43 22.5 -56.5t94.5 -13.5q21 0 28.5 -0.5t14 -6.5t6.5 -19zM1057 532l-47 670l-381 -670h428z" />
    <glyph glyph-name="Adieresis" unicode="&#xc4;" horiz-adv-x="1521" 
d="M1067 1651q0 -44 -37 -80.5t-80 -36.5q-39 0 -61.5 23.5t-22.5 56.5q0 44 37.5 80.5t81.5 36.5q39 0 60.5 -24t21.5 -56zM1430 1651q0 -44 -37 -80.5t-80 -36.5q-39 0 -61.5 23.5t-22.5 56.5q0 44 37.5 80.5t81.5 36.5q39 0 60.5 -24t21.5 -56zM1417 37q0 -17 -7.5 -26
t-14 -10t-15.5 -1q-35 0 -107 3t-108 3q-39 0 -118 -3t-117 -3q-31 0 -31 25q0 18 8 27t15.5 10t23.5 1q65 0 101 17.5t36 48.5l-22 340h-467l-148 -258q-28 -54 -28 -78q0 -10 2.5 -19t7 -15t10 -11.5t12.5 -9t13 -6t13.5 -4.5t11.5 -2.5t10 -1.5l6 -1q2 0 6 -0.5t6 -1
t5.5 -1t5 -1.5t4 -3t3.5 -4t2 -5.5t1 -7.5q0 -39 -37 -39q-30 0 -94.5 3t-96.5 3q-27 0 -83 -3t-81 -3q-24 0 -24 25q1 36 24 38q36 2 58.5 6.5t57.5 20t68 51t64 90.5l680 1199q10 20 20 28t33 8q24 0 29.5 -8t7.5 -43l88 -1282q3 -43 22.5 -56.5t94.5 -13.5
q21 0 28.5 -0.5t14 -6.5t6.5 -19zM1057 532l-47 670l-381 -670h428z" />
    <glyph glyph-name="Aring" unicode="&#xc5;" horiz-adv-x="1521" 
d="M1417 37q0 -17 -7.5 -26t-14 -10t-15.5 -1q-35 0 -107 3t-108 3q-39 0 -118 -3t-117 -3q-31 0 -31 25q0 18 8 27t15.5 10t23.5 1q65 0 101 17.5t36 48.5l-22 340h-467l-148 -258q-28 -54 -28 -78q0 -10 2.5 -19t7 -15t10 -11.5t12.5 -9t13 -6t13.5 -4.5t11.5 -2.5
t10 -1.5l6 -1q2 0 6 -0.5t6 -1t5.5 -1t5 -1.5t4 -3t3.5 -4t2 -5.5t1 -7.5q0 -39 -37 -39q-30 0 -94.5 3t-96.5 3q-27 0 -83 -3t-81 -3q-24 0 -24 25q1 36 24 38q36 2 58.5 6.5t57.5 20t68 51t64 90.5l680 1199q10 20 20 28t33 8q24 0 29.5 -8t7.5 -43l88 -1282
q3 -43 22.5 -56.5t94.5 -13.5q21 0 28.5 -0.5t14 -6.5t6.5 -19zM1057 532l-47 670l-381 -670h428zM1292 1692q0 73 -90 73q-41 0 -71.5 -17t-44 -41.5t-21.5 -49t-9 -41.5l-1 -17q0 -71 90 -71q41 0 71 17t44 41t22 48t9 41zM1370 1690q0 -86 -75.5 -155t-166.5 -69
q-61 0 -106 36.5t-45 103.5q0 87 75 154t165 67q74 0 113.5 -42t39.5 -95z" />
    <glyph glyph-name="AE" unicode="&#xc6;" horiz-adv-x="1808" 
d="M1827 506q-6 -21 -8 -25l-183 -448q-11 -24 -19 -28.5t-38 -4.5h-827q-20 0 -29 1t-16 6.5t-7 17.5q0 14 3.5 22.5t12.5 11.5t14.5 3.5t17.5 0.5q51 0 75 7.5t33 21.5t18 49l125 500h-299l-254 -436q-26 -47 -26 -74q0 -35 26 -50.5t58 -17.5q2 0 6 -0.5t6 -1t5.5 -1
t5 -1.5t4 -3t3.5 -4t2 -5.5t1 -7.5q0 -18 -7.5 -27.5t-14 -10.5t-15.5 -1q-30 0 -94.5 3t-96.5 3q-27 0 -83 -3t-81 -3q-24 0 -24 27q0 16 6.5 24t13 9.5t21.5 2.5q72 7 125.5 41t107.5 127l639 1102q-16 2 -59 2h-41q-21 0 -29.5 1t-16 6.5t-7.5 17.5q0 19 8 27.5t17.5 10
t31.5 1.5h954q34 0 44 -7.5t6 -43.5l-48 -363q-3 -30 -8.5 -38.5t-25.5 -8.5q-33 0 -33 25l4 26l12 141q10 123 -61 168q-55 37 -187 37h-184q-55 0 -71 -10t-29 -63l-137 -557h155q119 0 163 40t73 156q8 29 14 36t25 7q30 0 30 -22q0 -15 -4 -27l-112 -453
q-7 -27 -14.5 -34t-24.5 -7q-31 0 -31 25q0 6 4 20q18 90 18 111q0 30 -8.5 46t-41 27t-95.5 11h-168l-129 -512q0 -1 -4 -19.5t-4 -25.5q0 -9 2.5 -12.5t16.5 -6t44 -2.5h187q73 0 129 10t100.5 35t76 53t62 78.5t51.5 95t52 118.5q26 64 33 69q6 6 22 6q31 0 31 -22z
M1153 1253q4 12 4 35q0 41 -57 41l-363 -624h277z" />
    <glyph glyph-name="Ccedilla" unicode="&#xc7;" horiz-adv-x="1466" 
d="M1659 1395l-125 -498q-6 -25 -12.5 -31t-24.5 -6q-31 0 -31 21q0 1 3 21.5t5.5 50.5t2.5 53q0 71 -15.5 134.5t-48 118.5t-91 88t-136.5 33q-124 0 -254.5 -73t-231.5 -209q-109 -150 -162 -348t-53 -326q0 -105 30.5 -185.5t82 -127.5t112.5 -70t128 -23q53 0 110.5 16
t119.5 53t117.5 91t104 136t78.5 182q6 16 33 16q31 0 31 -20q0 -32 -25.5 -93.5t-79.5 -138t-125.5 -144.5t-175.5 -114.5t-217 -46.5h-21l-16 -66q62 -12 93.5 -41.5t31.5 -70.5q0 -27 -10.5 -50.5t-26.5 -39.5t-42.5 -29.5t-50 -21.5t-58 -14t-58.5 -9t-59 -4.5t-52 -1.5
h-44h-52q-26 0 -26 22q0 16 11 19.5t40 3.5h20q277 0 277 127q0 27 -22.5 49.5t-75.5 26.5q-1 0 -6 0.5t-6.5 1t-5.5 1.5t-5.5 3t-3.5 4.5t-3 6.5t-1 9q0 3 3.5 18t9.5 38t9 38q-159 47 -255.5 186.5t-96.5 340.5q0 176 76 349.5t196.5 302.5t277.5 209.5t312 80.5
q201 0 310 -174l129 151q8 10 16 16t12 7h4q9 0 14.5 -5t7.5 -11l1 -5q0 -12 -4 -28z" />
    <glyph glyph-name="Egrave" unicode="&#xc8;" horiz-adv-x="1388" 
d="M1212 1628q-6 -12 -22 -23.5t-27 -11.5q-9 0 -20 17l-205 252q-26 26 -8 65q13 26 39 42t47 16q14 0 23.5 -6t13 -11t10.5 -18l145 -291q11 -21 4 -31zM1407 506q-6 -21 -8 -25l-182 -448q-11 -23 -19 -28t-39 -5h-981q-20 0 -28.5 1t-15.5 6.5t-7 17.5q0 18 8 27t17 10
t30 1q70 0 102.5 8t44.5 24t21 55l275 1097l8 47q0 12 -4 18t-31.5 11.5t-83.5 5.5q-34 0 -44.5 4t-10.5 23q0 18 7.5 26t16.5 9.5t31 1.5h956q35 0 44.5 -8.5t5.5 -45.5l-47 -362q-3 -29 -8.5 -37t-26.5 -8q-31 0 -31 24q0 15 4 35q10 82 10 131q0 114 -56 160.5t-216 46.5
h-256q-54 0 -70.5 -10t-27.5 -59l-125 -504h166q121 0 167 38.5t76 151.5q11 40 18 45q6 4 21 4q33 0 33 -24q-4 -21 -6 -27l-113 -450q-6 -27 -12.5 -34t-24.5 -7q-32 0 -32 24l4 23q18 66 18 104q0 31 -9 48t-43.5 28.5t-101.5 11.5h-178l-141 -563q0 -1 -4 -19.5
t-4 -25.5q0 -9 2.5 -12.5t16.5 -6t44 -2.5h250q61 0 110.5 5.5t91 20t73.5 31t61 46t50 56.5t45 73t41.5 84t43.5 100q13 35 19.5 42t23.5 7q31 0 31 -22z" />
    <glyph glyph-name="Eacute" unicode="&#xc9;" horiz-adv-x="1388" 
d="M1534 1892q0 -38 -41 -65l-330 -252q-18 -16 -28 -16q-11 0 -22 11t-11 23q0 11 20 31l291 291q35 35 64 35q21 0 39 -16t18 -42zM1407 506q-6 -21 -8 -25l-182 -448q-11 -23 -19 -28t-39 -5h-981q-20 0 -28.5 1t-15.5 6.5t-7 17.5q0 18 8 27t17 10t30 1q70 0 102.5 8
t44.5 24t21 55l275 1097l8 47q0 12 -4 18t-31.5 11.5t-83.5 5.5q-34 0 -44.5 4t-10.5 23q0 18 7.5 26t16.5 9.5t31 1.5h956q35 0 44.5 -8.5t5.5 -45.5l-47 -362q-3 -29 -8.5 -37t-26.5 -8q-31 0 -31 24q0 15 4 35q10 82 10 131q0 114 -56 160.5t-216 46.5h-256
q-54 0 -70.5 -10t-27.5 -59l-125 -504h166q121 0 167 38.5t76 151.5q11 40 18 45q6 4 21 4q33 0 33 -24q-4 -21 -6 -27l-113 -450q-6 -27 -12.5 -34t-24.5 -7q-32 0 -32 24l4 23q18 66 18 104q0 31 -9 48t-43.5 28.5t-101.5 11.5h-178l-141 -563q0 -1 -4 -19.5t-4 -25.5
q0 -9 2.5 -12.5t16.5 -6t44 -2.5h250q61 0 110.5 5.5t91 20t73.5 31t61 46t50 56.5t45 73t41.5 84t43.5 100q13 35 19.5 42t23.5 7q31 0 31 -22z" />
    <glyph glyph-name="Ecircumflex" unicode="&#xca;" horiz-adv-x="1388" 
d="M1397 1583q10 -15 -7.5 -30t-29.5 -3l-201 203l-303 -203q-19 -12 -29 3t7 30l340 295q8 6 16.5 6t13.5 -6zM1407 506q-6 -21 -8 -25l-182 -448q-11 -23 -19 -28t-39 -5h-981q-20 0 -28.5 1t-15.5 6.5t-7 17.5q0 18 8 27t17 10t30 1q70 0 102.5 8t44.5 24t21 55l275 1097
l8 47q0 12 -4 18t-31.5 11.5t-83.5 5.5q-34 0 -44.5 4t-10.5 23q0 18 7.5 26t16.5 9.5t31 1.5h956q35 0 44.5 -8.5t5.5 -45.5l-47 -362q-3 -29 -8.5 -37t-26.5 -8q-31 0 -31 24q0 15 4 35q10 82 10 131q0 114 -56 160.5t-216 46.5h-256q-54 0 -70.5 -10t-27.5 -59l-125 -504
h166q121 0 167 38.5t76 151.5q11 40 18 45q6 4 21 4q33 0 33 -24q-4 -21 -6 -27l-113 -450q-6 -27 -12.5 -34t-24.5 -7q-32 0 -32 24l4 23q18 66 18 104q0 31 -9 48t-43.5 28.5t-101.5 11.5h-178l-141 -563q0 -1 -4 -19.5t-4 -25.5q0 -9 2.5 -12.5t16.5 -6t44 -2.5h250
q61 0 110.5 5.5t91 20t73.5 31t61 46t50 56.5t45 73t41.5 84t43.5 100q13 35 19.5 42t23.5 7q31 0 31 -22z" />
    <glyph glyph-name="Edieresis" unicode="&#xcb;" horiz-adv-x="1388" 
d="M1079 1651q0 -44 -36.5 -80.5t-79.5 -36.5q-39 0 -61.5 23.5t-22.5 56.5q0 44 37 80.5t81 36.5q39 0 60.5 -24t21.5 -56zM1442 1651q0 -44 -37 -80.5t-80 -36.5q-39 0 -61.5 23.5t-22.5 56.5q0 44 37.5 80.5t81.5 36.5q39 0 60.5 -24t21.5 -56zM1407 506q-6 -21 -8 -25
l-182 -448q-11 -23 -19 -28t-39 -5h-981q-20 0 -28.5 1t-15.5 6.5t-7 17.5q0 18 8 27t17 10t30 1q70 0 102.5 8t44.5 24t21 55l275 1097l8 47q0 12 -4 18t-31.5 11.5t-83.5 5.5q-34 0 -44.5 4t-10.5 23q0 18 7.5 26t16.5 9.5t31 1.5h956q35 0 44.5 -8.5t5.5 -45.5l-47 -362
q-3 -29 -8.5 -37t-26.5 -8q-31 0 -31 24q0 15 4 35q10 82 10 131q0 114 -56 160.5t-216 46.5h-256q-54 0 -70.5 -10t-27.5 -59l-125 -504h166q121 0 167 38.5t76 151.5q11 40 18 45q6 4 21 4q33 0 33 -24q-4 -21 -6 -27l-113 -450q-6 -27 -12.5 -34t-24.5 -7q-32 0 -32 24
l4 23q18 66 18 104q0 31 -9 48t-43.5 28.5t-101.5 11.5h-178l-141 -563q0 -1 -4 -19.5t-4 -25.5q0 -9 2.5 -12.5t16.5 -6t44 -2.5h250q61 0 110.5 5.5t91 20t73.5 31t61 46t50 56.5t45 73t41.5 84t43.5 100q13 35 19.5 42t23.5 7q31 0 31 -22z" />
    <glyph glyph-name="Igrave" unicode="&#xcc;" horiz-adv-x="790" 
d="M844 1628q-6 -12 -22 -23.5t-27 -11.5q-10 0 -21 17l-205 252q-26 26 -8 65q13 26 39 42t47 16q14 0 23.5 -6t13 -11t10.5 -18l146 -291q11 -21 4 -31zM692 39q0 -39 -41 -39t-126.5 3t-127.5 3t-126.5 -3t-125.5 -3q-28 0 -28 27q0 26 12 31t49 5q100 0 130 15.5
t42 68.5l279 1115q6 18 6 38q0 9 -4 15t-14.5 9.5t-19.5 6t-27 3.5t-29.5 1h-34.5q-34 0 -44.5 4t-10.5 23q0 37 38 37q42 0 128 -3t128 -3t126.5 3t125.5 3q29 0 29 -25q0 -19 -8 -27.5t-18.5 -10t-36.5 -1.5q-71 0 -104 -8t-45 -23.5t-21 -52.5l-277 -1106l-8 -45
q0 -14 4.5 -20.5t33 -11.5t89.5 -5q20 0 27 -0.5t16 -2.5t11.5 -7t2.5 -14z" />
    <glyph glyph-name="Iacute" unicode="&#xcd;" horiz-adv-x="790" 
d="M1165 1892q0 -38 -41 -65l-329 -252q-18 -16 -29 -16t-22 11t-11 23q0 10 21 31l290 291q35 35 64 35q21 0 39 -16t18 -42zM692 39q0 -39 -41 -39t-126.5 3t-127.5 3t-126.5 -3t-125.5 -3q-28 0 -28 27q0 26 12 31t49 5q100 0 130 15.5t42 68.5l279 1115q6 18 6 38
q0 9 -4 15t-14.5 9.5t-19.5 6t-27 3.5t-29.5 1h-34.5q-34 0 -44.5 4t-10.5 23q0 37 38 37q42 0 128 -3t128 -3t126.5 3t125.5 3q29 0 29 -25q0 -19 -8 -27.5t-18.5 -10t-36.5 -1.5q-71 0 -104 -8t-45 -23.5t-21 -52.5l-277 -1106l-8 -45q0 -14 4.5 -20.5t33 -11.5t89.5 -5
q20 0 27 -0.5t16 -2.5t11.5 -7t2.5 -14z" />
    <glyph glyph-name="Icircumflex" unicode="&#xce;" horiz-adv-x="790" 
d="M1028 1583q10 -15 -7.5 -30t-29.5 -3l-200 203l-304 -203q-19 -12 -29 3t7 30l340 295q7 6 16.5 6t14.5 -6zM692 39q0 -39 -41 -39t-126.5 3t-127.5 3t-126.5 -3t-125.5 -3q-28 0 -28 27q0 26 12 31t49 5q100 0 130 15.5t42 68.5l279 1115q6 18 6 38q0 9 -4 15t-14.5 9.5
t-19.5 6t-27 3.5t-29.5 1h-34.5q-34 0 -44.5 4t-10.5 23q0 37 38 37q42 0 128 -3t128 -3t126.5 3t125.5 3q29 0 29 -25q0 -19 -8 -27.5t-18.5 -10t-36.5 -1.5q-71 0 -104 -8t-45 -23.5t-21 -52.5l-277 -1106l-8 -45q0 -14 4.5 -20.5t33 -11.5t89.5 -5q20 0 27 -0.5t16 -2.5
t11.5 -7t2.5 -14z" />
    <glyph glyph-name="Idieresis" unicode="&#xcf;" horiz-adv-x="790" 
d="M711 1651q0 -44 -37 -80.5t-80 -36.5q-39 0 -61.5 23.5t-22.5 56.5q0 44 37.5 80.5t81.5 36.5q39 0 60.5 -24t21.5 -56zM1073 1651q0 -44 -37 -80.5t-80 -36.5q-39 0 -61.5 23.5t-22.5 56.5q0 44 37.5 80.5t81.5 36.5q39 0 60.5 -24t21.5 -56zM692 39q0 -39 -41 -39
t-126.5 3t-127.5 3t-126.5 -3t-125.5 -3q-28 0 -28 27q0 26 12 31t49 5q100 0 130 15.5t42 68.5l279 1115q6 18 6 38q0 9 -4 15t-14.5 9.5t-19.5 6t-27 3.5t-29.5 1h-34.5q-34 0 -44.5 4t-10.5 23q0 37 38 37q42 0 128 -3t128 -3t126.5 3t125.5 3q29 0 29 -25
q0 -19 -8 -27.5t-18.5 -10t-36.5 -1.5q-71 0 -104 -8t-45 -23.5t-21 -52.5l-277 -1106l-8 -45q0 -14 4.5 -20.5t33 -11.5t89.5 -5q20 0 27 -0.5t16 -2.5t11.5 -7t2.5 -14z" />
    <glyph glyph-name="Eth" unicode="&#xd0;" horiz-adv-x="1546" 
d="M1587 897q0 -135 -43.5 -269.5t-119.5 -246t-173.5 -198t-212.5 -135t-229 -48.5h-629q-20 0 -28.5 1t-15.5 6.5t-7 17.5q0 18 8 27t17 10t30 1q70 0 102.5 8t44.5 24t21 55l129 520h-192q-13 0 -20 8.5t-3 21.5q3 12 14 21.5t23 9.5h195l131 531q8 29 8 38q0 23 -29 29
t-90 6q-23 0 -32.5 1t-16 6.5t-6.5 17.5q0 19 8 27.5t17 10t30 1.5h639q196 0 313 -140t117 -362zM1417 975q0 78 -18 140t-49 102.5t-73.5 67.5t-88.5 38.5t-98 11.5h-199q-54 0 -70.5 -10.5t-29.5 -62.5l-134 -531h299q12 0 19 -9.5t4 -21.5q-3 -13 -14.5 -21.5
t-24.5 -8.5h-297l-135 -541q0 -1 -4 -19.5t-4 -25.5q0 -9 2.5 -12.5t16.5 -6t44 -2.5h211q118 0 224.5 55.5t185.5 147.5q61 72 109 178.5t73.5 209.5t38 186t12.5 135z" />
    <glyph glyph-name="Ntilde" unicode="&#xd1;" horiz-adv-x="1521" 
d="M1473 1753q0 -10 -45 -54.5t-110 -87t-108 -42.5q-26 0 -47.5 14t-31 27t-25.5 39q-16 28 -30.5 41.5t-35.5 13.5q-27 0 -72.5 -30t-77.5 -60l-32 -29q-17 -14 -27 -14q-22 0 -22 20q0 10 27.5 38t54.5 51l27 22q96 74 151 74q37 0 60 -21t51 -67q28 -48 59 -48
q39 0 104.5 50t79.5 69q15 15 27 15q9 0 16 -6t7 -15zM1745 1372q0 -16 -7 -25t-13 -10.5t-11 -1.5q-32 -1 -54.5 -4.5t-57 -16t-59 -42.5t-36.5 -76l-286 -1155q-7 -28 -14.5 -34.5t-26.5 -6.5q-21 0 -27 5.5t-14 29.5l-441 1222l-264 -1054q-8 -33 -8 -51q0 -16 3 -27
t13.5 -26.5t37 -25t67.5 -10.5q15 0 22 -1t12 -7t5 -18q0 -17 -7.5 -26t-14 -10t-15.5 -1q-31 0 -99.5 3t-101.5 3q-32 0 -98 -3t-96 -3q-27 0 -27 25q0 17 7 26t14 10.5t18 1.5q79 3 129 34t70 110l270 1085l6 27q0 16 -125 16q-23 0 -32.5 1t-16 6.5t-6.5 17.5
q0 19 8 27.5t17 10t30 1.5h256q32 0 40 -5t17 -30l383 -1065l226 899q8 32 8 49q0 39 -25.5 62t-97.5 26q-37 0 -37 25q0 39 37 39q31 0 98.5 -3t100.5 -3t99 3t97 3q27 0 27 -27z" />
    <glyph glyph-name="Ograve" unicode="&#xd2;" horiz-adv-x="1570" 
d="M1294 1628q-6 -12 -22 -23.5t-27 -11.5q-9 0 -20 17l-205 252q-26 26 -8 65q13 26 39 42t47 16q14 0 23.5 -6t13 -11t10.5 -18l145 -291q11 -21 4 -31zM1614 909q0 -144 -47.5 -288t-130.5 -262t-188.5 -210t-229 -143t-244.5 -51q-209 0 -340 148t-131 380
q0 174 73.5 350t190.5 309.5t271.5 217.5t308.5 84q97 0 182 -37t148.5 -104t100 -169t36.5 -225zM1440 995q0 194 -88.5 296t-218.5 102t-260 -96.5t-214 -245.5q-50 -88 -86.5 -188.5t-53.5 -187.5t-24.5 -149.5t-7.5 -105.5q0 -185 81.5 -298.5t219.5 -113.5
q119 0 245.5 91t223.5 257q80 137 131.5 319t51.5 320z" />
    <glyph glyph-name="Oacute" unicode="&#xd3;" horiz-adv-x="1570" 
d="M1616 1892q0 -38 -41 -65l-330 -252q-18 -16 -28 -16q-11 0 -22 11t-11 23q0 11 20 31l291 291q35 35 64 35q21 0 39 -16t18 -42zM1614 909q0 -144 -47.5 -288t-130.5 -262t-188.5 -210t-229 -143t-244.5 -51q-209 0 -340 148t-131 380q0 174 73.5 350t190.5 309.5
t271.5 217.5t308.5 84q97 0 182 -37t148.5 -104t100 -169t36.5 -225zM1440 995q0 194 -88.5 296t-218.5 102t-260 -96.5t-214 -245.5q-50 -88 -86.5 -188.5t-53.5 -187.5t-24.5 -149.5t-7.5 -105.5q0 -185 81.5 -298.5t219.5 -113.5q119 0 245.5 91t223.5 257
q80 137 131.5 319t51.5 320z" />
    <glyph glyph-name="Ocircumflex" unicode="&#xd4;" horiz-adv-x="1570" 
d="M1479 1583q10 -15 -7.5 -30t-29.5 -3l-201 203l-303 -203q-19 -12 -29.5 3t6.5 30l340 295q7 6 17 6t14 -6zM1614 909q0 -144 -47.5 -288t-130.5 -262t-188.5 -210t-229 -143t-244.5 -51q-209 0 -340 148t-131 380q0 174 73.5 350t190.5 309.5t271.5 217.5t308.5 84
q97 0 182 -37t148.5 -104t100 -169t36.5 -225zM1440 995q0 194 -88.5 296t-218.5 102t-260 -96.5t-214 -245.5q-50 -88 -86.5 -188.5t-53.5 -187.5t-24.5 -149.5t-7.5 -105.5q0 -185 81.5 -298.5t219.5 -113.5q119 0 245.5 91t223.5 257q80 137 131.5 319t51.5 320z" />
    <glyph glyph-name="Otilde" unicode="&#xd5;" horiz-adv-x="1570" 
d="M1595 1753q0 -11 -45 -55t-109.5 -86.5t-107.5 -42.5q-26 0 -47.5 14t-31 27t-25.5 39q-16 28 -30.5 41.5t-35.5 13.5q-27 0 -72.5 -30t-77.5 -60l-32 -29q-17 -14 -27 -14q-22 0 -22 20q0 10 27 38t54 51l27 22q96 74 152 74q37 0 60 -21t51 -67q28 -48 59 -48
q39 0 104.5 50t79.5 69q15 15 27 15q9 0 15.5 -6t6.5 -15zM1614 909q0 -144 -47.5 -288t-130.5 -262t-188.5 -210t-229 -143t-244.5 -51q-209 0 -340 148t-131 380q0 174 73.5 350t190.5 309.5t271.5 217.5t308.5 84q97 0 182 -37t148.5 -104t100 -169t36.5 -225zM1440 995
q0 194 -88.5 296t-218.5 102t-260 -96.5t-214 -245.5q-50 -88 -86.5 -188.5t-53.5 -187.5t-24.5 -149.5t-7.5 -105.5q0 -185 81.5 -298.5t219.5 -113.5q119 0 245.5 91t223.5 257q80 137 131.5 319t51.5 320z" />
    <glyph glyph-name="Odieresis" unicode="&#xd6;" horiz-adv-x="1570" 
d="M1161 1651q0 -44 -37 -80.5t-80 -36.5q-39 0 -61 23.5t-22 56.5q0 44 37 80.5t81 36.5q39 0 60.5 -24t21.5 -56zM1524 1651q0 -44 -37 -80.5t-80 -36.5q-39 0 -61.5 23.5t-22.5 56.5q0 44 37.5 80.5t81.5 36.5q39 0 60.5 -24t21.5 -56zM1614 909q0 -144 -47.5 -288
t-130.5 -262t-188.5 -210t-229 -143t-244.5 -51q-209 0 -340 148t-131 380q0 174 73.5 350t190.5 309.5t271.5 217.5t308.5 84q97 0 182 -37t148.5 -104t100 -169t36.5 -225zM1440 995q0 194 -88.5 296t-218.5 102t-260 -96.5t-214 -245.5q-50 -88 -86.5 -188.5
t-53.5 -187.5t-24.5 -149.5t-7.5 -105.5q0 -185 81.5 -298.5t219.5 -113.5q119 0 245.5 91t223.5 257q80 137 131.5 319t51.5 320z" />
    <glyph glyph-name="multiply" unicode="&#xd7;" horiz-adv-x="1570" 
d="M1257 76q-35 -27 -69 -6l-21 26l-268 359l-448 -361q-16 -12 -22 -16t-20.5 -11.5t-26 -6t-22.5 9.5q-34 22 29 69l467 373l-287 379q-28 33 2 59q38 26 68 6q7 -5 20 -26l271 -359l446 359q42 31 61 33q16 1 29 -9q35 -22 -28 -69l-465 -371l287 -379q7 -12 10 -18
t1 -18t-14 -23z" />
    <glyph glyph-name="Oslash" unicode="&#xd8;" horiz-adv-x="1570" 
d="M1614 909q0 -144 -47.5 -288t-130.5 -262t-188.5 -210t-229 -143t-244.5 -51q-186 0 -321 127q-40 -47 -72.5 -84t-51 -57t-20.5 -23q-28 -30 -34.5 -35.5t-12.5 -5.5q-7 0 -15.5 7t-8.5 18q0 9 43 57l139 162q-117 144 -117 362q0 174 73.5 350t190.5 309.5t271.5 217.5
t308.5 84q111 0 192 -40.5t127 -88.5l162 188q14 19 31 19q7 0 15.5 -7t8.5 -18q0 -7 -20 -33l-164 -188q44 -53 79.5 -143.5t35.5 -223.5zM1405 1247q-91 152 -270 152q-119 0 -243 -75t-216 -204q-77 -111 -131 -266t-73 -268.5t-19 -188.5q0 -108 34 -198zM1466 997
q0 114 -34 201l-918 -1048q41 -69 112 -109.5t160 -40.5q120 0 243 73t212 197q61 86 108 198.5t70.5 215.5t35 183t11.5 130z" />
    <glyph glyph-name="Ugrave" unicode="&#xd9;" horiz-adv-x="1521" 
d="M1257 1628q-6 -12 -22 -23.5t-27 -11.5q-9 0 -20 17l-205 252q-26 26 -8 65q13 26 39 42t47 16q14 0 23.5 -6t13 -11t10.5 -18l145 -291q11 -21 4 -31zM1745 1372q0 -16 -7 -25t-13 -10.5t-11 -1.5q-32 -1 -54.5 -4.5t-57 -16t-59 -42.5t-36.5 -76l-186 -750
q-21 -85 -72 -171.5t-121.5 -158t-163 -116.5t-186.5 -45q-152 0 -258 104t-106 281q0 65 16 131l197 791q8 29 8 38q0 23 -29 29t-90 6q-23 0 -32.5 1t-16 6.5t-6.5 17.5q0 18 8 27.5t14.5 10.5t16.5 1q40 0 122 -3t123 -3q40 0 121.5 3t120.5 3q29 0 29 -27
q0 -26 -12.5 -31.5t-49.5 -5.5q-94 0 -121.5 -15t-39.5 -67l-205 -823q-21 -95 -21 -156q0 -129 64.5 -192.5t154.5 -63.5q96 0 193.5 57t174 161.5t108.5 232.5l182 729q8 32 8 49q0 39 -25.5 62t-97.5 26q-37 0 -37 25q0 39 37 39q31 0 97.5 -3t99.5 -3q32 0 97 3t95 3
q27 0 27 -27z" />
    <glyph glyph-name="Uacute" unicode="&#xda;" horiz-adv-x="1521" 
d="M1579 1892q0 -38 -41 -65l-330 -252q-18 -16 -28 -16q-11 0 -22 11t-11 23q0 11 20 31l291 291q35 35 64 35q21 0 39 -16t18 -42zM1745 1372q0 -16 -7 -25t-13 -10.5t-11 -1.5q-32 -1 -54.5 -4.5t-57 -16t-59 -42.5t-36.5 -76l-186 -750q-21 -85 -72 -171.5t-121.5 -158
t-163 -116.5t-186.5 -45q-152 0 -258 104t-106 281q0 65 16 131l197 791q8 29 8 38q0 23 -29 29t-90 6q-23 0 -32.5 1t-16 6.5t-6.5 17.5q0 18 8 27.5t14.5 10.5t16.5 1q40 0 122 -3t123 -3q40 0 121.5 3t120.5 3q29 0 29 -27q0 -26 -12.5 -31.5t-49.5 -5.5
q-94 0 -121.5 -15t-39.5 -67l-205 -823q-21 -95 -21 -156q0 -129 64.5 -192.5t154.5 -63.5q96 0 193.5 57t174 161.5t108.5 232.5l182 729q8 32 8 49q0 39 -25.5 62t-97.5 26q-37 0 -37 25q0 39 37 39q31 0 97.5 -3t99.5 -3q32 0 97 3t95 3q27 0 27 -27z" />
    <glyph glyph-name="Ucircumflex" unicode="&#xdb;" horiz-adv-x="1521" 
d="M1442 1583q10 -15 -7.5 -30t-29.5 -3l-201 203l-303 -203q-19 -12 -29 3t7 30l340 295q7 6 16 6t14 -6zM1745 1372q0 -16 -7 -25t-13 -10.5t-11 -1.5q-32 -1 -54.5 -4.5t-57 -16t-59 -42.5t-36.5 -76l-186 -750q-21 -85 -72 -171.5t-121.5 -158t-163 -116.5t-186.5 -45
q-152 0 -258 104t-106 281q0 65 16 131l197 791q8 29 8 38q0 23 -29 29t-90 6q-23 0 -32.5 1t-16 6.5t-6.5 17.5q0 18 8 27.5t14.5 10.5t16.5 1q40 0 122 -3t123 -3q40 0 121.5 3t120.5 3q29 0 29 -27q0 -26 -12.5 -31.5t-49.5 -5.5q-94 0 -121.5 -15t-39.5 -67l-205 -823
q-21 -95 -21 -156q0 -129 64.5 -192.5t154.5 -63.5q96 0 193.5 57t174 161.5t108.5 232.5l182 729q8 32 8 49q0 39 -25.5 62t-97.5 26q-37 0 -37 25q0 39 37 39q31 0 97.5 -3t99.5 -3q32 0 97 3t95 3q27 0 27 -27z" />
    <glyph glyph-name="Udieresis" unicode="&#xdc;" horiz-adv-x="1521" 
d="M1124 1651q0 -44 -36.5 -80.5t-79.5 -36.5q-39 0 -61.5 23.5t-22.5 56.5q0 44 37 80.5t81 36.5q39 0 60.5 -24t21.5 -56zM1487 1651q0 -44 -37 -80.5t-80 -36.5q-39 0 -61.5 23.5t-22.5 56.5q0 44 37.5 80.5t81.5 36.5q39 0 60.5 -24t21.5 -56zM1745 1372q0 -16 -7 -25
t-13 -10.5t-11 -1.5q-32 -1 -54.5 -4.5t-57 -16t-59 -42.5t-36.5 -76l-186 -750q-21 -85 -72 -171.5t-121.5 -158t-163 -116.5t-186.5 -45q-152 0 -258 104t-106 281q0 65 16 131l197 791q8 29 8 38q0 23 -29 29t-90 6q-23 0 -32.5 1t-16 6.5t-6.5 17.5q0 18 8 27.5
t14.5 10.5t16.5 1q40 0 122 -3t123 -3q40 0 121.5 3t120.5 3q29 0 29 -27q0 -26 -12.5 -31.5t-49.5 -5.5q-94 0 -121.5 -15t-39.5 -67l-205 -823q-21 -95 -21 -156q0 -129 64.5 -192.5t154.5 -63.5q96 0 193.5 57t174 161.5t108.5 232.5l182 729q8 32 8 49q0 39 -25.5 62
t-97.5 26q-37 0 -37 25q0 39 37 39q31 0 97.5 -3t99.5 -3q32 0 97 3t95 3q27 0 27 -27z" />
    <glyph glyph-name="Yacute" unicode="&#xdd;" horiz-adv-x="1521" 
d="M1790 1376q0 -18 -7 -27.5t-12.5 -10.5t-19.5 -3q-75 -6 -138.5 -44t-133.5 -124l-484 -587q-2 -3 -4 -5t-3.5 -4.5t-2.5 -4t-2.5 -5t-2 -5l-2 -6t-2 -7t-2.5 -9t-3 -10.5l-64 -252q-39 -164 -39 -174q0 -23 29 -29t90 -6q20 0 26 -0.5t15 -2.5t11.5 -7t2.5 -14
q0 -18 -8 -27.5t-14 -10.5t-16 -1q-39 0 -121.5 3t-122.5 3q-39 0 -119 -3t-119 -3q-28 0 -28 25q0 14 3 22.5t12 11.5t15 3.5t21 0.5l64.5 1.5t43 6.5t29.5 10.5t18 22t13.5 31.5t11.5 49q94 367 94 375q0 11 -8 31l-217 684q-11 36 -36 48.5t-95 12.5q-18 0 -26.5 1
t-15.5 6.5t-7 17.5q0 18 8 27.5t14.5 10.5t16.5 1q34 0 106 -3t107 -3q40 0 120 3t119 3q29 0 29 -25q0 -14 -3.5 -22.5t-11 -12t-13.5 -4t-17 -0.5q-115 0 -115 -49q0 -6 8 -26l195 -615l448 547q0 1 6.5 9t13.5 17.5t14.5 22t12.5 25t5 22.5q0 43 -64 47q-31 0 -31 25
q0 18 7.5 27.5t14 10.5t15.5 1q30 0 94.5 -3t96.5 -3q26 0 78.5 3t76.5 3q11 0 17.5 -5.5t7.5 -11.5v-6zM1489 1788q-6 -35 -51 -57l-369 -191q-22 -13 -31 -10q-10 2 -19 14.5t-7 24.5q4 12 24 26l338 238q33 22 58 22q29 0 45 -19t12 -48z" />
    <glyph glyph-name="Thorn" unicode="&#xde;" horiz-adv-x="1284" 
d="M1325 838q0 -84 -40.5 -169.5t-108 -152.5t-161 -109t-192.5 -42h-260l-35 -134q-28 -126 -28 -131q0 -14 4 -20.5t30 -11.5t82 -5q21 0 27.5 -0.5t16 -2.5t12 -7t2.5 -14q0 -18 -8 -27.5t-14.5 -10.5t-16.5 -1l-240 6l-235 -6q-29 0 -29 25q0 27 11.5 32.5t43.5 5.5
q44 0 72 3t45 7.5t27 17.5t14 24.5t10 36.5l277 1103q8 40 8 45q0 12 -4 18t-31 11.5t-82 5.5q-25 0 -34.5 1t-16 6.5t-6.5 17.5q0 18 7.5 27.5t14 10.5t17.5 1l239 -6l234 6q31 0 31 -25q0 -19 -8 -27.5t-19.5 -10t-40.5 -1.5q-56 0 -86.5 -6.5t-40 -14.5t-16.5 -24
q-16 -45 -41 -157h239q80 0 141 -21.5t96 -53t57 -73.5t29 -77.5t7 -69.5zM1139 854q0 96 -45 156q-22 27 -50.5 41t-47 16t-50.5 2h-207l-159 -641h196q77 0 146.5 40t116 102.5t73.5 137.5t27 146z" />
    <glyph glyph-name="germandbls" unicode="&#xdf;" horiz-adv-x="1099" 
d="M1071 338q0 -78 -48.5 -161t-134.5 -141.5t-181 -58.5q-78 0 -139.5 39t-61.5 113q0 27 8 46.5t19 28.5t22 14.5t19 5.5l8 1q24 0 39.5 -15.5t15.5 -37.5q-1 -7 -3 -17t-18.5 -30t-42.5 -25q10 -26 29.5 -43.5t42.5 -24t35.5 -8t24.5 -1.5q42 0 78.5 28.5t59 69.5
t39 86.5t23 78t6.5 46.5q0 61 -53 127q-51 67 -51 164q0 82 27 130t96 115q56 57 90.5 182.5t34.5 178.5q0 77 -39 123.5t-113 46.5q-46 0 -82.5 -8.5t-62.5 -21.5t-47 -37.5t-33.5 -45.5t-24 -57.5t-17.5 -63t-15 -71.5l-199 -1018q-9 -48 -22 -97t-33 -107.5t-47 -108.5
t-60 -92t-76.5 -66.5t-91.5 -24.5q-53 0 -93 33.5t-40 97.5q0 61 32.5 89t69.5 28q28 0 49 -17.5t21 -48.5q0 -9 -3 -21.5t-12 -30.5t-31 -31.5t-54 -16.5q2 -4 6 -10t20 -16.5t35 -10.5q35 0 63.5 28t51.5 87.5t41 131t39 179.5l149 768h-127q-19 0 -27.5 1t-16 6t-7.5 16
q0 28 12.5 34.5t42.5 6.5h136l47 239q13 53 27.5 92t45.5 85t72 75.5t108.5 49.5t153.5 20q125 0 203 -64.5t78 -169.5q0 -140 -180 -364q-37 -44 -52 -63.5t-30 -47.5t-15 -49q0 -53 72 -135q26 -34 41 -56t33 -67.5t18 -89.5z" />
    <glyph glyph-name="agrave" unicode="&#xe0;" 
d="M809 1128q-6 -12 -22 -23t-27 -11t-21 16l-204 252q-27 27 -9 65q13 26 39 42t47 16q14 0 23.5 -6t13 -11t10.5 -18l146 -291q11 -21 4 -31zM1075 293q-24 -123 -61 -201q-57 -115 -150 -115q-58 0 -106 36.5t-64 107.5q-59 -72 -123 -108t-122 -36q-112 0 -180 91.5
t-68 226.5q0 146 69.5 288.5t179 232t220.5 89.5q116 0 170 -121q2 9 5 17.5t11.5 25t25.5 27t40 10.5q20 0 37.5 -12t17.5 -41q0 -14 -8 -43l-140 -557q-14 -57 -14 -105q0 -16 1 -26t5.5 -25.5t16 -23.5t30.5 -8q25 0 46.5 20.5t38.5 59.5t28.5 75.5t24.5 87.5
q9 34 14 40.5t24 6.5q31 0 31 -20zM709 254l96 387l6 27q0 71 -39 131.5t-102 60.5q-62 0 -126.5 -65.5t-103.5 -161.5q-30 -70 -65 -213t-35 -215q0 -27 4.5 -54.5t15.5 -58.5t35 -50t58 -19q52 0 111.5 44.5t97.5 97.5t47 89z" />
    <glyph glyph-name="aacute" unicode="&#xe1;" 
d="M1130 1393q0 -39 -40 -66l-330 -252q-18 -16 -29 -16t-22 11.5t-11 23.5q0 9 21 30l291 291q13 13 19 18t18 11t26 6q21 0 39 -15.5t18 -41.5zM1075 293q-24 -123 -61 -201q-57 -115 -150 -115q-58 0 -106 36.5t-64 107.5q-59 -72 -123 -108t-122 -36q-112 0 -180 91.5
t-68 226.5q0 146 69.5 288.5t179 232t220.5 89.5q116 0 170 -121q2 9 5 17.5t11.5 25t25.5 27t40 10.5q20 0 37.5 -12t17.5 -41q0 -14 -8 -43l-140 -557q-14 -57 -14 -105q0 -16 1 -26t5.5 -25.5t16 -23.5t30.5 -8q25 0 46.5 20.5t38.5 59.5t28.5 75.5t24.5 87.5
q9 34 14 40.5t24 6.5q31 0 31 -20zM709 254l96 387l6 27q0 71 -39 131.5t-102 60.5q-62 0 -126.5 -65.5t-103.5 -161.5q-30 -70 -65 -213t-35 -215q0 -27 4.5 -54.5t15.5 -58.5t35 -50t58 -19q52 0 111.5 44.5t97.5 97.5t47 89z" />
    <glyph glyph-name="acircumflex" unicode="&#xe2;" 
d="M993 1083q10 -15 -7.5 -29.5t-29.5 -2.5l-200 202l-303 -202q-19 -12 -29.5 2.5t6.5 29.5l340 295q8 6 17 6t14 -6zM1075 293q-24 -123 -61 -201q-57 -115 -150 -115q-58 0 -106 36.5t-64 107.5q-59 -72 -123 -108t-122 -36q-112 0 -180 91.5t-68 226.5q0 146 69.5 288.5
t179 232t220.5 89.5q116 0 170 -121q2 9 5 17.5t11.5 25t25.5 27t40 10.5q20 0 37.5 -12t17.5 -41q0 -14 -8 -43l-140 -557q-14 -57 -14 -105q0 -16 1 -26t5.5 -25.5t16 -23.5t30.5 -8q25 0 46.5 20.5t38.5 59.5t28.5 75.5t24.5 87.5q9 34 14 40.5t24 6.5q31 0 31 -20z
M709 254l96 387l6 27q0 71 -39 131.5t-102 60.5q-62 0 -126.5 -65.5t-103.5 -161.5q-30 -70 -65 -213t-35 -215q0 -27 4.5 -54.5t15.5 -58.5t35 -50t58 -19q52 0 111.5 44.5t97.5 97.5t47 89z" />
    <glyph glyph-name="atilde" unicode="&#xe3;" 
d="M1110 1253q0 -11 -45 -55t-109.5 -86.5t-107.5 -42.5q-26 0 -47.5 14t-31.5 27.5t-26 38.5q-16 28 -30 41.5t-35 13.5q-27 0 -72.5 -30t-77.5 -60l-32 -29q-18 -14 -27 -14q-23 0 -23 21q0 10 27 37.5t55 50.5l27 22q96 74 152 74q26 0 47 -13t32.5 -28.5t30.5 -46.5
q27 -47 60 -47q39 0 104.5 50t79.5 69q14 14 26 14q9 0 16 -6t7 -15zM1075 293q-24 -123 -61 -201q-57 -115 -150 -115q-58 0 -106 36.5t-64 107.5q-59 -72 -123 -108t-122 -36q-112 0 -180 91.5t-68 226.5q0 146 69.5 288.5t179 232t220.5 89.5q116 0 170 -121q2 9 5 17.5
t11.5 25t25.5 27t40 10.5q20 0 37.5 -12t17.5 -41q0 -14 -8 -43l-140 -557q-14 -57 -14 -105q0 -16 1 -26t5.5 -25.5t16 -23.5t30.5 -8q25 0 46.5 20.5t38.5 59.5t28.5 75.5t24.5 87.5q9 34 14 40.5t24 6.5q31 0 31 -20zM709 254l96 387l6 27q0 71 -39 131.5t-102 60.5
q-62 0 -126.5 -65.5t-103.5 -161.5q-30 -70 -65 -213t-35 -215q0 -27 4.5 -54.5t15.5 -58.5t35 -50t58 -19q52 0 111.5 44.5t97.5 97.5t47 89z" />
    <glyph glyph-name="adieresis" unicode="&#xe4;" 
d="M676 1151q0 -44 -37 -80.5t-80 -36.5q-39 0 -61.5 23.5t-22.5 56.5q0 44 37.5 80.5t81.5 36.5q39 0 60.5 -24t21.5 -56zM1038 1151q0 -44 -36.5 -80.5t-79.5 -36.5q-39 0 -61.5 23.5t-22.5 56.5q0 44 37 80.5t81 36.5q39 0 60.5 -24t21.5 -56zM1075 293
q-24 -123 -61 -201q-57 -115 -150 -115q-58 0 -106 36.5t-64 107.5q-59 -72 -123 -108t-122 -36q-112 0 -180 91.5t-68 226.5q0 146 69.5 288.5t179 232t220.5 89.5q116 0 170 -121q2 9 5 17.5t11.5 25t25.5 27t40 10.5q20 0 37.5 -12t17.5 -41q0 -14 -8 -43l-140 -557
q-14 -57 -14 -105q0 -16 1 -26t5.5 -25.5t16 -23.5t30.5 -8q25 0 46.5 20.5t38.5 59.5t28.5 75.5t24.5 87.5q9 34 14 40.5t24 6.5q31 0 31 -20zM709 254l96 387l6 27q0 71 -39 131.5t-102 60.5q-62 0 -126.5 -65.5t-103.5 -161.5q-30 -70 -65 -213t-35 -215q0 -27 4.5 -54.5
t15.5 -58.5t35 -50t58 -19q52 0 111.5 44.5t97.5 97.5t47 89z" />
    <glyph glyph-name="aring" unicode="&#xe5;" 
d="M913 1317q0 74 -90 74q-41 0 -71.5 -17t-44 -41.5t-21.5 -49t-9 -41.5l-1 -17q0 -72 90 -72q41 0 71 17t44 41t22 48t9 41zM991 1315q0 -86 -75 -154.5t-166 -68.5q-61 0 -106.5 36t-45.5 103q1 58 36.5 109.5t90.5 81.5t113 30q74 0 113.5 -42t39.5 -95zM1075 293
q-24 -123 -61 -201q-57 -115 -150 -115q-58 0 -106 36.5t-64 107.5q-59 -72 -123 -108t-122 -36q-112 0 -180 91.5t-68 226.5q0 146 69.5 288.5t179 232t220.5 89.5q116 0 170 -121q2 9 5 17.5t11.5 25t25.5 27t40 10.5q20 0 37.5 -12t17.5 -41q0 -14 -8 -43l-140 -557
q-14 -57 -14 -105q0 -16 1 -26t5.5 -25.5t16 -23.5t30.5 -8q25 0 46.5 20.5t38.5 59.5t28.5 75.5t24.5 87.5q9 34 14 40.5t24 6.5q31 0 31 -20zM709 254l96 387l6 27q0 71 -39 131.5t-102 60.5q-62 0 -126.5 -65.5t-103.5 -161.5q-30 -70 -65 -213t-35 -215q0 -27 4.5 -54.5
t15.5 -58.5t35 -50t58 -19q52 0 111.5 44.5t97.5 97.5t47 89z" />
    <glyph glyph-name="ae" unicode="&#xe6;" horiz-adv-x="1466" 
d="M1432 213q0 -10 -17.5 -36t-53 -60t-80 -65.5t-107 -53t-125.5 -21.5q-46 0 -86 15t-67.5 39t-45 46t-29.5 46q-24 -96 -37 -121t-51 -25q-17 0 -33 11t-16 37q0 12 18 84l-2 2q-59 -64 -113.5 -99t-121.5 -35q-114 0 -195.5 63t-81.5 165q0 42 16.5 94.5t64.5 126.5
t122 144.5t203.5 146t294.5 133.5q5 23 20.5 36.5t25.5 16t19 2.5q18 0 34 -11t16 -36q0 -7 -13 -59q133 106 277 106q90 0 147.5 -49.5t57.5 -124.5q0 -17 -4 -37t-17.5 -54.5t-48.5 -67t-88 -54.5q-111 -45 -299 -45h-107q-28 -119 -28 -201q0 -43 8.5 -83.5t27 -79.5
t53 -62.5t81.5 -23.5q31 0 65.5 9t77.5 29.5t90 62.5t88 101q18 21 27 21q11 0 22 -12.5t11 -20.5zM1395 735q0 53 -34 89t-95 36q-18 0 -41 -3.5t-67.5 -23.5t-83.5 -53.5t-81.5 -101.5t-70.5 -160h61q44 0 83.5 2.5t89.5 10t90 23t75 38.5t54.5 59.5t19.5 83.5zM750 297
l124 500q-133 -57 -239.5 -142t-169 -174.5t-95 -174.5t-32.5 -156q0 -47 24 -77.5t52 -40t57 -9.5q62 0 127.5 57t103.5 118.5t48 98.5z" />
    <glyph glyph-name="ccedilla" unicode="&#xe7;" horiz-adv-x="942" 
d="M217 -403q0 8 4 13t14 6.5t15.5 2t19.5 0.5h4q285 0 285 125q0 32 -19.5 49.5t-43 20.5t-43 11t-19.5 25q0 3 27 113q7 34 17.5 41.5t45.5 7.5h23q28 0 38.5 -5.5t10.5 -22.5q0 -11 -29 -125q125 -26 125 -115q0 -52 -32.5 -86.5t-95 -52t-133.5 -24.5t-169 -7h-8
q-37 0 -37 23zM958 213q0 -10 -19 -36t-58 -60.5t-89 -65.5t-121 -52.5t-145 -21.5q-135 0 -218 93t-83 245q0 109 45.5 218t118 190t167 131.5t187.5 50.5q97 0 158.5 -50t61.5 -126q0 -56 -31 -89.5t-74 -33.5q-33 0 -51.5 19.5t-18.5 46.5q0 4 0.5 10t6.5 21.5t15.5 28.5
t30.5 25t50 15q-11 29 -31.5 48.5t-45.5 27t-40 10t-29 2.5q-70 0 -142 -53.5t-126 -151.5q-40 -73 -74 -206.5t-34 -215.5q0 -94 40.5 -152t120.5 -58q17 0 37.5 2t63.5 13t83 30.5t91 60t94 94.5q18 23 27 23q11 0 21.5 -12t10.5 -21z" />
    <glyph glyph-name="egrave" unicode="&#xe8;" horiz-adv-x="942" 
d="M870 1128q-6 -12 -22 -23t-27 -11q-10 0 -20 16l-205 252q-26 26 -8 65q13 26 39 42t47 16q14 0 23.5 -6t13 -11t10.5 -18l145 -291q11 -21 4 -31zM958 213q0 -10 -19 -36t-58 -60.5t-89 -65.5t-121 -52.5t-145 -21.5q-93 0 -161.5 52t-100 132t-31.5 175q0 104 32 197.5
t85 160t119.5 115t136.5 72.5t135 24q95 0 151 -50.5t56 -123.5q0 -10 -1 -21.5t-9.5 -40t-24 -52.5t-48.5 -52t-79 -47q-113 -45 -297 -45h-79q-35 -138 -35 -225q0 -36 6 -70t21 -71.5t48 -60.5t80 -23q17 0 37.5 2t63.5 13t83 30.5t91 60t94 94.5q18 23 27 23
q11 0 21.5 -12t10.5 -21zM870 735q0 54 -34.5 89.5t-94.5 35.5q-9 0 -20 -1t-36.5 -8t-50 -19.5t-56 -38t-58.5 -60.5t-53.5 -90.5t-44.5 -124.5h43q25 0 44.5 0.5t64.5 4.5t79.5 11.5t77.5 24t71.5 38.5t48 57.5t19.5 80.5z" />
    <glyph glyph-name="eacute" unicode="&#xe9;" horiz-adv-x="942" 
d="M1192 1393q0 -39 -41 -66l-330 -252q-18 -16 -28 -16q-11 0 -22 11.5t-11 23.5q0 10 20 30l291 291q35 35 64 35q21 0 39 -15.5t18 -41.5zM958 213q0 -10 -19 -36t-58 -60.5t-89 -65.5t-121 -52.5t-145 -21.5q-93 0 -161.5 52t-100 132t-31.5 175q0 104 32 197.5t85 160
t119.5 115t136.5 72.5t135 24q95 0 151 -50.5t56 -123.5q0 -10 -1 -21.5t-9.5 -40t-24 -52.5t-48.5 -52t-79 -47q-113 -45 -297 -45h-79q-35 -138 -35 -225q0 -36 6 -70t21 -71.5t48 -60.5t80 -23q17 0 37.5 2t63.5 13t83 30.5t91 60t94 94.5q18 23 27 23q11 0 21.5 -12
t10.5 -21zM870 735q0 54 -34.5 89.5t-94.5 35.5q-9 0 -20 -1t-36.5 -8t-50 -19.5t-56 -38t-58.5 -60.5t-53.5 -90.5t-44.5 -124.5h43q25 0 44.5 0.5t64.5 4.5t79.5 11.5t77.5 24t71.5 38.5t48 57.5t19.5 80.5z" />
    <glyph glyph-name="ecircumflex" unicode="&#xea;" horiz-adv-x="942" 
d="M1055 1083q10 -15 -7.5 -29.5t-29.5 -2.5l-201 202l-303 -202q-19 -12 -29 2.5t7 29.5l339 295q7 6 16.5 6t14.5 -6zM958 213q0 -10 -19 -36t-58 -60.5t-89 -65.5t-121 -52.5t-145 -21.5q-93 0 -161.5 52t-100 132t-31.5 175q0 104 32 197.5t85 160t119.5 115t136.5 72.5
t135 24q95 0 151 -50.5t56 -123.5q0 -10 -1 -21.5t-9.5 -40t-24 -52.5t-48.5 -52t-79 -47q-113 -45 -297 -45h-79q-35 -138 -35 -225q0 -36 6 -70t21 -71.5t48 -60.5t80 -23q17 0 37.5 2t63.5 13t83 30.5t91 60t94 94.5q18 23 27 23q11 0 21.5 -12t10.5 -21zM870 735
q0 54 -34.5 89.5t-94.5 35.5q-9 0 -20 -1t-36.5 -8t-50 -19.5t-56 -38t-58.5 -60.5t-53.5 -90.5t-44.5 -124.5h43q25 0 44.5 0.5t64.5 4.5t79.5 11.5t77.5 24t71.5 38.5t48 57.5t19.5 80.5z" />
    <glyph glyph-name="edieresis" unicode="&#xeb;" horiz-adv-x="942" 
d="M737 1151q0 -44 -36.5 -80.5t-79.5 -36.5q-39 0 -61.5 23.5t-22.5 56.5q0 44 37 80.5t81 36.5q39 0 60.5 -24t21.5 -56zM1100 1151q0 -44 -37 -80.5t-80 -36.5q-39 0 -61.5 23.5t-22.5 56.5q0 44 37.5 80.5t81.5 36.5q39 0 60.5 -24t21.5 -56zM958 213q0 -10 -19 -36
t-58 -60.5t-89 -65.5t-121 -52.5t-145 -21.5q-93 0 -161.5 52t-100 132t-31.5 175q0 104 32 197.5t85 160t119.5 115t136.5 72.5t135 24q95 0 151 -50.5t56 -123.5q0 -10 -1 -21.5t-9.5 -40t-24 -52.5t-48.5 -52t-79 -47q-113 -45 -297 -45h-79q-35 -138 -35 -225
q0 -36 6 -70t21 -71.5t48 -60.5t80 -23q17 0 37.5 2t63.5 13t83 30.5t91 60t94 94.5q18 23 27 23q11 0 21.5 -12t10.5 -21zM870 735q0 54 -34.5 89.5t-94.5 35.5q-9 0 -20 -1t-36.5 -8t-50 -19.5t-56 -38t-58.5 -60.5t-53.5 -90.5t-44.5 -124.5h43q25 0 44.5 0.5t64.5 4.5
t79.5 11.5t77.5 24t71.5 38.5t48 57.5t19.5 80.5z" />
    <glyph glyph-name="igrave" unicode="&#xec;" horiz-adv-x="628" 
d="M625 1128q-6 -12 -22.5 -23t-27.5 -11q-10 0 -20 16l-205 252q-26 26 -8 65q13 26 39 42t47 16q14 0 23.5 -6t13 -11t10.5 -18l146 -291q11 -21 4 -31zM678 293q0 -6 -8 -36t-28.5 -78.5t-48.5 -93t-74.5 -76.5t-100.5 -32q-75 0 -115.5 49t-40.5 115q0 29 7 54t30 88
l76 202l61 170q37 103 37 148q0 57 -45 57q-122 0 -190 -258q-6 -22 -11.5 -27.5t-25.5 -5.5q-31 0 -31 21q0 6 8.5 36.5t29 78.5t48.5 92t75 76t101 32q63 0 108.5 -42.5t45.5 -121.5q0 -40 -25 -114l-131 -351q-2 -5 -10 -27.5t-10 -28.5t-8.5 -25t-8.5 -26.5l-6 -22.5
t-5.5 -24t-3 -20.5t-1.5 -21.5q0 -19 4.5 -31.5t12.5 -17.5t14 -6.5t14 -1.5q121 0 190 256q6 24 10.5 29t24.5 5q31 0 31 -20z" />
    <glyph glyph-name="iacute" unicode="&#xed;" horiz-adv-x="628" 
d="M946 1393q0 -39 -41 -66l-330 -252q-18 -16 -28 -16q-11 0 -22 11.5t-11 23.5q0 9 21 30l290 291q35 35 64 35q21 0 39 -15.5t18 -41.5zM678 293q0 -6 -8 -36t-28.5 -78.5t-48.5 -93t-74.5 -76.5t-100.5 -32q-75 0 -115.5 49t-40.5 115q0 29 7 54t30 88l76 202l61 170
q37 103 37 148q0 57 -45 57q-122 0 -190 -258q-6 -22 -11.5 -27.5t-25.5 -5.5q-31 0 -31 21q0 6 8.5 36.5t29 78.5t48.5 92t75 76t101 32q63 0 108.5 -42.5t45.5 -121.5q0 -40 -25 -114l-131 -351q-2 -5 -10 -27.5t-10 -28.5t-8.5 -25t-8.5 -26.5l-6 -22.5t-5.5 -24
t-3 -20.5t-1.5 -21.5q0 -19 4.5 -31.5t12.5 -17.5t14 -6.5t14 -1.5q121 0 190 256q6 24 10.5 29t24.5 5q31 0 31 -20z" />
    <glyph glyph-name="icircumflex" unicode="&#xee;" horiz-adv-x="628" 
d="M809 1083q10 -15 -7.5 -29.5t-29.5 -2.5l-201 202l-303 -202q-19 -12 -29 2.5t7 29.5l340 295q7 6 16 6t14 -6zM678 293q0 -6 -8 -36t-28.5 -78.5t-48.5 -93t-74.5 -76.5t-100.5 -32q-75 0 -115.5 49t-40.5 115q0 29 7 54t30 88l76 202l61 170q37 103 37 148q0 57 -45 57
q-122 0 -190 -258q-6 -22 -11.5 -27.5t-25.5 -5.5q-31 0 -31 21q0 6 8.5 36.5t29 78.5t48.5 92t75 76t101 32q63 0 108.5 -42.5t45.5 -121.5q0 -40 -25 -114l-131 -351q-2 -5 -10 -27.5t-10 -28.5t-8.5 -25t-8.5 -26.5l-6 -22.5t-5.5 -24t-3 -20.5t-1.5 -21.5
q0 -19 4.5 -31.5t12.5 -17.5t14 -6.5t14 -1.5q121 0 190 256q6 24 10.5 29t24.5 5q31 0 31 -20z" />
    <glyph glyph-name="idieresis" unicode="&#xef;" horiz-adv-x="628" 
d="M492 1151q0 -44 -37 -80.5t-80 -36.5q-39 0 -61.5 23.5t-22.5 56.5q0 44 37.5 80.5t81.5 36.5q39 0 60.5 -24t21.5 -56zM854 1151q0 -44 -37 -80.5t-80 -36.5q-39 0 -61.5 23.5t-22.5 56.5q0 44 37.5 80.5t81.5 36.5q39 0 60.5 -24t21.5 -56zM678 293q0 -6 -8 -36
t-28.5 -78.5t-48.5 -93t-74.5 -76.5t-100.5 -32q-75 0 -115.5 49t-40.5 115q0 29 7 54t30 88l76 202l61 170q37 103 37 148q0 57 -45 57q-122 0 -190 -258q-6 -22 -11.5 -27.5t-25.5 -5.5q-31 0 -31 21q0 6 8.5 36.5t29 78.5t48.5 92t75 76t101 32q63 0 108.5 -42.5
t45.5 -121.5q0 -40 -25 -114l-131 -351q-2 -5 -10 -27.5t-10 -28.5t-8.5 -25t-8.5 -26.5l-6 -22.5t-5.5 -24t-3 -20.5t-1.5 -21.5q0 -19 4.5 -31.5t12.5 -17.5t14 -6.5t14 -1.5q121 0 190 256q6 24 10.5 29t24.5 5q31 0 31 -20z" />
    <glyph glyph-name="eth" unicode="&#xf0;" 
d="M1096 731q0 -34 -4.5 -80t-16.5 -120t-43 -155t-76 -147q-71 -102 -189.5 -177t-248.5 -75q-133 0 -226 89t-93 249q0 110 49 220.5t126 193t177 134.5t197 52q72 0 116 -33.5t66 -74.5q-18 249 -170 414l-195 -99q-12 -4 -18 -4q-12 0 -19.5 8t-7.5 19q0 25 27 37
l168 86q-56 53 -144 98q-16 10 -16 25q0 12 10.5 22.5t20.5 7.5q131 -39 225 -106l193 98q12 4 18 4q12 0 19.5 -7.5t7.5 -18.5q0 -25 -27 -37l-158 -80q111 -97 171.5 -237.5t60.5 -305.5zM920 627q0 115 -50 179t-131 64q-72 0 -151 -49t-135 -147q-40 -73 -75.5 -216
t-35.5 -214q0 -104 54.5 -159.5t133.5 -55.5q74 0 152.5 48.5t134.5 147.5q41 75 72 199t31 203z" />
    <glyph glyph-name="ntilde" unicode="&#xf1;" horiz-adv-x="1150" 
d="M1151 1253q0 -11 -45 -55t-109.5 -86.5t-107.5 -42.5q-26 0 -47.5 14t-31.5 27.5t-26 38.5q-16 28 -30 41.5t-35 13.5q-27 0 -72.5 -30t-77.5 -60l-32 -29q-17 -14 -27 -14q-23 0 -23 21q0 10 27.5 37.5t54.5 50.5l27 22q96 74 152 74q26 0 47 -13t32.5 -28.5t30.5 -46.5
q27 -47 60 -47q39 0 104.5 50t79.5 69q14 14 26 14q9 0 16 -6t7 -15zM1200 293q0 -6 -8.5 -36.5t-29 -78.5t-48.5 -92.5t-74.5 -76.5t-99.5 -32q-71 0 -113.5 47t-42.5 117q0 31 6 53.5t27 77.5q119 336 119 453q0 135 -94 135q-157 0 -277 -203q-25 -42 -32.5 -62.5
t-28.5 -102.5q-5 -22 -16.5 -66.5t-16.5 -67.5l-82 -327q-10 -27 -31 -40.5t-43 -13.5q-28 0 -42.5 17t-14.5 37q0 10 6 28l154 615q14 58 14 104q0 82 -53 82q-44 0 -76 -62t-63 -182q-7 -34 -13 -40.5t-26 -6.5q-31 0 -31 21q27 125 66 207q28 52 62 80t85 28
q67 0 114.5 -44t57.5 -118q11 16 24.5 32.5t41.5 41t59 43t75.5 32t92.5 13.5q41 0 76 -10t67.5 -33t51 -66.5t18.5 -103.5q0 -124 -125 -456l-8 -24l-9 -27t-7.5 -25t-6.5 -27t-4 -25t-2 -26q0 -18 2 -29t12.5 -20.5t30.5 -9.5q117 0 191 256q6 25 10.5 29.5t23.5 4.5
q31 0 31 -20z" />
    <glyph glyph-name="ograve" unicode="&#xf2;" 
d="M911 1128q-6 -12 -22 -23t-27 -11q-10 0 -20 16l-205 252q-26 26 -8 65q13 26 39 42t47 16q14 0 23.5 -6t13 -11t10.5 -18l145 -291q11 -21 4 -31zM1042 569q0 -147 -76 -285t-196.5 -222.5t-245.5 -84.5q-131 0 -215 91.5t-84 246.5q0 109 45.5 218t118 190t167 131.5
t187.5 50.5q133 0 216 -94.5t83 -241.5zM899 649q0 93 -42.5 152t-115.5 59q-63 0 -131 -48t-123 -138q-47 -79 -82.5 -219t-35.5 -222q0 -104 45 -157t110 -53q73 0 145.5 58t118.5 146q46 86 78.5 217.5t32.5 204.5z" />
    <glyph glyph-name="oacute" unicode="&#xf3;" 
d="M1233 1393q0 -39 -41 -66l-330 -252q-18 -16 -28 -16q-11 0 -22 11.5t-11 23.5q0 10 20 30l291 291q35 35 64 35q21 0 39 -15.5t18 -41.5zM1042 569q0 -147 -76 -285t-196.5 -222.5t-245.5 -84.5q-131 0 -215 91.5t-84 246.5q0 109 45.5 218t118 190t167 131.5
t187.5 50.5q133 0 216 -94.5t83 -241.5zM899 649q0 93 -42.5 152t-115.5 59q-63 0 -131 -48t-123 -138q-47 -79 -82.5 -219t-35.5 -222q0 -104 45 -157t110 -53q73 0 145.5 58t118.5 146q46 86 78.5 217.5t32.5 204.5z" />
    <glyph glyph-name="ocircumflex" unicode="&#xf4;" 
d="M1096 1083q10 -15 -7.5 -29.5t-29.5 -2.5l-201 202l-303 -202q-19 -12 -29.5 2.5t6.5 29.5l340 295q8 6 17 6t14 -6zM1042 569q0 -147 -76 -285t-196.5 -222.5t-245.5 -84.5q-131 0 -215 91.5t-84 246.5q0 109 45.5 218t118 190t167 131.5t187.5 50.5q133 0 216 -94.5
t83 -241.5zM899 649q0 93 -42.5 152t-115.5 59q-63 0 -131 -48t-123 -138q-47 -79 -82.5 -219t-35.5 -222q0 -104 45 -157t110 -53q73 0 145.5 58t118.5 146q46 86 78.5 217.5t32.5 204.5z" />
    <glyph glyph-name="otilde" unicode="&#xf5;" 
d="M1212 1253q0 -11 -45 -55t-109.5 -86.5t-107.5 -42.5q-26 0 -47.5 14t-31 27t-25.5 39q-16 28 -30.5 41.5t-35.5 13.5q-27 0 -72.5 -30t-77.5 -60l-32 -29q-17 -14 -27 -14q-22 0 -22 21q0 10 27 37.5t54 50.5l27 22q96 74 152 74q37 0 60 -21t51 -67q27 -47 59 -47
q39 0 104.5 50t79.5 69q14 14 27 14q9 0 15.5 -6t6.5 -15zM1042 569q0 -147 -76 -285t-196.5 -222.5t-245.5 -84.5q-131 0 -215 91.5t-84 246.5q0 109 45.5 218t118 190t167 131.5t187.5 50.5q133 0 216 -94.5t83 -241.5zM899 649q0 93 -42.5 152t-115.5 59q-63 0 -131 -48
t-123 -138q-47 -79 -82.5 -219t-35.5 -222q0 -104 45 -157t110 -53q73 0 145.5 58t118.5 146q46 86 78.5 217.5t32.5 204.5z" />
    <glyph glyph-name="odieresis" unicode="&#xf6;" 
d="M778 1151q0 -44 -36.5 -80.5t-79.5 -36.5q-39 0 -61.5 23.5t-22.5 56.5q0 44 37 80.5t81 36.5q39 0 60.5 -24t21.5 -56zM1141 1151q0 -44 -37 -80.5t-80 -36.5q-39 0 -61.5 23.5t-22.5 56.5q0 44 37.5 80.5t81.5 36.5q39 0 60.5 -24t21.5 -56zM1042 569q0 -147 -76 -285
t-196.5 -222.5t-245.5 -84.5q-131 0 -215 91.5t-84 246.5q0 109 45.5 218t118 190t167 131.5t187.5 50.5q133 0 216 -94.5t83 -241.5zM899 649q0 93 -42.5 152t-115.5 59q-63 0 -131 -48t-123 -138q-47 -79 -82.5 -219t-35.5 -222q0 -104 45 -157t110 -53q73 0 145.5 58
t118.5 146q46 86 78.5 217.5t32.5 204.5z" />
    <glyph glyph-name="divide" unicode="&#xf7;" horiz-adv-x="1570" 
d="M1540 512q0 -19 -11.5 -28.5t-23 -11t-32.5 -1.5h-1119q-15 0 -23.5 1t-21 4t-18.5 12t-6 24q0 19 12.5 28.5t24 11t32.5 1.5h1119q21 0 32.5 -1.5t23 -11t11.5 -28.5zM1106 854q0 -47 -41 -88t-92 -41q-40 0 -65 24t-25 64q0 50 41.5 89.5t91.5 39.5q41 0 65.5 -26
t24.5 -62zM944 211q0 -47 -41 -88t-92 -41q-40 0 -65 24t-25 64q0 50 41.5 89.5t91.5 39.5q41 0 65.5 -26t24.5 -62z" />
    <glyph glyph-name="oslash" unicode="&#xf8;" 
d="M1028 575q0 -149 -74.5 -289.5t-192 -225.5t-239.5 -85q-94 0 -166 54q-52 -70 -90.5 -124.5t-56.5 -78.5q-28 -32 -34.5 -38.5t-12.5 -6.5q-9 0 -16 5.5t-7 14.5q0 10 17 29l168 229q-86 96 -86 248q0 144 72 283.5t190.5 228t244.5 88.5q93 0 166 -53l166 227
q17 21 29 21q8 0 14 -6t6 -15q0 -7 -16 -30l-166 -228q84 -95 84 -248zM866 797q-42 65 -123 65q-68 0 -131 -42t-108 -109t-78.5 -148.5t-50.5 -163.5t-17 -151t17 -117zM909 637q0 66 -18 115l-492 -666q47 -66 125 -66q85 0 160.5 64.5t123 160.5t74.5 200.5t27 191.5z
" />
    <glyph glyph-name="ugrave" unicode="&#xf9;" horiz-adv-x="1099" 
d="M829 1128q-6 -12 -22 -23t-27 -11q-10 0 -20 16l-205 252q-26 26 -8 65q13 26 39 42t47 16q14 0 23.5 -6t13 -11t10.5 -18l145 -291q11 -21 4 -31zM1149 293q-25 -123 -62 -201q-27 -54 -61.5 -84.5t-87.5 -30.5q-19 0 -38 4t-44 15.5t-47 38t-35 65.5
q-99 -123 -227 -123q-95 0 -162.5 57.5t-67.5 180.5q0 71 28 167t79 234q49 135 49 185q0 36 -12 47.5t-33 11.5q-34 0 -64 -21.5t-49.5 -50t-37 -69t-25 -65.5t-14.5 -52q-6 -22 -11.5 -27.5t-25.5 -5.5q-31 0 -31 21q0 7 8.5 37.5t29.5 78.5t49.5 92t75 75.5t99.5 31.5
q67 0 111.5 -45.5t44.5 -120.5q0 -37 -27 -110q-36 -98 -55.5 -156t-41.5 -146.5t-22 -146.5q0 -29 4.5 -54t16 -49.5t34.5 -39t56 -14.5q107 0 188 118q18 27 29 68l150 598q19 76 79 76q28 0 43 -17t15 -37q0 -10 -6 -28l-148 -590q-14 -57 -14 -105q0 -16 1 -26
t5.5 -25.5t16 -23.5t30.5 -8q25 0 46.5 20.5t38 59.5t28 75t24.5 88q9 34 14.5 40.5t24.5 6.5q31 0 31 -20z" />
    <glyph glyph-name="uacute" unicode="&#xfa;" horiz-adv-x="1099" 
d="M1151 1393q0 -39 -41 -66l-330 -252q-18 -16 -28 -16q-11 0 -22 11.5t-11 23.5q0 10 20 30l291 291q35 35 64 35q21 0 39 -15.5t18 -41.5zM1149 293q-25 -123 -62 -201q-27 -54 -61.5 -84.5t-87.5 -30.5q-19 0 -38 4t-44 15.5t-47 38t-35 65.5q-99 -123 -227 -123
q-95 0 -162.5 57.5t-67.5 180.5q0 71 28 167t79 234q49 135 49 185q0 36 -12 47.5t-33 11.5q-34 0 -64 -21.5t-49.5 -50t-37 -69t-25 -65.5t-14.5 -52q-6 -22 -11.5 -27.5t-25.5 -5.5q-31 0 -31 21q0 7 8.5 37.5t29.5 78.5t49.5 92t75 75.5t99.5 31.5q67 0 111.5 -45.5
t44.5 -120.5q0 -37 -27 -110q-36 -98 -55.5 -156t-41.5 -146.5t-22 -146.5q0 -29 4.5 -54t16 -49.5t34.5 -39t56 -14.5q107 0 188 118q18 27 29 68l150 598q19 76 79 76q28 0 43 -17t15 -37q0 -10 -6 -28l-148 -590q-14 -57 -14 -105q0 -16 1 -26t5.5 -25.5t16 -23.5
t30.5 -8q25 0 46.5 20.5t38 59.5t28 75t24.5 88q9 34 14.5 40.5t24.5 6.5q31 0 31 -20z" />
    <glyph glyph-name="ucircumflex" unicode="&#xfb;" horiz-adv-x="1099" 
d="M1014 1083q10 -15 -7.5 -29.5t-29.5 -2.5l-201 202l-303 -202q-19 -12 -29 2.5t7 29.5l340 295q7 6 16 6t14 -6zM1149 293q-25 -123 -62 -201q-27 -54 -61.5 -84.5t-87.5 -30.5q-19 0 -38 4t-44 15.5t-47 38t-35 65.5q-99 -123 -227 -123q-95 0 -162.5 57.5t-67.5 180.5
q0 71 28 167t79 234q49 135 49 185q0 36 -12 47.5t-33 11.5q-34 0 -64 -21.5t-49.5 -50t-37 -69t-25 -65.5t-14.5 -52q-6 -22 -11.5 -27.5t-25.5 -5.5q-31 0 -31 21q0 7 8.5 37.5t29.5 78.5t49.5 92t75 75.5t99.5 31.5q67 0 111.5 -45.5t44.5 -120.5q0 -37 -27 -110
q-36 -98 -55.5 -156t-41.5 -146.5t-22 -146.5q0 -29 4.5 -54t16 -49.5t34.5 -39t56 -14.5q107 0 188 118q18 27 29 68l150 598q19 76 79 76q28 0 43 -17t15 -37q0 -10 -6 -28l-148 -590q-14 -57 -14 -105q0 -16 1 -26t5.5 -25.5t16 -23.5t30.5 -8q25 0 46.5 20.5t38 59.5
t28 75t24.5 88q9 34 14.5 40.5t24.5 6.5q31 0 31 -20z" />
    <glyph glyph-name="udieresis" unicode="&#xfc;" horiz-adv-x="1099" 
d="M696 1151q0 -44 -36.5 -80.5t-79.5 -36.5q-39 0 -61.5 23.5t-22.5 56.5q0 44 37 80.5t81 36.5q39 0 60.5 -24t21.5 -56zM1059 1151q0 -44 -37 -80.5t-80 -36.5q-39 0 -61.5 23.5t-22.5 56.5q0 44 37.5 80.5t81.5 36.5q39 0 60.5 -24t21.5 -56zM1149 293
q-25 -123 -62 -201q-27 -54 -61.5 -84.5t-87.5 -30.5q-19 0 -38 4t-44 15.5t-47 38t-35 65.5q-99 -123 -227 -123q-95 0 -162.5 57.5t-67.5 180.5q0 71 28 167t79 234q49 135 49 185q0 36 -12 47.5t-33 11.5q-34 0 -64 -21.5t-49.5 -50t-37 -69t-25 -65.5t-14.5 -52
q-6 -22 -11.5 -27.5t-25.5 -5.5q-31 0 -31 21q0 7 8.5 37.5t29.5 78.5t49.5 92t75 75.5t99.5 31.5q67 0 111.5 -45.5t44.5 -120.5q0 -37 -27 -110q-36 -98 -55.5 -156t-41.5 -146.5t-22 -146.5q0 -29 4.5 -54t16 -49.5t34.5 -39t56 -14.5q107 0 188 118q18 27 29 68l150 598
q19 76 79 76q28 0 43 -17t15 -37q0 -10 -6 -28l-148 -590q-14 -57 -14 -105q0 -16 1 -26t5.5 -25.5t16 -23.5t30.5 -8q25 0 46.5 20.5t38 59.5t28 75t24.5 88q9 34 14.5 40.5t24.5 6.5q31 0 31 -20z" />
    <glyph glyph-name="yacute" unicode="&#xfd;" horiz-adv-x="995" 
d="M850 -6q-26 -103 -91 -197t-161.5 -155.5t-198.5 -61.5q-86 0 -141 48.5t-55 127.5q0 33 8.5 57.5t20.5 37t28 20.5t26.5 10t20.5 2q29 0 49.5 -17t20.5 -48q0 -30 -22.5 -61t-65.5 -38l-17 -6q0 -4 3.5 -13t13 -22t23 -25t36.5 -20t51 -8q42 0 85 20.5t89.5 66t88 133.5
t69.5 208q-76 -76 -184 -76q-95 0 -162.5 57.5t-67.5 180.5q0 71 28 167t79 234q49 135 49 185q0 36 -12 47.5t-33 11.5q-34 0 -64 -21.5t-49.5 -50t-37 -69t-25 -65.5t-14.5 -52q-6 -22 -11.5 -27.5t-25.5 -5.5q-31 0 -31 21q0 7 8.5 37.5t29.5 78.5t49.5 92t75 75.5
t99.5 31.5q67 0 111.5 -45.5t44.5 -120.5q0 -37 -27 -110q-36 -98 -55.5 -156t-41.5 -146.5t-22 -146.5q0 -29 4.5 -54t16 -49.5t34.5 -39t56 -14.5q81 0 142 62.5t75 119.5l150 602q19 76 79 76q28 0 43 -17t15 -37q0 -3 -2.5 -13t-3.5 -15zM1077 1368q0 -38 -41 -65
l-329 -252q-19 -17 -29 -17q-11 0 -22 11.5t-11 23.5q0 10 21 31l290 291q34 34 64 34q21 0 39 -15.5t18 -41.5z" />
    <glyph glyph-name="thorn" unicode="&#xfe;" 
d="M1044 586q0 -111 -42 -223t-107.5 -196t-150 -137t-166.5 -53q-69 0 -112.5 39t-59.5 80l-74 -299q-23 -95 -23 -98q0 -12 4 -18t28 -10.5t73 -4.5q19 0 26.5 -0.5t15 -6t7.5 -17.5q0 -18 -8 -27.5t-14.5 -10.5t-16.5 -1q-31 0 -98.5 3t-100.5 3q-29 0 -87 -3t-85 -3
q-11 0 -17.5 6.5t-6.5 17.5q0 18 8 27.5t15 10.5t20 1q61 2 80.5 14t31.5 58l381 1528q6 28 6 34q0 12 -4.5 18.5t-28 11.5t-69.5 5q-18 0 -26.5 1t-15.5 6t-7 16q0 18 7.5 28t15.5 12t24 3l203 16q12 4 32 4q29 0 29 -24q-4 -21 -6 -27l-143 -573q115 108 217 108
q101 0 173 -82.5t72 -236.5zM793 217q42 94 78 243.5t36 217.5q0 29 -5 57t-16.5 58t-35 48.5t-55.5 18.5q-77 0 -159.5 -84t-96.5 -147l-97 -387q-6 -24 -6 -29q0 -8 3 -26t12 -47.5t23.5 -54.5t41 -43.5t59.5 -18.5q36 0 73.5 22.5t66 56.5t47.5 62.5t31 52.5z" />
    <glyph glyph-name="ydieresis" unicode="&#xff;" horiz-adv-x="995" 
d="M850 -6q-26 -103 -91 -197t-161.5 -155.5t-198.5 -61.5q-86 0 -141 48.5t-55 127.5q0 33 8.5 57.5t20.5 37t28 20.5t26.5 10t20.5 2q29 0 49.5 -17t20.5 -48q0 -30 -22.5 -61t-65.5 -38l-17 -6q0 -4 3.5 -13t13 -22t23 -25t36.5 -20t51 -8q42 0 85 20.5t89.5 66t88 133.5
t69.5 208q-76 -76 -184 -76q-95 0 -162.5 57.5t-67.5 180.5q0 71 28 167t79 234q49 135 49 185q0 36 -12 47.5t-33 11.5q-34 0 -64 -21.5t-49.5 -50t-37 -69t-25 -65.5t-14.5 -52q-6 -22 -11.5 -27.5t-25.5 -5.5q-31 0 -31 21q0 7 8.5 37.5t29.5 78.5t49.5 92t75 75.5
t99.5 31.5q67 0 111.5 -45.5t44.5 -120.5q0 -37 -27 -110q-36 -98 -55.5 -156t-41.5 -146.5t-22 -146.5q0 -29 4.5 -54t16 -49.5t34.5 -39t56 -14.5q81 0 142 62.5t75 119.5l150 602q19 76 79 76q28 0 43 -17t15 -37q0 -3 -2.5 -13t-3.5 -15zM723 1249q0 -44 -37 -80
t-80 -36q-39 0 -61.5 23t-22.5 56q0 44 37.5 80.5t81.5 36.5q39 0 60.5 -24t21.5 -56zM1085 1249q0 -44 -36.5 -80t-79.5 -36q-39 0 -61.5 23t-22.5 56q0 44 37.5 80.5t81.5 36.5q39 0 60 -24t21 -56z" />
    <glyph glyph-name="Amacron" unicode="&#x100;" horiz-adv-x="1521" 
d="M1499 1737q0 -19 -7.5 -27.5t-16.5 -10t-31 -1.5h-574q-22 0 -30 1t-14.5 6.5t-6.5 18.5q0 24 12 29.5t43 5.5h574q16 0 21.5 -0.5t14.5 -2t12 -6.5t3 -13zM1417 37q0 -17 -7.5 -26t-14 -10t-15.5 -1q-35 0 -107 3t-108 3q-39 0 -118 -3t-117 -3q-31 0 -31 25q0 18 8 27
t15.5 10t23.5 1q65 0 101 17.5t36 48.5l-22 340h-467l-148 -258q-28 -54 -28 -78q0 -10 2.5 -19t7 -15t10 -11.5t12.5 -9t13 -6t13.5 -4.5t11.5 -2.5t10 -1.5l6 -1q2 0 6 -0.5t6 -1t5.5 -1t5 -1.5t4 -3t3.5 -4t2 -5.5t1 -7.5q0 -39 -37 -39q-30 0 -94.5 3t-96.5 3
q-27 0 -83 -3t-81 -3q-24 0 -24 25q1 36 24 38q36 2 58.5 6.5t57.5 20t68 51t64 90.5l680 1199q10 20 20 28t33 8q24 0 29.5 -8t7.5 -43l88 -1282q3 -43 22.5 -56.5t94.5 -13.5q21 0 28.5 -0.5t14 -6.5t6.5 -19zM1057 532l-47 670l-381 -670h428z" />
    <glyph glyph-name="amacron" unicode="&#x101;" 
d="M1108 1237q0 -19 -7.5 -27.5t-16.5 -10t-31 -1.5h-574q-30 0 -40.5 4t-10.5 23q0 24 12 29.5t43 5.5h574q19 0 27.5 -1t16 -6t7.5 -16zM1075 293q-24 -123 -61 -201q-57 -115 -150 -115q-58 0 -106 36.5t-64 107.5q-59 -72 -123 -108t-122 -36q-112 0 -180 91.5
t-68 226.5q0 146 69.5 288.5t179 232t220.5 89.5q116 0 170 -121q2 9 5 17.5t11.5 25t25.5 27t40 10.5q20 0 37.5 -12t17.5 -41q0 -14 -8 -43l-140 -557q-14 -57 -14 -105q0 -16 1 -26t5.5 -25.5t16 -23.5t30.5 -8q25 0 46.5 20.5t38.5 59.5t28.5 75.5t24.5 87.5
q9 34 14 40.5t24 6.5q31 0 31 -20zM709 254l96 387l6 27q0 71 -39 131.5t-102 60.5q-62 0 -126.5 -65.5t-103.5 -161.5q-30 -70 -65 -213t-35 -215q0 -27 4.5 -54.5t15.5 -58.5t35 -50t58 -19q52 0 111.5 44.5t97.5 97.5t47 89z" />
    <glyph glyph-name="Abreve" unicode="&#x102;" horiz-adv-x="1521" 
d="M1495 1886q0 -19 -15 -56.5t-46.5 -84t-72.5 -88t-101 -70t-125 -28.5q-104 0 -162 70.5t-58 170.5q0 107 35 107q8 0 15.5 -5.5t7.5 -17.5q-10 -47 -10 -67q0 -77 47 -131t133 -54q52 0 108.5 24t112 82t82.5 140q5 16 10.5 22.5t16.5 6.5q9 0 15.5 -6t6.5 -15zM1417 37
q0 -17 -7.5 -26t-14 -10t-15.5 -1q-35 0 -107 3t-108 3q-39 0 -118 -3t-117 -3q-31 0 -31 25q0 18 8 27t15.5 10t23.5 1q65 0 101 17.5t36 48.5l-22 340h-467l-148 -258q-28 -54 -28 -78q0 -10 2.5 -19t7 -15t10 -11.5t12.5 -9t13 -6t13.5 -4.5t11.5 -2.5t10 -1.5l6 -1
q2 0 6 -0.5t6 -1t5.5 -1t5 -1.5t4 -3t3.5 -4t2 -5.5t1 -7.5q0 -39 -37 -39q-30 0 -94.5 3t-96.5 3q-27 0 -83 -3t-81 -3q-24 0 -24 25q1 36 24 38q36 2 58.5 6.5t57.5 20t68 51t64 90.5l680 1199q10 20 20 28t33 8q24 0 29.5 -8t7.5 -43l88 -1282q3 -43 22.5 -56.5
t94.5 -13.5q21 0 28.5 -0.5t14 -6.5t6.5 -19zM1057 532l-47 670l-381 -670h428z" />
    <glyph glyph-name="abreve" unicode="&#x103;" 
d="M1104 1386q0 -19 -15 -56.5t-46.5 -84t-73 -88t-101.5 -70t-125 -28.5q-103 0 -161 70.5t-58 170.5q0 107 35 107q8 0 15.5 -5.5t7.5 -17.5q-11 -47 -11 -67q0 -77 47.5 -130.5t133.5 -53.5q38 0 80.5 14.5t85.5 42.5t80 77t57 111q5 16 10 22.5t16 6.5q9 0 16 -6t7 -15z
M1075 293q-24 -123 -61 -201q-57 -115 -150 -115q-58 0 -106 36.5t-64 107.5q-59 -72 -123 -108t-122 -36q-112 0 -180 91.5t-68 226.5q0 146 69.5 288.5t179 232t220.5 89.5q116 0 170 -121q2 9 5 17.5t11.5 25t25.5 27t40 10.5q20 0 37.5 -12t17.5 -41q0 -14 -8 -43
l-140 -557q-14 -57 -14 -105q0 -16 1 -26t5.5 -25.5t16 -23.5t30.5 -8q25 0 46.5 20.5t38.5 59.5t28.5 75.5t24.5 87.5q9 34 14 40.5t24 6.5q31 0 31 -20zM709 254l96 387l6 27q0 71 -39 131.5t-102 60.5q-62 0 -126.5 -65.5t-103.5 -161.5q-30 -70 -65 -213t-35 -215
q0 -27 4.5 -54.5t15.5 -58.5t35 -50t58 -19q52 0 111.5 44.5t97.5 97.5t47 89z" />
    <glyph glyph-name="Aogonek" unicode="&#x104;" horiz-adv-x="1521" 
d="M801 -221q0 53 43.5 98.5t95.5 71t121 56t94 46.5q34 21 43 21q8 0 13.5 -5t5.5 -12q0 -18 -69.5 -72.5t-138.5 -111t-69 -78.5q0 -21 20 -34t48 -13q34 0 67 16t53 36t39 36t29 16q15 0 16.5 -14t-10.5 -31q-38 -49 -108 -95t-150 -46q-61 0 -102 31.5t-41 83.5z
M1417 37q0 -17 -7.5 -26t-14 -10t-15.5 -1q-35 0 -107 3t-108 3q-39 0 -118 -3t-117 -3q-31 0 -31 25q0 18 8 27t15.5 10t23.5 1q65 0 101 17.5t36 48.5l-22 340h-467l-148 -258q-28 -54 -28 -78q0 -10 2.5 -19t7 -15t10 -11.5t12.5 -9t13 -6t13.5 -4.5t11.5 -2.5t10 -1.5
l6 -1q2 0 6 -0.5t6 -1t5.5 -1t5 -1.5t4 -3t3.5 -4t2 -5.5t1 -7.5q0 -39 -37 -39q-30 0 -94.5 3t-96.5 3q-27 0 -83 -3t-81 -3q-24 0 -24 25q1 36 24 38q36 2 58.5 6.5t57.5 20t68 51t64 90.5l680 1199q10 20 20 28t33 8q24 0 29.5 -8t7.5 -43l88 -1282q3 -43 22.5 -56.5
t94.5 -13.5q21 0 28.5 -0.5t14 -6.5t6.5 -19zM1057 532l-47 670l-381 -670h428z" />
    <glyph glyph-name="aogonek" unicode="&#x105;" 
d="M453 -252q0 53 43.5 98.5t95.5 71t121 56t94 46.5q34 21 43 21q18 0 18 -16q0 -18 -69 -72.5t-138 -111.5t-69 -79q0 -21 20 -34t47 -13q44 0 84 26.5t67 52.5t38 26q15 0 16.5 -14t-10.5 -31q-38 -49 -108 -95.5t-150 -46.5q-61 0 -102 31.5t-41 83.5zM1075 293
q-24 -123 -61 -201q-57 -115 -150 -115q-58 0 -106 36.5t-64 107.5q-59 -72 -123 -108t-122 -36q-112 0 -180 91.5t-68 226.5q0 146 69.5 288.5t179 232t220.5 89.5q116 0 170 -121q2 9 5 17.5t11.5 25t25.5 27t40 10.5q20 0 37.5 -12t17.5 -41q0 -14 -8 -43l-140 -557
q-14 -57 -14 -105q0 -16 1 -26t5.5 -25.5t16 -23.5t30.5 -8q25 0 46.5 20.5t38.5 59.5t28.5 75.5t24.5 87.5q9 34 14 40.5t24 6.5q31 0 31 -20zM709 254l96 387l6 27q0 71 -39 131.5t-102 60.5q-62 0 -126.5 -65.5t-103.5 -161.5q-30 -70 -65 -213t-35 -215q0 -27 4.5 -54.5
t15.5 -58.5t35 -50t58 -19q52 0 111.5 44.5t97.5 97.5t47 89z" />
    <glyph glyph-name="Cacute" unicode="&#x106;" horiz-adv-x="1466" 
d="M1636 1892q0 -38 -41 -65l-329 -252q-18 -16 -29 -16t-22 11t-11 23q0 10 21 31l291 291q13 13 19 18t18 11t26 6q21 0 39 -16t18 -42zM1659 1395l-125 -498q-6 -25 -12.5 -31t-24.5 -6q-31 0 -31 21q0 1 3 21.5t5.5 50.5t2.5 53q0 71 -15.5 134.5t-48 118.5t-91 88
t-136.5 33q-124 0 -254.5 -73t-231.5 -209q-109 -150 -162 -348t-53 -326q0 -105 30.5 -185.5t82 -127.5t112.5 -70t128 -23q53 0 110.5 16t119.5 53t117.5 91t104 136t78.5 182q6 16 33 16q31 0 31 -20q0 -32 -25.5 -93.5t-79.5 -138t-125.5 -144.5t-175.5 -114.5
t-217 -46.5q-217 0 -359.5 150t-142.5 397q0 176 76 349.5t196.5 302.5t277.5 209.5t312 80.5q201 0 310 -174l129 151q8 10 16 16t12 7h4q9 0 14.5 -5t7.5 -11l1 -5q0 -12 -4 -28z" />
    <glyph glyph-name="cacute" unicode="&#x107;" horiz-adv-x="942" 
d="M1171 1393q0 -39 -41 -66l-329 -252q-18 -16 -29 -16t-22 11.5t-11 23.5q0 9 21 30l291 291q13 13 19 18t18 11t26 6q21 0 39 -15.5t18 -41.5zM958 213q0 -10 -19 -36t-58 -60.5t-89 -65.5t-121 -52.5t-145 -21.5q-135 0 -218 93t-83 245q0 109 45.5 218t118 190
t167 131.5t187.5 50.5q97 0 158.5 -50t61.5 -126q0 -56 -31 -89.5t-74 -33.5q-33 0 -51.5 19.5t-18.5 46.5q0 4 0.5 10t6.5 21.5t15.5 28.5t30.5 25t50 15q-11 29 -31.5 48.5t-45.5 27t-40 10t-29 2.5q-70 0 -142 -53.5t-126 -151.5q-40 -73 -74 -206.5t-34 -215.5
q0 -94 40.5 -152t120.5 -58q17 0 37.5 2t63.5 13t83 30.5t91 60t94 94.5q18 23 27 23q11 0 21.5 -12t10.5 -21z" />
    <glyph glyph-name="Ccircumflex" unicode="&#x108;" horiz-adv-x="1466" 
d="M1499 1583q10 -15 -7.5 -30t-29.5 -3l-200 203l-304 -203q-19 -12 -29 3t7 30l340 295q8 6 17 6t14 -6zM1659 1395l-125 -498q-6 -25 -12.5 -31t-24.5 -6q-31 0 -31 21q0 1 3 21.5t5.5 50.5t2.5 53q0 71 -15.5 134.5t-48 118.5t-91 88t-136.5 33q-124 0 -254.5 -73
t-231.5 -209q-109 -150 -162 -348t-53 -326q0 -105 30.5 -185.5t82 -127.5t112.5 -70t128 -23q53 0 110.5 16t119.5 53t117.5 91t104 136t78.5 182q6 16 33 16q31 0 31 -20q0 -32 -25.5 -93.5t-79.5 -138t-125.5 -144.5t-175.5 -114.5t-217 -46.5q-217 0 -359.5 150
t-142.5 397q0 176 76 349.5t196.5 302.5t277.5 209.5t312 80.5q201 0 310 -174l129 151q8 10 16 16t12 7h4q9 0 14.5 -5t7.5 -11l1 -5q0 -12 -4 -28z" />
    <glyph glyph-name="ccircumflex" unicode="&#x109;" horiz-adv-x="942" 
d="M1034 1083q10 -15 -7.5 -29.5t-29.5 -2.5l-200 202l-303 -202q-19 -12 -29.5 2.5t6.5 29.5l340 295q7 6 16.5 6t14.5 -6zM958 213q0 -10 -19 -36t-58 -60.5t-89 -65.5t-121 -52.5t-145 -21.5q-135 0 -218 93t-83 245q0 109 45.5 218t118 190t167 131.5t187.5 50.5
q97 0 158.5 -50t61.5 -126q0 -56 -31 -89.5t-74 -33.5q-33 0 -51.5 19.5t-18.5 46.5q0 4 0.5 10t6.5 21.5t15.5 28.5t30.5 25t50 15q-11 29 -31.5 48.5t-45.5 27t-40 10t-29 2.5q-70 0 -142 -53.5t-126 -151.5q-40 -73 -74 -206.5t-34 -215.5q0 -94 40.5 -152t120.5 -58
q17 0 37.5 2t63.5 13t83 30.5t91 60t94 94.5q18 23 27 23q11 0 21.5 -12t10.5 -21z" />
    <glyph glyph-name="Cdotaccent" unicode="&#x10a;" horiz-adv-x="1466" 
d="M1391 1749q0 -49 -40.5 -89t-90.5 -40q-42 0 -67.5 26t-25.5 62q0 49 40.5 89t90.5 40q43 0 68 -26.5t25 -61.5zM1659 1395l-125 -498q-6 -25 -12.5 -31t-24.5 -6q-31 0 -31 21q0 1 3 21.5t5.5 50.5t2.5 53q0 71 -15.5 134.5t-48 118.5t-91 88t-136.5 33
q-124 0 -254.5 -73t-231.5 -209q-109 -150 -162 -348t-53 -326q0 -105 30.5 -185.5t82 -127.5t112.5 -70t128 -23q53 0 110.5 16t119.5 53t117.5 91t104 136t78.5 182q6 16 33 16q31 0 31 -20q0 -32 -25.5 -93.5t-79.5 -138t-125.5 -144.5t-175.5 -114.5t-217 -46.5
q-217 0 -359.5 150t-142.5 397q0 176 76 349.5t196.5 302.5t277.5 209.5t312 80.5q201 0 310 -174l129 151q8 10 16 16t12 7h4q9 0 14.5 -5t7.5 -11l1 -5q0 -12 -4 -28z" />
    <glyph glyph-name="cdotaccent" unicode="&#x10b;" horiz-adv-x="942" 
d="M926 1249q0 -49 -40.5 -89t-90.5 -40q-42 0 -67.5 26t-25.5 62q0 49 41 89t91 40q43 0 67.5 -26.5t24.5 -61.5zM958 213q0 -10 -19 -36t-58 -60.5t-89 -65.5t-121 -52.5t-145 -21.5q-135 0 -218 93t-83 245q0 109 45.5 218t118 190t167 131.5t187.5 50.5q97 0 158.5 -50
t61.5 -126q0 -56 -31 -89.5t-74 -33.5q-33 0 -51.5 19.5t-18.5 46.5q0 4 0.5 10t6.5 21.5t15.5 28.5t30.5 25t50 15q-11 29 -31.5 48.5t-45.5 27t-40 10t-29 2.5q-70 0 -142 -53.5t-126 -151.5q-40 -73 -74 -206.5t-34 -215.5q0 -94 40.5 -152t120.5 -58q17 0 37.5 2
t63.5 13t83 30.5t91 60t94 94.5q18 23 27 23q11 0 21.5 -12t10.5 -21z" />
    <glyph glyph-name="Ccaron" unicode="&#x10c;" horiz-adv-x="1466" 
d="M1602 1866l-340 -295q-8 -6 -17.5 -6t-13.5 6l-193 295q-10 15 7.5 29.5t29.5 2.5l203 -202l301 202q19 12 29.5 -2.5t-6.5 -29.5zM1659 1395l-125 -498q-6 -25 -12.5 -31t-24.5 -6q-31 0 -31 21q0 1 3 21.5t5.5 50.5t2.5 53q0 71 -15.5 134.5t-48 118.5t-91 88
t-136.5 33q-124 0 -254.5 -73t-231.5 -209q-109 -150 -162 -348t-53 -326q0 -105 30.5 -185.5t82 -127.5t112.5 -70t128 -23q53 0 110.5 16t119.5 53t117.5 91t104 136t78.5 182q6 16 33 16q31 0 31 -20q0 -32 -25.5 -93.5t-79.5 -138t-125.5 -144.5t-175.5 -114.5
t-217 -46.5q-217 0 -359.5 150t-142.5 397q0 176 76 349.5t196.5 302.5t277.5 209.5t312 80.5q201 0 310 -174l129 151q8 10 16 16t12 7h4q9 0 14.5 -5t7.5 -11l1 -5q0 -12 -4 -28z" />
    <glyph glyph-name="ccaron" unicode="&#x10d;" horiz-adv-x="942" 
d="M1137 1366l-340 -295q-7 -6 -17 -6t-14 6l-193 295q-10 15 7.5 30t29.5 3l203 -203l301 203q19 12 29.5 -3t-6.5 -30zM958 213q0 -10 -19 -36t-58 -60.5t-89 -65.5t-121 -52.5t-145 -21.5q-135 0 -218 93t-83 245q0 109 45.5 218t118 190t167 131.5t187.5 50.5
q97 0 158.5 -50t61.5 -126q0 -56 -31 -89.5t-74 -33.5q-33 0 -51.5 19.5t-18.5 46.5q0 4 0.5 10t6.5 21.5t15.5 28.5t30.5 25t50 15q-11 29 -31.5 48.5t-45.5 27t-40 10t-29 2.5q-70 0 -142 -53.5t-126 -151.5q-40 -73 -74 -206.5t-34 -215.5q0 -94 40.5 -152t120.5 -58
q17 0 37.5 2t63.5 13t83 30.5t91 60t94 94.5q18 23 27 23q11 0 21.5 -12t10.5 -21z" />
    <glyph glyph-name="Dcaron" unicode="&#x10e;" horiz-adv-x="1546" 
d="M1499 1866l-340 -295q-7 -6 -17 -6t-14 6l-192 295q-10 15 7.5 29.5t29.5 2.5l203 -202l301 202q19 12 29 -2.5t-7 -29.5zM1587 897q0 -135 -43.5 -269.5t-119.5 -246t-173.5 -198t-212.5 -135t-229 -48.5h-629q-20 0 -28.5 1t-15.5 6.5t-7 17.5q0 18 8 27t17 10t30 1
q70 0 102.5 8t44.5 24t21 55l277 1112q8 29 8 38q0 23 -29 29t-90 6q-23 0 -32.5 1t-16 6.5t-6.5 17.5q0 19 8 27.5t17 10t30 1.5h639q196 0 313 -140t117 -362zM1417 975q0 78 -18 140t-49 102.5t-73.5 67.5t-88.5 38.5t-98 11.5h-199q-54 0 -70.5 -10.5t-29.5 -62.5
l-283 -1133q0 -1 -4 -19.5t-4 -25.5q0 -9 2.5 -12.5t16.5 -6t44 -2.5h211q118 0 224.5 55.5t185.5 147.5q61 72 109 178.5t73.5 209.5t38 186t12.5 135z" />
    <glyph glyph-name="dcaron" unicode="&#x10f;" 
d="M1339 815q0 6 5.5 13t10.5 11.5t15 12.5t12 10q80 70 137.5 165.5t77.5 197.5q-44 -35 -88 -35q-40 0 -65 23t-25 61q0 50 38 90.5t93 40.5q38 0 69.5 -29.5t31.5 -99.5q0 -78 -38 -168.5t-88.5 -157t-97.5 -111t-67 -44.5q-8 0 -14.5 6.5t-6.5 13.5zM1096 293
q-25 -123 -62 -201q-27 -54 -61.5 -84.5t-87.5 -30.5q-58 0 -106 36.5t-64 107.5q-59 -72 -123.5 -108t-122.5 -36q-112 0 -180 91.5t-68 226.5q0 146 69.5 288.5t179 232t220.5 89.5q113 0 172 -119l119 480q6 28 6 34q0 12 -4.5 18.5t-28 11.5t-69.5 5q-18 0 -26.5 1
t-15.5 6t-7 16q0 18 7.5 28t15.5 12t24 3l202 16q12 4 33 4q29 0 29 -24q-4 -21 -6 -27l-293 -1169q-12 -49 -12 -95q0 -16 1 -26t5.5 -25.5t16 -23.5t30.5 -8q25 0 46.5 20.5t38 59.5t28 75t24.5 88q9 34 14.5 40.5t24.5 6.5q31 0 31 -20zM727 250l98 393q6 18 6 27
q0 28 -12 66.5t-28 64.5q-38 59 -101 59q-61 0 -125.5 -65.5t-103.5 -161.5q-31 -71 -66 -213.5t-35 -214.5q0 -27 4.5 -54.5t15.5 -58.5t35 -50t58 -19q76 0 157.5 84t96.5 143z" />
    <glyph glyph-name="Dcroat" unicode="&#x110;" horiz-adv-x="1546" 
d="M1587 897q0 -135 -43.5 -269.5t-119.5 -246t-173.5 -198t-212.5 -135t-229 -48.5h-629q-20 0 -28.5 1t-15.5 6.5t-7 17.5q0 18 8 27t17 10t30 1q70 0 102.5 8t44.5 24t21 55l129 520h-192q-13 0 -20 8.5t-3 21.5q3 12 14 21.5t23 9.5h195l131 531q8 29 8 38q0 23 -29 29
t-90 6q-23 0 -32.5 1t-16 6.5t-6.5 17.5q0 19 8 27.5t17 10t30 1.5h639q196 0 313 -140t117 -362zM1417 975q0 78 -18 140t-49 102.5t-73.5 67.5t-88.5 38.5t-98 11.5h-199q-54 0 -70.5 -10.5t-29.5 -62.5l-134 -531h299q12 0 19 -9.5t4 -21.5q-3 -13 -14.5 -21.5
t-24.5 -8.5h-297l-135 -541q0 -1 -4 -19.5t-4 -25.5q0 -9 2.5 -12.5t16.5 -6t44 -2.5h211q118 0 224.5 55.5t185.5 147.5q61 72 109 178.5t73.5 209.5t38 186t12.5 135z" />
    <glyph glyph-name="dcroat" unicode="&#x111;" 
d="M1096 293q-25 -123 -62 -201q-27 -54 -61.5 -84.5t-87.5 -30.5q-58 0 -106 36.5t-64 107.5q-59 -72 -123.5 -108t-122.5 -36q-112 0 -180 91.5t-68 226.5q0 146 69.5 288.5t179 232t220.5 89.5q113 0 172 -119l76 306h-248q-12 0 -18.5 8.5t-3.5 21.5q3 12 15 21.5
t24 9.5h245l29 113q6 28 6 34q0 12 -4.5 18.5t-28 11.5t-69.5 5q-18 0 -26.5 1t-15.5 6t-7 16q0 18 7.5 28t15.5 12t24 3l202 16q12 4 33 4q29 0 29 -24q-4 -21 -6 -27l-56 -217h97q12 0 18.5 -9.5t3.5 -21.5q-3 -13 -14.5 -21.5t-24.5 -8.5h-94l-223 -891q-12 -49 -12 -95
q0 -16 1 -26t5.5 -25.5t16 -23.5t30.5 -8q25 0 46.5 20.5t38 59.5t28 75t24.5 88q9 34 14.5 40.5t24.5 6.5q31 0 31 -20zM727 250l98 393q6 18 6 27q0 28 -12 66.5t-28 64.5q-38 59 -101 59q-61 0 -125.5 -65.5t-103.5 -161.5q-31 -71 -66 -213.5t-35 -214.5
q0 -27 4.5 -54.5t15.5 -58.5t35 -50t58 -19q76 0 157.5 84t96.5 143z" />
    <glyph glyph-name="Emacron" unicode="&#x112;" horiz-adv-x="1388" 
d="M1511 1737q0 -19 -7.5 -27.5t-16.5 -10t-31 -1.5h-573q-22 0 -30 0.5t-15 6.5t-7 19q0 24 12.5 29.5t43.5 5.5h573q16 0 21.5 -0.5t14.5 -2t12 -6.5t3 -13zM1407 506q-6 -21 -8 -25l-182 -448q-11 -23 -19 -28t-39 -5h-981q-20 0 -28.5 1t-15.5 6.5t-7 17.5q0 18 8 27
t17 10t30 1q70 0 102.5 8t44.5 24t21 55l275 1097l8 47q0 12 -4 18t-31.5 11.5t-83.5 5.5q-34 0 -44.5 4t-10.5 23q0 18 7.5 26t16.5 9.5t31 1.5h956q35 0 44.5 -8.5t5.5 -45.5l-47 -362q-3 -29 -8.5 -37t-26.5 -8q-31 0 -31 24q0 15 4 35q10 82 10 131q0 114 -56 160.5
t-216 46.5h-256q-54 0 -70.5 -10t-27.5 -59l-125 -504h166q121 0 167 38.5t76 151.5q11 40 18 45q6 4 21 4q33 0 33 -24q-4 -21 -6 -27l-113 -450q-6 -27 -12.5 -34t-24.5 -7q-32 0 -32 24l4 23q18 66 18 104q0 31 -9 48t-43.5 28.5t-101.5 11.5h-178l-141 -563
q0 -1 -4 -19.5t-4 -25.5q0 -9 2.5 -12.5t16.5 -6t44 -2.5h250q61 0 110.5 5.5t91 20t73.5 31t61 46t50 56.5t45 73t41.5 84t43.5 100q13 35 19.5 42t23.5 7q31 0 31 -22z" />
    <glyph glyph-name="emacron" unicode="&#x113;" horiz-adv-x="942" 
d="M1169 1237q0 -19 -7.5 -27.5t-16.5 -10t-31 -1.5h-573q-31 0 -41.5 4t-10.5 23q0 24 12.5 29.5t43.5 5.5h573q19 0 27.5 -1t16 -6t7.5 -16zM958 213q0 -10 -19 -36t-58 -60.5t-89 -65.5t-121 -52.5t-145 -21.5q-93 0 -161.5 52t-100 132t-31.5 175q0 104 32 197.5t85 160
t119.5 115t136.5 72.5t135 24q95 0 151 -50.5t56 -123.5q0 -10 -1 -21.5t-9.5 -40t-24 -52.5t-48.5 -52t-79 -47q-113 -45 -297 -45h-79q-35 -138 -35 -225q0 -36 6 -70t21 -71.5t48 -60.5t80 -23q17 0 37.5 2t63.5 13t83 30.5t91 60t94 94.5q18 23 27 23q11 0 21.5 -12
t10.5 -21zM870 735q0 54 -34.5 89.5t-94.5 35.5q-9 0 -20 -1t-36.5 -8t-50 -19.5t-56 -38t-58.5 -60.5t-53.5 -90.5t-44.5 -124.5h43q25 0 44.5 0.5t64.5 4.5t79.5 11.5t77.5 24t71.5 38.5t48 57.5t19.5 80.5z" />
    <glyph glyph-name="Ebreve" unicode="&#x114;" horiz-adv-x="1388" 
d="M1507 1886q0 -19 -15 -56.5t-46.5 -84t-72.5 -88t-101 -70t-125 -28.5q-103 0 -161 70.5t-58 170.5q0 107 35 107q8 0 15 -5.5t7 -17.5q-10 -47 -10 -67q0 -77 47 -131t133 -54q52 0 108.5 24t112 82t82.5 140q5 16 10.5 22.5t16.5 6.5q9 0 15.5 -6t6.5 -15zM1407 506
q-6 -21 -8 -25l-182 -448q-11 -23 -19 -28t-39 -5h-981q-20 0 -28.5 1t-15.5 6.5t-7 17.5q0 18 8 27t17 10t30 1q70 0 102.5 8t44.5 24t21 55l275 1097l8 47q0 12 -4 18t-31.5 11.5t-83.5 5.5q-34 0 -44.5 4t-10.5 23q0 18 7.5 26t16.5 9.5t31 1.5h956q35 0 44.5 -8.5
t5.5 -45.5l-47 -362q-3 -29 -8.5 -37t-26.5 -8q-31 0 -31 24q0 15 4 35q10 82 10 131q0 114 -56 160.5t-216 46.5h-256q-54 0 -70.5 -10t-27.5 -59l-125 -504h166q121 0 167 38.5t76 151.5q11 40 18 45q6 4 21 4q33 0 33 -24q-4 -21 -6 -27l-113 -450q-6 -27 -12.5 -34
t-24.5 -7q-32 0 -32 24l4 23q18 66 18 104q0 31 -9 48t-43.5 28.5t-101.5 11.5h-178l-141 -563q0 -1 -4 -19.5t-4 -25.5q0 -9 2.5 -12.5t16.5 -6t44 -2.5h250q61 0 110.5 5.5t91 20t73.5 31t61 46t50 56.5t45 73t41.5 84t43.5 100q13 35 19.5 42t23.5 7q31 0 31 -22z" />
    <glyph glyph-name="ebreve" unicode="&#x115;" horiz-adv-x="942" 
d="M1165 1386q0 -19 -15 -56.5t-46.5 -84t-72.5 -88t-101 -70t-125 -28.5q-103 0 -161 70.5t-58 170.5q0 107 35 107q8 0 15 -5.5t7 -17.5q-10 -47 -10 -67q0 -77 47 -130.5t133 -53.5q38 0 80.5 14.5t85.5 42.5t80 77t57 111q5 16 10.5 22.5t16.5 6.5q9 0 15.5 -6t6.5 -15z
M958 213q0 -10 -19 -36t-58 -60.5t-89 -65.5t-121 -52.5t-145 -21.5q-93 0 -161.5 52t-100 132t-31.5 175q0 104 32 197.5t85 160t119.5 115t136.5 72.5t135 24q95 0 151 -50.5t56 -123.5q0 -10 -1 -21.5t-9.5 -40t-24 -52.5t-48.5 -52t-79 -47q-113 -45 -297 -45h-79
q-35 -138 -35 -225q0 -36 6 -70t21 -71.5t48 -60.5t80 -23q17 0 37.5 2t63.5 13t83 30.5t91 60t94 94.5q18 23 27 23q11 0 21.5 -12t10.5 -21zM870 735q0 54 -34.5 89.5t-94.5 35.5q-9 0 -20 -1t-36.5 -8t-50 -19.5t-56 -38t-58.5 -60.5t-53.5 -90.5t-44.5 -124.5h43
q25 0 44.5 0.5t64.5 4.5t79.5 11.5t77.5 24t71.5 38.5t48 57.5t19.5 80.5z" />
    <glyph glyph-name="Edotaccent" unicode="&#x116;" horiz-adv-x="1388" 
d="M1288 1749q0 -49 -40.5 -89t-90.5 -40q-42 0 -67 26t-25 62q0 49 40.5 89t90.5 40q43 0 67.5 -26.5t24.5 -61.5zM1407 506q-6 -21 -8 -25l-182 -448q-11 -23 -19 -28t-39 -5h-981q-20 0 -28.5 1t-15.5 6.5t-7 17.5q0 18 8 27t17 10t30 1q70 0 102.5 8t44.5 24t21 55
l275 1097l8 47q0 12 -4 18t-31.5 11.5t-83.5 5.5q-34 0 -44.5 4t-10.5 23q0 18 7.5 26t16.5 9.5t31 1.5h956q35 0 44.5 -8.5t5.5 -45.5l-47 -362q-3 -29 -8.5 -37t-26.5 -8q-31 0 -31 24q0 15 4 35q10 82 10 131q0 114 -56 160.5t-216 46.5h-256q-54 0 -70.5 -10t-27.5 -59
l-125 -504h166q121 0 167 38.5t76 151.5q11 40 18 45q6 4 21 4q33 0 33 -24q-4 -21 -6 -27l-113 -450q-6 -27 -12.5 -34t-24.5 -7q-32 0 -32 24l4 23q18 66 18 104q0 31 -9 48t-43.5 28.5t-101.5 11.5h-178l-141 -563q0 -1 -4 -19.5t-4 -25.5q0 -9 2.5 -12.5t16.5 -6
t44 -2.5h250q61 0 110.5 5.5t91 20t73.5 31t61 46t50 56.5t45 73t41.5 84t43.5 100q13 35 19.5 42t23.5 7q31 0 31 -22z" />
    <glyph glyph-name="edotaccent" unicode="&#x117;" horiz-adv-x="942" 
d="M946 1249q0 -49 -40.5 -89t-90.5 -40q-42 0 -67 26t-25 62q0 49 40.5 89t90.5 40q43 0 67.5 -26.5t24.5 -61.5zM958 213q0 -10 -19 -36t-58 -60.5t-89 -65.5t-121 -52.5t-145 -21.5q-93 0 -161.5 52t-100 132t-31.5 175q0 104 32 197.5t85 160t119.5 115t136.5 72.5
t135 24q95 0 151 -50.5t56 -123.5q0 -10 -1 -21.5t-9.5 -40t-24 -52.5t-48.5 -52t-79 -47q-113 -45 -297 -45h-79q-35 -138 -35 -225q0 -36 6 -70t21 -71.5t48 -60.5t80 -23q17 0 37.5 2t63.5 13t83 30.5t91 60t94 94.5q18 23 27 23q11 0 21.5 -12t10.5 -21zM870 735
q0 54 -34.5 89.5t-94.5 35.5q-9 0 -20 -1t-36.5 -8t-50 -19.5t-56 -38t-58.5 -60.5t-53.5 -90.5t-44.5 -124.5h43q25 0 44.5 0.5t64.5 4.5t79.5 11.5t77.5 24t71.5 38.5t48 57.5t19.5 80.5z" />
    <glyph glyph-name="Eogonek" unicode="&#x118;" horiz-adv-x="1388" 
d="M514 -250q0 43 26.5 80t71.5 65t89 49t94 42.5t73 36.5q32 20 43 20q19 0 19 -16q0 -14 -43.5 -51.5t-95 -76t-95 -78t-43.5 -57.5q0 -21 20 -34t48 -13q34 0 67 16.5t53 36t39 36t29 16.5q15 0 16.5 -14t-10.5 -31q-38 -49 -108 -95.5t-150 -46.5q-61 0 -102 31.5
t-41 83.5zM1407 506q-6 -21 -8 -25l-182 -448q-11 -23 -19 -28t-39 -5h-981q-20 0 -28.5 1t-15.5 6.5t-7 17.5q0 18 8 27t17 10t30 1q70 0 102.5 8t44.5 24t21 55l275 1097l8 47q0 12 -4 18t-31.5 11.5t-83.5 5.5q-34 0 -44.5 4t-10.5 23q0 18 7.5 26t16.5 9.5t31 1.5h956
q35 0 44.5 -8.5t5.5 -45.5l-47 -362q-3 -29 -8.5 -37t-26.5 -8q-31 0 -31 24q0 15 4 35q10 82 10 131q0 114 -56 160.5t-216 46.5h-256q-54 0 -70.5 -10t-27.5 -59l-125 -504h166q121 0 167 38.5t76 151.5q11 40 18 45q6 4 21 4q33 0 33 -24q-4 -21 -6 -27l-113 -450
q-6 -27 -12.5 -34t-24.5 -7q-32 0 -32 24l4 23q18 66 18 104q0 31 -9 48t-43.5 28.5t-101.5 11.5h-178l-141 -563q0 -1 -4 -19.5t-4 -25.5q0 -9 2.5 -12.5t16.5 -6t44 -2.5h250q61 0 110.5 5.5t91 20t73.5 31t61 46t50 56.5t45 73t41.5 84t43.5 100q13 35 19.5 42t23.5 7
q31 0 31 -22z" />
    <glyph glyph-name="eogonek" unicode="&#x119;" horiz-adv-x="942" 
d="M199 -266q0 53 43.5 98.5t95.5 71t121 56t94 46.5q34 21 43 21q18 0 18 -17q0 -14 -43 -51.5t-95 -75.5t-95 -77.5t-43 -57.5q0 -21 20 -34t48 -13q34 0 67 16.5t53 35.5t39 35.5t29 16.5q15 0 16.5 -14t-10.5 -31q-38 -49 -108 -95t-150 -46q-61 0 -102 31.5t-41 83.5z
M958 213q0 -10 -19 -36t-58 -60.5t-89 -65.5t-121 -52.5t-145 -21.5q-93 0 -161.5 52t-100 132t-31.5 175q0 104 32 197.5t85 160t119.5 115t136.5 72.5t135 24q95 0 151 -50.5t56 -123.5q0 -10 -1 -21.5t-9.5 -40t-24 -52.5t-48.5 -52t-79 -47q-113 -45 -297 -45h-79
q-35 -138 -35 -225q0 -36 6 -70t21 -71.5t48 -60.5t80 -23q17 0 37.5 2t63.5 13t83 30.5t91 60t94 94.5q18 23 27 23q11 0 21.5 -12t10.5 -21zM870 735q0 54 -34.5 89.5t-94.5 35.5q-9 0 -20 -1t-36.5 -8t-50 -19.5t-56 -38t-58.5 -60.5t-53.5 -90.5t-44.5 -124.5h43
q25 0 44.5 0.5t64.5 4.5t79.5 11.5t77.5 24t71.5 38.5t48 57.5t19.5 80.5z" />
    <glyph glyph-name="Ecaron" unicode="&#x11a;" horiz-adv-x="1388" 
d="M1499 1866l-340 -295q-7 -6 -17 -6t-14 6l-192 295q-10 15 7.5 29.5t29.5 2.5l203 -202l301 202q19 12 29 -2.5t-7 -29.5zM1407 506q-6 -21 -8 -25l-182 -448q-11 -23 -19 -28t-39 -5h-981q-20 0 -28.5 1t-15.5 6.5t-7 17.5q0 18 8 27t17 10t30 1q70 0 102.5 8t44.5 24
t21 55l275 1097l8 47q0 12 -4 18t-31.5 11.5t-83.5 5.5q-34 0 -44.5 4t-10.5 23q0 18 7.5 26t16.5 9.5t31 1.5h956q35 0 44.5 -8.5t5.5 -45.5l-47 -362q-3 -29 -8.5 -37t-26.5 -8q-31 0 -31 24q0 15 4 35q10 82 10 131q0 114 -56 160.5t-216 46.5h-256q-54 0 -70.5 -10
t-27.5 -59l-125 -504h166q121 0 167 38.5t76 151.5q11 40 18 45q6 4 21 4q33 0 33 -24q-4 -21 -6 -27l-113 -450q-6 -27 -12.5 -34t-24.5 -7q-32 0 -32 24l4 23q18 66 18 104q0 31 -9 48t-43.5 28.5t-101.5 11.5h-178l-141 -563q0 -1 -4 -19.5t-4 -25.5q0 -9 2.5 -12.5
t16.5 -6t44 -2.5h250q61 0 110.5 5.5t91 20t73.5 31t61 46t50 56.5t45 73t41.5 84t43.5 100q13 35 19.5 42t23.5 7q31 0 31 -22z" />
    <glyph glyph-name="ecaron" unicode="&#x11b;" horiz-adv-x="942" 
d="M1157 1366l-340 -295q-7 -6 -17 -6t-14 6l-192 295q-10 15 7.5 30t29.5 3l203 -203l301 203q19 12 29 -3t-7 -30zM958 213q0 -10 -19 -36t-58 -60.5t-89 -65.5t-121 -52.5t-145 -21.5q-93 0 -161.5 52t-100 132t-31.5 175q0 104 32 197.5t85 160t119.5 115t136.5 72.5
t135 24q95 0 151 -50.5t56 -123.5q0 -10 -1 -21.5t-9.5 -40t-24 -52.5t-48.5 -52t-79 -47q-113 -45 -297 -45h-79q-35 -138 -35 -225q0 -36 6 -70t21 -71.5t48 -60.5t80 -23q17 0 37.5 2t63.5 13t83 30.5t91 60t94 94.5q18 23 27 23q11 0 21.5 -12t10.5 -21zM870 735
q0 54 -34.5 89.5t-94.5 35.5q-9 0 -20 -1t-36.5 -8t-50 -19.5t-56 -38t-58.5 -60.5t-53.5 -90.5t-44.5 -124.5h43q25 0 44.5 0.5t64.5 4.5t79.5 11.5t77.5 24t71.5 38.5t48 57.5t19.5 80.5z" />
    <glyph glyph-name="Gcircumflex" unicode="&#x11c;" horiz-adv-x="1585" 
d="M1479 1583q10 -15 -7.5 -30t-29.5 -3l-201 203l-303 -203q-19 -12 -29.5 3t6.5 30l340 295q7 6 17 6t14 -6zM1573 532q0 -13 -3 -21t-12 -11t-14.5 -3.5t-19.5 -0.5q-62 0 -79.5 -13.5t-27.5 -54.5l-98 -391q-9 -35 -25 -35t-43.5 41.5t-42.5 81.5q-51 -66 -159 -118
t-238 -52q-221 0 -362.5 151t-141.5 396q0 176 76 349.5t196.5 302.5t277.5 209.5t312 80.5q201 0 310 -174l129 151q8 10 16 16t12 7h4q9 0 14.5 -5t7.5 -11l1 -5q0 -12 -4 -28l-125 -498q-6 -25 -12.5 -31t-24.5 -6q-31 0 -31 21q0 1 3 21.5t5.5 50.5t2.5 53
q0 71 -15.5 134.5t-48 118.5t-91 88t-136.5 33q-124 0 -254.5 -73t-231.5 -209q-76 -104 -128 -248t-69.5 -248t-17.5 -176q0 -195 104 -301.5t259 -106.5q68 0 142.5 25t135.5 80q44 41 60 80t51 182q16 57 16 70q0 20 -11.5 26t-47.5 11q-54 4 -88 4h-16q-17 0 -22.5 0.5
t-15 2t-13 6.5t-3.5 13q0 14 4 23.5t12 12.5t13 4t14 1q44 0 134.5 -3t134.5 -3q33 0 100 3t98 3q27 0 27 -27z" />
    <glyph glyph-name="gcircumflex" unicode="&#x11d;" horiz-adv-x="942" 
d="M1034 1083q10 -15 -7.5 -29.5t-29.5 -2.5l-200 202l-303 -202q-19 -12 -29.5 2.5t6.5 29.5l340 295q7 6 16.5 6t14.5 -6zM766 -129q-31 -122 -143 -206.5t-267 -84.5q-129 0 -188 28.5t-59 90.5q0 54 32.5 81t67.5 27q36 0 54 -20.5t18 -44.5q0 -28 -18 -55t-48 -39
q55 -23 145 -23q113 0 195 96q40 49 56.5 89.5t37.5 126.5l43 172q-109 -109 -217 -109q-113 0 -181.5 89.5t-68.5 223.5q0 141 68 279.5t176.5 225.5t220.5 87q114 0 172 -117q5 39 30 57.5t50 18.5q20 0 37.5 -12t17.5 -41q0 -12 -8 -43zM733 270l92 373l6 29
q0 12 -5.5 37t-18.5 62t-44 63t-73 26q-58 0 -119.5 -58.5t-101.5 -144.5q-33 -75 -68.5 -219t-35.5 -215q0 -13 1 -28t7.5 -44t17.5 -50.5t34 -38.5t54 -17q77 0 158 82.5t96 142.5z" />
    <glyph glyph-name="Gbreve" unicode="&#x11e;" horiz-adv-x="1585" 
d="M1589 1886q0 -19 -15 -56.5t-46.5 -84t-72.5 -88t-101 -70t-125 -28.5q-103 0 -161 70.5t-58 170.5q0 107 34 107q8 0 15.5 -5.5t7.5 -17.5q-10 -47 -10 -67q0 -77 47 -131t133 -54q52 0 108.5 24t112 82t82.5 140q5 16 10.5 22.5t16.5 6.5q9 0 15.5 -6t6.5 -15z
M1573 532q0 -13 -3 -21t-12 -11t-14.5 -3.5t-19.5 -0.5q-62 0 -79.5 -13.5t-27.5 -54.5l-98 -391q-9 -35 -25 -35t-43.5 41.5t-42.5 81.5q-51 -66 -159 -118t-238 -52q-221 0 -362.5 151t-141.5 396q0 176 76 349.5t196.5 302.5t277.5 209.5t312 80.5q201 0 310 -174
l129 151q8 10 16 16t12 7h4q9 0 14.5 -5t7.5 -11l1 -5q0 -12 -4 -28l-125 -498q-6 -25 -12.5 -31t-24.5 -6q-31 0 -31 21q0 1 3 21.5t5.5 50.5t2.5 53q0 71 -15.5 134.5t-48 118.5t-91 88t-136.5 33q-124 0 -254.5 -73t-231.5 -209q-76 -104 -128 -248t-69.5 -248
t-17.5 -176q0 -195 104 -301.5t259 -106.5q68 0 142.5 25t135.5 80q44 41 60 80t51 182q16 57 16 70q0 20 -11.5 26t-47.5 11q-54 4 -88 4h-16q-17 0 -22.5 0.5t-15 2t-13 6.5t-3.5 13q0 14 4 23.5t12 12.5t13 4t14 1q44 0 134.5 -3t134.5 -3q33 0 100 3t98 3q27 0 27 -27z
" />
    <glyph glyph-name="gbreve" unicode="&#x11f;" horiz-adv-x="942" 
d="M1145 1386q0 -19 -15 -56.5t-46.5 -84t-73 -88t-101.5 -70t-125 -28.5q-103 0 -161 70.5t-58 170.5q0 107 35 107q8 0 15.5 -5.5t7.5 -17.5q-11 -47 -11 -67q0 -77 47.5 -130.5t133.5 -53.5q38 0 80.5 14.5t85.5 42.5t80 77t57 111q5 16 10 22.5t16 6.5q9 0 16 -6t7 -15z
M766 -129q-31 -122 -143 -206.5t-267 -84.5q-129 0 -188 28.5t-59 90.5q0 54 32.5 81t67.5 27q36 0 54 -20.5t18 -44.5q0 -28 -18 -55t-48 -39q55 -23 145 -23q113 0 195 96q40 49 56.5 89.5t37.5 126.5l43 172q-109 -109 -217 -109q-113 0 -181.5 89.5t-68.5 223.5
q0 141 68 279.5t176.5 225.5t220.5 87q114 0 172 -117q5 39 30 57.5t50 18.5q20 0 37.5 -12t17.5 -41q0 -12 -8 -43zM733 270l92 373l6 29q0 12 -5.5 37t-18.5 62t-44 63t-73 26q-58 0 -119.5 -58.5t-101.5 -144.5q-33 -75 -68.5 -219t-35.5 -215q0 -13 1 -28t7.5 -44
t17.5 -50.5t34 -38.5t54 -17q77 0 158 82.5t96 142.5z" />
    <glyph glyph-name="Gdotaccent" unicode="&#x120;" horiz-adv-x="1585" 
d="M1370 1749q0 -49 -40.5 -89t-90.5 -40q-42 0 -67 26t-25 62q0 49 40.5 89t90.5 40q43 0 67.5 -26.5t24.5 -61.5zM1573 532q0 -13 -3 -21t-12 -11t-14.5 -3.5t-19.5 -0.5q-62 0 -79.5 -13.5t-27.5 -54.5l-98 -391q-9 -35 -25 -35t-43.5 41.5t-42.5 81.5q-51 -66 -159 -118
t-238 -52q-221 0 -362.5 151t-141.5 396q0 176 76 349.5t196.5 302.5t277.5 209.5t312 80.5q201 0 310 -174l129 151q8 10 16 16t12 7h4q9 0 14.5 -5t7.5 -11l1 -5q0 -12 -4 -28l-125 -498q-6 -25 -12.5 -31t-24.5 -6q-31 0 -31 21q0 1 3 21.5t5.5 50.5t2.5 53
q0 71 -15.5 134.5t-48 118.5t-91 88t-136.5 33q-124 0 -254.5 -73t-231.5 -209q-76 -104 -128 -248t-69.5 -248t-17.5 -176q0 -195 104 -301.5t259 -106.5q68 0 142.5 25t135.5 80q44 41 60 80t51 182q16 57 16 70q0 20 -11.5 26t-47.5 11q-54 4 -88 4h-16q-17 0 -22.5 0.5
t-15 2t-13 6.5t-3.5 13q0 14 4 23.5t12 12.5t13 4t14 1q44 0 134.5 -3t134.5 -3q33 0 100 3t98 3q27 0 27 -27z" />
    <glyph glyph-name="gdotaccent" unicode="&#x121;" horiz-adv-x="942" 
d="M926 1249q0 -49 -40.5 -89t-90.5 -40q-42 0 -67.5 26t-25.5 62q0 49 41 89t91 40q43 0 67.5 -26.5t24.5 -61.5zM766 -129q-31 -122 -143 -206.5t-267 -84.5q-129 0 -188 28.5t-59 90.5q0 54 32.5 81t67.5 27q36 0 54 -20.5t18 -44.5q0 -28 -18 -55t-48 -39
q55 -23 145 -23q113 0 195 96q40 49 56.5 89.5t37.5 126.5l43 172q-109 -109 -217 -109q-113 0 -181.5 89.5t-68.5 223.5q0 141 68 279.5t176.5 225.5t220.5 87q114 0 172 -117q5 39 30 57.5t50 18.5q20 0 37.5 -12t17.5 -41q0 -12 -8 -43zM733 270l92 373l6 29
q0 12 -5.5 37t-18.5 62t-44 63t-73 26q-58 0 -119.5 -58.5t-101.5 -144.5q-33 -75 -68.5 -219t-35.5 -215q0 -13 1 -28t7.5 -44t17.5 -50.5t34 -38.5t54 -17q77 0 158 82.5t96 142.5z" />
    <glyph glyph-name="Gcommaaccent" unicode="&#x122;" horiz-adv-x="1585" 
d="M866 -215q0 -63 -30 -133.5t-68.5 -120t-73 -82.5t-45.5 -33q-7 0 -11.5 5.5t-4.5 9.5q0 6 20 26q141 120 172 279q-31 -23 -63 -23q-28 0 -48 15t-20 49q0 36 29 67t72 31q35 0 53 -25t18 -65zM1573 532q0 -13 -3 -21t-12 -11t-14.5 -3.5t-19.5 -0.5q-62 0 -79.5 -13.5
t-27.5 -54.5l-98 -391q-9 -35 -25 -35t-43.5 41.5t-42.5 81.5q-51 -66 -159 -118t-238 -52q-221 0 -362.5 151t-141.5 396q0 176 76 349.5t196.5 302.5t277.5 209.5t312 80.5q201 0 310 -174l129 151q8 10 16 16t12 7h4q9 0 14.5 -5t7.5 -11l1 -5q0 -12 -4 -28l-125 -498
q-6 -25 -12.5 -31t-24.5 -6q-31 0 -31 21q0 1 3 21.5t5.5 50.5t2.5 53q0 71 -15.5 134.5t-48 118.5t-91 88t-136.5 33q-124 0 -254.5 -73t-231.5 -209q-76 -104 -128 -248t-69.5 -248t-17.5 -176q0 -195 104 -301.5t259 -106.5q68 0 142.5 25t135.5 80q44 41 60 80t51 182
q16 57 16 70q0 20 -11.5 26t-47.5 11q-54 4 -88 4h-16q-17 0 -22.5 0.5t-15 2t-13 6.5t-3.5 13q0 14 4 23.5t12 12.5t13 4t14 1q44 0 134.5 -3t134.5 -3q33 0 100 3t98 3q27 0 27 -27z" />
    <glyph glyph-name="gcommaaccent" unicode="&#x123;" horiz-adv-x="942" 
d="M874 1145q0 -36 -28.5 -67t-71.5 -31q-35 0 -53.5 25t-18.5 65q0 63 30 133.5t69 120t73.5 82t45.5 32.5q7 0 11.5 -5t4.5 -9q0 -6 -21 -27q-141 -120 -172 -278q29 22 64 22q28 0 47.5 -14.5t19.5 -48.5zM766 -129q-31 -122 -143 -206.5t-267 -84.5q-129 0 -188 28.5
t-59 90.5q0 54 32.5 81t67.5 27q36 0 54 -20.5t18 -44.5q0 -28 -18 -55t-48 -39q55 -23 145 -23q113 0 195 96q40 49 56.5 89.5t37.5 126.5l43 172q-109 -109 -217 -109q-113 0 -181.5 89.5t-68.5 223.5q0 141 68 279.5t176.5 225.5t220.5 87q114 0 172 -117q5 39 30 57.5
t50 18.5q20 0 37.5 -12t17.5 -41q0 -12 -8 -43zM733 270l92 373l6 29q0 12 -5.5 37t-18.5 62t-44 63t-73 26q-58 0 -119.5 -58.5t-101.5 -144.5q-33 -75 -68.5 -219t-35.5 -215q0 -13 1 -28t7.5 -44t17.5 -50.5t34 -38.5t54 -17q77 0 158 82.5t96 142.5z" />
    <glyph glyph-name="Hcircumflex" unicode="&#x124;" horiz-adv-x="1521" 
d="M1397 1583q10 -15 -7.5 -30t-29.5 -3l-201 203l-303 -203q-19 -12 -29 3t7 30l340 295q8 6 16.5 6t13.5 -6zM1411 37q0 -37 -39 -37q-40 0 -122.5 3t-123.5 3q-40 0 -121 -3t-120 -3q-29 0 -29 25q0 18 8 27t17 10t30 1q70 0 102.5 8t44.5 24t21 55l135 546h-561
l-137 -557q-8 -29 -8 -41t4 -18t31.5 -11.5t83.5 -5.5h4q23 0 31.5 -1t14 -6.5t5.5 -18.5q0 -37 -39 -37q-40 0 -122.5 3t-123.5 3q-40 0 -121 -3t-120 -3q-29 0 -29 25q0 18 8 27t17 10t30 1q70 0 102.5 8t44.5 24t21 55l277 1112q8 29 8 38q0 23 -29 29t-90 6
q-23 0 -32.5 1t-16 6.5t-6.5 17.5q0 18 8 27.5t14.5 10.5t16.5 1q40 0 122 -3t123 -3q40 0 121.5 3t120.5 3q29 0 29 -27q0 -26 -12.5 -31.5t-49.5 -5.5q-94 0 -121.5 -15t-39.5 -67l-123 -493h561l125 502q8 29 8 38q0 23 -29 29t-90 6q-23 0 -32.5 1t-16 6.5t-6.5 17.5
q0 18 8 27.5t14.5 10.5t16.5 1q40 0 122.5 -3t123.5 -3q40 0 121 3t120 3q29 0 29 -27q0 -26 -12.5 -31.5t-49.5 -5.5q-94 0 -121.5 -15t-39.5 -67l-277 -1108l-8 -47q0 -12 4 -18t31.5 -11.5t83.5 -5.5h4q23 0 31.5 -1t14 -6.5t5.5 -18.5z" />
    <glyph glyph-name="hcircumflex" unicode="&#x125;" 
d="M817 1575q10 -15 -7.5 -30t-29.5 -3l-200 203l-304 -203q-19 -12 -29 3t7 30l340 295q8 6 17 6t14 -6zM1096 293q0 -6 -8.5 -36.5t-29 -78.5t-48.5 -92.5t-74.5 -76.5t-99.5 -32q-71 0 -113.5 47t-42.5 117q0 31 6 53.5t27 77.5q118 334 118 453q0 135 -94 135
q-151 0 -272 -194q-28 -50 -36 -69.5t-21 -74.5q-5 -23 -16.5 -67t-16.5 -66l-88 -354q-5 -21 -26 -39.5t-50 -18.5q-27 0 -42 17t-15 37q2 22 4 26l303 1209q6 28 6 34q0 12 -4.5 18.5t-28 11.5t-69.5 5q-18 0 -26.5 1t-16 6t-7.5 16q0 18 7.5 28t15.5 12t24 3l203 16
q12 4 33 4q29 0 29 -24q-4 -21 -6 -27l-150 -598q33 32 51.5 48t54.5 40t76.5 34.5t89.5 10.5q41 0 76 -10t67.5 -33t51 -66.5t18.5 -103.5q0 -124 -125 -456q-36 -110 -36 -154q0 -18 2 -29t12.5 -20.5t30.5 -9.5q116 0 190 256q6 24 10.5 29t24.5 5q31 0 31 -20z" />
    <glyph glyph-name="Hbar" unicode="&#x126;" horiz-adv-x="1521" 
d="M1667 1051q-3 -13 -14 -22t-23 -9h-166l-219 -875l-8 -47q0 -12 4 -18t31.5 -11.5t83.5 -5.5h4q23 0 31.5 -1t14 -6.5t5.5 -18.5q0 -37 -39 -37q-40 0 -122.5 3t-123.5 3q-40 0 -121 -3t-120 -3q-29 0 -29 25q0 18 8 27t17 10t30 1q70 0 102.5 8t44.5 24t21 55l135 546
h-561l-137 -557q-8 -29 -8 -41t4 -18t31.5 -11.5t83.5 -5.5h4q23 0 31.5 -1t14 -6.5t5.5 -18.5q0 -37 -39 -37q-40 0 -122.5 3t-123.5 3q-40 0 -121 -3t-120 -3q-29 0 -29 25q0 18 8 27t17 10t30 1q70 0 102.5 8t44.5 24t21 55l217 870h-161q-12 0 -20 9t-5 22q3 12 15 21
t24 9h162l45 181q8 29 8 38q0 23 -29 29t-90 6q-23 0 -32.5 1t-16 6.5t-6.5 17.5q0 18 8 27.5t14.5 10.5t16.5 1q40 0 122 -3t123 -3q40 0 121.5 3t120.5 3q29 0 29 -27q0 -26 -12.5 -31.5t-49.5 -5.5q-94 0 -121.5 -15t-39.5 -67l-43 -172h561l45 181q8 29 8 38
q0 23 -29 29t-90 6q-23 0 -32.5 1t-16 6.5t-6.5 17.5q0 18 8 27.5t14.5 10.5t16.5 1q40 0 122.5 -3t123.5 -3q40 0 121 3t120 3q29 0 29 -27q0 -26 -12.5 -31.5t-49.5 -5.5q-94 0 -121.5 -15t-39.5 -67l-43 -172h166q12 0 18.5 -9t3.5 -21zM1296 1020h-561l-65 -260h561z
" />
    </font>
</defs>
</svg>
