<?xml version="1.0" standalone="no"?>
<!DOCTYPE svg PUBLIC "-//W3C//DTD SVG 1.1//EN" "http://www.w3.org/Graphics/SVG/1.1/DTD/svg11.dtd" >
<svg xmlns="http://www.w3.org/2000/svg" xmlns:xlink="http://www.w3.org/1999/xlink" version="1.1">
<metadata>
Created by FontForge 20201107 at Thu Jun 26 10:48:18 2025
 By 
(C) 2019-2020 Antonis Tsolomitis. This work is released under the GUST Font License --  see http://tug.org/fonts/licenses/GUST-FONT-LICENSE.txt for details.
</metadata>
<defs>
<font id="NewCM10-Bold" horiz-adv-x="1177" >
  <font-face 
    font-family="NewComputerModern10"
    font-weight="700"
    font-stretch="normal"
    units-per-em="2048"
    panose-1="0 0 8 0 0 0 0 0 0 0"
    ascent="1651"
    descent="-397"
    x-height="909"
    cap-height="1405"
    bbox="-2740 -821 3324 2320"
    underline-thickness="122"
    underline-position="-298"
    unicode-range="U+0020-1D703"
  />
<missing-glyph horiz-adv-x="573" 
 />
    <glyph glyph-name="exclamdown" unicode="&#x21;`" horiz-adv-x="716" 
d="M518 864q0 -66 -47 -112.5t-113 -46.5t-112.5 46.5t-46.5 112.5t46.5 113t112.5 47t113 -47t47 -113zM520 -274q0 -60 -48 -103t-114 -43t-113.5 43t-47.5 103l4 26l106 758q5 35 12.5 43t38.5 8q29 0 38.5 -8t13.5 -37l106 -754q4 -20 4 -36z" />
    <glyph glyph-name="questiondown" unicode="&#x3f;`" horiz-adv-x="1112" 
d="M682 864q0 -66 -47 -112.5t-113 -46.5t-113 46.5t-47 112.5t47 113t113 47t113 -47t47 -113zM979 -150q0 -119 -117.5 -189.5t-341.5 -70.5q-26 0 -46 0.5t-63.5 6t-76.5 14.5t-73 29t-66.5 47t-45 70.5t-18.5 97.5q0 44 12 80.5t33.5 61.5t35.5 37t34 25q47 33 84.5 70
t61 68.5t40.5 69t25 63t12.5 59.5t5 50t0.5 42v25q0 36 7 45.5t40 9.5q36 0 42.5 -11.5t6.5 -64.5q0 -127 -26.5 -239t-108.5 -234q-25 -37 -34 -68t-9 -106q0 -33 0.5 -48.5t3 -38.5t7.5 -33t15 -23t25 -18t36.5 -9t51.5 -4q27 0 60 2t104.5 18t116.5 46q-35 12 -62.5 42
t-27.5 81q0 60 38 94.5t91 34.5q47 0 87 -33t40 -99z" />
    <glyph glyph-name="I_J" unicode="IJ" horiz-adv-x="2021" 
d="M825 0q-84 6 -379 6q-294 0 -378 -6v96h233v1213h-233v96q84 -6 378 -6q295 0 379 6v-96h-233v-1213h233v-96zM1882 1309h-166v-1002q0 -156 -130 -243t-341 -87q-177 0 -286 69.5t-109 186.5q0 75 47.5 116.5t110.5 41.5q59 0 107 -40.5t48 -117.5q0 -31 -9.5 -57
t-23.5 -42t-28 -27.5t-24 -16.5l-9 -4q76 -35 166 -35q48 0 85 15.5t58 42.5t34.5 53.5t18.5 60.5t6 49t1 33v1004h-289v96q98 -6 407 -6q254 0 326 6v-96z" />
    <glyph glyph-name="i_j" unicode="ij" horiz-adv-x="1308" 
d="M479 1243q0 -66 -47 -113t-113 -47t-112.5 47t-46.5 113t46.5 113t112.5 47t113 -47t47 -113zM1135 -86q0 -78 -33 -141.5t-87 -102.5t-118.5 -59.5t-132.5 -20.5q-129 0 -210 50.5t-81 136.5q0 56 35.5 92.5t93.5 36.5q55 0 91 -36.5t36 -90.5q0 -67 -49 -103
q46 -12 80 -12q44 0 75.5 24t47.5 63.5t23 79.5t7 83v813q0 27 -1.5 39t-12 23.5t-31.5 15.5q-31 4 -110 4v96l377 17v-1008zM586 0l-240 6l-250 -6v96h142v633q0 58 -21 69t-115 11v96l357 17v-826h127v-96zM1135 1243q0 -66 -47 -113t-113 -47t-113 47t-47 113t47 113
t113 47t113 -47t47 -113z" />
    <glyph glyph-name="endash" unicode="&#x2d;&#x2d;" 
d="M1176 483h-1176v156h1176v-156z" />
    <glyph glyph-name="emdash" unicode="&#x2d;&#x2d;&#x2d;" horiz-adv-x="2355" 
d="M2353 483h-2353v156h2353v-156z" />
    <glyph glyph-name="quotedblleft" unicode="``" horiz-adv-x="1169" 
d="M485 864q0 -67 -44 -113t-113 -46q-87 0 -141 74t-54 182q0 81 23.5 157.5t57 129t70 93.5t64 60.5t37.5 19.5q13 0 26 -13.5t13 -27.5t-16 -26q-189 -147 -201 -377q50 47 119 47q74 0 116.5 -47t42.5 -113zM1001 864q0 -67 -44 -113t-113 -46q-87 0 -141 74t-54 182
q0 81 23.5 157.5t57 129t70 93.5t64 60.5t37.5 19.5q13 0 26 -13.5t13 -27.5t-16 -26q-189 -147 -201 -377q50 47 119 47q74 0 116.5 -47t42.5 -113z" />
    <glyph glyph-name="quotedblright" unicode="&#x27;&#x27;" horiz-adv-x="1169" 
d="M520 1165q0 -81 -23.5 -157.5t-57 -129t-70 -93.5t-64 -60.5t-37.5 -19.5q-13 0 -26 13t-13 27t17 27q188 146 200 377q-50 -47 -118 -47q-74 0 -117 47t-43 113q0 67 44.5 113t113.5 46q87 0 140.5 -73.5t53.5 -182.5zM1036 1165q0 -81 -23.5 -157.5t-57 -129t-70 -93.5
t-64 -60.5t-37.5 -19.5q-13 0 -26 13t-13 27t17 27q189 147 201 377q-50 -47 -119 -47q-74 0 -117 47t-43 113q0 67 44.5 113t113.5 46q87 0 140.5 -73.5t53.5 -182.5z" />
    <glyph glyph-name="quotedblbase" unicode="&#x2c;&#x2c;" horiz-adv-x="1169" 
d="M520 59q0 -81 -23.5 -157.5t-57 -129t-70 -93.5t-64 -60.5t-37.5 -19.5q-12 0 -25.5 13.5t-13.5 27.5q0 13 17 26q188 146 200 377q-50 -47 -118 -47q-74 0 -117 47t-43 113q0 67 44.5 113t113.5 46q87 0 140.5 -73.5t53.5 -182.5zM1036 59q0 -81 -23.5 -157.5t-57 -129
t-70 -93.5t-64 -60.5t-37.5 -19.5q-12 0 -25.5 13.5t-13.5 27.5q0 13 17 26q189 147 201 377q-50 -47 -119 -47q-74 0 -117 47t-43 113q0 67 44.5 113t113.5 46q87 0 140.5 -73.5t53.5 -182.5z" />
    <glyph glyph-name="f_b" unicode="fb" horiz-adv-x="1959" 
d="M868 0v813h-430v-717h142v-96l-252 6l-252 -6v96h141v717h-154v96h154v205q0 85 47 149t127.5 100t174 53.5t198.5 17.5q88 0 158 -19q12 -4 28 -4q50 0 140 10v-600q121 101 301 101q221 0 355 -129.5t134 -335.5q0 -212 -143 -340.5t-373 -128.5q-172 0 -299 127
q-16 -19 -50 -57.5t-50 -57.5h-97zM1618 457q0 43 -0.5 67.5t-5.5 71.5t-13.5 76t-27 66t-44.5 58.5t-66.5 36.5t-92.5 15q-81 0 -151.5 -37t-114.5 -94v-514q11 -18 27.5 -36.5t47 -45t75 -43.5t94.5 -17q59 0 119 25t100 82q25 37 37.5 92.5t14 93t1.5 103.5zM868 909v207
q0 26 -1.5 32.5t-8.5 12.5q-41 34 -41 94q0 45 33 86l4 9q-55 10 -100 10q-44 0 -84.5 -5.5t-86.5 -21.5t-79.5 -42.5t-55.5 -73t-22 -107.5v-201h442z" />
    <glyph glyph-name="f_f_b" unicode="ffb" horiz-adv-x="2613" 
d="M1522 0v813h-430v-717h141v-96l-252 6l-252 -6v96h141v717h-432v-717h142v-96l-252 6l-252 -6v96h141v717h-154v96h154v205q0 87 49.5 152t132 100t173.5 51.5t190 16.5q170 0 262 -82q149 82 393 82q88 0 158 -19q12 -4 29 -4q49 0 139 10v-600q121 101 301 101
q221 0 355 -129.5t134 -335.5q0 -212 -143 -340.5t-373 -128.5q-172 0 -299 127q-16 -20 -50 -58t-50 -57h-96zM2271 457q0 43 -0.5 67.5t-5.5 71.5t-13.5 76t-27 66t-44.5 58.5t-66.5 36.5t-92.5 15q-81 0 -151.5 -37t-114.5 -94v-514q11 -18 27.5 -36.5t47 -45t75 -43.5
t94.5 -17q59 0 119 25t100 82q25 37 37.5 92.5t14 93t1.5 103.5zM881 1339q-60 21 -131 21q-26 0 -51.5 -2.5t-66.5 -9.5t-74 -24.5t-64.5 -43.5t-49.5 -70t-18 -100v-201h444v217q-27 18 -39 47.5t-12 55.5q0 31 15 58t26 36.5t21 15.5zM1522 909v207q0 25 -1.5 32t-9.5 13
q-41 34 -41 94q0 45 33 86l4 9q-55 10 -100 10q-44 0 -84.5 -5.5t-86.5 -21.5t-79.5 -42.5t-55.5 -73t-22 -107.5v-201h443z" />
    <glyph glyph-name="f_f_h" unicode="ffh" horiz-adv-x="2596" 
d="M1380 0v96h142v717h-430v-717h141v-96l-252 6l-252 -6v96h141v717h-432v-717h142v-96l-252 6l-252 -6v96h141v717h-154v96h154v205q0 87 49.5 152t132 100t173.5 51.5t190 16.5q170 0 262 -82q149 82 393 82q88 0 158 -19q12 -4 29 -4q49 0 139 10v-696h2
q20 34 46.5 64.5t68 62.5t101.5 51t130 19q159 0 237 -69t78 -226v-531h142v-96l-258 6l-258 -6v96h141v553q0 111 -28.5 155t-84.5 44q-51 0 -102.5 -20t-98 -58t-75.5 -102t-29 -144v-428h141v-96l-258 6zM881 1339q-60 21 -131 21q-26 0 -51.5 -2.5t-66.5 -9.5t-74 -24.5
t-64.5 -43.5t-49.5 -70t-18 -100v-201h444v217q-27 18 -39 47.5t-12 55.5q0 31 15 58t26 36.5t21 15.5zM1522 909v207q0 25 -1.5 32t-9.5 13q-41 34 -41 94q0 45 33 86l4 9q-55 10 -100 10q-44 0 -84.5 -5.5t-86.5 -21.5t-79.5 -42.5t-55.5 -73t-22 -107.5v-201h443z" />
    <glyph glyph-name="f_f_j" unicode="ffj" horiz-adv-x="1912" 
d="M1081 909l283 -4l377 17v-1008q0 -78 -33 -141.5t-87 -102.5t-118.5 -59.5t-132.5 -20.5q-129 0 -210 50.5t-81 136.5q0 56 35.5 92.5t93.5 36.5q55 0 91 -36.5t36 -90.5q0 -67 -49 -103q46 -12 80 -12q44 0 75.5 24t48 63.5t23.5 79.5t7 83v813q0 27 -1.5 39t-12 23.5
t-31.5 15.5q-41 8 -381 8l-2 -717h141v-96l-252 6l-252 -6v96h141v717h-432v-717h142v-96l-252 6l-252 -6v96h141v717h-154v96h154v205q0 88 50.5 153.5t134 100t173 50.5t185.5 16q159 0 252 -91q157 91 407 91q81 0 144 -22t99 -57.5t54.5 -76t18.5 -82.5
q0 -62 -38.5 -98.5t-97.5 -36.5q-57 0 -95 37t-38 96q0 55 27.5 86t62.5 43q-64 37 -149 37q-149 0 -239 -63t-89 -187zM895 1323q-66 37 -147 37q-64 0 -120 -13.5t-102 -42t-73 -78.5t-27 -116v-201h444v168q-67 38 -67 117q0 38 20.5 74.5t71.5 54.5z" />
    <glyph glyph-name="f_f_k" unicode="ffk" horiz-adv-x="2547" 
d="M1380 0v96h142v717h-430v-717h141v-96l-252 6l-252 -6v96h141v717h-432v-717h142v-96l-252 6l-252 -6v96h141v717h-154v96h154v205q0 87 49.5 152t132 100t173.5 51.5t190 16.5q170 0 262 -82q149 82 393 82q88 0 158 -19q12 -4 29 -4q49 0 139 10v-936l387 306
q-13 13 -25 17.5t-45 4.5v96l236 -6q105 0 160 6v-96q-65 0 -103 -5t-51 -11.5t-31 -20.5l-266 -207l346 -432q22 -27 40.5 -34t80.5 -7h35v-96q-105 6 -213 6q-158 0 -250 -6v96q63 0 63 19q0 3 -8.5 14.5t-22.5 30t-20 26.5l-207 258q-49 -35 -116 -88v-260h141v-96
l-248 6zM881 1339q-60 21 -131 21q-26 0 -51.5 -2.5t-66.5 -9.5t-74 -24.5t-64.5 -43.5t-49.5 -70t-18 -100v-201h444v217q-27 18 -39 47.5t-12 55.5q0 31 15 58t26 36.5t21 15.5zM1522 909v207q0 25 -1.5 32t-9.5 13q-41 34 -41 94q0 45 33 86l4 9q-55 10 -100 10
q-44 0 -84.5 -5.5t-86.5 -21.5t-79.5 -42.5t-55.5 -73t-22 -107.5v-201h443z" />
    <glyph glyph-name="f_f_t" unicode="fft" horiz-adv-x="2267" 
d="M879 1339q-60 21 -131 21q-146 0 -234 -63t-88 -187v-201h442v217q-51 34 -51 103t62 110zM1274 0v96v-96zM1563 813h-473v-717h178v-96q-74 6 -283 6l-258 -6v96h141v717h-430v-717h142v-96l-252 6l-252 -6v96h141v717h-154v96h154v205q0 70 33 126t86 91.5t125 59
t146 33.5t153 10q160 0 246 -72q113 72 286 72q113 0 174.5 -53.5t61.5 -125.5q0 -59 -38.5 -93t-88.5 -34q-46 0 -85.5 33t-39.5 94q0 66 47 101q-24 4 -37 4q-18 0 -36.5 -2.5t-52 -16t-58 -37t-43.5 -72.5t-19 -116v-207h295q96 3 161.5 32t101 83.5t50 120t15.5 155.5
h96v-391h299v-96h-299v-565q0 -178 119 -178q49 0 86 46t37 142v104h96v-108q0 -116 -67 -191t-181 -75q-48 0 -90 6t-86 24t-75.5 46.5t-51.5 76.5t-20 111v561z" />
    <glyph glyph-name="f_h" unicode="fh" horiz-adv-x="1943" 
d="M1102 96h129v-96l-252 6l-252 -6v96h141v717h-430v-717h142v-96l-252 6l-252 -6v96h141v717h-154v96h154v205q0 85 47 149t127.5 100t174 53.5t198.5 17.5q88 0 158 -19q12 -4 28 -4q50 0 140 10v-696h2q20 34 46.5 64.5t68 62.5t101.5 51t130 19q159 0 237 -69t78 -226
v-531h141v-96l-258 6l-258 -6v96h142v553q0 111 -28.5 155t-84.5 44q-50 0 -102 -20t-98.5 -58.5t-75.5 -102.5t-29 -143v-428zM868 909v207q0 26 -1.5 32.5t-8.5 12.5q-41 34 -41 94q0 45 33 86l4 9q-55 10 -100 10q-44 0 -84.5 -5.5t-86.5 -21.5t-79.5 -42.5t-55.5 -73
t-22 -107.5v-201h442z" />
    <glyph glyph-name="f_j" unicode="fj" horiz-adv-x="1257" 
d="M438 813v-717h142v-96l-252 6l-252 -6v96h141v717h-154v96h154v205q0 86 49 150.5t131 100t175 52.5t194 17q80 0 143 -22t99.5 -57.5t54.5 -76t18 -82.5q0 -62 -38.5 -98.5t-96.5 -36.5q-57 0 -95 37t-38 96q0 55 27.5 86t62.5 43q-64 37 -149 37q-148 0 -238 -63.5
t-90 -186.5v-201l283 -4l376 17v-1008q0 -78 -33 -141.5t-86.5 -102.5t-118 -59.5t-132.5 -20.5q-129 0 -210 50.5t-81 136.5q0 56 35.5 92.5t93.5 36.5q55 0 91 -36.5t36 -90.5q0 -67 -49 -103q47 -12 80 -12q44 0 75.5 24t47.5 63.5t23 79.5t7 83v813q0 27 -1.5 39
t-12 23.5t-31.5 15.5q-41 8 -381 8z" />
    <glyph glyph-name="f_t" unicode="ft" horiz-adv-x="1632" 
d="M737 909q77 0 135 19.5t94 53t58.5 84.5t31 106.5t9.5 127.5h96v-391h299v-96h-299v-565q0 -178 119 -178q49 0 86 46t37 142v104h96v-108q0 -116 -67 -191t-181 -75q-48 0 -90 6t-86 24t-75.5 46.5t-51.5 76.5t-20 111v561h-467v-717h178v-96q-74 6 -283 6l-258 -6v96
h142v717h-154v96h154v207q0 83 37 146.5t99 99.5t134.5 54t151.5 18q112 0 172.5 -53.5t60.5 -125.5q0 -59 -38.5 -93t-88.5 -34q-46 0 -85.5 33t-39.5 94q0 66 47 101q-14 4 -35 4q-20 0 -41.5 -3.5t-52.5 -18t-54.5 -39t-40.5 -72t-17 -111.5v-207h288z" />
    <glyph glyph-name="longs_h" unicode="&#x17f;h" horiz-adv-x="1943" 
d="M438 1118v-1022h142v-96l-252 6l-252 -6v96h141v717h-154v96h154v205q0 85 47 149t127.5 100t174 53.5t198.5 17.5q88 0 158 -19q12 -4 28 -4q50 0 140 10v-696h2q20 34 46.5 64.5t68 62.5t101.5 51t130 19q159 0 237 -69t78 -226v-531h141v-96l-258 6l-258 -6v96h142
v553q0 111 -28.5 155t-84.5 44q-50 0 -102 -20t-98.5 -58.5t-75.5 -102.5t-29 -143v-428h129v-96l-252 6l-252 -6v96h141v1020q0 26 -1.5 32.5t-8.5 12.5q-41 34 -41 94q0 45 33 86l4 9q-55 10 -100 10q-316 0 -316 -242zM985 6z" />
    <glyph glyph-name="longs_i" unicode="&#x17f;i" horiz-adv-x="1308" 
d="M1217 0l-240 6l-250 -6v96h141v633q0 58 -20.5 69t-114.5 11v96l357 17v-826h127v-96zM438 813l-2 297q-1 124 85 187t233 63q85 0 149 -37q-35 -12 -62.5 -43t-27.5 -86q0 -59 38 -96t95 -37q58 0 96.5 36.5t38.5 98.5q0 42 -18 82.5t-54.5 76t-99.5 57.5t-143 22
q-101 0 -194 -17t-175 -52.5t-131 -100t-49 -150.5v-205h-154v-96h154v-717h-141v-96l252 6l252 -6v96h-142v717z" />
    <glyph glyph-name="longs_k" unicode="&#x17f;k" horiz-adv-x="1935" 
d="M868 1116v-1020h-141v-96l252 6l252 -6v96h-141v266q24 19 110 82l207 -258q6 -8 20 -26.5t22.5 -30t8.5 -14.5q0 -19 -63 -19v-96q91 6 250 6q108 0 213 -6v96h-35q-62 0 -80.5 7t-40.5 34l-346 432l266 207q18 14 31 20.5t50.5 11.5t102.5 5v96q-55 -6 -159 -6l-236 6
v-96q33 0 45 -4.5t25 -17.5l-391 -310v940q-90 -10 -140 -10q-16 0 -28 4q-70 19 -158 19q-105 0 -198.5 -17.5t-174 -53.5t-127.5 -100t-47 -149v-205h-154v-96h154v-717h-141v-96l252 6l252 -6v96h-142l-2 1014q0 61 21 107.5t53 73t76.5 42.5t84 21.5t83.5 5.5
q20 0 45 -2.5t40 -5.5l15 -2q0 -5 -4 -9q-33 -41 -33 -86q0 -60 41 -94q7 -6 8.5 -12.5t1.5 -32.5z" />
    <glyph glyph-name="longs_l" unicode="&#x17f;l" horiz-adv-x="1308" 
d="M436 1110l2 -1014h142v-96l-252 6l-252 -6v96h141v717h-154v96h154v205q0 85 47 149t127.5 100t174 53.5t198.5 17.5q88 0 158 -19q12 -4 28 -4q50 0 140 10v-1325h141v-96l-252 6l-252 -6v96h141v1020q0 26 -1.5 32.5t-8.5 12.5q-41 34 -41 94q0 45 33 86l4 9
q-55 10 -100 10q-44 0 -83.5 -5.5t-84 -21.5t-76.5 -42.5t-53 -73t-21 -107.5z" />
    <glyph glyph-name="longs_longs" unicode="&#x17f;&#x17f;" horiz-adv-x="1374" 
d="M436 1110l2 -1014h142v-96l-252 6l-252 -6v96h141v717h-154v96h154v205q0 70 33 126t86 91.5t125 59t146 33.5t153 10q160 0 246 -72q113 72 286 72q113 0 174.5 -53.5t61.5 -125.5q0 -59 -38.5 -93t-88.5 -34q-46 0 -85.5 33t-39.5 94q0 66 47 101q-24 4 -37 4
q-14 0 -28.5 -2t-40.5 -8.5t-47 -23t-41.5 -42t-30.5 -69t-8 -99.5v-303v-717h178v-96q-74 6 -283 6l-258 -6v96h141v717h-153v96h153v217q-51 34 -51 103t62 110q-60 21 -131 21q-145 0 -228.5 -62.5t-83.5 -187.5z" />
    <glyph glyph-name="longs_longs_i" unicode="&#x17f;&#x17f;i" horiz-adv-x="1943" 
d="M1876 0l-240 6l-250 -6v96h142v633q0 58 -20.5 69t-114.5 11v96l356 17v-826h127v-96zM1092 1110v-1014h141v-96l-252 6l-252 -6v96h141v717h-153v96h153v168q-67 38 -67 117q0 38 20.5 74.5t71.5 54.5q-66 37 -147 37q-87 0 -154 -23t-111.5 -81t-44.5 -146v-1014h142
v-96l-252 6l-252 -6v96h141v717h-154v96h154v205q0 88 50.5 153.5t134 100t173 50.5t185.5 16q159 0 252 -91q157 91 407 91q81 0 144 -22t99 -57.5t54.5 -76t18.5 -82.5q0 -62 -38.5 -98.5t-97.5 -36.5q-57 0 -95 37t-38 96q0 55 27.5 86t62.5 43q-64 37 -149 37
q-146 0 -230.5 -62.5t-84.5 -187.5z" />
    <glyph glyph-name="longs_longs_l" unicode="&#x17f;&#x17f;l" horiz-adv-x="1961" 
d="M1522 1116v-1020h-142v-96l252 6l252 -6v96h-141v1325q-90 -10 -139 -10q-17 0 -29 4q-70 19 -158 19q-244 0 -393 -82q-92 82 -262 82q-99 0 -190 -16.5t-173.5 -51.5t-132 -100t-49.5 -152v-205h-154v-96h154v-717h-141v-96l252 6l252 -6v96h-142v1014q0 56 17 100
t47 70t62 43.5t71 24.5t64 9.5t51 2.5q71 0 131 -21q-10 -6 -21 -15.5t-26 -36.5t-15 -58q0 -26 12 -55.5t39 -47.5v-217h-153v-96h153v-717h-141v-96l252 6l252 -6v96h-141v1014q0 61 21 107.5t52.5 73t75.5 42.5t83 21.5t83 5.5q20 0 45 -2.5t40 -5.5l15 -2q0 -5 -4 -9
q-33 -41 -33 -86q0 -60 41 -94q8 -6 9.5 -13t1.5 -32z" />
    <glyph glyph-name="f_k" unicode="fk" horiz-adv-x="1935" 
d="M1858 0q-105 6 -213 6q-159 0 -250 -6v96q63 0 63 19q0 3 -8.5 14.5t-22.5 30t-20 26.5l-207 258q-86 -63 -110 -82v-266h141v-96l-252 6l-252 -6v96h141v717h-430v-717h142v-96l-252 6l-252 -6v96h141v717h-154v96h154v205q0 85 47 149t127.5 100t174 53.5t198.5 17.5
q88 0 158 -19q12 -4 28 -4q50 0 140 10v-940l391 310q-13 13 -25 17.5t-45 4.5v96l236 -6q104 0 159 6v-96q-65 0 -102.5 -5t-50.5 -11.5t-31 -20.5l-266 -207l346 -432q22 -27 40.5 -34t80.5 -7h35v-96zM868 909v207q0 26 -1.5 32.5t-8.5 12.5q-41 34 -41 94q0 45 33 86
l4 9q-55 10 -100 10q-44 0 -84.5 -5.5t-86.5 -21.5t-79.5 -42.5t-55.5 -73t-22 -107.5v-201h442z" />
    <glyph glyph-name="uni0410_acutecomb" unicode="&#x410;&#x301;" horiz-adv-x="1779" 
d="M676 1593q47 30 120 77q142 92 170.5 107t57.5 15q50 0 82.5 -40.5t32.5 -88.5q0 -17 -3.5 -31.5t-11.5 -25.5t-14.5 -19.5t-21 -14.5t-22.5 -10t-25.5 -7.5t-24.5 -5t-26 -4t-23 -3.5q-215 -35 -258 -41zM84 0v96h43q75 0 112 6t46 14t16 27l508 1233q12 31 26 42.5
t54 11.5q22 0 33 -2t24.5 -14.5t24.5 -37.5l524 -1280h199v-96q-72 6 -334 6q-283 0 -361 -6v96h195l-123 299h-549l-102 -248q-1 -1 -4.5 -11.5t-3.5 -12.5q0 -27 182 -27v-96q-76 6 -270 6q-6 0 -240 -6zM563 492h467l-233 569z" />
    <glyph glyph-name="ff" unicode="ff" horiz-adv-x="1374" 
d="M1528 1255q0 -59 -38.5 -93t-88.5 -34q-46 0 -85.5 33t-39.5 94q0 66 47 101q-24 4 -37 4q-18 0 -36.5 -2.5t-52 -16t-58 -37t-43.5 -72.5t-19 -116v-207h252v-96h-239v-717h178v-96q-74 6 -283 6l-258 -6v96h141v717h-430v-717h142v-96l-252 6l-252 -6v96h141v717h-154
v96h154v205q0 70 33 126t86 91.5t125 59t146 33.5t153 10q160 0 246 -72q113 72 286 72q113 0 174.5 -53.5t61.5 -125.5zM879 1339q-60 21 -131 21q-146 0 -234 -63t-88 -187v-201h442v217q-51 34 -51 103t62 110z" />
    <glyph glyph-name="fi" unicode="fi" horiz-adv-x="1308" 
d="M1231 0l-252 6l-252 -6v96h141v645q0 51 -10.5 61.5t-50.5 10.5h-369v-717h142v-96l-252 6l-252 -6v96h141v717h-154v96h154v205q0 86 49 150.5t131 100t175 52.5t194 17q80 0 143 -22t99.5 -57.5t54.5 -76t18 -82.5q0 -62 -38.5 -98.5t-96.5 -36.5q-57 0 -95 37t-38 96
q0 55 27.5 86t62.5 43q-64 37 -149 37q-148 0 -238 -63t-90 -187v-201h301l2 9l361 12v-834h141v-96z" />
    <glyph glyph-name="fl" unicode="fl" horiz-adv-x="1308" 
d="M1231 0l-252 6l-252 -6v96h141v717h-430v-717h142v-96l-252 6l-252 -6v96h141v717h-154v96h154v205q0 85 47 149t127.5 100t174 53.5t198.5 17.5q88 0 158 -19q12 -4 28 -4q50 0 140 10v-1325h141v-96zM868 909v207q0 26 -1.5 32.5t-8.5 12.5q-41 34 -41 94q0 45 33 86
l4 9q-55 10 -100 10q-44 0 -84.5 -5.5t-86.5 -21.5t-79.5 -42.5t-55.5 -73t-22 -107.5v-201h442z" />
    <glyph glyph-name="ffi" unicode="ffi" horiz-adv-x="1961" 
d="M1884 0l-252 6l-252 -6v96h142v645q0 51 -11 61.5t-51 10.5h-368v-717h141v-96l-252 6l-252 -6v96h141v717h-432v-717h142v-96l-252 6l-252 -6v96h141v717h-154v96h154v205q0 88 50.5 153.5t134 100t173 50.5t185.5 16q159 0 252 -91q157 91 407 91q81 0 144 -22
t99 -57.5t54.5 -76t18.5 -82.5q0 -62 -38.5 -98.5t-97.5 -36.5q-57 0 -95 37t-38 96q0 55 27.5 86t62.5 43q-64 37 -149 37q-148 0 -238 -63t-90 -187v-201h301l2 9l361 12v-834h141v-96zM895 1323q-66 37 -147 37q-64 0 -120 -13.5t-102 -42t-73 -78.5t-27 -116v-201h444
v168q-67 38 -67 117q0 38 20.5 74.5t71.5 54.5z" />
    <glyph glyph-name="ffl" unicode="ffl" horiz-adv-x="1961" 
d="M1884 0l-252 6l-252 -6v96h142v717h-430v-717h141v-96l-252 6l-252 -6v96h141v717h-432v-717h142v-96l-252 6l-252 -6v96h141v717h-154v96h154v205q0 87 49.5 152t132 100t173.5 51.5t190 16.5q170 0 262 -82q149 82 393 82q88 0 158 -19q12 -4 29 -4q49 0 139 10v-1325
h141v-96zM881 1339q-60 21 -131 21q-26 0 -51.5 -2.5t-66.5 -9.5t-74 -24.5t-64.5 -43.5t-49.5 -70t-18 -100v-201h444v217q-27 18 -39 47.5t-12 55.5q0 31 15 58t26 36.5t21 15.5zM1522 909v207q0 25 -1.5 32t-9.5 13q-41 34 -41 94q0 45 33 86l4 9q-55 10 -100 10
q-44 0 -84.5 -5.5t-86.5 -21.5t-79.5 -42.5t-55.5 -73t-22 -107.5v-201h443z" />
    <glyph glyph-name="longs_t" unicode="&#x17f;t" horiz-adv-x="1632" 
d="M1499 254q0 -116 -67 -191t-181 -75q-48 0 -90 6t-86 24t-75.5 46.5t-51.5 76.5t-20 111v561h-168v74q73 2 132.5 38t96 94.5t56 130t20.5 150.5h96v-391h299v-96h-299v-565q0 -178 119 -178q49 0 86 46t37 142v104h96v-108zM461 813l-12 303q-2 64 14 111.5t39.5 72
t56 39t54 18t42.5 3.5t35 -4q-47 -35 -47 -101q0 -61 39.5 -94t85.5 -33q50 0 88.5 34t38.5 93q0 72 -60.5 125.5t-172.5 53.5q-79 0 -151.5 -18t-134.5 -54t-99 -99.5t-37 -146.5v-207h-154v-96h154v-717h-142v-96l258 6q209 0 283 -6v96h-178v717z" />
    <glyph glyph-name=".notdef" horiz-adv-x="573" 
 />
    <glyph glyph-name=".null" horiz-adv-x="0" 
 />
    <glyph glyph-name="nonmarkingreturn" horiz-adv-x="682" 
 />
    <glyph glyph-name="space" unicode=" " horiz-adv-x="784" 
 />
    <glyph glyph-name="exclam" unicode="!" horiz-adv-x="716" 
d="M520 1298l-4 -26l-106 -764q-4 -30 -13 -37.5t-39 -7.5q-32 0 -39 8t-12 45l-106 746q-4 20 -4 36q0 60 47.5 103t113.5 43t114 -43t48 -103zM518 160q0 -66 -47 -113t-113 -47t-112.5 47t-46.5 113t46.5 112.5t112.5 46.5t113 -46.5t47 -112.5z" />
    <glyph glyph-name="quotedbl" unicode="&#x22;" horiz-adv-x="985" 
d="M444 1311l-67 -455h-98l-68 455q-7 47 28.5 81.5t88.5 34.5q52 0 87 -34.5t29 -81.5zM776 1311l-67 -455h-99l-67 455q-7 47 28 81.5t88 34.5q52 0 87.5 -34.5t29.5 -81.5z" />
    <glyph glyph-name="numbersign" unicode="#" horiz-adv-x="1961" 
d="M1829 285q0 -64 -94 -64h-518l-175 -561q-6 -18 -10 -27t-17.5 -19.5t-33.5 -10.5q-28 0 -45.5 18.5t-17.5 42.5q0 17 8 41l159 516h-393l-174 -561q-6 -18 -10 -27t-17.5 -19.5t-33.5 -10.5q-28 0 -46 18.5t-18 42.5q0 17 8 41l160 516h-336q-94 0 -94 64q0 61 84 61
h387l100 334h-487q-84 0 -84 61q0 64 94 64h518l172 555q5 18 10 28.5t19 21.5t35 11q28 0 45.5 -18.5t17.5 -42.5q0 -16 -8 -41l-160 -514h394l172 555q6 19 10 29t18 21t35 11q28 0 46 -18.5t18 -42.5q0 -16 -8 -41l-160 -514h336q94 0 94 -64q0 -61 -84 -61h-387
l-101 -334h488q84 0 84 -61zM1227 680h-393l-101 -334h393z" />
    <glyph glyph-name="dollar" unicode="$" 
d="M1044 430q0 -75 -22 -145.5t-67.5 -134t-127 -107t-190.5 -53.5v-105h-96v105q-91 7 -163.5 34.5t-117.5 66t-75 89t-42 99.5t-12 100q0 37 12.5 64.5t28 40.5t36.5 21t32 9.5t20 1.5q27 0 54 -11.5t50 -42t23 -75.5q0 -48 -31 -87.5t-104 -39.5q64 -154 289 -174v514
q-46 10 -69.5 16t-67 21.5t-80.5 39.5t-72 58q-121 121 -121 285q0 56 13 109.5t44 106t77 93t117 68.5t159 35v104h96v-104q108 -6 189.5 -40t127.5 -86.5t68 -111.5t22 -125q0 -40 -14.5 -69t-37 -42t-41.5 -18.5t-36 -5.5q-47 0 -87 33t-40 96q0 46 31 85t99 42
q-66 127 -281 145v-458q35 -7 58 -12.5t63.5 -19.5t78.5 -38t72 -57q135 -135 135 -320zM541 899v436q-117 -9 -181.5 -70t-64.5 -147q0 -71 59.5 -134.5t186.5 -84.5zM881 332q0 90 -67.5 159.5t-176.5 88.5v-494q116 12 180 80t64 166z" />
    <glyph glyph-name="percent" unicode="%" horiz-adv-x="1961" 
d="M1632 1473q0 -22 -22 -50l-1166 -1505q-9 -12 -14 -18t-15 -10.5t-24 -4.5q-26 0 -44.5 19t-18.5 45q0 10 5.5 23t10.5 20l6 8l998 1290q-112 -45 -240 -45q-168 0 -354 84q30 -93 30 -207q0 -105 -25.5 -186.5t-68.5 -129t-95.5 -71.5t-111.5 -24q-65 0 -125.5 23.5
t-112.5 71t-83 129.5t-31 189q0 103 30.5 184.5t81.5 130t112 73t128 24.5q86 0 160 -53q222 -164 463 -164q252 0 403 178q11 13 17 19.5t18.5 13t26.5 6.5q24 0 42.5 -17t18.5 -46zM1829 297q0 -105 -25.5 -186.5t-68.5 -129.5t-95.5 -72t-111.5 -24q-51 0 -100 14
t-95.5 46.5t-80.5 79.5t-55 117.5t-21 156.5q0 103 30.5 184.5t81.5 130t112 73t128 24.5q56 0 107.5 -23t96 -70t71 -130t26.5 -191zM688 1124q0 73 -12.5 132t-32.5 97t-47 63t-54 35.5t-55 10.5q-30 0 -53.5 -13t-38.5 -31t-26 -50t-16 -57t-7.5 -66t-3 -62.5t-0.5 -60.5
q0 -38 0.5 -59.5t3 -62t7.5 -65.5t16 -57t26 -50t38.5 -31t53.5 -13q25 0 51 9t53.5 33.5t48.5 61.5t34.5 98t13.5 138zM1733 299q0 73 -12.5 132t-32.5 97t-47 63t-54 35.5t-55 10.5q-30 0 -53.5 -13t-39 -31t-26 -50t-16 -57.5t-8 -65.5t-3 -62.5t-0.5 -60.5
q0 -37 0.5 -59.5t3 -62.5t8 -65.5t16 -57t26 -49.5t39 -31t53.5 -13q25 0 51 9t53.5 33.5t48.5 61.5t34.5 98t13.5 138z" />
    <glyph glyph-name="ampersand" unicode="&#x26;" horiz-adv-x="1830" 
d="M1712 813q-68 0 -98.5 -1.5t-61.5 -10.5t-45 -29l-168 -244q-45 -65 -90 -120.5t-76 -89t-90 -93.5q158 -151 291 -151q17 0 38.5 2.5t56 12.5t61.5 27t48.5 50t23.5 76h96q-3 -83 -52 -144.5t-122.5 -91t-159.5 -29.5q-209 0 -432 129q-197 -129 -408 -129
q-114 0 -210 36t-156 107t-60 163q0 87 64 163q13 15 127 113l151 129q-88 203 -88 393q0 85 33.5 155.5t87.5 115t118.5 68.5t129.5 24q57 0 102 -26t71 -67.5t39 -86.5t13 -88q0 -97 -112 -226q-81 -89 -179 -174q97 -209 363 -487q105 101 197 222.5t194 281.5
q-49 20 -149 20v96q82 -6 249 -6q104 0 203 6v-96zM850 1176q0 26 -6 56.5t-19.5 63t-40 53.5t-61.5 21q-22 0 -46.5 -10t-51 -32t-43.5 -66.5t-17 -104.5q0 -165 60 -307q225 202 225 326zM850 164q-226 171 -377 454q-59 -41 -86 -111.5t-27 -150.5q0 -24 3 -52.5
t15 -71.5t31 -76.5t55.5 -57.5t84.5 -24q24 0 55 2.5t107.5 25t138.5 62.5z" />
    <glyph glyph-name="quotesingle" unicode="'" horiz-adv-x="653" 
d="M444 1311l-67 -455h-98l-68 455q-7 47 28.5 81.5t88.5 34.5q52 0 87 -34.5t29 -81.5z" />
    <glyph glyph-name="parenleft" unicode="(" horiz-adv-x="915" 
d="M782 -481q0 -29 -37 -29q-16 0 -54.5 26t-88.5 71t-110 119t-107 157q-164 290 -164 651q0 75 7 148.5t30.5 174t62 193.5t107.5 198.5t160 196.5q117 111 157 111q37 0 37 -29q0 -8 -4.5 -14t-27.5 -29q-330 -333 -330 -952q0 -292 78 -530q24 -74 57 -141.5t60.5 -111
t63 -86.5t53.5 -61.5t44 -42.5q6 -10 6 -20z" />
    <glyph glyph-name="parenright" unicode=")" horiz-adv-x="915" 
d="M692 512q0 -75 -7 -148.5t-30.5 -174t-61.5 -193.5t-107 -198.5t-160 -196.5q-117 -111 -158 -111q-37 0 -37 29q0 7 4.5 13t28.5 30q330 333 330 952q0 613 -328 946q-24 23 -29.5 31t-5.5 16q0 29 37 29q16 0 54.5 -26t88.5 -71t110 -119t107 -157q164 -290 164 -651z
" />
    <glyph glyph-name="asterisk" unicode="*" 
d="M1024 901q0 -42 -28.5 -70t-61.5 -28q-25 0 -55 22l-250 189l26 -158q23 -147 23 -149q0 -39 -29 -59.5t-61 -20.5t-61 20t-29 60q0 14 6 47l45 262l-252 -191q-31 -22 -55 -22q-33 0 -61.5 28t-28.5 70q0 60 61 80l289 100l-289 101q-61 20 -61 80q0 42 28.5 70t61.5 28
q23 0 55 -23l252 -190l-45 262q-6 33 -6 47q0 39 29 59.5t61 20.5t61 -20t29 -60q0 -14 -6 -47l-45 -262l252 190q32 23 55 23q33 0 61.5 -28t28.5 -70q0 -60 -61 -80l-289 -101l289 -100q61 -20 61 -80z" />
    <glyph glyph-name="plus" unicode="+" horiz-adv-x="1830" 
d="M1698 512q0 -61 -88 -61h-633v-635q0 -86 -64 -86q-61 0 -61 86v635h-633q-88 0 -88 61q0 22 9 36t25.5 19.5t27 6.5t26.5 1h633v635q0 86 63 86q62 0 62 -86v-635h633q16 0 26.5 -1t27 -6.5t25.5 -19.5t9 -36z" />
    <glyph glyph-name="comma" unicode="," horiz-adv-x="653" 
d="M512 63q0 -80 -22.5 -156.5t-55 -129.5t-68.5 -93.5t-62.5 -60.5t-37.5 -20q-12 0 -25.5 13.5t-13.5 27.5q0 12 19 28q23 20 36 32t44.5 49t50.5 73t37.5 94t23.5 121q-6 -6 -17 -13.5t-38 -17.5t-57 -10q-74 0 -117 47t-43 113q0 67 44.5 113t113.5 46q86 0 137 -74
t51 -182z" />
    <glyph glyph-name="hyphen" unicode="-" horiz-adv-x="784" 
d="M651 356h-624v199h624v-199z" />
    <glyph glyph-name="period" unicode="." horiz-adv-x="653" 
d="M485 160q0 -66 -46.5 -113t-112.5 -47t-113 47t-47 113t47 112.5t113 46.5t112.5 -46.5t46.5 -112.5z" />
    <glyph glyph-name="slash" unicode="/" 
d="M1044 1473q0 -14 -10 -39l-776 -1889q-6 -15 -9.5 -22.5t-11 -17t-18.5 -13.5t-26 -4q-24 0 -43 17t-19 46q0 14 10 39l777 1889q6 16 9.5 22t11 16.5t18.5 14.5t26 4q24 0 42.5 -17t18.5 -46z" />
    <glyph glyph-name="zero" unicode="0" 
d="M1083 653q0 -62 -1.5 -103t-11 -119t-27 -131.5t-54.5 -119.5t-87.5 -106.5t-131.5 -68.5t-182 -28q-102 0 -183 28.5t-132 68.5t-87.5 106.5t-54 120t-27 131.5t-11 118.5t-1.5 102.5t1.5 103t11 120t27 133.5t54 122.5t87.5 109.5t132 70.5t183 29t183 -29t131.5 -71
t87.5 -110t54 -122.5t27 -134t11 -119.5t1 -102zM821 678q0 117 -1 184t-9.5 154.5t-24.5 122.5q-28 64 -82.5 96.5t-115.5 32.5q-19 0 -39.5 -3.5t-50.5 -16t-54 -33t-45 -59.5t-28 -91q-17 -113 -17 -387q0 -320 19 -432q10 -53 34.5 -93t56 -61t63 -31t61.5 -10
q28 0 57 8t63.5 29.5t61.5 68t37 113.5q14 106 14 408z" />
    <glyph glyph-name="one" unicode="1" 
d="M1012 0q-90 6 -408 6q-317 0 -407 -6v96h284v1059q-127 -41 -266 -41h-41v96h41q254 0 412 117q13 10 20 12t25 2q37 0 45 -13t8 -52v-1180h287v-96z" />
    <glyph glyph-name="two" unicode="2" 
d="M1059 455l-64 -455h-878v37q0 32 3.5 41.5t22.5 27.5l412 420q221 224 221 426q0 122 -72 207.5t-198 85.5t-211 -71q16 -4 32 -12t37 -24.5t34.5 -45.5t13.5 -66q0 -71 -45.5 -109t-102.5 -38q-21 0 -44 7t-47.5 22.5t-40 47t-15.5 74.5q0 136 126 223.5t314 87.5
q220 0 361 -106t141 -281q0 -57 -15.5 -105.5t-44 -89.5t-73.5 -83.5t-98.5 -84t-124.5 -93.5l-9 -6q-104 -77 -295 -236h301q186 0 209 12q29 14 54 187h96z" />
    <glyph glyph-name="three" unicode="3" 
d="M1077 369q0 -73 -30 -140.5t-89.5 -125t-162 -92t-234.5 -34.5q-200 0 -331.5 85.5t-131.5 222.5q0 75 45 117t113 42t112 -43t44 -112q0 -61 -32.5 -100.5t-86.5 -53.5q111 -69 258 -69q44 0 79 12.5t56.5 30.5t37.5 47.5t23.5 53.5t11.5 59.5t4.5 53.5t0.5 48
q0 32 -0.5 50.5t-5 54.5t-12 59.5t-24 52.5t-39.5 46.5t-59.5 29.5t-82.5 12h-90q-23 0 -32.5 1.5t-17.5 9.5t-8 26q0 33 25 35q22 4 98 8q50 3 89.5 24.5t61.5 55.5t36.5 67t19.5 72t6.5 56t1.5 32q0 27 -1.5 47.5t-11.5 51.5t-27.5 50.5t-52.5 34.5t-83 15
q-132 0 -225 -74q10 -2 16.5 -4t28 -13t35.5 -25t26.5 -41.5t12.5 -60.5q0 -60 -38.5 -100.5t-105.5 -40.5q-60 0 -100.5 39.5t-40.5 104.5q0 126 111.5 210t291.5 84q210 0 327.5 -80.5t117.5 -203.5q0 -83 -44.5 -154.5t-108 -115t-138.5 -66.5q85 -18 150.5 -50
t103.5 -68t62 -79.5t32 -80t8 -74.5z" />
    <glyph glyph-name="four" unicode="4" 
d="M1110 0q-72 6 -332 6q-274 0 -352 -6v96h229v223h-589v97l714 895q19 23 28.5 27.5t41.5 4.5q42 0 51.5 -11t9.5 -54v-862h199v-97h-199v-223h199v-96zM678 416v635l-506 -635h506z" />
    <glyph glyph-name="five" unicode="5" 
d="M1059 412q0 -191 -143.5 -313t-385.5 -122q-182 0 -297.5 105.5t-115.5 243.5q0 44 16.5 74.5t41 44t44 19t35.5 5.5q21 0 42.5 -7t44 -21.5t36.5 -43.5t14 -67q0 -61 -37.5 -97.5t-95.5 -39.5q30 -41 69 -68.5t78 -39t65.5 -15.5t51.5 -4q40 0 73 8t57 19t43 32t31 39
t20.5 47.5t12.5 49.5t6 54.5t2.5 52.5t0.5 52v55.5t-2 53t-5 54t-9 48t-15 44.5t-23 35.5t-31.5 29.5t-42 17t-54.5 7q-177 0 -275 -115q-1 -1 -4 -4.5t-4 -5t-3.5 -4t-4 -3t-4 -2.5t-5 -2.5t-5.5 -1.5t-7 -1h-8q-16 0 -26 4t-13.5 14.5t-4.5 18.5t-1 26v598q0 21 1 30
t7.5 17t20.5 8q2 0 26 -8q168 -57 318 -57q165 0 313 57q23 8 31 8q29 0 29 -36q0 -16 -21.5 -48.5t-65 -73t-100 -76.5t-136.5 -60.5t-165 -24.5q-69 0 -149 14v-270q105 72 264 72q219 0 342 -120.5t123 -305.5z" />
    <glyph glyph-name="six" unicode="6" 
d="M1077 420q0 -203 -132.5 -323t-348.5 -120q-120 0 -224 48t-171 157q-103 173 -103 467q0 149 37.5 269.5t99 197.5t143.5 129t165.5 74t171.5 22q78 0 138.5 -22t95 -59t52 -81t17.5 -94q0 -59 -35 -95t-94 -36q-58 0 -92.5 36.5t-34.5 90.5q0 48 28.5 84t81.5 43
q-54 54 -153 54q-91 0 -169 -48t-116 -122q-57 -126 -57 -353v-39q24 44 55 76t55.5 47t55 23t45 9t35.5 1q127 0 228 -48t163.5 -148.5t62.5 -239.5zM799 424q0 67 -1 99.5t-6 83t-17.5 75t-33.5 52t-55 38t-82 10.5q-94 0 -158.5 -86.5t-64.5 -265.5q0 -186 33 -252
q19 -39 64 -75.5t114 -36.5q60 0 100.5 19.5t61.5 44.5t31.5 81t12 94t1.5 119z" />
    <glyph glyph-name="seven" unicode="7" 
d="M1143 1319q0 -54 -3 -67.5t-18 -30.5l-317 -369q-104 -121 -133 -342q-21 -144 -21 -293v-94q0 -47 -14.5 -79t-38.5 -45t-41.5 -17.5t-34.5 -4.5q-9 0 -18.5 1t-31 9t-37 21.5t-28 43t-12.5 69.5q0 409 344 809q18 23 56.5 66.5t56.5 66.5h-346q-200 0 -223 -12
q-34 -17 -56 -187h-96l72 520h96q2 -11 3.5 -15t6 -12t14.5 -12.5t25 -7.5q19 -5 173 -11.5t204 -6.5h418z" />
    <glyph glyph-name="eight" unicode="8" 
d="M1077 383q0 -85 -31.5 -158.5t-91.5 -129t-155 -87t-215 -31.5q-102 0 -188 21t-153.5 62.5t-106 110.5t-38.5 159q0 228 262 344q-57 32 -97.5 72.5t-61 82.5t-29 79.5t-8.5 74.5q0 156 111.5 257t316.5 101q186 0 303 -76t117 -225q0 -90 -50 -158.5t-157 -123.5
q31 -17 47.5 -27t49.5 -33t53 -42t46 -50t40.5 -62t25 -73t10.5 -88zM858 1038q0 105 -72.5 164.5t-201.5 59.5q-31 0 -60 -2.5t-68.5 -12t-68.5 -25.5t-49.5 -46.5t-20.5 -71.5q0 -73 91 -123l307 -172q143 94 143 229zM901 270q0 35 -11.5 63t-39 52t-50 38.5t-65.5 39.5
l-280 155q-181 -103 -181 -288q0 -121 84.5 -192.5t233.5 -71.5q40 0 77.5 4.5t81 18t75.5 35t53.5 59.5t21.5 87z" />
    <glyph glyph-name="nine" unicode="9" 
d="M1077 674q0 -151 -36 -273t-94 -199.5t-136.5 -129.5t-158 -73.5t-163.5 -21.5q-162 0 -246.5 72.5t-84.5 183.5q0 59 35 95.5t94 36.5q58 0 92.5 -36.5t34.5 -90.5q0 -32 -11.5 -57t-30 -39t-32.5 -21t-27 -10q67 -45 172 -45q97 0 166 51t99 121q49 111 49 340v45
q-28 -51 -60 -84.5t-66 -48.5t-61 -20t-59 -5q-128 0 -230 49t-163.5 149.5t-61.5 237.5q0 203 136.5 321.5t357.5 118.5q78 0 144 -19t113 -48.5t84.5 -75.5t60.5 -89t40 -101t25 -99.5t12.5 -96t5 -79t0.5 -59.5zM797 877q0 188 -25 256q-4 10 -9.5 21.5t-21 32.5
t-33.5 36t-48 27t-64 12q-64 0 -107 -21t-65 -47.5t-33 -83.5t-12.5 -95.5t-1.5 -117.5v-67t2 -60t5 -57.5t9.5 -48.5t16 -44t24.5 -33t34 -27t45 -14.5t58 -6.5q49 0 89 23t65 58.5t42 82t23.5 90t6.5 84.5z" />
    <glyph glyph-name="colon" unicode=":" horiz-adv-x="653" 
d="M485 750q0 -66 -46.5 -113t-112.5 -47t-113 47t-47 113t47 112.5t113 46.5t112.5 -46.5t46.5 -112.5zM485 160q0 -66 -46.5 -113t-112.5 -47t-113 47t-47 113t47 112.5t113 46.5t112.5 -46.5t46.5 -112.5z" />
    <glyph glyph-name="semicolon" unicode=";" horiz-adv-x="653" 
d="M485 750q0 -66 -46.5 -113t-112.5 -47t-113 47t-47 113t47 112.5t113 46.5t112.5 -46.5t46.5 -112.5zM492 66q0 -79 -20.5 -155t-50.5 -129.5t-63 -95.5t-57.5 -62.5t-34.5 -20.5q-12 0 -25.5 13.5t-13.5 27.5q0 12 21 30q149 145 168 351q-42 -25 -90 -25q-74 0 -117 47
t-43 113q0 67 44.5 113t113.5 46q83 0 125.5 -72.5t42.5 -180.5z" />
    <glyph glyph-name="less" unicode="&#x3c;" horiz-adv-x="1830" 
d="M1632 -115q0 -23 -17.5 -42t-45.5 -19q-16 0 -45 14l-1276 611q-51 23 -51 65t51 64l1282 612q21 12 39 12q28 0 45.5 -19t17.5 -42q0 -41 -51 -66l-1178 -563l1178 -561q51 -25 51 -66z" />
    <glyph glyph-name="equal" unicode="=" horiz-adv-x="1830" 
d="M1698 741q0 -61 -84 -61h-1399q-84 0 -84 61q0 64 94 64h1379q94 0 94 -64zM1698 285q0 -64 -94 -64h-1379q-94 0 -94 64q0 61 84 61h1399q84 0 84 -61z" />
    <glyph glyph-name="greater" unicode="&#x3e;" horiz-adv-x="1830" 
d="M1632 514q0 -44 -51 -65l-1282 -613q-21 -12 -39 -12q-28 0 -45.5 19t-17.5 42q0 43 51 66l1177 563l-1177 561q-26 13 -38.5 27.5t-12.5 38.5q0 25 18 43t43 18q18 0 47 -14l1276 -610q51 -22 51 -64z" />
    <glyph glyph-name="question" unicode="?" horiz-adv-x="1112" 
d="M979 1169q0 -37 -11.5 -69.5t-24 -51.5t-38 -40.5t-34 -27t-31.5 -19.5q-31 -18 -59 -37t-69 -56t-69.5 -76t-50 -95.5t-21.5 -116.5v-56q0 -40 -7 -50.5t-42 -10.5q-33 0 -40 9.5t-7 45.5v78q0 105 46 216.5t138 207.5q33 33 45.5 66t12.5 98q0 37 -1.5 56.5t-11.5 46
t-29.5 40t-56.5 23.5t-92 10q-144 0 -231 -64l3 -2q4 -1 8 -2.5t10.5 -5t12.5 -7.5t13.5 -10t13.5 -13t12 -16t10 -19t6.5 -23t2.5 -27q0 -60 -38 -94.5t-91 -34.5q-47 0 -87 33t-40 99q0 108 104 184t304 76q27 0 49 -0.5t70.5 -6t86.5 -14.5t84 -29t77 -47t52 -70.5
t21 -97.5zM682 160q0 -66 -47 -113t-113 -47t-113 47t-47 113t47 112.5t113 46.5t113 -46.5t47 -112.5z" />
    <glyph glyph-name="at" unicode="@" horiz-adv-x="1830" 
d="M1698 162l-6 -21q-27 -14 -87.5 -35.5t-161 -50t-240.5 -48t-279 -19.5q-160 0 -292 39t-224 106.5t-155 160t-92.5 197.5t-29.5 220q0 154 52.5 285.5t150 229t247 153t334.5 55.5q177 0 324 -52.5t247.5 -147.5t156 -230t55.5 -297q0 -33 -1.5 -64t-8 -77.5t-17 -85.5
t-31 -81t-47.5 -71t-68.5 -47.5t-92.5 -18.5q-27 0 -55 3t-68 11t-75.5 28.5t-57.5 49.5q-109 -92 -265 -92q-210 0 -338.5 124t-128.5 325q0 202 128.5 325t338.5 123q113 0 199 -47.5t133 -124.5h80q44 0 52.5 -8.5t8.5 -50.5v-471q0 -121 68 -121q150 0 150 360
q0 165 -54.5 294t-150 208.5t-218.5 120.5t-266 41q-159 0 -288.5 -48t-216.5 -133.5t-134 -205.5t-47 -262q0 -106 26.5 -201.5t82.5 -177.5t136.5 -142.5t196 -94.5t253.5 -34q300 0 600 115q24 10 34 12t35 2h49q21 0 30 -0.5t18.5 -7t9.5 -20.5zM1151 455v512
q-44 61 -107.5 89.5t-125.5 28.5q-101 0 -170.5 -94t-69.5 -280q0 -185 69.5 -280t170.5 -95q61 0 125.5 28.5t107.5 90.5z" />
    <glyph glyph-name="A" unicode="A" horiz-adv-x="1779" 
d="M1694 0q-72 6 -334 6q-283 0 -361 -6v96h195l-123 299h-549l-102 -248l-8 -24q0 -12 45.5 -18.5t90.5 -7.5l46 -1v-96q-76 6 -270 6l-240 -6v96h43q75 0 112 6t46 14t16 27l508 1233q12 31 26 42.5t54 11.5q22 0 33 -2t24.5 -14.5t24.5 -37.5l524 -1280h199v-96z
M1030 492l-233 569l-234 -569h467z" />
    <glyph glyph-name="B" unicode="B" horiz-adv-x="1675" 
d="M1542 381q0 -160 -134.5 -270.5t-377.5 -110.5h-950v96h221v1213h-221v96h889q237 0 372.5 -101.5t135.5 -250.5q0 -119 -95 -205t-260 -115q185 -14 302.5 -110t117.5 -242zM1186 1053q0 32 -5 63t-21.5 67.5t-42 63t-71 44.5t-104.5 18h-373v-541h320q143 0 220 80
t77 205zM1241 383q0 138 -67 223q-70 88 -207 88h-398v-598h377q60 0 109 15t79 37t52 53.5t32 57.5t16 56.5t6.5 43t0.5 24.5z" />
    <glyph glyph-name="C" unicode="C" horiz-adv-x="1701" 
d="M1569 465q0 -89 -43 -176t-120 -156.5t-195.5 -112.5t-256.5 -43q-188 0 -343 54.5t-260 150.5t-162.5 229.5t-57.5 290.5t57.5 290.5t162.5 229.5t260 150.5t343 54.5q231 0 404 -139l135 121q21 18 39 18q26 0 31.5 -11.5t5.5 -45.5v-440q0 -40 -8.5 -49t-47.5 -9
q-35 0 -42.5 6.5t-12.5 36.5q-33 191 -162 303.5t-299 112.5q-262 0 -417 -157q-136 -142 -136 -472q0 -150 26.5 -260.5t94.5 -193.5q75 -89 192 -131.5t247 -42.5q64 0 127 15t123.5 47t107 78t77 113t34.5 146q1 24 11.5 29.5t35.5 5.5q29 0 39 -7t10 -36z" />
    <glyph glyph-name="D" unicode="D" horiz-adv-x="1806" 
d="M1673 690q0 -214 -94 -372t-253.5 -238t-362.5 -80h-883v96h221v1213h-221v96h881q152 0 282.5 -49t226 -139t149.5 -225.5t54 -301.5zM1372 692q0 155 -18.5 258t-69.5 176q-69 98 -178 140.5t-227 42.5h-299v-1213h299q72 0 139.5 13t142.5 53.5t121 105.5
q50 69 70 163.5t20 260.5z" />
    <glyph glyph-name="E" unicode="E" horiz-adv-x="1548" 
d="M1481 561l-95 -561h-1306v96h221v1200h-221v97h1272l63 -494h-96q-8 59 -16 100.5t-23 86t-35 74.5t-50.5 57.5t-70.5 43.5t-95.5 25.5t-125.5 9.5h-311v-526h113q73 0 117.5 15t66 49.5t27.5 72.5t6 103h96v-576h-96q0 65 -6.5 103t-28 72.5t-66 49.5t-116.5 15h-113
v-578h311q80 0 143.5 11.5t109.5 30.5t81.5 52.5t58 68t40 87.5t27.5 99.5t21 115.5h97z" />
    <glyph glyph-name="F" unicode="F" horiz-adv-x="1482" 
d="M1382 899h-96q-9 68 -18.5 113.5t-27.5 95.5t-45.5 80.5t-69.5 57t-103.5 38.5t-142.5 12h-287v-551h102q49 0 85 6.5t59.5 22t37.5 33.5t21.5 48.5t9.5 58.5t2 71h97v-575h-97q0 52 -3.5 84t-15.5 65t-35 50.5t-63 28.5t-98 11h-102v-553h276v-96q-90 6 -413 6
q-297 0 -375 -6v96h221v1200h-221v97h1239z" />
    <glyph glyph-name="G" unicode="G" horiz-adv-x="1851" 
d="M1731 469h-164v-412q0 -20 -1 -29.5t-7.5 -18.5t-20.5 -9q-15 0 -87 36.5t-114 72.5q-106 -132 -381 -132q-194 0 -351 56t-260 154t-158.5 229.5t-55.5 285.5q0 158 58 292t163 229.5t259.5 149.5t340.5 54q229 0 404 -139l135 121q21 18 39 18q26 0 31.5 -11.5
t5.5 -45.5v-440q0 -40 -8.5 -49t-47.5 -9q-35 0 -42.5 6.5t-12.5 36.5q-33 191 -162 303.5t-297 112.5q-143 0 -257.5 -49t-178.5 -129q-60 -79 -88.5 -181t-28.5 -267q0 -148 26 -256t89 -189q72 -92 193.5 -139t259.5 -47q110 0 184 43q28 17 46 36t24.5 40.5t8 34.5
t1.5 34v207h-295v96q111 -6 420 -6q258 0 330 6v-96z" />
    <glyph glyph-name="H" unicode="H" horiz-adv-x="1843" 
d="M1761 0q-78 6 -366 6q-289 0 -367 -6v96h221v586h-657v-586h221v-96q-78 6 -367 6q-288 0 -366 -6v96h221v1213h-221v96q78 -6 366 -6q289 0 367 6v-96h-221v-531h657v531h-221v96q78 -6 367 -6q288 0 366 6v-96h-221v-1213h221v-96z" />
    <glyph glyph-name="I" unicode="I" horiz-adv-x="892" 
d="M825 0q-84 6 -379 6q-294 0 -378 -6v96h233v1213h-233v96q84 -6 378 -6q295 0 379 6v-96h-233v-1213h233v-96z" />
    <glyph glyph-name="J" unicode="J" horiz-adv-x="1216" 
d="M1079 1309h-166v-1002q0 -156 -130 -243t-341 -87q-177 0 -286 69.5t-109 186.5q0 75 47.5 116.5t110.5 41.5q59 0 107 -40.5t48 -117.5q0 -31 -9.5 -57t-23.5 -42t-28 -27.5t-23 -16.5l-10 -4q76 -35 166 -35q48 0 85 15.5t58 42.5t34.5 53.5t18.5 60.5t6 49t1 33v1004
h-289v96q98 -6 408 -6q253 0 325 6v-96z" />
    <glyph glyph-name="K" unicode="K" horiz-adv-x="1845" 
d="M1745 0q-76 6 -299 6q-277 0 -361 -6v96q111 0 150 17q-11 22 -16 28l-422 555l-205 -170v-430h221v-96q-78 6 -367 6q-288 0 -366 -6v96h221v1213h-221v96q78 -6 366 -6q289 0 367 6v-96h-221v-656l758 633q-8 3 -8 5t-19 7q-56 11 -119 11v96q74 -6 299 -6q127 0 209 6
v-96h-35q-147 0 -192 -37l-492 -410l553 -725q20 -27 41.5 -34t98.5 -7h59v-96z" />
    <glyph glyph-name="L" unicode="L" horiz-adv-x="1417" 
d="M1317 561l-64 -561h-1173v96h221v1213h-221v96q78 -6 375 -6q323 0 413 6v-96h-276v-1213h211q76 0 138 19.5t102.5 47t73 73.5t49 81.5t29.5 90.5t17 81.5t9 71.5h96z" />
    <glyph glyph-name="M" unicode="M" horiz-adv-x="2236" 
d="M2152 0q-74 6 -350 6q-274 0 -348 -6v96h221v1213h-2l-571 -1260q-22 -49 -66 -49q-43 0 -65 51l-557 1231h-2v-1126q0 -34 8.5 -42t52.5 -12q55 -6 109 -6h51v-96q-84 6 -277 6q-196 0 -274 -6v96h51q62 0 111 6q42 4 50.5 12t8.5 42v1153h-221v96h455q27 0 39 -2
t26 -13t25 -36l491 -1084l492 1084q11 25 25 36t26 13t39 2h452v-96h-221v-1213h221v-96z" />
    <glyph glyph-name="N" unicode="N" horiz-adv-x="1843" 
d="M1761 1309h-51q-62 0 -111 -6q-42 -4 -50.5 -12t-8.5 -42v-1183q0 -22 -1 -31t-6 -19t-16.5 -13t-31.5 -3q-24 0 -32 4t-23 23l-1020 1200v-1071q0 -34 8.5 -42t52.5 -12q55 -6 109 -6h51v-96q-84 6 -277 6q-196 0 -274 -6v96h51q62 0 111 6q42 4 50.5 12t8.5 42v1153
h-221v96h469q31 0 40 -4t27 -23l816 -958v829q0 34 -9 42t-53 12q-56 6 -108 6h-52v96q84 -6 277 -6q196 0 274 6v-96z" />
    <glyph glyph-name="O" unicode="O" horiz-adv-x="1769" 
d="M1323 725q0 131 -16.5 235.5t-69.5 192.5q-59 96 -154 144.5t-200 48.5q-98 0 -190 -44t-152 -133q-60 -93 -78.5 -203t-18.5 -241q0 -145 18 -252.5t66 -196.5q59 -109 156 -161t199 -52q96 0 189.5 46t156.5 149q40 66 62 155t27 156t5 156zM1636 694q0 -157 -52 -289
t-147.5 -227t-237.5 -148t-316 -53q-172 0 -313.5 52.5t-237.5 147t-148.5 227t-52.5 290.5q0 161 52.5 296t148.5 232t238 151t315 54q341 0 546 -200.5t205 -532.5z" />
    <glyph glyph-name="P" unicode="P" horiz-adv-x="1609" 
d="M1477 1006q0 -117 -71.5 -206.5t-190 -135.5t-261.5 -46h-362v-522h221v-96q-78 6 -367 6q-288 0 -366 -6v96h221v1213h-221v96h854q249 0 396 -113t147 -286zM1163 1006q0 33 -0.5 49.5t-3 47.5t-8 47.5t-15.5 41.5t-25.5 39.5t-38.5 31.5t-53 25.5t-71.5 14.5t-91.5 6
h-276v-607h274q50 0 91.5 6t72 15t54 26t38.5 31.5t25.5 39.5t16 42t8 47.5t3 47.5t0.5 49z" />
    <glyph glyph-name="Q" unicode="Q" horiz-adv-x="1769" 
d="M1649 -16q0 -44 -9 -93t-30 -101t-52.5 -93t-80.5 -67.5t-109 -26.5q-35 0 -64.5 6.5t-53 23t-42 33t-35 48t-27.5 55.5t-24.5 69t-21.5 74t-21 84q-97 -19 -194 -19q-175 0 -317.5 53.5t-238 148.5t-147 227t-51.5 288q0 161 52.5 296t148.5 232t238 151t315 54
q341 0 546 -200.5t205 -532.5q0 -72 -11.5 -142t-41.5 -148t-76.5 -144t-122 -125.5t-172.5 -97.5q28 -43 55 -69.5t53 -36.5t41.5 -12.5t39.5 -2.5q162 0 174 80q6 41 37 41q37 0 37 -53zM1335 696q0 286 -84 434q-35 62 -82 106.5t-98 67t-96.5 32.5t-91.5 10
q-32 0 -64.5 -4.5t-76.5 -19.5t-83 -38.5t-80 -66.5t-71 -99q-76 -145 -76 -422q0 -45 1 -77.5t6.5 -88t15 -97.5t28.5 -95t45.5 -92.5t68 -78t93.5 -63.5q-6 15 -6 46q0 72 59.5 119.5t139.5 47.5q48 0 89.5 -16.5t74.5 -48t51 -54t41 -57.5q56 38 96 100.5t58.5 118
t29 132.5t11.5 113t1 91zM1053 92q-48 152 -168 152q-52 0 -89.5 -27t-37.5 -67q0 -12 4.5 -25t16 -29.5t39 -26.5t67.5 -10q95 0 168 33z" />
    <glyph glyph-name="R" unicode="R" horiz-adv-x="1767" 
d="M1757 195q0 -14 -4 -35.5t-20 -55t-40.5 -60.5t-72 -47t-109.5 -20q-193 0 -301 54q-30 15 -53 32.5t-38 34t-25.5 41t-15.5 42t-7.5 49t-3 50t-0.5 56.5q0 122 -9.5 165.5t-56.5 94.5q-63 70 -182 70h-239v-570h221v-96q-74 6 -361 6q-286 0 -360 -6v96h221v1213h-221
v96h778q280 0 445 -109t165 -270q0 -108 -86 -197t-256 -133q196 -74 230 -239q1 -4 10.5 -82.5t11.5 -91.5q4 -35 7.5 -58t14.5 -59.5t26 -58.5t42 -39t62 -17q49 0 86.5 37t44.5 105q1 13 2.5 19.5t5.5 14t13.5 10.5t25.5 3q14 0 22.5 -1.5t17.5 -12t9 -31.5zM1155 1024
q0 27 -0.5 43t-3.5 43t-9 44t-17.5 40t-28 37.5t-42 31t-58 25.5t-77 15t-98.5 6h-241v-570h237q70 0 125 10.5t90 25t60 41t37 47t18 55t7 53.5t1 53z" />
    <glyph glyph-name="S" unicode="S" horiz-adv-x="1308" 
d="M1176 416q0 -82 -26 -157t-79 -139.5t-146 -103.5t-214 -39q-56 0 -115 6.5t-146 33.5t-149 73l-94 -94q-10 -9 -14 -11.5t-10 -5t-15 -2.5q-18 0 -26 7.5t-9.5 17t-1.5 33.5v373q0 38 7 48.5t42 10.5q32 0 38.5 -8.5t8.5 -38.5q4 -73 30 -131t68.5 -94.5t90.5 -61.5
t104.5 -37t101 -17t89.5 -5q76 0 131 23t82.5 60.5t40 76t12.5 79.5q0 97 -82 179q-32 30 -72 43t-188 45q-187 41 -255 67t-138 96q-111 116 -111 273q0 82 28.5 155t83.5 131t144.5 91.5t202.5 33.5q208 0 350 -112l92 90q18 16 23.5 19t17.5 3q26 0 31.5 -11.5t5.5 -45.5
v-375q0 -38 -7 -47.5t-42 -9.5q-31 0 -38 7.5t-13 45.5q-14 81 -46.5 143t-73.5 100t-93.5 62.5t-102 33.5t-102.5 9q-73 0 -127 -20.5t-81.5 -54.5t-40.5 -69t-13 -71q0 -85 61 -141t135 -72l297 -63q146 -31 249.5 -149.5t103.5 -282.5z" />
    <glyph glyph-name="T" unicode="T" horiz-adv-x="1638" 
d="M1550 889h-96q-4 47 -7 75.5t-9.5 68t-14 63.5t-20.5 54t-29.5 47.5t-41 36.5t-54.5 29t-70 16.5t-88 6.5h-155v-1190h313v-96q-111 6 -459 6t-459 -6v96h314v1190h-158q-49 0 -89 -6.5t-70 -16.5t-54.5 -29t-41.5 -37t-29.5 -48t-20.5 -54t-14 -63.5t-8.5 -68
t-6.5 -74.5h-96l43 493h1378z" />
    <glyph glyph-name="U" unicode="U" horiz-adv-x="1812" 
d="M1731 1309h-52q-61 0 -110 -6q-43 -4 -51.5 -12t-8.5 -42v-780q0 -97 -34 -183.5t-100.5 -156.5t-177 -111t-251.5 -41q-155 0 -279 39t-203 107t-121 157.5t-42 192.5v836h-221v96q78 -6 366 -6q289 0 367 6v-96h-221v-852q0 -35 1 -58.5t8.5 -67t20.5 -74.5t39.5 -68
t64 -60t96 -39t132.5 -16q70 0 132.5 12.5t121 42.5t100.5 75t67.5 115t25.5 158v772q0 34 -9 42t-53 12q-56 6 -108 6h-51v96q84 -6 276 -6q197 0 275 6v-96z" />
    <glyph glyph-name="V" unicode="V" horiz-adv-x="1779" 
d="M1724 1309h-38q-71 0 -108 -6.5t-45.5 -14t-16.5 -24.5l-545 -1231q-11 -23 -25.5 -34.5t-25 -13t-31.5 -1.5q-40 0 -54.5 11t-27.5 42l-565 1272h-189v96q72 -6 324 -6q284 0 362 6v-96h-192l436 -981l414 932l8 24q0 25 -180 25v96q80 -6 268 -6l231 6v-96z" />
    <glyph glyph-name="W" unicode="W" horiz-adv-x="2435" 
d="M2384 1309q-76 0 -117 -4q-46 -4 -57.5 -11t-20.5 -34l-473 -1223q-7 -20 -12.5 -29t-20 -16.5t-38.5 -7.5q-35 0 -48 12t-24 41l-356 921l-357 -921q-7 -20 -13 -29.5t-20.5 -16.5t-38.5 -7t-38.5 7.5t-20 16.5t-12.5 29l-492 1272h-176v96q72 -6 313 -6q281 0 359 6
v-96h-197l363 -938l278 721l-84 217h-176v96q72 -6 314 -6q280 0 358 6v-96h-197l363 -938l352 915q-59 23 -209 23v96q74 -6 279 -6q54 0 219 6v-96z" />
    <glyph glyph-name="X" unicode="X" horiz-adv-x="1779" 
d="M1710 0q-72 6 -332 6q-286 0 -370 -6v96h170l-357 494l-338 -449q-2 -2 -8.5 -11t-7.5 -11q72 -23 188 -23v-96q-74 6 -311 6q-188 0 -274 -6v96h59q63 0 125 6q48 4 61 9.5t27 25.5l414 543l-455 629h-201v96q72 -6 332 -6q287 0 371 6v-96h-170l293 -404l270 359
q2 2 8.5 11t7.5 11q-72 23 -188 23v96q74 -6 311 -6q189 0 275 6v-96h-60q-69 0 -118 -6q-53 -4 -66 -9.5t-31 -27.5l-344 -453l518 -717h201v-96z" />
    <glyph glyph-name="Y" unicode="Y" horiz-adv-x="1779" 
d="M1739 1309h-43q-54 0 -107 -6q-51 -7 -63 -15q-9 -7 -17 -20l-481 -707v-465h223v-96q-78 6 -362 6q-287 0 -361 -6v96h222v465l-510 748h-201v96q72 -6 338 -6q291 0 375 6v-96h-174l415 -609l383 564q7 9 15 24q-56 21 -156 21v96q76 -6 270 -6l234 6v-96z" />
    <glyph glyph-name="Z" unicode="Z" horiz-adv-x="1439" 
d="M1321 582l-37 -582h-1087q-21 0 -30 1t-19 5.5t-13.5 15.5t-3.5 31q0 19 2.5 27t13.5 26l820 1203h-267q-215 0 -321.5 -97t-118.5 -301h-96l24 494h1053q20 0 29 -1t19.5 -5.5t14 -15t3.5 -29.5q0 -17 -2.5 -23.5t-14.5 -25.5l-817 -1201h287q88 0 157.5 15.5t116 38.5
t81 63.5t53 76t31.5 91.5t17.5 94t8.5 99h96z" />
    <glyph glyph-name="bracketleft" unicode="[" horiz-adv-x="653" 
d="M600 -512h-338v2048h338v-125h-213v-1798h213v-125z" />
    <glyph glyph-name="backslash" unicode="\" 
d="M1044 -449q0 -29 -18.5 -46t-42.5 -17q-15 0 -26.5 4.5t-19.5 14.5t-12 18.5t-10 23.5l-772 1883q-12 32 -12 41q0 29 19 46t43 17q20 0 33.5 -9t19 -19t14.5 -33l772 -1883q12 -32 12 -41z" />
    <glyph glyph-name="bracketright" unicode="]" horiz-adv-x="653" 
d="M389 -512h-338v125h213v1798h-213v125h338v-2048z" />
    <glyph glyph-name="asciicircum" unicode="^" horiz-adv-x="1138" 
d="M1149 1196l-25 -45l-557 252l-555 -252l-22 45l579 328z" />
    <glyph glyph-name="underscore" unicode="_" horiz-adv-x="1779" 
d="M1780 -387h-1780v180h1780v-180z" />
    <glyph glyph-name="grave" unicode="`" 
d="M737 1118l-61 -76l-309 166q-24 13 -36.5 21.5t-27 32t-14.5 53.5q0 48 37 87.5t86 39.5q22 0 41 -8.5t28.5 -17.5t26.5 -27z" />
    <glyph glyph-name="a" unicode="a" horiz-adv-x="1144" 
d="M1133 49q0 -18 -4 -28.5t-14.5 -14.5t-19.5 -5t-28 -1h-98q-61 0 -103.5 11.5t-63.5 25.5t-32 39t-12.5 40.5t-1.5 41.5q-38 -73 -114.5 -121.5t-190.5 -48.5q-48 0 -96 5t-104 20.5t-98 40t-70 68t-28 99.5q0 294 666 322v69q0 242 -225 242q-82 0 -148 -14q6 -4 15 -14
t19.5 -35t10.5 -52q0 -61 -38.5 -95t-90.5 -34q-48 0 -87.5 33.5t-39.5 95.5q0 189 367 189q221 0 335.5 -86.5t114.5 -229.5v-440q0 -22 2 -32t13 -22t37.5 -16.5t72.5 -5.5q18 0 27 -1.5t18 -12.5t9 -33zM721 285v194q-35 -2 -68 -6t-87 -13.5t-97.5 -28t-85 -45
t-65 -68.5t-23.5 -95q0 -68 54 -115t132 -47q20 0 45 4t61 18.5t64.5 37.5t49 65.5t20.5 98.5z" />
    <glyph glyph-name="b" unicode="b" horiz-adv-x="1308" 
d="M1229 457q0 -212 -143 -340.5t-373 -128.5q-172 0 -299 127q-16 -20 -50 -58l-51 -57h-96v1229q0 58 -21 69t-120 11v96l362 16v-600q121 101 301 101q221 0 355.5 -129.5t134.5 -335.5zM967 457q0 43 -0.5 67.5t-5.5 71.5t-13.5 76t-27 66t-44.5 58.5t-66.5 36.5
t-92.5 15q-81 0 -151.5 -37t-114.5 -94v-514q12 -18 28 -36.5t46 -45t74.5 -43.5t94.5 -17q59 0 119 25t100 82q25 37 37.5 92t14.5 94t2 103z" />
    <glyph glyph-name="c" unicode="c" horiz-adv-x="1046" 
d="M979 240q0 -8 -8.5 -31.5t-35 -62.5t-67 -73.5t-115 -59.5t-167.5 -25q-233 0 -370.5 130t-137.5 337q0 92 30 174.5t90.5 150.5t163 108t234.5 40q356 0 356 -189q0 -61 -38.5 -95t-90.5 -34q-48 0 -87.5 33.5t-39.5 95.5q0 58 41 95q-54 12 -133 12q-54 0 -97.5 -16
t-70.5 -38.5t-46.5 -60t-29 -67.5t-14.5 -74.5t-5.5 -66.5t-0.5 -58q0 -395 285 -395q187 0 256 168q8 21 15 25.5t34 4.5q15 0 22.5 -0.5t17 -7.5t9.5 -20z" />
    <glyph glyph-name="d" unicode="d" horiz-adv-x="1308" 
d="M1231 0l-375 -12v100q-124 -100 -287 -100q-224 0 -357.5 129.5t-133.5 335.5q0 214 143.5 341.5t370.5 127.5q157 0 276 -93v400q0 58 -21 69t-120 11v96l363 16v-1245q0 -58 21 -69t120 -11v-96zM856 211v512q-40 52 -102 88.5t-142 36.5q-59 0 -119 -24.5t-100 -82.5
q-25 -37 -37.5 -92t-14 -92t-1.5 -104q0 -33 0.5 -51.5t2.5 -55t6 -59.5t13 -56t21 -54t31 -45.5t43.5 -38t58 -23t74.5 -9.5q157 0 266 150z" />
    <glyph glyph-name="e" unicode="e" horiz-adv-x="1079" 
d="M1012 240q0 -13 -11 -39.5t-41.5 -64t-74 -70t-119 -55.5t-166.5 -23q-244 0 -389 132t-145 341q0 97 33.5 181t95.5 148t159 101t217 37q212 0 326 -111q47 -47 74.5 -114.5t34 -112.5t6.5 -88q0 -38 -13.5 -47t-52.5 -9h-618q0 -33 0.5 -54.5t6.5 -64.5t16 -73.5
t31.5 -67.5t51.5 -60.5t77 -39.5t107 -16q100 0 180.5 45t112.5 118q10 27 18.5 35t33.5 8q49 0 49 -36zM817 514q-9 340 -246 340q-52 0 -105 -25t-89 -81q-20 -32 -31 -77.5t-13 -71t-5 -85.5h489z" />
    <glyph glyph-name="f" unicode="f" horiz-adv-x="718" 
d="M895 1255q0 -59 -38.5 -93t-88.5 -34q-46 0 -85.5 33t-39.5 94q0 66 47 101q-14 4 -35 4q-20 0 -41.5 -3.5t-52.5 -18t-54.5 -39t-40.5 -72t-17 -111.5v-207h247v-96h-235v-717h178v-96q-74 6 -283 6l-258 -6v96h142v717h-154v96h154v207q0 83 37 146.5t99 99.5t134.5 54
t151.5 18q112 0 172.5 -53.5t60.5 -125.5z" />
    <glyph glyph-name="g" unicode="g" 
d="M1143 813q0 -37 -24.5 -62.5t-63.5 -25.5t-63.5 24.5t-24.5 63.5q0 21 8 41q-65 -6 -127 -39q82 -87 82 -197q0 -56 -23 -108t-69.5 -96.5t-128 -71.5t-187.5 -27q-146 0 -250 54q-20 -27 -20 -68q0 -23 8.5 -47.5t36 -50t68.5 -31.5q10 -2 157 -2q123 0 180.5 -2
t128 -15t125.5 -40q48 -25 81 -60.5t47.5 -74t20 -67.5t5.5 -58q0 -115 -132 -190t-390 -75q-118 0 -211.5 17t-150 43.5t-94 62t-52 68.5t-14.5 67q0 36 16 67t37.5 50t49 33.5t44.5 20t29 8.5q-37 30 -59 74t-26.5 71t-4.5 51q0 95 69 182q-49 35 -77.5 93t-28.5 122
q0 56 23 108t69 97t127.5 72t187.5 27q174 0 275 -68q97 78 217 78q64 0 96.5 -38t32.5 -81zM702 618q0 27 -0.5 42t-4 43t-9.5 44.5t-19.5 38t-32 33.5t-48 20.5t-66.5 8.5t-66.5 -8.5t-48 -20.5t-32 -33.5t-19.5 -38t-9.5 -44.5t-4 -43t-0.5 -42q0 -32 1 -50t5.5 -49.5
t16 -50.5t30.5 -39.5t51.5 -30t75.5 -9.5t75.5 9.5t51.5 30t30.5 39.5t16 50.5t5.5 49.5t1 50zM934 -154q0 127 -295 127h-240q-21 0 -38.5 -2.5t-49 -12.5t-50.5 -37.5t-19 -70.5q0 -78 87 -133t259 -55q76 0 137.5 12t99.5 31t63.5 44t35.5 49t10 48z" />
    <glyph glyph-name="h" unicode="h" horiz-adv-x="1308" 
d="M1260 0l-259 6l-258 -6v96h142v553q0 111 -28.5 155t-84.5 44q-51 0 -102.5 -20t-98 -58t-75.5 -102t-29 -144v-428h141v-96l-258 6l-258 -6v96h141v1133q0 58 -21 69t-120 11v96l363 16v-696h2q20 34 46.5 64.5t68 62.5t101.5 51t130 19q159 0 237 -69t78 -226v-531h142
v-96z" />
    <glyph glyph-name="i" unicode="i" horiz-adv-x="653" 
d="M586 0l-240 6l-250 -6v96h142v633q0 58 -21 69t-115 11v96l357 17v-826h127v-96zM487 1243q0 -66 -46.5 -113t-112.5 -47t-113 47t-47 113t47 113t113 47t112.5 -47t46.5 -113z" />
    <glyph glyph-name="j" unicode="j" horiz-adv-x="718" 
d="M547 -86q0 -78 -33 -141.5t-87 -102.5t-118.5 -59.5t-132.5 -20.5q-129 0 -210 50.5t-81 136.5q0 56 35.5 92.5t93.5 36.5q55 0 91 -36.5t36 -90.5q0 -67 -49 -103q47 -12 80 -12q44 0 75.5 24t48 63.5t23.5 79.5t7 83v813q0 27 -1.5 39t-12 23.5t-31.5 15.5
q-31 4 -111 4v96l377 17v-1008zM547 1243q0 -66 -47 -113t-113 -47t-113 47t-47 113t47 113t113 47t113 -47t47 -113z" />
    <glyph glyph-name="k" unicode="k" horiz-adv-x="1243" 
d="M1202 0q-105 6 -213 6q-159 0 -250 -6v96q64 0 64 19q0 3 -8.5 14.5t-22.5 30t-20 26.5l-207 258q-58 -41 -117 -88v-260h141v-96l-247 6l-246 -6v96h141v1133q0 58 -21 69t-120 11v96l362 16v-936l387 306q-10 10 -15.5 13.5t-18 6t-35.5 2.5v96l235 -6q105 0 160 6v-96
q-65 0 -102.5 -5t-50.5 -11.5t-31 -20.5l-267 -207l347 -432q22 -27 40 -34t80 -7h35v-96z" />
    <glyph glyph-name="l" unicode="l" horiz-adv-x="653" 
d="M600 0l-252 6l-252 -6v96h142v1133q0 58 -21.5 69t-120.5 11v96l363 16v-1325h141v-96z" />
    <glyph glyph-name="m" unicode="m" horiz-adv-x="1961" 
d="M1915 0l-258 6l-258 -6v96h141v553q0 112 -29 155.5t-86 43.5q-50 0 -101.5 -20t-98 -58t-76 -102t-29.5 -144v-428h142v-96l-258 6l-259 -6v96h142v553q0 112 -29 155.5t-86 43.5q-50 0 -101.5 -20t-98 -58t-76 -102t-29.5 -144v-428h141v-96l-258 6l-258 -6v96h141v633
q0 58 -21 69t-120 11v96l352 17v-222q53 103 143.5 162.5t217.5 59.5q264 0 307 -197q47 83 133 140t213 57q161 0 238.5 -69.5t77.5 -225.5v-531h141v-96z" />
    <glyph glyph-name="n" unicode="n" horiz-adv-x="1308" 
d="M1260 0l-259 6l-258 -6v96h142v553q0 111 -28.5 155t-84.5 44q-51 0 -102.5 -20t-98 -58t-75.5 -102t-29 -144v-428h141v-96l-258 6l-258 -6v96h141v633q0 58 -21 69t-120 11v96l352 17v-222q22 43 52 79.5t73 70t103.5 53t130.5 19.5q159 0 237 -69t78 -226v-531h142
v-96z" />
    <glyph glyph-name="o" unicode="o" 
d="M1110 446q0 -96 -34 -178.5t-97.5 -145t-164 -98.5t-226.5 -36q-247 0 -384.5 129.5t-137.5 328.5q0 102 35 190t99.5 153t164.5 102t223 37q244 0 383 -135t139 -347zM848 469q0 67 -1.5 104.5t-11.5 91t-30 85.5q-32 52 -90.5 78t-126.5 26q-76 0 -136.5 -31.5
t-89.5 -87.5q-16 -32 -24 -83.5t-9 -84t-1 -98.5q0 -40 0.5 -61t2.5 -60.5t6.5 -62t13.5 -55.5t21.5 -52.5t32.5 -43t45.5 -35.5t60.5 -20.5t77 -8.5t77 8.5t60.5 20.5t45.5 35.5t32.5 43t21.5 52.5t13.5 55.5t6.5 62t2.5 60.5t0.5 61z" />
    <glyph glyph-name="p" unicode="p" horiz-adv-x="1308" 
d="M1229 457q0 -213 -142.5 -341t-373.5 -128q-150 0 -262 92v-381h141v-96l-258 6l-258 -6v96h141v1032q0 57 -21 67.5t-120 10.5v96l362 17v-101q49 38 128.5 69.5t181.5 31.5q219 0 350 -129.5t131 -335.5zM967 457q0 185 -71.5 284t-180.5 99q-50 0 -115 -21t-119 -76
q-22 -22 -26 -31t-4 -38v-434q0 -31 2.5 -39.5t19.5 -28.5q92 -111 217 -111q52 0 99.5 22t88.5 67t65 124t24 183z" />
    <glyph glyph-name="q" unicode="q" horiz-adv-x="1243" 
d="M1231 -397l-258 6l-258 -6v96h141v399q-126 -110 -287 -110q-217 0 -354 126.5t-137 340.5q0 212 142 339.5t368 127.5q91 0 173 -43t136 -119l109 162h84v-1223h141v-96zM868 291v284q0 54 -30 114t-90.5 105.5t-133.5 45.5q-49 0 -95 -20.5t-87.5 -63t-66.5 -121
t-25 -182.5q0 -192 73 -292t177 -100q60 0 126.5 31.5t121.5 112.5q22 30 26 43t4 43z" />
    <glyph glyph-name="r" unicode="r" horiz-adv-x="970" 
d="M905 754q0 -58 -38 -91.5t-87 -33.5t-87 33t-38 92q0 26 9.5 49.5t19.5 34.5l10 10q-59 0 -105 -27.5t-74 -69.5t-46 -96.5t-24.5 -103.5t-6.5 -96v-359h178v-96q-74 6 -282 6l-258 -6v96h141v633q0 58 -21 69t-120 11v96l340 17v-232q85 232 272 232q86 0 151.5 -45.5
t65.5 -122.5z" />
    <glyph glyph-name="s" unicode="s" horiz-adv-x="929" 
d="M850 287q0 -61 -18.5 -110.5t-45 -80t-66.5 -52.5t-72.5 -32.5t-74.5 -16.5t-60.5 -6.5t-41.5 -0.5q-149 0 -242 65l-53 -35q-30 -21 -39.5 -25.5t-21.5 -4.5q-26 0 -31.5 11.5t-5.5 45.5v223q0 38 7 49t42 11q17 0 24 -1t13.5 -7.5t11.5 -20.5q10 -34 19.5 -59.5
t32.5 -61.5t52.5 -59.5t79 -40.5t111.5 -17q19 0 33.5 1t46 4.5t55 14t48 26t38 43.5t13.5 65q0 34 -17.5 61.5t-40.5 43.5t-59 28.5t-58 17t-53 9.5q-160 29 -207 47q-61 22 -110 65q-82 70 -82 172q0 55 18.5 99t45 71.5t66.5 47.5t72.5 29.5t74 15t60 6t40.5 0.5
q130 0 207 -39q80 39 92 39q18 0 26 -7.5t9.5 -17t1.5 -33.5v-163q0 -38 -7.5 -48t-42.5 -10q-30 0 -37.5 8t-9.5 33q-15 172 -241 172q-14 0 -25.5 -0.5t-37 -3t-45 -6.5t-44 -13.5t-40.5 -22.5t-27 -34t-11 -47q0 -20 8.5 -37t19 -29t31.5 -22.5t35.5 -16.5t40.5 -12.5
t37.5 -8.5t36.5 -7q134 -23 191.5 -40t113.5 -58q113 -89 113 -217z" />
    <glyph glyph-name="t" unicode="t" horiz-adv-x="915" 
d="M782 254q0 -116 -66.5 -191t-180.5 -75q-48 0 -90 6t-86.5 24t-76 46.5t-51.5 76.5t-20 111v561h-168v74q73 2 132.5 38t96 94.5t56 130t20.5 150.5h96v-391h299v-96h-299v-565q0 -178 119 -178q49 0 86 46t37 142v104h96v-108z" />
    <glyph glyph-name="u" unicode="u" horiz-adv-x="1308" 
d="M1260 0l-363 -12v159q-93 -159 -295 -159q-83 0 -144.5 11t-115 38.5t-81.5 81.5t-28 133v477q0 58 -21 69t-120 11v96l375 17v-699q0 -49 3.5 -73.5t19 -48t49.5 -32t92 -8.5q113 0 183.5 76t70.5 201v391q0 58 -21.5 69t-120.5 11v96l375 17v-746q0 -58 21.5 -69
t120.5 -11v-96z" />
    <glyph glyph-name="v" unicode="v" horiz-adv-x="1243" 
d="M1188 813q-63 0 -95 -5.5t-41 -13t-16 -24.5l-340 -729q-14 -30 -30 -39.5t-45 -9.5q-18 0 -27.5 1.5t-24 13.5t-26.5 36l-359 770h-131v96l234 -6l254 6v-96h-111l260 -559l238 512l10 25q0 11 -31 16.5t-67 5.5v96l186 -6q86 0 162 6v-96z" />
    <glyph glyph-name="w" unicode="w" horiz-adv-x="1701" 
d="M1649 813q-58 0 -88 -6t-38 -13.5t-14 -23.5l-295 -723q-12 -31 -25 -43t-48 -12t-48.5 12t-25.5 43l-217 531l-217 -531q-12 -31 -25.5 -43t-48.5 -12t-48.5 12t-25.5 43l-313 766h-121v96l223 -6l252 6v-96h-114l215 -528l161 393l9 27q0 6 -43 108h-121v96
q99 -6 205 -6l233 6v-96h-115l234 -573l215 524q1 2 3 7t3.5 9.5t1.5 7.5q0 25 -119 25v96l197 -6q87 0 158 6v-96z" />
    <glyph glyph-name="x" unicode="x" horiz-adv-x="1243" 
d="M1198 0l-225 6l-246 -6v96h80l-225 266l-199 -223l-14 -20q0 -9 23.5 -16t51.5 -7v-96l-211 6l-188 -6v96q63 0 92.5 1.5t63.5 10.5t51 27l268 301l-319 377h-146v96l226 -6l247 6v-96h-82l201 -235l172 192q1 1 17 25q-32 18 -78 18v96l211 -6l188 6v-96
q-82 0 -124.5 -5.5t-55 -12.5t-29.5 -25l-239 -266l344 -408h145v-96z" />
    <glyph glyph-name="y" unicode="y" horiz-adv-x="1243" 
d="M1188 813q-63 0 -95 -5.5t-40 -12.5t-17 -25l-440 -936q-47 -100 -134.5 -172t-197.5 -72q-92 0 -155.5 55.5t-63.5 133.5q0 56 35 87.5t82 31.5q52 0 85.5 -33t33.5 -84q0 -33 -14 -58.5t-26.5 -35t-25.5 -15.5q21 -8 49 -8q42 0 78.5 16.5t61 38t49.5 59t37 61t30 63.5
l47 98l-383 813h-131v96l234 -6l254 6v-96h-111l260 -553l236 504l10 24q0 11 -24 17.5t-48 6.5l-24 1v96l186 -6q88 0 162 6v-96z" />
    <glyph glyph-name="z" unicode="z" horiz-adv-x="1046" 
d="M946 414l-37 -414h-778q-19 0 -27.5 1t-19 4.5t-14.5 13.5t-4 26q0 10 1 15t4.5 11.5t12.5 18.5l571 746h-174q-156 0 -216.5 -62t-69.5 -223h-97l25 358h751q24 0 35 -1.5t21 -11.5t10 -30q0 -9 -2.5 -15.5t-4.5 -10.5t-13 -19l-568 -739h176q67 0 116.5 9.5t83 31
t55.5 47t35.5 67t20 80.5t11.5 97h96z" />
    <glyph glyph-name="braceleft" unicode="{" 
d="M1016 -475q0 -26 -13 -31.5t-51 -5.5q-35 0 -70 2t-84.5 9t-91.5 18.5t-86 33.5t-75 51t-50.5 73t-19.5 98v430q0 80 -4 96q-16 66 -83 117.5t-193 58.5q-19 2 -27 9.5t-8 27.5q0 17 6 25t13 9.5t26 2.5q127 6 203 76q47 41 57 81.5t10 147.5v422q2 119 130.5 189.5
t346.5 70.5q38 0 51 -5.5t13 -31.5q0 -17 -6 -25t-13 -9.5t-26 -2.5q-105 -6 -189 -57q-37 -27 -56 -60.5t-21.5 -52.5t-2.5 -51v-430q0 -28 -0.5 -43t-5 -44.5t-13 -48.5t-26.5 -46t-43 -45.5t-64.5 -38t-90.5 -33.5q122 -33 181.5 -99t61.5 -139v-485q0 -49 7 -72
q21 -63 86.5 -105.5t185.5 -49.5q19 -2 27 -9.5t8 -27.5z" />
    <glyph glyph-name="bar" unicode="|" horiz-adv-x="653" 
d="M410 -422q0 -45 -20.5 -77.5t-63.5 -32.5q-42 0 -62 33.5t-20 76.5v1868q0 45 20.5 77.5t63.5 32.5q42 0 62 -33.5t20 -76.5v-1868z" />
    <glyph glyph-name="braceright" unicode="}" 
d="M1016 512q0 -17 -6 -25t-13 -9.5t-26 -2.5q-72 -4 -123.5 -27t-75.5 -47q-49 -45 -59.5 -84t-10.5 -147v-422q-2 -116 -128 -188t-351 -72q-37 0 -50 5.5t-13 31.5q0 17 6 25t13 9.5t26 2.5q116 6 194 61q35 27 53 58.5t20.5 50.5t2.5 51v430q0 39 1.5 62t14.5 63.5
t36.5 68t72.5 57t119 48.5q-124 34 -183 99.5t-61 138.5v485q0 52 -6 72q-20 65 -88 107t-186 48q-19 2 -27 9.5t-8 27.5q0 26 13 31.5t50 5.5q41 0 80 -2.5t88 -10t91 -20t84 -34.5t71 -51t47 -72t18 -95v-430q0 -81 7 -100q25 -82 97 -124.5t175 -47.5q19 -2 27 -9.5
t8 -27.5z" />
    <glyph glyph-name="asciitilde" unicode="~" horiz-adv-x="1138" 
d="M1141 569q-17 -12 -73.5 -53.5t-72.5 -52.5q-93 -64 -213 -64q-80 0 -235 35q-153 35 -238 35q-44 0 -116 -18.5t-130 -63.5l-57 64q17 11 73.5 52.5t72.5 53.5q93 64 213 64q80 0 235 -35q153 -35 238 -35q41 0 114.5 20t132.5 66z" />
    <glyph glyph-name="uni00A0" unicode="&#xa0;" 
 />
    <glyph glyph-name="cent" unicode="&#xa2;" horiz-adv-x="1046" 
d="M979 240q0 -8 -7.5 -30t-32 -59t-61 -70t-103.5 -60t-150 -31v-88q0 -20 -15 -34.5t-35 -14.5t-34.5 14.5t-14.5 34.5v88q-208 17 -328 144.5t-120 320.5q0 86 26.5 163.5t79 143.5t140.5 110t202 54v82q0 21 14 35t35 14t35.5 -14t14.5 -35v-80q44 -1 83 -5t85.5 -16
t80 -31.5t56 -55t22.5 -81.5q0 -61 -38.5 -95t-90.5 -34q-48 0 -87.5 33.5t-39.5 95.5q0 58 41 95q-39 9 -112 12v-776q187 0 256 168q8 21 15 25.5t34 4.5q15 0 22.5 -0.5t17 -7.5t9.5 -20zM526 84v754q-38 -10 -68.5 -31.5t-49.5 -45.5t-33 -59t-20.5 -62t-10 -66t-4 -58
t-0.5 -51q0 -320 186 -381z" />
    <glyph glyph-name="sterling" unicode="&#xa3;" horiz-adv-x="1779" 
d="M1651 303q0 -95 -28 -176.5t-86.5 -135.5t-137.5 -54q-38 0 -75 4.5t-78.5 17.5t-68.5 21.5t-75 31.5t-66 31.5t-73.5 38t-67.5 35.5q-20 -38 -60.5 -65t-86.5 -41t-113.5 -22t-120.5 -10t-129 -2q-103 0 -179.5 50t-76.5 135q0 53 31 90t85.5 56.5t113.5 27.5t130 8
q94 0 195 -33q-4 41 -15.5 89.5t-22 80.5t-30.5 90t-28 82h-305v99h276q-22 80 -22 157q0 135 67.5 249.5t183 180.5t250.5 66q113 0 212.5 -42t162 -122.5t62.5 -181.5q0 -54 -38 -91.5t-91 -37.5q-54 0 -91.5 37.5t-37.5 91.5q0 51 32 87t82 42q-45 56 -123.5 87.5
t-169.5 31.5q-84 0 -146.5 -58.5t-92 -147t-29.5 -192.5q0 -65 18 -157h383v-99h-358q10 -34 32 -105.5t34 -113.5t23.5 -104t12.5 -115q107 -47 189.5 -72.5t167.5 -25.5q73 0 135 20t103.5 63t41.5 103h99zM682 213q-101 33 -193 33q-40 0 -61.5 -0.5t-58 -2.5t-57 -7.5
t-43 -14.5t-32.5 -24t-10 -35q0 -32 24.5 -52t58 -27t75.5 -7q110 0 193.5 34t103.5 103z" />
    <glyph glyph-name="currency" unicode="&#xa4;" horiz-adv-x="1830" 
d="M1468 -41q-44 -44 -104 16l-150 150q-133 -102 -299 -102t-299 102l-149 -148q-63 -63 -107 -18q-16 16 -19.5 32t5 32t15 23.5t18.5 19.5l149 149q-102 133 -102 297q0 166 102 299l-151 152q-12 12 -17.5 18.5t-14 22t-5 31.5t19.5 32q44 45 105 -16l151 -152
q136 102 299 102q166 0 299 -100l148 148q12 12 19.5 18t23 14.5t31.5 5t32 -19.5q44 -44 -18 -106l-147 -148q102 -136 102 -301q0 -166 -102 -299l149 -150q11 -11 17 -18.5t14 -22.5t4.5 -31t-19.5 -32zM1282 512q0 152 -107.5 259.5t-259.5 107.5t-259 -107.5
t-107 -259.5t107 -259.5t259 -107.5t259.5 107.5t107.5 259.5z" />
    <glyph glyph-name="yen" unicode="&#xa5;" horiz-adv-x="1779" 
d="M1739 1309h-43q-54 0 -107 -6q-51 -7 -63 -15q-9 -7 -17 -20l-362 -533h278v-98h-346l-51 -76v-174h397v-98h-397v-193h223v-96q-78 6 -362 6q-287 0 -361 -6v96h222v193h-394v98h394v174l-52 76h-342v98h275l-391 574h-201v96q72 -6 338 -6q291 0 375 6v-96h-174
l391 -574h49l358 529q7 9 15 24q-56 21 -156 21v96q76 -6 270 -6l234 6v-96z" />
    <glyph glyph-name="brokenbar" unicode="&#xa6;" horiz-adv-x="653" 
d="M389 698q0 -21 -18.5 -35t-42.5 -14q-26 0 -45 14t-19 35v748q0 17 1.5 28t6.5 27.5t19.5 25.5t36.5 9q21 0 35 -9t19 -26t6 -28t1 -27v-748zM389 -422q0 -17 -1 -28t-6.5 -27.5t-19.5 -25.5t-36 -9q-62 0 -62 90v748q0 21 19 35t45 14q24 0 42.5 -14t18.5 -35v-748z" />
    <glyph glyph-name="section" unicode="&#xa7;" horiz-adv-x="1423" 
d="M1296 410q0 -89 -54.5 -158.5t-143.5 -106.5q69 -98 69 -206t-64 -194.5t-167.5 -132.5t-222.5 -46q-165 0 -284.5 103t-119.5 255q0 54 37.5 91.5t91.5 37.5t91.5 -37.5t37.5 -91.5q0 -45 -28 -80.5t-70 -44.5q85 -73 244 -73q103 0 178.5 60t75.5 153q0 30 -14.5 55.5
t-33.5 42.5t-54 34t-58.5 25.5t-65.5 22.5l-245 78q-159 53 -263 162.5t-104 254.5q0 88 54.5 157.5t144.5 107.5q-70 96 -70 206q0 108 64.5 194.5t168 132.5t222.5 46q107 0 199 -45.5t148 -128.5t56 -184q0 -54 -37.5 -91.5t-91.5 -37.5t-91.5 37.5t-37.5 91.5
q0 45 28 80.5t70 44.5q-85 73 -243 73q-103 0 -178.5 -60t-75.5 -153q0 -30 14.5 -55.5t33 -42.5t53.5 -34t59 -25.5t65 -22.5l246 -78q159 -53 262.5 -162.5t103.5 -254.5zM1071 410q0 126 -213 194l-246 78q-121 41 -200 106q-58 -58 -58 -174q0 -126 213 -194l246 -78
q117 -39 201 -109q57 60 57 177z" />
    <glyph glyph-name="dieresis" unicode="&#xa8;" 
d="M469 1243q0 -59 -41.5 -101t-101.5 -42t-102 42t-42 101q0 60 42 101.5t102 41.5t101.5 -41.5t41.5 -101.5zM995 1243q0 -59 -41.5 -101t-101.5 -42t-101.5 42t-41.5 101q0 60 41.5 101.5t101.5 41.5t101.5 -41.5t41.5 -101.5z" />
    <glyph glyph-name="copyright" unicode="&#xa9;" horiz-adv-x="1404" 
d="M1405 702q0 -143 -55.5 -272.5t-149.5 -224t-224.5 -150t-273.5 -55.5q-114 0 -221 35.5t-193.5 100.5t-151.5 151.5t-100.5 193.5t-35.5 221q0 143 55.5 273.5t150 224.5t224 149.5t272.5 55.5q191 0 353 -94t256 -256t94 -353zM1282 702q0 157 -78 290.5t-211.5 211.5
t-290.5 78t-290.5 -78t-211 -211.5t-77.5 -290.5q0 -117 46 -224.5t123.5 -185t185 -123.5t224.5 -46q157 0 290.5 77.5t211.5 211t78 290.5zM977 598q0 -84 -74.5 -149.5t-195.5 -65.5q-165 0 -263 89.5t-98 229.5t98 230t263 90q103 0 178 -61l59 53q11 8 19 8
q10 0 12 -5.5t2 -21.5v-192q0 -19 -3 -22t-20 -3t-19.5 2.5t-4.5 16.5q-15 84 -72 133t-131 49q-114 0 -184 -70q-60 -62 -60 -207q0 -136 54 -200q67 -76 192 -76q76 0 139.5 46t67.5 130q0 10 4.5 12t15.5 2q7 0 9.5 -0.5t6 -2t4.5 -5t1 -10.5z" />
    <glyph glyph-name="ordfeminine" unicode="&#xaa;" horiz-adv-x="1015" 
d="M961 813q0 -24 -12.5 -29.5t-43.5 -5.5h-82q-52 0 -88 8t-53.5 17.5t-27 27.5t-10.5 28.5t-1 29.5q-32 -50 -96.5 -84.5t-159.5 -34.5q-53 0 -103.5 6.5t-105.5 23t-89 51t-34 83.5q0 199 544 224q10 1 15 1v47q0 170 -190 170q-62 0 -123 -10q4 -1 12 -9t16.5 -25
t8.5 -36q0 -43 -32 -66.5t-75 -23.5q-41 0 -74.5 23.5t-33.5 66.5q0 131 309 131q186 0 282.5 -60t96.5 -161v-307q0 -16 2 -22.5t11 -15t31 -11.5t60 -4q15 0 23 -1t15.5 -9t7.5 -23zM932 653q0 -17 -19 -36t-51 -19h-708q-32 0 -51 19t-19 36t19 36.5t51 19.5h708
q32 0 51 -19.5t19 -36.5zM614 977v137q-37 -2 -71.5 -5t-90.5 -15t-96 -30t-70 -52t-30 -78q0 -46 46 -79.5t112 -33.5q22 0 50.5 5.5t65 20.5t60.5 48.5t24 81.5z" />
    <glyph glyph-name="guillemotleft" unicode="&#xab;" horiz-adv-x="1308" 
d="M649 35q0 -35 -28 -35h-17q-19 0 -26 18q-105 262 -312 445q-10 7 -10 20t10 23q209 185 312 442q6 19 26 19h17q12 0 20 -9t8 -24q-47 -239 -155 -451q108 -212 155 -448zM1047 35q0 -17 -8 -26t-21 -9h-17q-19 0 -26 18q-105 263 -311 445q-11 7 -11 20q0 12 11 23
q208 183 311 442q6 19 26 19h17q12 0 20.5 -9t8.5 -24q-46 -236 -156 -451q110 -215 156 -448z" />
    <glyph glyph-name="logicalnot" unicode="&#xac;" horiz-adv-x="1830" 
d="M1718 283q0 -38 -26 -60t-56 -22t-56 22t-26 60v379h-1361q-38 0 -60 25.5t-22 55.5t22 56t60 26h1464q26 0 43.5 -17.5t17.5 -43.5v-481z" />
    <glyph glyph-name="uni00AD" unicode="&#xad;" horiz-adv-x="784" 
d="M651 356h-624v199h624v-199z" />
    <glyph glyph-name="registered" unicode="&#xae;" horiz-adv-x="1404" 
d="M1405 702q0 -143 -55.5 -272.5t-149.5 -224t-224.5 -150t-273.5 -55.5q-114 0 -221 35.5t-193.5 100.5t-151.5 151.5t-100.5 193.5t-35.5 221q0 143 55.5 273.5t150 224.5t224 149.5t272.5 55.5q191 0 353 -94t256 -256t94 -353zM1282 702q0 157 -78 290.5t-211.5 211.5
t-290.5 78t-290.5 -78t-211 -211.5t-77.5 -290.5q0 -117 46 -224.5t123.5 -185t185 -123.5t224.5 -46q157 0 290.5 77.5t211.5 211t78 290.5zM1102 483q0 -8 -4 -21t-14 -31t-34 -30t-57 -12q-81 0 -131 23q-42 21 -52.5 50t-10.5 85q0 53 -4 72.5t-25 42.5q-28 30 -80 30
h-106v-252h98v-41q-33 2 -160 2q-124 0 -157 -2v41h96v535h-96v41h342q123 0 195.5 -48t72.5 -118q0 -47 -38 -86.5t-112 -58.5q86 -31 101 -105q0 -28 10 -78q2 -19 4.5 -32t9 -31t19.5 -27.5t32 -9.5q51 0 60 61q0 6 0.5 8.5t2 6t6 5t11.5 1.5q21 0 21 -21zM838 850
q0 27 -3 43t-16 38t-45.5 33t-83.5 11h-106v-252h104q43 0 73 9t44.5 20.5t22.5 31.5t9 32.5t1 33.5z" />
    <glyph glyph-name="macron" unicode="&#xaf;" 
d="M1014 1190h-848v106h848v-106z" />
    <glyph glyph-name="degree" unicode="&#xb0;" horiz-adv-x="882" 
d="M768 1077q0 -135 -95.5 -230t-230.5 -95q-136 0 -231.5 95t-95.5 230q0 137 95.5 232.5t231.5 95.5q135 0 230.5 -96t95.5 -232zM645 1077q0 85 -59 145t-144 60t-144.5 -60t-59.5 -145t59.5 -144t144.5 -59t144 59t59 144z" />
    <glyph glyph-name="plusminus" unicode="&#xb1;" horiz-adv-x="1830" 
d="M1698 61q0 -61 -88 -61h-1391q-88 0 -88 61q0 64 88 64h633v522h-633q-88 0 -88 62q0 22 9 36t25.5 19.5t27 6.5t26.5 1h633v561q0 86 63 86q62 0 62 -86v-561h633q16 0 26.5 -1t27 -6.5t25.5 -19.5t9 -36q0 -62 -88 -62h-633v-522h633q88 0 88 -64z" />
    <glyph glyph-name="two.superior" unicode="&#xb2;" horiz-adv-x="845" 
d="M762 895l-45 -272h-633v22q0 19 2.5 25t15.5 16l297 252q160 135 160 256q0 73 -51.5 124.5t-142.5 51.5q-88 0 -152 -43q15 -3 31.5 -10t34.5 -28t18 -50q0 -42 -33.5 -65t-73.5 -23q-21 0 -43.5 7t-42.5 28.5t-20 54.5q0 82 91 134t226 52q158 0 259.5 -63.5
t101.5 -167.5q0 -25 -6.5 -47.5t-15 -40t-30 -39t-36 -34.5t-50 -37.5t-56 -37t-68.5 -42.5q-90 -56 -213 -142h217q135 0 151 8q21 8 37 111h70z" />
    <glyph glyph-name="three.superior" unicode="&#xb3;" horiz-adv-x="845" 
d="M776 844q0 -43 -22 -83.5t-65 -75t-117 -55t-169 -20.5q-144 0 -237.5 51.5t-93.5 133.5q0 44 32 69t80 25q50 0 81.5 -25.5t31.5 -66.5q0 -37 -23.5 -60.5t-62.5 -31.5q84 -43 186 -43q44 0 75 14.5t46 33t23 48.5t9 46t1 42q0 22 -1 35.5t-5 38.5t-14.5 41t-27.5 33
t-46 25.5t-68 8.5h-65q-17 0 -23.5 1t-12 6t-5.5 16q0 20 18 20q5 2 70 6q43 2 75 21t46.5 41.5t23 53t9.5 44t1 25.5q0 21 -3 36t-14 36.5t-39 33.5t-71 12q-95 0 -161 -45q8 0 25.5 -5.5t39 -27t21.5 -53.5q0 -35 -28 -59.5t-77 -24.5q-42 0 -71 23.5t-29 62.5
q0 75 80.5 125.5t208.5 50.5q151 0 236 -48t85 -122t-62 -126.5t-149 -75.5q76 -13 130 -38t80 -56.5t37 -59.5t11 -57z" />
    <glyph glyph-name="acute" unicode="&#xb4;" 
d="M889 1315q0 -30 -14.5 -53.5t-27 -32t-36.5 -21.5l-309 -166l-62 76l230 271q17 18 26.5 27t28.5 17.5t41 8.5q49 0 86 -39.5t37 -87.5z" />
    <glyph glyph-name="uni00B5" unicode="&#xb5;" horiz-adv-x="1308" 
d="M1260 0q-70 -4 -117 -4q-114 0 -246 -8v159q-95 -159 -295 -159q-84 0 -135 8v-297h141v-96q-105 6 -258 6q-156 0 -258 -6v96h141v1026q0 61 -20.5 72.5t-120.5 11.5v96l375 17v-697q0 -51 3 -75t18.5 -48t49 -32.5t91.5 -8.5q116 0 186 75.5t70 203.5v385
q0 61 -21 72.5t-121 11.5v96l375 17v-742q0 -61 21 -72.5t121 -11.5v-96z" />
    <glyph glyph-name="paragraph" unicode="&#xb6;" horiz-adv-x="1439" 
d="M1372 1358q0 -62 -92 -62h-104v-1603q0 -17 -1.5 -28t-6.5 -27.5t-19.5 -25.5t-36.5 -9q-21 0 -35 9t-19 26t-6 27.5t-1 27.5v1603h-164v-1603q0 -17 -1.5 -28t-6.5 -27.5t-19.5 -25.5t-36.5 -9q-21 0 -35 9t-19 26t-6 27.5t-1 27.5v758q-283 17 -457 149t-174 336
q0 138 82 250.5t216.5 173.5t289.5 61h561q18 0 29 -1t28 -6.5t26 -19.5t9 -36z" />
    <glyph glyph-name="periodcentered" unicode="&#xb7;" horiz-adv-x="569" 
d="M444 651q0 -66 -46.5 -112.5t-112.5 -46.5t-113 46.5t-47 112.5t47 113t113 47t112.5 -47t46.5 -113z" />
    <glyph glyph-name="cedilla" unicode="&#xb8;" horiz-adv-x="1046" 
d="M838 -238q0 -25 -7.5 -46.5t-25 -37.5t-35.5 -29t-49.5 -22t-56.5 -15.5t-66.5 -10.5t-68.5 -6.5t-74.5 -3.5t-73 -1h-74.5h-98v99h49q50 0 73.5 0.5t69 2t69.5 6t52 12.5t40.5 21t12.5 31q0 72 -149 72v176h197v-78q86 0 150.5 -48t64.5 -122z" />
    <glyph glyph-name="one.superior" unicode="&#xb9;" horiz-adv-x="854" 
d="M729 623q-66 4 -295 4q-227 0 -293 -4v57h205v637q-86 -25 -190 -25h-31v58h31q184 0 295 69q14 8 32 8q19 0 27.5 -4.5t10 -11t1.5 -22.5v-709h207v-57z" />
    <glyph glyph-name="ordmasculine" unicode="&#xba;" horiz-adv-x="987" 
d="M932 653q0 -17 -19 -36t-51 -19h-708q-32 0 -51 19t-19 36t19 36.5t51 19.5h708q32 0 51 -19.5t19 -36.5zM932 1092q0 -139 -115 -230.5t-323 -91.5t-323.5 91t-115.5 231q0 147 116.5 241t322.5 94q205 0 321.5 -94t116.5 -241zM713 1106q0 48 -1 74t-10 63t-26 60
q-53 73 -182 73q-63 0 -113.5 -22t-75.5 -62q-14 -22 -21.5 -57t-8.5 -59.5t-1 -69.5q0 -36 0.5 -55.5t5 -53.5t12.5 -54t24 -45t38.5 -38.5t58 -23t81.5 -9.5t81 9.5t58 23t39 38.5t24 44.5t12 54t4.5 54t0.5 55.5z" />
    <glyph glyph-name="guillemotright" unicode="&#xbb;" horiz-adv-x="1308" 
d="M1042 506q11 -11 11 -23q0 -13 -11 -20q-210 -186 -311 -445q-7 -18 -26 -18h-17q-13 0 -21 9t-8 26q46 233 156 448q-110 215 -156 451q0 15 8.5 24t20.5 9h17q20 0 26 -19q99 -255 311 -442zM645 506q10 -10 10 -23t-10 -20q-210 -186 -311 -445q-7 -18 -27 -18h-16
q-13 0 -21 9t-8 26q46 233 156 448q-110 215 -156 451q0 15 8.5 24t20.5 9h16q21 0 27 -19q99 -255 311 -442z" />
    <glyph glyph-name="onequarter" unicode="&#xbc;" horiz-adv-x="2013" 
d="M729 623q-66 4 -295 4q-227 0 -293 -4v57h205v637q-86 -25 -190 -25h-31v58h31q184 0 295 69q14 8 32 8q19 0 27.5 -4.5t10 -11t1.5 -22.5v-709h207v-57zM1886 0q-51 4 -237 4q-199 0 -254 -4v57h166v136h-426v57l516 536q13 14 20 17.5t29 3.5q30 0 37.5 -7t7.5 -34
v-516h141v-57h-141v-136h141v-57zM1638 1364q0 -18 -10 -35l-942 -1323q-20 -26 -51 -26q-25 0 -43.5 17.5t-18.5 43.5q0 19 13 35l942 1323q16 26 49 26q26 0 43.5 -17.5t17.5 -43.5zM1577 250v381l-365 -381h365z" />
    <glyph glyph-name="onehalf" unicode="&#xbd;" horiz-adv-x="2013" 
d="M729 623q-66 4 -295 4q-227 0 -293 -4v57h205v637q-86 -25 -190 -25h-31v58h31q184 0 295 69q14 8 32 8q19 0 27.5 -4.5t10 -11t1.5 -22.5v-709h207v-57zM1886 272l-45 -272h-633v23q0 19 3 24t18 16l295 252q159 135 159 256q0 73 -51.5 125t-142.5 52q-88 0 -152 -43
q84 -22 84 -89q0 -42 -33 -66t-73 -24q-37 0 -72 21.5t-35 70.5q0 82 91.5 134.5t226.5 52.5q159 0 259.5 -63.5t100.5 -168.5q0 -34 -12.5 -64.5t-30 -53.5t-56.5 -52.5t-70 -49.5t-93 -58l-211 -141h215q136 0 152 8q6 2 11 11.5t9.5 24t7.5 26.5t6.5 28.5t4.5 19.5h67z
M1538 1364q0 -18 -10 -35l-942 -1323q-20 -26 -51 -26q-25 0 -43.5 17.5t-18.5 43.5q0 20 12 35l942 1323q16 26 50 26q26 0 43.5 -17.5t17.5 -43.5z" />
    <glyph glyph-name="threequarters" unicode="&#xbe;" horiz-adv-x="2013" 
d="M846 844q0 -43 -21.5 -83.5t-64.5 -75t-116.5 -55t-168.5 -20.5q-144 0 -239 51.5t-95 133.5q0 44 33 69t82 25q48 0 79.5 -25.5t31.5 -66.5q0 -37 -23.5 -60.5t-60.5 -31.5q81 -43 184 -43q44 0 75 14.5t46 33t23 48.5t9 46t1 42q0 27 -1 43.5t-9.5 46t-24 47
t-47.5 31.5t-78 14h-66q-17 0 -23.5 1t-12 6t-5.5 16q0 20 17 20q7 2 71 6q43 2 75 21t47 41.5t23.5 53t9.5 44t1 25.5q0 20 -3.5 36t-14.5 37t-39 33t-70 12q-96 0 -164 -45q8 0 25.5 -5.5t39 -27t21.5 -53.5q0 -35 -27 -59.5t-75 -24.5q-44 0 -73.5 23.5t-29.5 62.5
q0 75 80.5 125.5t210.5 50.5q151 0 235.5 -48t84.5 -122t-61.5 -126.5t-147.5 -75.5q76 -13 129.5 -38t79 -56.5t36.5 -59.5t11 -57zM1886 0q-51 4 -237 4q-199 0 -254 -4v57h166v136h-426v57l516 536q13 14 20 17.5t29 3.5q30 0 37.5 -7t7.5 -34v-516h141v-57h-141v-136
h141v-57zM1638 1364q0 -18 -10 -35l-942 -1323q-20 -26 -51 -26q-25 0 -43.5 17.5t-18.5 43.5q0 19 13 35l942 1323q16 26 49 26q26 0 43.5 -17.5t17.5 -43.5zM1577 250v381l-365 -381h365z" />
    <glyph glyph-name="Agrave" unicode="&#xc0;" horiz-adv-x="1779" 
d="M1694 0q-72 6 -334 6q-283 0 -361 -6v96h195l-123 299h-549l-102 -248l-8 -24q0 -12 45.5 -18.5t90.5 -7.5l46 -1v-96q-76 6 -270 6l-240 -6v96h43q75 0 112 6t46 14t16 27l508 1233q12 31 26 42.5t54 11.5q22 0 33 -2t24.5 -14.5t24.5 -37.5l524 -1280h199v-96z
M1030 492l-233 569l-234 -569h467zM1049 1597l-50 -86l-331 111q-20 7 -30 11t-26.5 14t-26.5 27t-14 40q-12 57 24.5 102.5t94.5 45.5q33 0 84 -37q35 -27 142.5 -117.5t132.5 -110.5z" />
    <glyph glyph-name="Aacute" unicode="&#xc1;" horiz-adv-x="1779" 
d="M1694 0q-72 6 -334 6q-283 0 -361 -6v96h195l-123 299h-549l-102 -248l-8 -24q0 -12 45.5 -18.5t90.5 -7.5l46 -1v-96q-76 6 -270 6l-240 -6v96h43q75 0 112 6t46 14t16 27l508 1233q12 31 26 42.5t54 11.5q22 0 33 -2t24.5 -14.5t24.5 -37.5l524 -1280h199v-96z
M1030 492l-233 569l-234 -569h467zM1208 1714q-4 -23 -13.5 -40t-26 -27t-26.5 -14.5t-30 -10.5l-332 -111l-49 86q25 20 132.5 110.5t142.5 117.5q51 37 84 37q58 0 94 -45.5t24 -102.5z" />
    <glyph glyph-name="Acircumflex" unicode="&#xc2;" horiz-adv-x="1779" 
d="M1694 0q-72 6 -334 6q-283 0 -361 -6v96h195l-123 299h-549l-102 -248l-8 -24q0 -12 45.5 -18.5t90.5 -7.5l46 -1v-96q-76 6 -270 6l-240 -6v96h43q75 0 112 6t46 14t16 27l508 1233q12 31 26 42.5t54 11.5q22 0 33 -2t24.5 -14.5t24.5 -37.5l524 -1280h199v-96z
M1030 492l-233 569l-234 -569h467zM1249 1540l-32 -49l-328 119l-328 -119l-29 49l359 289z" />
    <glyph glyph-name="Atilde" unicode="&#xc3;" horiz-adv-x="1779" 
d="M1694 0q-72 6 -334 6q-283 0 -361 -6v96h195l-123 299h-549l-102 -248l-8 -24q0 -12 45.5 -18.5t90.5 -7.5l46 -1v-96q-76 6 -270 6l-240 -6v96h43q75 0 112 6t46 14t16 27l508 1233q12 31 26 42.5t54 11.5q22 0 33 -2t24.5 -14.5t24.5 -37.5l524 -1280h199v-96z
M1030 492l-233 569l-234 -569h467zM1282 1661q-11 -11 -49.5 -53t-50.5 -54q-63 -63 -148 -63q-56 0 -162 35t-163 35q-95 0 -156 -70l-53 51q12 12 50.5 54t49.5 53q63 63 148 63q55 0 161 -35t164 -35q95 0 156 70z" />
    <glyph glyph-name="Adieresis" unicode="&#xc4;" horiz-adv-x="1779" 
d="M1694 0q-72 6 -334 6q-283 0 -361 -6v96h195l-123 299h-549l-102 -248l-8 -24q0 -12 45.5 -18.5t90.5 -7.5l46 -1v-96q-76 6 -270 6l-240 -6v96h43q75 0 112 6t46 14t16 27l508 1233q12 31 26 42.5t54 11.5q22 0 33 -2t24.5 -14.5t24.5 -37.5l524 -1280h199v-96z
M1030 492l-233 569l-234 -569h467zM723 1634q0 -59 -41.5 -101t-101.5 -42t-102 42t-42 101q0 60 42 102t102 42t101.5 -42t41.5 -102zM1343 1634q0 -59 -41.5 -101t-101.5 -42t-101.5 42t-41.5 101q0 60 41.5 102t101.5 42t101.5 -42t41.5 -102z" />
    <glyph glyph-name="Aring" unicode="&#xc5;" horiz-adv-x="1779" 
d="M1694 0q-72 6 -334 6q-283 0 -361 -6v96h195l-123 299h-549l-102 -248l-8 -24q0 -12 45.5 -18.5t90.5 -7.5l46 -1v-96q-76 6 -270 6l-240 -6v96h43q75 0 112 6t46 14t16 27l508 1233q12 31 26 42.5t54 11.5q22 0 33 -2t24.5 -14.5t24.5 -37.5l524 -1280h199v-96z
M1030 492l-233 569l-234 -569h467zM1024 1602q0 24 -7 40.5t-18 26t-30 14.5t-35.5 6t-42.5 1t-42.5 -1t-35.5 -6t-30 -14.5t-18 -26t-7 -40.5q0 -56 31.5 -72.5t101.5 -16.5t101.5 16.5t31.5 72.5zM1135 1599q0 -66 -59 -117.5t-185 -51.5q-124 0 -184 51.5t-60 122.5
q0 66 59 118t185 52q123 0 183.5 -51.5t60.5 -123.5z" />
    <glyph glyph-name="AE" unicode="&#xc6;" horiz-adv-x="2134" 
d="M2066 561l-94 -561h-1151v96h166v531h-362l-213 -508q55 -23 182 -23v-96q-76 6 -268 6l-242 -6v96h43q53 0 104 6q40 4 50 10.5t22 32.5l492 1164h-160v96h1302l64 -494h-96q-6 46 -11 77.5t-14 69.5t-19 63.5t-26 54t-36.5 47t-48.5 36.5t-62.5 28t-79 16t-97.5 6h-254
v-586h129q59 0 100 11.5t64.5 29.5t36 50.5t16 65t3.5 83.5h96v-576h-96q0 64 -6.5 102.5t-28.5 73t-67 49.5t-118 15h-129v-531h263q105 0 181 24.5t120 59t75 102.5t44.5 124t29.5 155h96zM987 723v586h-76l-245 -586h321z" />
    <glyph glyph-name="Ccedilla" unicode="&#xc7;" horiz-adv-x="1701" 
d="M1569 465q0 -83 -37 -164t-104 -148t-169.5 -113.5t-224.5 -57.5v-50q86 0 150.5 -48t64.5 -122q0 -25 -7.5 -46.5t-25 -37.5t-35.5 -29t-49.5 -22t-56 -15.5t-66 -10.5t-68.5 -6.5t-74.5 -3.5t-73 -1h-74.5h-98v99h49q50 0 73.5 0.5t69 2t69.5 6t52 12.5t40.5 21
t12.5 31q0 72 -149 72v150q-327 32 -517 228.5t-190 489.5q0 157 57.5 290.5t162.5 229.5t260 150.5t343 54.5q231 0 404 -139l135 121q21 18 39 18q26 0 31.5 -11.5t5.5 -45.5v-440q0 -40 -8.5 -49t-47.5 -9q-35 0 -42.5 6.5t-12.5 36.5q-33 191 -162 303.5t-299 112.5
q-262 0 -417 -157q-136 -142 -136 -472q0 -150 26.5 -260.5t94.5 -193.5q75 -89 192 -131.5t247 -42.5q64 0 127 15t123.5 47t107 78t77 113t34.5 146q1 24 11.5 29.5t35.5 5.5q29 0 39 -7t10 -36z" />
    <glyph glyph-name="Egrave" unicode="&#xc8;" horiz-adv-x="1548" 
d="M1481 561l-95 -561h-1306v96h221v1200h-221v97h1272l63 -494h-96q-8 59 -16 100.5t-23 86t-35 74.5t-50.5 57.5t-70.5 43.5t-95.5 25.5t-125.5 9.5h-311v-526h113q73 0 117.5 15t66 49.5t27.5 72.5t6 103h96v-576h-96q0 65 -6.5 103t-28 72.5t-66 49.5t-116.5 15h-113
v-578h311q80 0 143.5 11.5t109.5 30.5t81.5 52.5t58 68t40 87.5t27.5 99.5t21 115.5h97zM932 1597l-49 -86l-332 111q-20 6 -30 10.5t-26.5 14.5t-26 27t-13.5 40q-12 57 24 102.5t94 45.5q33 0 84 -37q35 -27 142.5 -117.5t132.5 -110.5z" />
    <glyph glyph-name="Eacute" unicode="&#xc9;" horiz-adv-x="1548" 
d="M1481 561l-95 -561h-1306v96h221v1200h-221v97h1272l63 -494h-96q-8 59 -16 100.5t-23 86t-35 74.5t-50.5 57.5t-70.5 43.5t-95.5 25.5t-125.5 9.5h-311v-526h113q73 0 117.5 15t66 49.5t27.5 72.5t6 103h96v-576h-96q0 65 -6.5 103t-28 72.5t-66 49.5t-116.5 15h-113
v-578h311q80 0 143.5 11.5t109.5 30.5t81.5 52.5t58 68t40 87.5t27.5 99.5t21 115.5h97zM1092 1714q-4 -23 -14 -40t-26.5 -27t-26.5 -14t-30 -11l-331 -111l-50 86q25 20 132.5 110.5t142.5 117.5q51 37 84 37q58 0 94.5 -45.5t24.5 -102.5z" />
    <glyph glyph-name="Ecircumflex" unicode="&#xca;" horiz-adv-x="1548" 
d="M1481 561l-95 -561h-1306v96h221v1200h-221v97h1272l63 -494h-96q-8 59 -16 100.5t-23 86t-35 74.5t-50.5 57.5t-70.5 43.5t-95.5 25.5t-125.5 9.5h-311v-526h113q73 0 117.5 15t66 49.5t27.5 72.5t6 103h96v-576h-96q0 65 -6.5 103t-28 72.5t-66 49.5t-116.5 15h-113
v-578h311q80 0 143.5 11.5t109.5 30.5t81.5 52.5t58 68t40 87.5t27.5 99.5t21 115.5h97zM1133 1540l-33 -49l-328 119l-328 -119l-28 49l358 289z" />
    <glyph glyph-name="Edieresis" unicode="&#xcb;" horiz-adv-x="1548" 
d="M1481 561l-95 -561h-1306v96h221v1200h-221v97h1272l63 -494h-96q-8 59 -16 100.5t-23 86t-35 74.5t-50.5 57.5t-70.5 43.5t-95.5 25.5t-125.5 9.5h-311v-526h113q73 0 117.5 15t66 49.5t27.5 72.5t6 103h96v-576h-96q0 65 -6.5 103t-28 72.5t-66 49.5t-116.5 15h-113
v-578h311q80 0 143.5 11.5t109.5 30.5t81.5 52.5t58 68t40 87.5t27.5 99.5t21 115.5h97zM606 1634q0 -59 -41.5 -101t-101.5 -42t-102 42t-42 101q0 60 42 102t102 42t101.5 -42t41.5 -102zM1227 1634q0 -59 -42 -101t-102 -42t-101.5 42t-41.5 101q0 60 41.5 102t101.5 42
t102 -42t42 -102z" />
    <glyph glyph-name="Igrave" unicode="&#xcc;" horiz-adv-x="892" 
d="M825 0q-84 6 -379 6q-294 0 -378 -6v96h233v1213h-233v96q84 -6 378 -6q295 0 379 6v-96h-233v-1213h233v-96zM606 1597l-49 -86l-332 111q-20 6 -30 10.5t-26.5 14.5t-26 27t-13.5 40q-12 57 24.5 102.5t94.5 45.5q33 0 84 -37q35 -27 142 -117.5t132 -110.5z" />
    <glyph glyph-name="Iacute" unicode="&#xcd;" horiz-adv-x="892" 
d="M825 0q-84 6 -379 6q-294 0 -378 -6v96h233v1213h-233v96q84 -6 378 -6q295 0 379 6v-96h-233v-1213h233v-96zM766 1714q-4 -23 -13.5 -40t-26 -27t-26.5 -14.5t-30 -10.5l-332 -111l-49 86q25 20 132 110.5t142 117.5q51 37 84 37q58 0 94.5 -45.5t24.5 -102.5z" />
    <glyph glyph-name="Icircumflex" unicode="&#xce;" horiz-adv-x="892" 
d="M825 0q-84 6 -379 6q-294 0 -378 -6v96h233v1213h-233v96q84 -6 378 -6q295 0 379 6v-96h-233v-1213h233v-96zM807 1540l-33 -49l-328 119l-327 -119l-29 49l359 289z" />
    <glyph glyph-name="Idieresis" unicode="&#xcf;" horiz-adv-x="892" 
d="M825 0q-84 6 -379 6q-294 0 -378 -6v96h233v1213h-233v96q84 -6 378 -6q295 0 379 6v-96h-233v-1213h233v-96zM281 1634q0 -59 -42 -101t-102 -42t-101.5 42t-41.5 101q0 60 41.5 102t101.5 42t102 -42t42 -102zM901 1634q0 -59 -41.5 -101t-101.5 -42t-102 42t-42 101
q0 60 42 102t102 42t101.5 -42t41.5 -102z" />
    <glyph glyph-name="Eth" unicode="&#xd0;" horiz-adv-x="1806" 
d="M1673 690q0 -214 -94 -372t-253.5 -238t-362.5 -80h-883v96h221v557h-221v99h221v557h-221v96h881q152 0 282.5 -49t226 -139t149.5 -225.5t54 -301.5zM1372 692q0 155 -18.5 258t-69.5 176q-69 98 -178 140.5t-227 42.5h-299v-557h323v-99h-323v-557h299q72 0 139.5 13
t142.5 53.5t121 105.5q50 69 70 163.5t20 260.5z" />
    <glyph glyph-name="Ntilde" unicode="&#xd1;" horiz-adv-x="1843" 
d="M1761 1309h-51q-62 0 -111 -6q-42 -4 -50.5 -12t-8.5 -42v-1183q0 -22 -1 -31t-6 -19t-16.5 -13t-31.5 -3q-24 0 -32 4t-23 23l-1020 1200v-1071q0 -34 8.5 -42t52.5 -12q55 -6 109 -6h51v-96q-84 6 -277 6q-196 0 -274 -6v96h51q62 0 111 6q42 4 50.5 12t8.5 42v1153
h-221v96h469q31 0 40 -4t27 -23l816 -958v829q0 34 -9 42t-53 12q-56 6 -108 6h-52v96q84 -6 277 -6q196 0 274 6v-96zM1315 1661q-11 -12 -50 -54t-51 -53q-63 -63 -147 -63q-56 0 -162 35t-164 35q-94 0 -155 -70l-54 51q11 11 50 53t51 54q63 63 147 63q56 0 162 -35
t164 -35q95 0 156 70z" />
    <glyph glyph-name="Ograve" unicode="&#xd2;" horiz-adv-x="1769" 
d="M1636 694q0 -157 -52 -289t-147.5 -227t-237.5 -148t-316 -53q-172 0 -313.5 52.5t-237.5 147t-148.5 227t-52.5 290.5q0 161 52.5 296t148.5 232t238 151t315 54q341 0 546 -200.5t205 -532.5zM1323 725q0 131 -16.5 235.5t-69.5 192.5q-59 96 -154 144.5t-200 48.5
q-98 0 -190 -44t-152 -133q-60 -93 -78.5 -203t-18.5 -241q0 -145 18 -252.5t66 -196.5q59 -109 156 -161t199 -52q96 0 189.5 46t156.5 149q40 66 62 155t27 156t5 156zM1042 1597l-49 -86l-331 111q-20 7 -30 11t-26.5 14t-26.5 27t-14 40q-12 57 24.5 102.5t94.5 45.5
q33 0 84 -37q35 -27 142 -117.5t132 -110.5z" />
    <glyph glyph-name="Oacute" unicode="&#xd3;" horiz-adv-x="1769" 
d="M1636 694q0 -157 -52 -289t-147.5 -227t-237.5 -148t-316 -53q-172 0 -313.5 52.5t-237.5 147t-148.5 227t-52.5 290.5q0 161 52.5 296t148.5 232t238 151t315 54q341 0 546 -200.5t205 -532.5zM1323 725q0 131 -16.5 235.5t-69.5 192.5q-59 96 -154 144.5t-200 48.5
q-98 0 -190 -44t-152 -133q-60 -93 -78.5 -203t-18.5 -241q0 -145 18 -252.5t66 -196.5q59 -109 156 -161t199 -52q96 0 189.5 46t156.5 149q40 66 62 155t27 156t5 156zM1202 1714q-4 -23 -13.5 -40t-26 -27t-26.5 -14.5t-30 -10.5l-332 -111l-49 86q25 20 132 110.5
t142 117.5q51 37 84 37q58 0 94.5 -45.5t24.5 -102.5z" />
    <glyph glyph-name="Ocircumflex" unicode="&#xd4;" horiz-adv-x="1769" 
d="M1636 694q0 -157 -52 -289t-147.5 -227t-237.5 -148t-316 -53q-172 0 -313.5 52.5t-237.5 147t-148.5 227t-52.5 290.5q0 161 52.5 296t148.5 232t238 151t315 54q341 0 546 -200.5t205 -532.5zM1323 725q0 131 -16.5 235.5t-69.5 192.5q-59 96 -154 144.5t-200 48.5
q-98 0 -190 -44t-152 -133q-60 -93 -78.5 -203t-18.5 -241q0 -145 18 -252.5t66 -196.5q59 -109 156 -161t199 -52q96 0 189.5 46t156.5 149q40 66 62 155t27 156t5 156zM1243 1540l-33 -49l-327 119l-328 -119l-29 49l359 289z" />
    <glyph glyph-name="Otilde" unicode="&#xd5;" horiz-adv-x="1769" 
d="M1636 694q0 -157 -52 -289t-147.5 -227t-237.5 -148t-316 -53q-172 0 -313.5 52.5t-237.5 147t-148.5 227t-52.5 290.5q0 161 52.5 296t148.5 232t238 151t315 54q341 0 546 -200.5t205 -532.5zM1323 725q0 131 -16.5 235.5t-69.5 192.5q-59 96 -154 144.5t-200 48.5
q-98 0 -190 -44t-152 -133q-60 -93 -78.5 -203t-18.5 -241q0 -145 18 -252.5t66 -196.5q59 -109 156 -161t199 -52q96 0 189.5 46t156.5 149q40 66 62 155t27 156t5 156zM1276 1661q-12 -11 -50.5 -53l-49.5 -54q-63 -63 -148 -63q-56 0 -162 35t-164 35q-94 0 -155 -70
l-53 51l49.5 54t50.5 53q63 63 147 63q56 0 162 -35t164 -35q95 0 156 70z" />
    <glyph glyph-name="Odieresis" unicode="&#xd6;" horiz-adv-x="1769" 
d="M1636 694q0 -157 -52 -289t-147.5 -227t-237.5 -148t-316 -53q-172 0 -313.5 52.5t-237.5 147t-148.5 227t-52.5 290.5q0 161 52.5 296t148.5 232t238 151t315 54q341 0 546 -200.5t205 -532.5zM1323 725q0 131 -16.5 235.5t-69.5 192.5q-59 96 -154 144.5t-200 48.5
q-98 0 -190 -44t-152 -133q-60 -93 -78.5 -203t-18.5 -241q0 -145 18 -252.5t66 -196.5q59 -109 156 -161t199 -52q96 0 189.5 46t156.5 149q40 66 62 155t27 156t5 156zM717 1634q0 -59 -42 -101t-102 -42t-101.5 42t-41.5 101q0 60 41.5 102t101.5 42t102 -42t42 -102z
M1337 1634q0 -59 -41.5 -101t-101.5 -42t-101.5 42t-41.5 101q0 60 41.5 102t101.5 42t101.5 -42t41.5 -102z" />
    <glyph glyph-name="multiply" unicode="&#xd7;" horiz-adv-x="1830" 
d="M1468 -41q-44 -44 -104 16l-449 449l-448 -447q-63 -63 -107 -18q-16 16 -19.5 32t5 32t15 23.5t18.5 19.5l446 448l-448 449q-12 12 -17.5 18.5t-14 22t-5 31.5t19.5 32q44 45 105 -16l450 -449l447 447q12 12 19.5 18t23 14.5t31.5 5t32 -19.5q44 -44 -18 -106
l-446 -447l448 -451q11 -11 17 -18.5t14 -22.5t4.5 -31t-19.5 -32z" />
    <glyph glyph-name="Oslash" unicode="&#xd8;" horiz-adv-x="1830" 
d="M1698 696q0 -155 -53 -287t-151.5 -228t-247.5 -150t-333 -54q-220 0 -401 82l-129 -182q-2 1 -15.5 11t-29.5 21.5t-21 14.5l123 176q-87 55 -150.5 129.5t-96.5 155.5t-47.5 157t-14.5 154q0 153 51 284.5t147.5 231.5t247 157.5t338.5 57.5q225 0 400 -84l131 185
l65 -47l-125 -178q83 -52 145.5 -124.5t97.5 -154.5t52 -163.5t17 -164.5zM1243 1241q-134 113 -330 113q-121 0 -227.5 -48.5t-169.5 -142.5q-32 -50 -52.5 -106.5t-28.5 -122.5t-10.5 -115t-2.5 -123q0 -55 0.5 -88t6 -94t15.5 -104.5t31 -95.5t51 -91zM1407 696
q0 163 -20 277.5t-87 206.5l-714 -1018q129 -111 329 -111q38 0 77.5 5t98 21t116 55t100.5 97q35 48 57.5 108t30.5 131t10 114.5t2 113.5z" />
    <glyph glyph-name="Ugrave" unicode="&#xd9;" horiz-adv-x="1812" 
d="M1731 1309h-52q-61 0 -110 -6q-43 -4 -51.5 -12t-8.5 -42v-780q0 -97 -34 -183.5t-100.5 -156.5t-177 -111t-251.5 -41q-155 0 -279 39t-203 107t-121 157.5t-42 192.5v836h-221v96q78 -6 366 -6q289 0 367 6v-96h-221v-852q0 -35 1 -58.5t8.5 -67t20.5 -74.5t39.5 -68
t64 -60t96 -39t132.5 -16q70 0 132.5 12.5t121 42.5t100.5 75t67.5 115t25.5 158v772q0 34 -9 42t-53 12q-56 6 -108 6h-51v96q84 -6 276 -6q197 0 275 6v-96zM1120 1597l-49 -86l-332 111q-20 6 -30 10.5t-26.5 14.5t-26 27t-13.5 40q-12 57 24.5 102.5t94.5 45.5
q33 0 84 -37q35 -27 142 -117.5t132 -110.5z" />
    <glyph glyph-name="Uacute" unicode="&#xda;" horiz-adv-x="1812" 
d="M1731 1309h-52q-61 0 -110 -6q-43 -4 -51.5 -12t-8.5 -42v-780q0 -97 -34 -183.5t-100.5 -156.5t-177 -111t-251.5 -41q-155 0 -279 39t-203 107t-121 157.5t-42 192.5v836h-221v96q78 -6 366 -6q289 0 367 6v-96h-221v-852q0 -35 1 -58.5t8.5 -67t20.5 -74.5t39.5 -68
t64 -60t96 -39t132.5 -16q70 0 132.5 12.5t121 42.5t100.5 75t67.5 115t25.5 158v772q0 34 -9 42t-53 12q-56 6 -108 6h-51v96q84 -6 276 -6q197 0 275 6v-96zM1280 1714q-4 -23 -13.5 -40t-26 -27t-26.5 -14.5t-30 -10.5l-332 -111l-49 86q25 20 132 110.5t142 117.5
q51 37 84 37q58 0 94.5 -45.5t24.5 -102.5z" />
    <glyph glyph-name="Ucircumflex" unicode="&#xdb;" horiz-adv-x="1812" 
d="M1731 1309h-52q-61 0 -110 -6q-43 -4 -51.5 -12t-8.5 -42v-780q0 -97 -34 -183.5t-100.5 -156.5t-177 -111t-251.5 -41q-155 0 -279 39t-203 107t-121 157.5t-42 192.5v836h-221v96q78 -6 366 -6q289 0 367 6v-96h-221v-852q0 -35 1 -58.5t8.5 -67t20.5 -74.5t39.5 -68
t64 -60t96 -39t132.5 -16q70 0 132.5 12.5t121 42.5t100.5 75t67.5 115t25.5 158v772q0 34 -9 42t-53 12q-56 6 -108 6h-51v96q84 -6 276 -6q197 0 275 6v-96zM1321 1540l-33 -49l-327 119l-328 -119l-29 49l359 289z" />
    <glyph glyph-name="Udieresis" unicode="&#xdc;" horiz-adv-x="1812" 
d="M1731 1309h-52q-61 0 -110 -6q-43 -4 -51.5 -12t-8.5 -42v-780q0 -97 -34 -183.5t-100.5 -156.5t-177 -111t-251.5 -41q-155 0 -279 39t-203 107t-121 157.5t-42 192.5v836h-221v96q78 -6 366 -6q289 0 367 6v-96h-221v-852q0 -35 1 -58.5t8.5 -67t20.5 -74.5t39.5 -68
t64 -60t96 -39t132.5 -16q70 0 132.5 12.5t121 42.5t100.5 75t67.5 115t25.5 158v772q0 34 -9 42t-53 12q-56 6 -108 6h-51v96q84 -6 276 -6q197 0 275 6v-96zM795 1634q0 -59 -42 -101t-102 -42t-101.5 42t-41.5 101q0 60 41.5 102t101.5 42t102 -42t42 -102zM1415 1634
q0 -59 -41.5 -101t-101.5 -42t-102 42t-42 101q0 60 42 102t102 42t101.5 -42t41.5 -102z" />
    <glyph glyph-name="Yacute" unicode="&#xdd;" horiz-adv-x="1779" 
d="M1739 1309h-43q-54 0 -107 -6q-51 -7 -63 -15q-9 -7 -17 -20l-481 -707v-465h223v-96q-78 6 -362 6q-287 0 -361 -6v96h222v465l-510 748h-201v96q72 -6 338 -6q291 0 375 6v-96h-174l415 -609l383 564q7 9 15 24q-56 21 -156 21v96q76 -6 270 -6l234 6v-96zM1208 1714
q-4 -23 -13.5 -40t-26 -27t-26.5 -14.5t-30 -10.5l-332 -111l-49 86q25 20 132.5 110.5t142.5 117.5q51 37 84 37q58 0 94 -45.5t24 -102.5z" />
    <glyph glyph-name="Thorn" unicode="&#xde;" horiz-adv-x="1482" 
d="M1346 760q0 -48 -11.5 -96.5t-46 -104t-88 -97t-147 -69.5t-213.5 -28h-271v-269h222v-96l-357 6l-354 -6v96h221v1213h-221v96l356 -6l355 6v-96h-222v-154h293q116 0 209 -31.5t152.5 -85.5t91 -125.5t31.5 -152.5zM1044 762q0 125 -53 205q-21 32 -47.5 52.5t-55 28
t-44.5 9.5t-39 2h-236v-598h195q17 0 30.5 0.5t45 6.5t55 16.5t53.5 33t49.5 53t33 80t13.5 111.5z" />
    <glyph glyph-name="germandbls" unicode="&#xdf;" horiz-adv-x="1222" 
d="M1155 369q0 -121 -60 -209t-156 -130t-214 -42q-101 0 -160 53t-59 123q0 38 19 63t40.5 33t42.5 8q41 0 72 -29t31 -73q0 -26 -14 -51.5t-38 -38.5q30 -15 60 -15q194 0 194 306q0 446 -307 469h-6q-5 1 -6 1.5t-5.5 1t-5.5 1.5t-4.5 3t-4 4.5t-2.5 6t-2.5 8t-0.5 10.5
q0 17 6.5 25t13.5 9.5t25 2.5q71 4 119.5 26.5t72 58.5t33 74t9.5 85q0 17 -0.5 28.5t-4.5 35.5t-11 40.5t-22 37.5t-35.5 34t-53.5 22t-74 9q-43 0 -77.5 -9.5t-55.5 -23t-36.5 -35.5t-23 -39.5t-11.5 -42t-4.5 -37t-0.5 -30.5v-1143q-82 6 -133 6l-229 -6v96h141v717h-141
v96h141v230q0 144 118.5 219.5t313.5 75.5q116 0 204 -25t138 -66.5t74.5 -90t24.5 -101.5q0 -25 -5 -50.5t-21.5 -59.5t-43 -63.5t-73.5 -60t-109 -51.5q138 -52 227.5 -182.5t89.5 -314.5z" />
    <glyph glyph-name="agrave" unicode="&#xe0;" horiz-adv-x="1144" 
d="M1133 49q0 -18 -4 -28.5t-14.5 -14.5t-19.5 -5t-28 -1h-98q-61 0 -103.5 11.5t-63.5 25.5t-32 39t-12.5 40.5t-1.5 41.5q-38 -73 -114.5 -121.5t-190.5 -48.5q-48 0 -96 5t-104 20.5t-98 40t-70 68t-28 99.5q0 294 666 322v69q0 242 -225 242q-82 0 -148 -14q6 -4 15 -14
t19.5 -35t10.5 -52q0 -61 -38.5 -95t-90.5 -34q-48 0 -87.5 33.5t-39.5 95.5q0 189 367 189q221 0 335.5 -86.5t114.5 -229.5v-440q0 -22 2 -32t13 -22t37.5 -16.5t72.5 -5.5q18 0 27 -1.5t18 -12.5t9 -33zM721 285v194q-35 -2 -68 -6t-87 -13.5t-97.5 -28t-85 -45
t-65 -68.5t-23.5 -95q0 -68 54 -115t132 -47q20 0 45 4t61 18.5t64.5 37.5t49 65.5t20.5 98.5zM721 1118l-62 -76l-309 166q-24 13 -36.5 21.5t-27 32t-14.5 53.5q0 48 37 87.5t86 39.5q22 0 41 -8.5t29.5 -18t26.5 -26.5z" />
    <glyph glyph-name="aacute" unicode="&#xe1;" horiz-adv-x="1144" 
d="M1133 49q0 -18 -4 -28.5t-14.5 -14.5t-19.5 -5t-28 -1h-98q-61 0 -103.5 11.5t-63.5 25.5t-32 39t-12.5 40.5t-1.5 41.5q-38 -73 -114.5 -121.5t-190.5 -48.5q-48 0 -96 5t-104 20.5t-98 40t-70 68t-28 99.5q0 294 666 322v69q0 242 -225 242q-82 0 -148 -14q6 -4 15 -14
t19.5 -35t10.5 -52q0 -61 -38.5 -95t-90.5 -34q-48 0 -87.5 33.5t-39.5 95.5q0 189 367 189q221 0 335.5 -86.5t114.5 -229.5v-440q0 -22 2 -32t13 -22t37.5 -16.5t72.5 -5.5q18 0 27 -1.5t18 -12.5t9 -33zM721 285v194q-35 -2 -68 -6t-87 -13.5t-97.5 -28t-85 -45
t-65 -68.5t-23.5 -95q0 -68 54 -115t132 -47q20 0 45 4t61 18.5t64.5 37.5t49 65.5t20.5 98.5zM872 1315q0 -30 -14 -53.5t-26.5 -32t-36.5 -21.5l-310 -166l-61 76l229 271q16 17 26.5 26.5t29.5 18t41 8.5q49 0 85.5 -39.5t36.5 -87.5z" />
    <glyph glyph-name="acircumflex" unicode="&#xe2;" horiz-adv-x="1144" 
d="M1133 49q0 -18 -4 -28.5t-14.5 -14.5t-19.5 -5t-28 -1h-98q-61 0 -103.5 11.5t-63.5 25.5t-32 39t-12.5 40.5t-1.5 41.5q-38 -73 -114.5 -121.5t-190.5 -48.5q-48 0 -96 5t-104 20.5t-98 40t-70 68t-28 99.5q0 294 666 322v69q0 242 -225 242q-82 0 -148 -14q6 -4 15 -14
t19.5 -35t10.5 -52q0 -61 -38.5 -95t-90.5 -34q-48 0 -87.5 33.5t-39.5 95.5q0 189 367 189q221 0 335.5 -86.5t114.5 -229.5v-440q0 -22 2 -32t13 -22t37.5 -16.5t72.5 -5.5q18 0 27 -1.5t18 -12.5t9 -33zM721 285v194q-35 -2 -68 -6t-87 -13.5t-97.5 -28t-85 -45
t-65 -68.5t-23.5 -95q0 -68 54 -115t132 -47q20 0 45 4t61 18.5t64.5 37.5t49 65.5t20.5 98.5zM936 1075l-41 -45l-324 203l-323 -203l-37 45l362 379z" />
    <glyph glyph-name="atilde" unicode="&#xe3;" horiz-adv-x="1144" 
d="M1133 49q0 -18 -4 -28.5t-14.5 -14.5t-19.5 -5t-28 -1h-98q-61 0 -103.5 11.5t-63.5 25.5t-32 39t-12.5 40.5t-1.5 41.5q-38 -73 -114.5 -121.5t-190.5 -48.5q-48 0 -96 5t-104 20.5t-98 40t-70 68t-28 99.5q0 294 666 322v69q0 242 -225 242q-82 0 -148 -14q6 -4 15 -14
t19.5 -35t10.5 -52q0 -61 -38.5 -95t-90.5 -34q-48 0 -87.5 33.5t-39.5 95.5q0 189 367 189q221 0 335.5 -86.5t114.5 -229.5v-440q0 -22 2 -32t13 -22t37.5 -16.5t72.5 -5.5q18 0 27 -1.5t18 -12.5t9 -33zM721 285v194q-35 -2 -68 -6t-87 -13.5t-97.5 -28t-85 -45
t-65 -68.5t-23.5 -95q0 -68 54 -115t132 -47q20 0 45 4t61 18.5t64.5 37.5t49 65.5t20.5 98.5zM965 1303q-11 -11 -50 -53t-51 -54q-63 -63 -147 -63q-59 0 -162 34q-106 35 -164 35q-95 0 -155 -69l-54 51q12 12 51 53.5t50 52.5q64 64 147 64q56 0 162 -35t164 -35
q94 0 155 70z" />
    <glyph glyph-name="adieresis" unicode="&#xe4;" horiz-adv-x="1144" 
d="M1133 49q0 -18 -4 -28.5t-14.5 -14.5t-19.5 -5t-28 -1h-98q-61 0 -103.5 11.5t-63.5 25.5t-32 39t-12.5 40.5t-1.5 41.5q-38 -73 -114.5 -121.5t-190.5 -48.5q-48 0 -96 5t-104 20.5t-98 40t-70 68t-28 99.5q0 294 666 322v69q0 242 -225 242q-82 0 -148 -14q6 -4 15 -14
t19.5 -35t10.5 -52q0 -61 -38.5 -95t-90.5 -34q-48 0 -87.5 33.5t-39.5 95.5q0 189 367 189q221 0 335.5 -86.5t114.5 -229.5v-440q0 -22 2 -32t13 -22t37.5 -16.5t72.5 -5.5q18 0 27 -1.5t18 -12.5t9 -33zM721 285v194q-35 -2 -68 -6t-87 -13.5t-97.5 -28t-85 -45
t-65 -68.5t-23.5 -95q0 -68 54 -115t132 -47q20 0 45 4t61 18.5t64.5 37.5t49 65.5t20.5 98.5zM453 1243q0 -59 -42 -101t-102 -42t-101.5 42t-41.5 101q0 60 41.5 101.5t101.5 41.5t102 -41.5t42 -101.5zM979 1243q0 -59 -41.5 -101t-101.5 -42t-102 42t-42 101
q0 60 42 101.5t102 41.5t101.5 -41.5t41.5 -101.5z" />
    <glyph glyph-name="aring" unicode="&#xe5;" horiz-adv-x="1144" 
d="M1133 49q0 -18 -4 -28.5t-14.5 -14.5t-19.5 -5t-28 -1h-98q-61 0 -103.5 11.5t-63.5 25.5t-32 39t-12.5 40.5t-1.5 41.5q-38 -73 -114.5 -121.5t-190.5 -48.5q-48 0 -96 5t-104 20.5t-98 40t-70 68t-28 99.5q0 294 666 322v69q0 242 -225 242q-82 0 -148 -14q6 -4 15 -14
t19.5 -35t10.5 -52q0 -61 -38.5 -95t-90.5 -34q-48 0 -87.5 33.5t-39.5 95.5q0 189 367 189q221 0 335.5 -86.5t114.5 -229.5v-440q0 -22 2 -32t13 -22t37.5 -16.5t72.5 -5.5q18 0 27 -1.5t18 -12.5t9 -33zM721 285v194q-35 -2 -68 -6t-87 -13.5t-97.5 -28t-85 -45
t-65 -68.5t-23.5 -95q0 -68 54 -115t132 -47q20 0 45 4t61 18.5t64.5 37.5t49 65.5t20.5 98.5zM707 1239q0 24 -7.5 40.5t-18 26t-29.5 14.5t-36 6t-43 1t-42.5 -1t-35.5 -6t-30 -14.5t-18 -26t-7 -40.5q0 -56 31.5 -72t101.5 -16q71 0 102.5 16t31.5 72zM817 1237
q0 -66 -59 -118t-185 -52q-123 0 -183 51t-60 123q0 30 12.5 58t39.5 54t76 42t115 16q124 0 184 -51.5t60 -122.5z" />
    <glyph glyph-name="ae" unicode="&#xe6;" horiz-adv-x="1701" 
d="M1634 240q0 -15 -11.5 -42t-40 -64t-69.5 -69t-109 -54.5t-149 -22.5q-109 0 -209 33t-174 100q-115 -133 -405 -133q-72 0 -135 10t-124 33t-96.5 69t-35.5 111q0 82 64.5 144t172.5 96q94 29 166 38t254 19v104q0 242 -225 242q-81 0 -150 -14q6 -4 15 -14t19.5 -35
t10.5 -52q0 -61 -38.5 -95t-90.5 -34q-48 0 -87.5 33.5t-39.5 95.5q0 189 369 189q119 0 203 -24.5t153 -78.5l13 -8q6 2 16 10q135 101 326 101q203 0 305 -115q102 -116 102 -309q0 -39 -12.5 -48.5t-52.5 -9.5h-602q1 -34 2.5 -54t8.5 -64.5t18 -73.5t34 -67t54 -61
t79.5 -39.5t108.5 -16.5q82 0 155.5 41.5t106.5 126.5q10 24 18 31t33 7q49 0 49 -36zM1440 514q-2 36 -3.5 54.5t-7 60t-14 66.5t-24.5 59t-37.5 53t-54.5 33t-74 14q-15 0 -32.5 -2.5t-48.5 -11.5t-62.5 -32t-55.5 -58q-55 -79 -59 -236h473zM772 254q0 13 -6 29
q-30 83 -33 155q-114 -2 -206 -26.5t-152 -76.5t-60 -124q0 -61 50.5 -105.5t130.5 -44.5q112 0 194 58t82 135z" />
    <glyph glyph-name="ccedilla" unicode="&#xe7;" horiz-adv-x="1046" 
d="M979 240q0 -7 -7 -27t-28 -54t-52.5 -66t-89 -60.5t-128.5 -38.5v-62q88 0 152.5 -48t64.5 -122q0 -25 -7.5 -46.5t-25 -37.5t-36 -29t-50 -22t-56.5 -15.5t-66.5 -10.5t-68.5 -6.5t-74.5 -3.5t-72.5 -1h-74h-98v99h49q50 0 73.5 0.5t69.5 2t70 6t52 12.5t40.5 21
t12.5 31q0 72 -152 72v162q-186 29 -292.5 153t-106.5 306q0 92 30 174.5t90.5 150.5t163 108t234.5 40q356 0 356 -189q0 -61 -38.5 -95t-90.5 -34q-48 0 -87.5 33.5t-39.5 95.5q0 58 41 95q-54 12 -133 12q-54 0 -97.5 -16t-70.5 -38.5t-46.5 -60t-29 -67.5t-14.5 -74.5
t-5.5 -66.5t-0.5 -58q0 -395 285 -395q187 0 256 168q8 21 15 25.5t34 4.5q15 0 22.5 -0.5t17 -7.5t9.5 -20z" />
    <glyph glyph-name="egrave" unicode="&#xe8;" horiz-adv-x="1079" 
d="M1012 240q0 -13 -11 -39.5t-41.5 -64t-74 -70t-119 -55.5t-166.5 -23q-244 0 -389 132t-145 341q0 97 33.5 181t95.5 148t159 101t217 37q212 0 326 -111q47 -47 74.5 -114.5t34 -112.5t6.5 -88q0 -38 -13.5 -47t-52.5 -9h-618q0 -33 0.5 -54.5t6.5 -64.5t16 -73.5
t31.5 -67.5t51.5 -60.5t77 -39.5t107 -16q100 0 180.5 45t112.5 118q10 27 18.5 35t33.5 8q49 0 49 -36zM817 514q-9 340 -246 340q-52 0 -105 -25t-89 -81q-20 -32 -31 -77.5t-13 -71t-5 -85.5h489zM688 1118l-61 -76l-310 166q-24 13 -36.5 21.5t-26.5 32t-14 53.5
q0 48 36.5 87.5t85.5 39.5q22 0 41 -8.5t29.5 -18t26.5 -26.5z" />
    <glyph glyph-name="eacute" unicode="&#xe9;" horiz-adv-x="1079" 
d="M1012 240q0 -13 -11 -39.5t-41.5 -64t-74 -70t-119 -55.5t-166.5 -23q-244 0 -389 132t-145 341q0 97 33.5 181t95.5 148t159 101t217 37q212 0 326 -111q47 -47 74.5 -114.5t34 -112.5t6.5 -88q0 -38 -13.5 -47t-52.5 -9h-618q0 -33 0.5 -54.5t6.5 -64.5t16 -73.5
t31.5 -67.5t51.5 -60.5t77 -39.5t107 -16q100 0 180.5 45t112.5 118q10 27 18.5 35t33.5 8q49 0 49 -36zM817 514q-9 340 -246 340q-52 0 -105 -25t-89 -81q-20 -32 -31 -77.5t-13 -71t-5 -85.5h489zM840 1315q0 -30 -14.5 -53.5t-27 -32t-36.5 -21.5l-309 -166l-62 76
l230 271q17 18 26.5 27t28.5 17.5t41 8.5q49 0 86 -39.5t37 -87.5z" />
    <glyph glyph-name="ecircumflex" unicode="&#xea;" horiz-adv-x="1079" 
d="M1012 240q0 -13 -11 -39.5t-41.5 -64t-74 -70t-119 -55.5t-166.5 -23q-244 0 -389 132t-145 341q0 97 33.5 181t95.5 148t159 101t217 37q212 0 326 -111q47 -47 74.5 -114.5t34 -112.5t6.5 -88q0 -38 -13.5 -47t-52.5 -9h-618q0 -33 0.5 -54.5t6.5 -64.5t16 -73.5
t31.5 -67.5t51.5 -60.5t77 -39.5t107 -16q100 0 180.5 45t112.5 118q10 27 18.5 35t33.5 8q49 0 49 -36zM817 514q-9 340 -246 340q-52 0 -105 -25t-89 -81q-20 -32 -31 -77.5t-13 -71t-5 -85.5h489zM903 1075l-41 -45l-323 203l-324 -203l-37 45l363 379z" />
    <glyph glyph-name="edieresis" unicode="&#xeb;" horiz-adv-x="1079" 
d="M1012 240q0 -13 -11 -39.5t-41.5 -64t-74 -70t-119 -55.5t-166.5 -23q-244 0 -389 132t-145 341q0 97 33.5 181t95.5 148t159 101t217 37q212 0 326 -111q47 -47 74.5 -114.5t34 -112.5t6.5 -88q0 -38 -13.5 -47t-52.5 -9h-618q0 -33 0.5 -54.5t6.5 -64.5t16 -73.5
t31.5 -67.5t51.5 -60.5t77 -39.5t107 -16q100 0 180.5 45t112.5 118q10 27 18.5 35t33.5 8q49 0 49 -36zM817 514q-9 340 -246 340q-52 0 -105 -25t-89 -81q-20 -32 -31 -77.5t-13 -71t-5 -85.5h489zM420 1243q0 -59 -42 -101t-102 -42t-101.5 42t-41.5 101q0 60 41.5 101.5
t101.5 41.5t102 -41.5t42 -101.5zM946 1243q0 -59 -41.5 -101t-101.5 -42t-102 42t-42 101q0 60 42 101.5t102 41.5t101.5 -41.5t41.5 -101.5z" />
    <glyph glyph-name="igrave" unicode="&#xec;" horiz-adv-x="653" 
d="M586 0l-240 6l-250 -6v96h142v633q0 58 -21 69t-115 11v96l357 17v-826h127v-96zM475 1118l-61 -76l-310 166q-24 13 -36.5 21.5t-26.5 32t-14 53.5q0 48 37 87.5t86 39.5q22 0 41 -8.5t28.5 -17.5t26.5 -27z" />
    <glyph glyph-name="iacute" unicode="&#xed;" horiz-adv-x="653" 
d="M586 0l-240 6l-250 -6v96h142v633q0 58 -21 69t-115 11v96l357 17v-826h127v-96zM627 1315q0 -30 -14.5 -53.5t-27 -32t-36.5 -21.5l-309 -166l-62 76l230 271q17 18 26.5 27t28.5 17.5t41 8.5q49 0 86 -39.5t37 -87.5z" />
    <glyph glyph-name="icircumflex" unicode="&#xee;" horiz-adv-x="653" 
d="M586 0l-240 6l-250 -6v96h142v633q0 58 -21 69t-115 11v96l357 17v-826h127v-96zM690 1075l-41 -45l-323 203l-324 -203l-37 45l363 379z" />
    <glyph glyph-name="idieresis" unicode="&#xef;" horiz-adv-x="653" 
d="M586 0l-240 6l-250 -6v96h142v633q0 58 -21 69t-115 11v96l357 17v-826h127v-96zM207 1243q0 -59 -42 -101t-102 -42t-101.5 42t-41.5 101q0 60 41.5 101.5t101.5 41.5t102 -41.5t42 -101.5zM733 1243q0 -59 -41.5 -101t-101.5 -42t-102 42t-42 101q0 60 42 101.5
t102 41.5t101.5 -41.5t41.5 -101.5z" />
    <glyph glyph-name="eth" unicode="&#xf0;" 
d="M1110 530q0 -56 -1 -85t-7.5 -79t-19 -84t-37.5 -76t-62 -79q-143 -139 -395 -139q-243 0 -382.5 129.5t-139.5 331.5q0 213 143 346t371 133q133 0 221 -82q-75 212 -252 348l-217 -96l-39 88l160 71q-124 73 -269 91l6 77q228 9 437 -90l231 103l39 -88l-164 -74
q173 -114 279 -293q35 -61 56.5 -121.5t29.5 -124.5t10 -102.5t2 -104.5zM848 440q0 183 -53 283q-36 65 -90.5 98t-118.5 33q-32 0 -64.5 -7t-74 -31.5t-68.5 -65.5q-24 -35 -36 -87t-13.5 -89t-1.5 -105q0 -66 1.5 -103t12.5 -91t33 -91q38 -64 97 -89t116 -25
q42 0 77.5 10t60.5 24.5t45 39t32.5 46.5t21.5 54t13.5 54.5t6.5 54.5t2.5 47t0.5 40z" />
    <glyph glyph-name="ntilde" unicode="&#xf1;" horiz-adv-x="1308" 
d="M1260 0l-259 6l-258 -6v96h142v553q0 111 -28.5 155t-84.5 44q-51 0 -102.5 -20t-98 -58t-75.5 -102t-29 -144v-428h141v-96l-258 6l-258 -6v96h141v633q0 58 -21 69t-120 11v96l352 17v-222q22 43 52 79.5t73 70t103.5 53t130.5 19.5q159 0 237 -69t78 -226v-531h142
v-96zM1047 1303q-11 -11 -50 -53t-51 -54q-63 -63 -147 -63q-59 0 -162 34q-106 35 -164 35q-96 0 -156 -69l-53 51q12 12 51 53.5t50 52.5q64 64 147 64q56 0 162 -35t164 -35q94 0 155 70z" />
    <glyph glyph-name="ograve" unicode="&#xf2;" 
d="M1110 446q0 -96 -34 -178.5t-97.5 -145t-164 -98.5t-226.5 -36q-247 0 -384.5 129.5t-137.5 328.5q0 102 35 190t99.5 153t164.5 102t223 37q244 0 383 -135t139 -347zM848 469q0 67 -1.5 104.5t-11.5 91t-30 85.5q-32 52 -90.5 78t-126.5 26q-76 0 -136.5 -31.5
t-89.5 -87.5q-16 -32 -24 -83.5t-9 -84t-1 -98.5q0 -40 0.5 -61t2.5 -60.5t6.5 -62t13.5 -55.5t21.5 -52.5t32.5 -43t45.5 -35.5t60.5 -20.5t77 -8.5t77 8.5t60.5 20.5t45.5 35.5t32.5 43t21.5 52.5t13.5 55.5t6.5 62t2.5 60.5t0.5 61zM737 1118l-61 -76l-309 166
q-24 13 -36.5 21.5t-27 32t-14.5 53.5q0 48 37 87.5t86 39.5q22 0 41 -8.5t28.5 -17.5t26.5 -27z" />
    <glyph glyph-name="oacute" unicode="&#xf3;" 
d="M1110 446q0 -96 -34 -178.5t-97.5 -145t-164 -98.5t-226.5 -36q-247 0 -384.5 129.5t-137.5 328.5q0 102 35 190t99.5 153t164.5 102t223 37q244 0 383 -135t139 -347zM848 469q0 67 -1.5 104.5t-11.5 91t-30 85.5q-32 52 -90.5 78t-126.5 26q-76 0 -136.5 -31.5
t-89.5 -87.5q-16 -32 -24 -83.5t-9 -84t-1 -98.5q0 -40 0.5 -61t2.5 -60.5t6.5 -62t13.5 -55.5t21.5 -52.5t32.5 -43t45.5 -35.5t60.5 -20.5t77 -8.5t77 8.5t60.5 20.5t45.5 35.5t32.5 43t21.5 52.5t13.5 55.5t6.5 62t2.5 60.5t0.5 61zM889 1315q0 -30 -14.5 -53.5t-27 -32
t-36.5 -21.5l-309 -166l-62 76l230 271q17 18 26.5 27t28.5 17.5t41 8.5q49 0 86 -39.5t37 -87.5z" />
    <glyph glyph-name="ocircumflex" unicode="&#xf4;" 
d="M1110 446q0 -96 -34 -178.5t-97.5 -145t-164 -98.5t-226.5 -36q-247 0 -384.5 129.5t-137.5 328.5q0 102 35 190t99.5 153t164.5 102t223 37q244 0 383 -135t139 -347zM848 469q0 67 -1.5 104.5t-11.5 91t-30 85.5q-32 52 -90.5 78t-126.5 26q-76 0 -136.5 -31.5
t-89.5 -87.5q-16 -32 -24 -83.5t-9 -84t-1 -98.5q0 -40 0.5 -61t2.5 -60.5t6.5 -62t13.5 -55.5t21.5 -52.5t32.5 -43t45.5 -35.5t60.5 -20.5t77 -8.5t77 8.5t60.5 20.5t45.5 35.5t32.5 43t21.5 52.5t13.5 55.5t6.5 62t2.5 60.5t0.5 61zM952 1075l-41 -45l-323 203l-324 -203
l-37 45l363 379z" />
    <glyph glyph-name="otilde" unicode="&#xf5;" 
d="M1110 446q0 -96 -34 -178.5t-97.5 -145t-164 -98.5t-226.5 -36q-247 0 -384.5 129.5t-137.5 328.5q0 102 35 190t99.5 153t164.5 102t223 37q244 0 383 -135t139 -347zM848 469q0 67 -1.5 104.5t-11.5 91t-30 85.5q-32 52 -90.5 78t-126.5 26q-76 0 -136.5 -31.5
t-89.5 -87.5q-16 -32 -24 -83.5t-9 -84t-1 -98.5q0 -40 0.5 -61t2.5 -60.5t6.5 -62t13.5 -55.5t21.5 -52.5t32.5 -43t45.5 -35.5t60.5 -20.5t77 -8.5t77 8.5t60.5 20.5t45.5 35.5t32.5 43t21.5 52.5t13.5 55.5t6.5 62t2.5 60.5t0.5 61zM981 1303q-12 -12 -50.5 -54
t-49.5 -53q-63 -63 -148 -63q-59 0 -162 34q-106 35 -163 35q-96 0 -156 -69l-53 51q11 11 49.5 52.5t50.5 53.5q64 64 147 64q56 0 162 -35t164 -35q95 0 156 70z" />
    <glyph glyph-name="odieresis" unicode="&#xf6;" 
d="M1110 446q0 -96 -34 -178.5t-97.5 -145t-164 -98.5t-226.5 -36q-247 0 -384.5 129.5t-137.5 328.5q0 102 35 190t99.5 153t164.5 102t223 37q244 0 383 -135t139 -347zM848 469q0 67 -1.5 104.5t-11.5 91t-30 85.5q-32 52 -90.5 78t-126.5 26q-76 0 -136.5 -31.5
t-89.5 -87.5q-16 -32 -24 -83.5t-9 -84t-1 -98.5q0 -40 0.5 -61t2.5 -60.5t6.5 -62t13.5 -55.5t21.5 -52.5t32.5 -43t45.5 -35.5t60.5 -20.5t77 -8.5t77 8.5t60.5 20.5t45.5 35.5t32.5 43t21.5 52.5t13.5 55.5t6.5 62t2.5 60.5t0.5 61zM469 1243q0 -59 -41.5 -101
t-101.5 -42t-102 42t-42 101q0 60 42 101.5t102 41.5t101.5 -41.5t41.5 -101.5zM995 1243q0 -59 -41.5 -101t-101.5 -42t-101.5 42t-41.5 101q0 60 41.5 101.5t101.5 41.5t101.5 -41.5t41.5 -101.5z" />
    <glyph glyph-name="divide" unicode="&#xf7;" horiz-adv-x="1830" 
d="M1698 512q0 -61 -84 -61h-1399q-84 0 -84 61q0 22 9.5 36t27 19.5t29 6.5t28.5 1h1379q18 0 29 -1t28.5 -6.5t27 -19.5t9.5 -36zM1075 1032q0 -66 -47 -113t-113 -47t-112.5 47t-46.5 113t46.5 113t112.5 47t113 -47t47 -113zM1075 -4q0 -66 -47 -113t-113 -47t-112.5 47
t-46.5 113t46.5 113t112.5 47t113 -47t47 -113z" />
    <glyph glyph-name="oslash" unicode="&#xf8;" 
d="M1110 446q0 -96 -34 -178.5t-97.5 -145t-164 -98.5t-226.5 -36q-124 0 -226 35l-149 -242l-61 41l143 231q-65 35 -112 84t-71.5 103t-35 104.5t-10.5 101.5q0 102 35 190t99.5 153t164.5 102t223 37q121 0 227 -37l148 239l61 -40l-143 -232q116 -62 172.5 -173.5
t56.5 -238.5zM762 807q-68 47 -174 47q-83 0 -141 -29.5t-86 -66.5t-43 -102t-17 -103.5t-2 -103.5q0 -69 2 -107.5t16 -94t41 -89.5zM877 449q0 72 -3 115.5t-17 97.5t-42 92l-399 -648q68 -45 172 -45q83 0 141 27.5t86 62.5t43 97t17 99t2 102z" />
    <glyph glyph-name="ugrave" unicode="&#xf9;" horiz-adv-x="1308" 
d="M1260 0l-363 -12v159q-93 -159 -295 -159q-83 0 -144.5 11t-115 38.5t-81.5 81.5t-28 133v477q0 58 -21 69t-120 11v96l375 17v-699q0 -49 3.5 -73.5t19 -48t49.5 -32t92 -8.5q113 0 183.5 76t70.5 201v391q0 58 -21.5 69t-120.5 11v96l375 17v-746q0 -58 21.5 -69
t120.5 -11v-96zM803 1118l-62 -76l-309 166q-24 13 -36.5 21.5t-27 32t-14.5 53.5q0 48 37 87.5t86 39.5q22 0 41 -8.5t28.5 -17.5t26.5 -27z" />
    <glyph glyph-name="uacute" unicode="&#xfa;" horiz-adv-x="1308" 
d="M1260 0l-363 -12v159q-93 -159 -295 -159q-83 0 -144.5 11t-115 38.5t-81.5 81.5t-28 133v477q0 58 -21 69t-120 11v96l375 17v-699q0 -49 3.5 -73.5t19 -48t49.5 -32t92 -8.5q113 0 183.5 76t70.5 201v391q0 58 -21.5 69t-120.5 11v96l375 17v-746q0 -58 21.5 -69
t120.5 -11v-96zM954 1315q0 -30 -14 -53.5t-26.5 -32t-36.5 -21.5l-310 -166l-61 76l229 271q17 18 26.5 27t28.5 17.5t41 8.5q49 0 86 -39.5t37 -87.5z" />
    <glyph glyph-name="ucircumflex" unicode="&#xfb;" horiz-adv-x="1308" 
d="M1260 0l-363 -12v159q-93 -159 -295 -159q-83 0 -144.5 11t-115 38.5t-81.5 81.5t-28 133v477q0 58 -21 69t-120 11v96l375 17v-699q0 -49 3.5 -73.5t19 -48t49.5 -32t92 -8.5q113 0 183.5 76t70.5 201v391q0 58 -21.5 69t-120.5 11v96l375 17v-746q0 -58 21.5 -69
t120.5 -11v-96zM1018 1075l-41 -45l-324 203l-323 -203l-37 45l362 379z" />
    <glyph glyph-name="udieresis" unicode="&#xfc;" horiz-adv-x="1308" 
d="M1260 0l-363 -12v159q-93 -159 -295 -159q-83 0 -144.5 11t-115 38.5t-81.5 81.5t-28 133v477q0 58 -21 69t-120 11v96l375 17v-699q0 -49 3.5 -73.5t19 -48t49.5 -32t92 -8.5q113 0 183.5 76t70.5 201v391q0 58 -21.5 69t-120.5 11v96l375 17v-746q0 -58 21.5 -69
t120.5 -11v-96zM535 1243q0 -59 -42 -101t-102 -42t-101.5 42t-41.5 101q0 60 41.5 101.5t101.5 41.5t102 -41.5t42 -101.5zM1061 1243q0 -59 -41.5 -101t-101.5 -42t-102 42t-42 101q0 60 42 101.5t102 41.5t101.5 -41.5t41.5 -101.5z" />
    <glyph glyph-name="yacute" unicode="&#xfd;" horiz-adv-x="1243" 
d="M1188 813q-63 0 -95 -5.5t-40 -12.5t-17 -25l-440 -936q-47 -100 -134.5 -172t-197.5 -72q-92 0 -155.5 55.5t-63.5 133.5q0 56 35 87.5t82 31.5q52 0 85.5 -33t33.5 -84q0 -33 -14 -58.5t-26.5 -35t-25.5 -15.5q21 -8 49 -8q42 0 78.5 16.5t61 38t49.5 59t37 61t30 63.5
l47 98l-383 813h-131v96l234 -6l254 6v-96h-111l260 -553l236 504l10 24q0 11 -24 17.5t-48 6.5l-24 1v96l186 -6q88 0 162 6v-96zM922 1315q0 -30 -14.5 -53.5t-27 -32t-36.5 -21.5l-309 -166l-62 76l229 271q16 17 26.5 26.5t29.5 18t41 8.5q49 0 86 -39.5t37 -87.5z" />
    <glyph glyph-name="thorn" unicode="&#xfe;" horiz-adv-x="1308" 
d="M1229 457q0 -213 -142.5 -341t-373.5 -128q-150 0 -262 92v-381h141v-96l-258 6l-258 -6v96h141v1530q0 58 -21 69t-120 11v96l362 16v-600q49 38 128.5 69.5t181.5 31.5q219 0 350 -129.5t131 -335.5zM967 457q0 185 -71.5 284t-180.5 99q-50 0 -115 -21t-119 -76
q-22 -22 -26 -31t-4 -38v-434q0 -31 2.5 -39.5t19.5 -28.5q92 -111 217 -111q52 0 99.5 22t88.5 67t65 124t24 183z" />
    <glyph glyph-name="ydieresis" unicode="&#xff;" horiz-adv-x="1243" 
d="M1188 813q-63 0 -95 -5.5t-40 -12.5t-17 -25l-440 -936q-47 -100 -134.5 -172t-197.5 -72q-92 0 -155.5 55.5t-63.5 133.5q0 56 35 87.5t82 31.5q52 0 85.5 -33t33.5 -84q0 -33 -14 -58.5t-26.5 -35t-25.5 -15.5q21 -8 49 -8q42 0 78.5 16.5t61 38t49.5 59t37 61t30 63.5
l47 98l-383 813h-131v96l234 -6l254 6v-96h-111l260 -553l236 504l10 24q0 11 -24 17.5t-48 6.5l-24 1v96l186 -6q88 0 162 6v-96zM502 1243q0 -59 -42 -101t-102 -42t-101.5 42t-41.5 101q0 60 41.5 101.5t101.5 41.5t102 -41.5t42 -101.5zM1028 1243q0 -59 -41.5 -101
t-101.5 -42t-102 42t-42 101q0 60 42 101.5t102 41.5t101.5 -41.5t41.5 -101.5z" />
    <glyph glyph-name="Amacron" unicode="&#x100;" horiz-adv-x="1779" 
d="M1694 0q-72 6 -334 6q-283 0 -361 -6v96h195l-123 299h-549l-102 -248l-8 -24q0 -12 45.5 -18.5t90.5 -7.5l46 -1v-96q-76 6 -270 6l-240 -6v96h43q75 0 112 6t46 14t16 27l508 1233q12 31 26 42.5t54 11.5q22 0 33 -2t24.5 -14.5t24.5 -37.5l524 -1280h199v-96z
M1030 492l-233 569l-234 -569h467zM1315 1532h-848v106h848v-106z" />
    <glyph glyph-name="amacron" unicode="&#x101;" horiz-adv-x="1144" 
d="M1133 49q0 -18 -4 -28.5t-14.5 -14.5t-19.5 -5t-28 -1h-98q-61 0 -103.5 11.5t-63.5 25.5t-32 39t-12.5 40.5t-1.5 41.5q-38 -73 -114.5 -121.5t-190.5 -48.5q-48 0 -96 5t-104 20.5t-98 40t-70 68t-28 99.5q0 294 666 322v69q0 242 -225 242q-82 0 -148 -14q6 -4 15 -14
t19.5 -35t10.5 -52q0 -61 -38.5 -95t-90.5 -34q-48 0 -87.5 33.5t-39.5 95.5q0 189 367 189q221 0 335.5 -86.5t114.5 -229.5v-440q0 -22 2 -32t13 -22t37.5 -16.5t72.5 -5.5q18 0 27 -1.5t18 -12.5t9 -33zM721 285v194q-35 -2 -68 -6t-87 -13.5t-97.5 -28t-85 -45
t-65 -68.5t-23.5 -95q0 -68 54 -115t132 -47q20 0 45 4t61 18.5t64.5 37.5t49 65.5t20.5 98.5zM997 1190h-847v106h847v-106z" />
    <glyph glyph-name="Abreve" unicode="&#x102;" horiz-adv-x="1779" 
d="M1694 0q-72 6 -334 6q-283 0 -361 -6v96h195l-123 299h-549l-102 -248l-8 -24q0 -12 45.5 -18.5t90.5 -7.5l46 -1v-96q-76 6 -270 6l-240 -6v96h43q75 0 112 6t46 14t16 27l508 1233q12 31 26 42.5t54 11.5q22 0 33 -2t24.5 -14.5t24.5 -37.5l524 -1280h199v-96z
M1030 492l-233 569l-234 -569h467zM1253 1894q-3 -114 -55.5 -203t-133.5 -134.5t-173 -45.5t-173 45t-134 134t-56 204h74q3 -119 91.5 -187.5t197.5 -68.5t197.5 68.5t91.5 187.5h73z" />
    <glyph glyph-name="abreve" unicode="&#x103;" horiz-adv-x="1144" 
d="M1133 49q0 -18 -4 -28.5t-14.5 -14.5t-19.5 -5t-28 -1h-98q-61 0 -103.5 11.5t-63.5 25.5t-32 39t-12.5 40.5t-1.5 41.5q-38 -73 -114.5 -121.5t-190.5 -48.5q-48 0 -96 5t-104 20.5t-98 40t-70 68t-28 99.5q0 294 666 322v69q0 242 -225 242q-82 0 -148 -14q6 -4 15 -14
t19.5 -35t10.5 -52q0 -61 -38.5 -95t-90.5 -34q-48 0 -87.5 33.5t-39.5 95.5q0 189 367 189q221 0 335.5 -86.5t114.5 -229.5v-440q0 -22 2 -32t13 -22t37.5 -16.5t72.5 -5.5q18 0 27 -1.5t18 -12.5t9 -33zM721 285v194q-35 -2 -68 -6t-87 -13.5t-97.5 -28t-85 -45
t-65 -68.5t-23.5 -95q0 -68 54 -115t132 -47q20 0 45 4t61 18.5t64.5 37.5t49 65.5t20.5 98.5zM936 1434q-3 -114 -56 -203t-134 -134.5t-173 -45.5t-173 45t-133.5 134t-55.5 204h74q3 -119 91 -187.5t197 -68.5t197.5 68.5t91.5 187.5h74z" />
    <glyph glyph-name="Aogonek" unicode="&#x104;" horiz-adv-x="1779" 
d="M1694 0q-86 6 -254 6q-54 -38 -72.5 -87t-5.5 -88t43.5 -66t67.5 -27q60 0 94 47q15 20 55 -14q12 -9 16.5 -26.5t-4.5 -31.5q-91 -135 -225 -135q-101 0 -166 65t-65 152q0 123 108 211q-204 0 -287 -6v96h195l-123 299h-549l-102 -248l-8 -24q0 -12 45.5 -18.5
t90.5 -7.5l46 -1v-96q-76 6 -270 6l-240 -6v96h43q75 0 112 6t46 14t16 27l508 1233q12 31 26 42.5t54 11.5q22 0 33 -2t24.5 -14.5t24.5 -37.5l524 -1280h199v-96zM1030 492l-233 569l-234 -569h467z" />
    <glyph glyph-name="aogonek" unicode="&#x105;" horiz-adv-x="1144" 
d="M1133 -287q-91 -135 -226 -135q-101 0 -166 65t-65 152q0 61 47 131t108 97q-27 12 -43.5 27.5t-22.5 36.5t-7.5 34t-1.5 37q-38 -73 -114.5 -121.5t-190.5 -48.5q-48 0 -96 5t-104 20.5t-98 40t-70 68t-28 99.5q0 294 666 322v69q0 242 -225 242q-82 0 -148 -14
q6 -4 15 -14t19.5 -35t10.5 -52q0 -61 -38.5 -95t-90.5 -34q-48 0 -87.5 33.5t-39.5 95.5q0 189 367 189q221 0 335.5 -86.5t114.5 -229.5v-440q0 -22 2 -32t13 -22t37.5 -16.5t72.5 -5.5q18 0 27 -1.5t18 -12.5t9 -33q0 -18 -4 -28.5t-14.5 -14.5t-19.5 -5t-28 -1h-98
q-43 -31 -67 -68.5t-26 -71t8.5 -61.5t34 -44.5t52.5 -16.5q60 0 94 47q15 20 55 -14q13 -9 17 -26.5t-4 -31.5zM721 285v194q-35 -2 -68 -6t-87 -13.5t-97.5 -28t-85 -45t-65 -68.5t-23.5 -95q0 -68 54 -115t132 -47q20 0 45 4t61 18.5t64.5 37.5t49 65.5t20.5 98.5z" />
    <glyph glyph-name="Cacute" unicode="&#x106;" horiz-adv-x="1701" 
d="M1569 465q0 -89 -43 -176t-120 -156.5t-195.5 -112.5t-256.5 -43q-188 0 -343 54.5t-260 150.5t-162.5 229.5t-57.5 290.5t57.5 290.5t162.5 229.5t260 150.5t343 54.5q231 0 404 -139l135 121q21 18 39 18q26 0 31.5 -11.5t5.5 -45.5v-440q0 -40 -8.5 -49t-47.5 -9
q-35 0 -42.5 6.5t-12.5 36.5q-33 191 -162 303.5t-299 112.5q-262 0 -417 -157q-136 -142 -136 -472q0 -150 26.5 -260.5t94.5 -193.5q75 -89 192 -131.5t247 -42.5q64 0 127 15t123.5 47t107 78t77 113t34.5 146q1 24 11.5 29.5t35.5 5.5q29 0 39 -7t10 -36zM1255 1714
q-4 -23 -13.5 -40t-26 -27t-26.5 -14.5t-30 -10.5l-332 -111l-49 86q25 20 132.5 110.5t142.5 117.5q51 37 84 37q58 0 94 -45.5t24 -102.5z" />
    <glyph glyph-name="cacute" unicode="&#x107;" horiz-adv-x="1046" 
d="M979 240q0 -8 -8.5 -31.5t-35 -62.5t-67 -73.5t-115 -59.5t-167.5 -25q-233 0 -370.5 130t-137.5 337q0 92 30 174.5t90.5 150.5t163 108t234.5 40q356 0 356 -189q0 -61 -38.5 -95t-90.5 -34q-48 0 -87.5 33.5t-39.5 95.5q0 58 41 95q-54 12 -133 12q-54 0 -97.5 -16
t-70.5 -38.5t-46.5 -60t-29 -67.5t-14.5 -74.5t-5.5 -66.5t-0.5 -58q0 -395 285 -395q187 0 256 168q8 21 15 25.5t34 4.5q15 0 22.5 -0.5t17 -7.5t9.5 -20zM877 1315q0 -30 -14.5 -53.5t-27 -32t-36.5 -21.5l-310 -166l-61 76l229 271q16 17 26.5 26.5t29.5 18t41 8.5
q49 0 86 -39.5t37 -87.5z" />
    <glyph glyph-name="Ccircumflex" unicode="&#x108;" horiz-adv-x="1701" 
d="M1569 465q0 -89 -43 -176t-120 -156.5t-195.5 -112.5t-256.5 -43q-188 0 -343 54.5t-260 150.5t-162.5 229.5t-57.5 290.5t57.5 290.5t162.5 229.5t260 150.5t343 54.5q231 0 404 -139l135 121q21 18 39 18q26 0 31.5 -11.5t5.5 -45.5v-440q0 -40 -8.5 -49t-47.5 -9
q-35 0 -42.5 6.5t-12.5 36.5q-33 191 -162 303.5t-299 112.5q-262 0 -417 -157q-136 -142 -136 -472q0 -150 26.5 -260.5t94.5 -193.5q75 -89 192 -131.5t247 -42.5q64 0 127 15t123.5 47t107 78t77 113t34.5 146q1 24 11.5 29.5t35.5 5.5q29 0 39 -7t10 -36zM1296 1540
l-32 -49l-328 119l-328 -119l-28 49l358 289z" />
    <glyph glyph-name="ccircumflex" unicode="&#x109;" horiz-adv-x="1046" 
d="M979 240q0 -8 -8.5 -31.5t-35 -62.5t-67 -73.5t-115 -59.5t-167.5 -25q-233 0 -370.5 130t-137.5 337q0 92 30 174.5t90.5 150.5t163 108t234.5 40q356 0 356 -189q0 -61 -38.5 -95t-90.5 -34q-48 0 -87.5 33.5t-39.5 95.5q0 58 41 95q-54 12 -133 12q-54 0 -97.5 -16
t-70.5 -38.5t-46.5 -60t-29 -67.5t-14.5 -74.5t-5.5 -66.5t-0.5 -58q0 -395 285 -395q187 0 256 168q8 21 15 25.5t34 4.5q15 0 22.5 -0.5t17 -7.5t9.5 -20zM940 1075l-41 -45l-324 203l-323 -203l-37 45l363 379z" />
    <glyph glyph-name="Cdotaccent" unicode="&#x10a;" horiz-adv-x="1701" 
d="M1569 465q0 -89 -43 -176t-120 -156.5t-195.5 -112.5t-256.5 -43q-188 0 -343 54.5t-260 150.5t-162.5 229.5t-57.5 290.5t57.5 290.5t162.5 229.5t260 150.5t343 54.5q231 0 404 -139l135 121q21 18 39 18q26 0 31.5 -11.5t5.5 -45.5v-440q0 -40 -8.5 -49t-47.5 -9
q-35 0 -42.5 6.5t-12.5 36.5q-33 191 -162 303.5t-299 112.5q-262 0 -417 -157q-136 -142 -136 -472q0 -150 26.5 -260.5t94.5 -193.5q75 -89 192 -131.5t247 -42.5q64 0 127 15t123.5 47t107 78t77 113t34.5 146q1 24 11.5 29.5t35.5 5.5q29 0 39 -7t10 -36zM1096 1673
q0 -66 -47 -113t-113 -47t-113 47t-47 113t47 113t113 47t113 -47t47 -113z" />
    <glyph glyph-name="cdotaccent" unicode="&#x10b;" horiz-adv-x="1046" 
d="M979 240q0 -8 -8.5 -31.5t-35 -62.5t-67 -73.5t-115 -59.5t-167.5 -25q-233 0 -370.5 130t-137.5 337q0 92 30 174.5t90.5 150.5t163 108t234.5 40q356 0 356 -189q0 -61 -38.5 -95t-90.5 -34q-48 0 -87.5 33.5t-39.5 95.5q0 58 41 95q-54 12 -133 12q-54 0 -97.5 -16
t-70.5 -38.5t-46.5 -60t-29 -67.5t-14.5 -74.5t-5.5 -66.5t-0.5 -58q0 -395 285 -395q187 0 256 168q8 21 15 25.5t34 4.5q15 0 22.5 -0.5t17 -7.5t9.5 -20zM735 1243q0 -66 -47 -113t-113 -47t-112.5 47t-46.5 113t46.5 113t112.5 47t113 -47t47 -113z" />
    <glyph glyph-name="Ccaron" unicode="&#x10c;" horiz-adv-x="1701" 
d="M1569 465q0 -89 -43 -176t-120 -156.5t-195.5 -112.5t-256.5 -43q-188 0 -343 54.5t-260 150.5t-162.5 229.5t-57.5 290.5t57.5 290.5t162.5 229.5t260 150.5t343 54.5q231 0 404 -139l135 121q21 18 39 18q26 0 31.5 -11.5t5.5 -45.5v-440q0 -40 -8.5 -49t-47.5 -9
q-35 0 -42.5 6.5t-12.5 36.5q-33 191 -162 303.5t-299 112.5q-262 0 -417 -157q-136 -142 -136 -472q0 -150 26.5 -260.5t94.5 -193.5q75 -89 192 -131.5t247 -42.5q64 0 127 15t123.5 47t107 78t77 113t34.5 146q1 24 11.5 29.5t35.5 5.5q29 0 39 -7t10 -36zM1296 1780
l-358 -289l-358 289l32 49l328 -119l328 119z" />
    <glyph glyph-name="ccaron" unicode="&#x10d;" horiz-adv-x="1046" 
d="M979 240q0 -8 -8.5 -31.5t-35 -62.5t-67 -73.5t-115 -59.5t-167.5 -25q-233 0 -370.5 130t-137.5 337q0 92 30 174.5t90.5 150.5t163 108t234.5 40q356 0 356 -189q0 -61 -38.5 -95t-90.5 -34q-48 0 -87.5 33.5t-39.5 95.5q0 58 41 95q-54 12 -133 12q-54 0 -97.5 -16
t-70.5 -38.5t-46.5 -60t-29 -67.5t-14.5 -74.5t-5.5 -66.5t-0.5 -58q0 -395 285 -395q187 0 256 168q8 21 15 25.5t34 4.5q15 0 22.5 -0.5t17 -7.5t9.5 -20zM940 1409l-362 -379l-363 379l41 45l324 -203l323 203z" />
    <glyph glyph-name="Dcaron" unicode="&#x10e;" horiz-adv-x="1806" 
d="M1673 690q0 -214 -94 -372t-253.5 -238t-362.5 -80h-883v96h221v1213h-221v96h881q152 0 282.5 -49t226 -139t149.5 -225.5t54 -301.5zM1372 692q0 155 -18.5 258t-69.5 176q-69 98 -178 140.5t-227 42.5h-299v-1213h299q72 0 139.5 13t142.5 53.5t121 105.5
q50 69 70 163.5t20 260.5zM1090 1780l-359 -289l-358 289l33 49l327 -119l328 119z" />
    <glyph glyph-name="dcaron" unicode="&#x10f;" horiz-adv-x="1308" 
d="M1231 0l-375 -12v100q-124 -100 -287 -100q-224 0 -357.5 129.5t-133.5 335.5q0 214 143.5 341.5t370.5 127.5q157 0 276 -93v400q0 58 -21 69t-120 11v96l363 16v-1245q0 -58 21 -69t120 -11v-96zM856 211v512q-40 52 -102 88.5t-142 36.5q-59 0 -119 -24.5t-100 -82.5
q-25 -37 -37.5 -92t-14 -92t-1.5 -104q0 -33 0.5 -51.5t2.5 -55t6 -59.5t13 -56t21 -54t31 -45.5t43.5 -38t58 -23t74.5 -9.5q157 0 266 150zM1438 1229q0 -60 -17 -117t-41.5 -96.5t-51.5 -70t-47 -45.5t-28 -15q-9 0 -18.5 9.5t-9.5 20.5q0 9 12 21q21 19 27.5 24.5
t33 35.5t39.5 55.5t27.5 69t17.5 91.5q-30 -30 -84 -30q-57 0 -88.5 36t-31.5 85q0 51 32.5 84.5t85.5 33.5q64 0 103 -55.5t39 -136.5z" />
    <glyph glyph-name="Dcroat" unicode="&#x110;" horiz-adv-x="1806" 
d="M1673 690q0 -214 -94 -372t-253.5 -238t-362.5 -80h-883v96h221v557h-221v99h221v557h-221v96h881q152 0 282.5 -49t226 -139t149.5 -225.5t54 -301.5zM1372 692q0 155 -18.5 258t-69.5 176q-69 98 -178 140.5t-227 42.5h-299v-557h323v-99h-323v-557h299q72 0 139.5 13
t142.5 53.5t121 105.5q50 69 70 163.5t20 260.5z" />
    <glyph glyph-name="dcroat" unicode="&#x111;" horiz-adv-x="1308" 
d="M1231 0l-375 -12v100q-124 -100 -287 -100q-224 0 -357.5 129.5t-133.5 335.5q0 214 143.5 341.5t370.5 127.5q157 0 276 -93v238h-344v98h344v64q0 58 -21 69t-120 11v96l363 16v-256h141v-98h-141v-891q0 -58 21 -69t120 -11v-96zM856 211v512q-40 52 -102 88.5
t-142 36.5q-59 0 -119 -24.5t-100 -82.5q-25 -37 -37.5 -92t-14 -92t-1.5 -104q0 -33 0.5 -51.5t2.5 -55t6 -59.5t13 -56t21 -54t31 -45.5t43.5 -38t58 -23t74.5 -9.5q157 0 266 150z" />
    <glyph glyph-name="Emacron" unicode="&#x112;" horiz-adv-x="1548" 
d="M1481 561l-95 -561h-1306v96h221v1200h-221v97h1272l63 -494h-96q-8 59 -16 100.5t-23 86t-35 74.5t-50.5 57.5t-70.5 43.5t-95.5 25.5t-125.5 9.5h-311v-526h113q73 0 117.5 15t66 49.5t27.5 72.5t6 103h96v-576h-96q0 65 -6.5 103t-28 72.5t-66 49.5t-116.5 15h-113
v-578h311q80 0 143.5 11.5t109.5 30.5t81.5 52.5t58 68t40 87.5t27.5 99.5t21 115.5h97zM1198 1532h-848v106h848v-106z" />
    <glyph glyph-name="emacron" unicode="&#x113;" horiz-adv-x="1079" 
d="M1012 240q0 -13 -11 -39.5t-41.5 -64t-74 -70t-119 -55.5t-166.5 -23q-244 0 -389 132t-145 341q0 97 33.5 181t95.5 148t159 101t217 37q212 0 326 -111q47 -47 74.5 -114.5t34 -112.5t6.5 -88q0 -38 -13.5 -47t-52.5 -9h-618q0 -33 0.5 -54.5t6.5 -64.5t16 -73.5
t31.5 -67.5t51.5 -60.5t77 -39.5t107 -16q100 0 180.5 45t112.5 118q10 27 18.5 35t33.5 8q49 0 49 -36zM817 514q-9 340 -246 340q-52 0 -105 -25t-89 -81q-20 -32 -31 -77.5t-13 -71t-5 -85.5h489zM965 1190h-848v106h848v-106z" />
    <glyph glyph-name="Ebreve" unicode="&#x114;" horiz-adv-x="1548" 
d="M1481 561l-95 -561h-1306v96h221v1200h-221v97h1272l63 -494h-96q-8 59 -16 100.5t-23 86t-35 74.5t-50.5 57.5t-70.5 43.5t-95.5 25.5t-125.5 9.5h-311v-526h113q73 0 117.5 15t66 49.5t27.5 72.5t6 103h96v-576h-96q0 65 -6.5 103t-28 72.5t-66 49.5t-116.5 15h-113
v-578h311q80 0 143.5 11.5t109.5 30.5t81.5 52.5t58 68t40 87.5t27.5 99.5t21 115.5h97zM1137 1894q-3 -114 -56 -203t-134 -134.5t-173 -45.5t-173 45t-133.5 134t-55.5 204h73q3 -119 91.5 -187.5t197.5 -68.5t197.5 68.5t91.5 187.5h74z" />
    <glyph glyph-name="ebreve" unicode="&#x115;" horiz-adv-x="1079" 
d="M1012 240q0 -13 -11 -39.5t-41.5 -64t-74 -70t-119 -55.5t-166.5 -23q-244 0 -389 132t-145 341q0 97 33.5 181t95.5 148t159 101t217 37q212 0 326 -111q47 -47 74.5 -114.5t34 -112.5t6.5 -88q0 -38 -13.5 -47t-52.5 -9h-618q0 -33 0.5 -54.5t6.5 -64.5t16 -73.5
t31.5 -67.5t51.5 -60.5t77 -39.5t107 -16q100 0 180.5 45t112.5 118q10 27 18.5 35t33.5 8q49 0 49 -36zM817 514q-9 340 -246 340q-52 0 -105 -25t-89 -81q-20 -32 -31 -77.5t-13 -71t-5 -85.5h489zM903 1434q-3 -114 -55.5 -203t-133.5 -134.5t-173 -45.5t-173 45
t-134 134t-56 204h74q3 -119 91.5 -187.5t197.5 -68.5t197 68.5t91 187.5h74z" />
    <glyph glyph-name="Edotaccent" unicode="&#x116;" horiz-adv-x="1548" 
d="M1481 561l-95 -561h-1306v96h221v1200h-221v97h1272l63 -494h-96q-8 59 -16 100.5t-23 86t-35 74.5t-50.5 57.5t-70.5 43.5t-95.5 25.5t-125.5 9.5h-311v-526h113q73 0 117.5 15t66 49.5t27.5 72.5t6 103h96v-576h-96q0 65 -6.5 103t-28 72.5t-66 49.5t-116.5 15h-113
v-578h311q80 0 143.5 11.5t109.5 30.5t81.5 52.5t58 68t40 87.5t27.5 99.5t21 115.5h97zM934 1673q0 -66 -47 -113t-113 -47t-113 47t-47 113t47 113t113 47t113 -47t47 -113z" />
    <glyph glyph-name="edotaccent" unicode="&#x117;" horiz-adv-x="1079" 
d="M1012 240q0 -13 -11 -39.5t-41.5 -64t-74 -70t-119 -55.5t-166.5 -23q-244 0 -389 132t-145 341q0 97 33.5 181t95.5 148t159 101t217 37q212 0 326 -111q47 -47 74.5 -114.5t34 -112.5t6.5 -88q0 -38 -13.5 -47t-52.5 -9h-618q0 -33 0.5 -54.5t6.5 -64.5t16 -73.5
t31.5 -67.5t51.5 -60.5t77 -39.5t107 -16q100 0 180.5 45t112.5 118q10 27 18.5 35t33.5 8q49 0 49 -36zM817 514q-9 340 -246 340q-52 0 -105 -25t-89 -81q-20 -32 -31 -77.5t-13 -71t-5 -85.5h489zM700 1243q0 -66 -46.5 -113t-112.5 -47t-113 47t-47 113t47 113t113 47
t112.5 -47t46.5 -113z" />
    <glyph glyph-name="Eogonek" unicode="&#x118;" horiz-adv-x="1548" 
d="M1481 561l-95 -561h-151q-43 -31 -66 -68.5t-23.5 -71t11.5 -61.5t36.5 -44.5t53.5 -16.5q60 0 94 47q16 21 56 -14q12 -9 16.5 -26.5t-4.5 -31.5q-91 -135 -225 -135q-101 0 -166.5 65t-65.5 152q0 107 119 205h-991v96h221v1200h-221v97h1272l63 -494h-96
q-8 59 -16 100.5t-23 86t-35 74.5t-50.5 57.5t-70.5 43.5t-95.5 25.5t-125.5 9.5h-311v-526h113q73 0 117.5 15t66 49.5t27.5 72.5t6 103h96v-576h-96q0 65 -6.5 103t-28 72.5t-66 49.5t-116.5 15h-113v-578h311q80 0 143.5 11.5t109.5 30.5t81.5 52.5t58 68t40 87.5
t27.5 99.5t21 115.5h97z" />
    <glyph glyph-name="eogonek" unicode="&#x119;" horiz-adv-x="1079" 
d="M1012 240q0 -13 -13.5 -40.5t-40 -64.5t-77.5 -73t-115 -56q-54 -38 -72.5 -87t-6 -88t42.5 -66t67 -27q60 0 94 47q15 20 55 -14q12 -9 16.5 -26.5t-4.5 -31.5q-91 -135 -225 -135q-101 0 -166 65t-65 152q0 63 16.5 104t65.5 89q-236 4 -377 136t-141 337
q0 97 33.5 181t95.5 148t159 101t217 37q212 0 326 -111q47 -47 74.5 -114.5t34 -112.5t6.5 -88q0 -38 -13.5 -47t-52.5 -9h-618q0 -33 0.5 -54.5t6.5 -64.5t16 -73.5t31.5 -67.5t51.5 -60.5t77 -39.5t107 -16q100 0 180.5 45t112.5 118q10 27 18.5 35t33.5 8q49 0 49 -36z
M817 514q-9 340 -246 340q-52 0 -105 -25t-89 -81q-20 -32 -31 -77.5t-13 -71t-5 -85.5h489z" />
    <glyph glyph-name="Ecaron" unicode="&#x11a;" horiz-adv-x="1548" 
d="M1481 561l-95 -561h-1306v96h221v1200h-221v97h1272l63 -494h-96q-8 59 -16 100.5t-23 86t-35 74.5t-50.5 57.5t-70.5 43.5t-95.5 25.5t-125.5 9.5h-311v-526h113q73 0 117.5 15t66 49.5t27.5 72.5t6 103h96v-576h-96q0 65 -6.5 103t-28 72.5t-66 49.5t-116.5 15h-113
v-578h311q80 0 143.5 11.5t109.5 30.5t81.5 52.5t58 68t40 87.5t27.5 99.5t21 115.5h97zM1133 1780l-359 -289l-358 289l33 49l327 -119l328 119z" />
    <glyph glyph-name="ecaron" unicode="&#x11b;" horiz-adv-x="1079" 
d="M1012 240q0 -13 -11 -39.5t-41.5 -64t-74 -70t-119 -55.5t-166.5 -23q-244 0 -389 132t-145 341q0 97 33.5 181t95.5 148t159 101t217 37q212 0 326 -111q47 -47 74.5 -114.5t34 -112.5t6.5 -88q0 -38 -13.5 -47t-52.5 -9h-618q0 -33 0.5 -54.5t6.5 -64.5t16 -73.5
t31.5 -67.5t51.5 -60.5t77 -39.5t107 -16q100 0 180.5 45t112.5 118q10 27 18.5 35t33.5 8q49 0 49 -36zM817 514q-9 340 -246 340q-52 0 -105 -25t-89 -81q-20 -32 -31 -77.5t-13 -71t-5 -85.5h489zM903 1409l-362 -379l-363 379l41 45l324 -203l323 203z" />
    <glyph glyph-name="Gcircumflex" unicode="&#x11c;" horiz-adv-x="1851" 
d="M1731 469h-164v-412q0 -20 -1 -29.5t-7.5 -18.5t-20.5 -9q-15 0 -87 36.5t-114 72.5q-106 -132 -381 -132q-194 0 -351 56t-260 154t-158.5 229.5t-55.5 285.5q0 158 58 292t163 229.5t259.5 149.5t340.5 54q229 0 404 -139l135 121q21 18 39 18q26 0 31.5 -11.5
t5.5 -45.5v-440q0 -40 -8.5 -49t-47.5 -9q-35 0 -42.5 6.5t-12.5 36.5q-33 191 -162 303.5t-297 112.5q-143 0 -257.5 -49t-178.5 -129q-60 -79 -88.5 -181t-28.5 -267q0 -148 26 -256t89 -189q72 -92 193.5 -139t259.5 -47q110 0 184 43q28 17 46 36t24.5 40.5t8 34.5
t1.5 34v207h-295v96q111 -6 420 -6q258 0 330 6v-96zM1286 1540l-33 -49l-327 119l-328 -119l-29 49l359 289z" />
    <glyph glyph-name="gcircumflex" unicode="&#x11d;" 
d="M1143 813q0 -37 -24.5 -62.5t-63.5 -25.5t-63.5 24.5t-24.5 63.5q0 21 8 41q-65 -6 -127 -39q82 -87 82 -197q0 -56 -23 -108t-69.5 -96.5t-128 -71.5t-187.5 -27q-146 0 -250 54q-20 -27 -20 -68q0 -23 8.5 -47.5t36 -50t68.5 -31.5q10 -2 157 -2q123 0 180.5 -2
t128 -15t125.5 -40q48 -25 81 -60.5t47.5 -74t20 -67.5t5.5 -58q0 -115 -132 -190t-390 -75q-118 0 -211.5 17t-150 43.5t-94 62t-52 68.5t-14.5 67q0 36 16 67t37.5 50t49 33.5t44.5 20t29 8.5q-37 30 -59 74t-26.5 71t-4.5 51q0 95 69 182q-49 35 -77.5 93t-28.5 122
q0 56 23 108t69 97t127.5 72t187.5 27q174 0 275 -68q97 78 217 78q64 0 96.5 -38t32.5 -81zM702 618q0 27 -0.5 42t-4 43t-9.5 44.5t-19.5 38t-32 33.5t-48 20.5t-66.5 8.5t-66.5 -8.5t-48 -20.5t-32 -33.5t-19.5 -38t-9.5 -44.5t-4 -43t-0.5 -42q0 -32 1 -50t5.5 -49.5
t16 -50.5t30.5 -39.5t51.5 -30t75.5 -9.5t75.5 9.5t51.5 30t30.5 39.5t16 50.5t5.5 49.5t1 50zM934 -154q0 127 -295 127h-240q-21 0 -38.5 -2.5t-49 -12.5t-50.5 -37.5t-19 -70.5q0 -78 87 -133t259 -55q76 0 137.5 12t99.5 31t63.5 44t35.5 49t10 48zM870 1075l-41 -45
l-323 203l-324 -203l-37 45l363 379z" />
    <glyph glyph-name="Gbreve" unicode="&#x11e;" horiz-adv-x="1851" 
d="M1731 469h-164v-412q0 -20 -1 -29.5t-7.5 -18.5t-20.5 -9q-15 0 -87 36.5t-114 72.5q-106 -132 -381 -132q-194 0 -351 56t-260 154t-158.5 229.5t-55.5 285.5q0 158 58 292t163 229.5t259.5 149.5t340.5 54q229 0 404 -139l135 121q21 18 39 18q26 0 31.5 -11.5
t5.5 -45.5v-440q0 -40 -8.5 -49t-47.5 -9q-35 0 -42.5 6.5t-12.5 36.5q-33 191 -162 303.5t-297 112.5q-143 0 -257.5 -49t-178.5 -129q-60 -79 -88.5 -181t-28.5 -267q0 -148 26 -256t89 -189q72 -92 193.5 -139t259.5 -47q110 0 184 43q28 17 46 36t24.5 40.5t8 34.5
t1.5 34v207h-295v96q111 -6 420 -6q258 0 330 6v-96zM1290 1894q-3 -114 -55.5 -203t-133.5 -134.5t-173 -45.5t-173 45t-134 134t-56 204h74q3 -119 91.5 -187.5t197.5 -68.5t197.5 68.5t91.5 187.5h73z" />
    <glyph glyph-name="gbreve" unicode="&#x11f;" 
d="M1143 813q0 -37 -24.5 -62.5t-63.5 -25.5t-63.5 24.5t-24.5 63.5q0 21 8 41q-65 -6 -127 -39q82 -87 82 -197q0 -56 -23 -108t-69.5 -96.5t-128 -71.5t-187.5 -27q-146 0 -250 54q-20 -27 -20 -68q0 -23 8.5 -47.5t36 -50t68.5 -31.5q10 -2 157 -2q123 0 180.5 -2
t128 -15t125.5 -40q48 -25 81 -60.5t47.5 -74t20 -67.5t5.5 -58q0 -115 -132 -190t-390 -75q-118 0 -211.5 17t-150 43.5t-94 62t-52 68.5t-14.5 67q0 36 16 67t37.5 50t49 33.5t44.5 20t29 8.5q-37 30 -59 74t-26.5 71t-4.5 51q0 95 69 182q-49 35 -77.5 93t-28.5 122
q0 56 23 108t69 97t127.5 72t187.5 27q174 0 275 -68q97 78 217 78q64 0 96.5 -38t32.5 -81zM702 618q0 27 -0.5 42t-4 43t-9.5 44.5t-19.5 38t-32 33.5t-48 20.5t-66.5 8.5t-66.5 -8.5t-48 -20.5t-32 -33.5t-19.5 -38t-9.5 -44.5t-4 -43t-0.5 -42q0 -32 1 -50t5.5 -49.5
t16 -50.5t30.5 -39.5t51.5 -30t75.5 -9.5t75.5 9.5t51.5 30t30.5 39.5t16 50.5t5.5 49.5t1 50zM934 -154q0 127 -295 127h-240q-21 0 -38.5 -2.5t-49 -12.5t-50.5 -37.5t-19 -70.5q0 -78 87 -133t259 -55q76 0 137.5 12t99.5 31t63.5 44t35.5 49t10 48zM870 1434
q-3 -114 -55.5 -203t-133.5 -134.5t-173 -45.5t-173 45t-134 134t-56 204h74q3 -119 91.5 -187.5t197.5 -68.5t197.5 68.5t91.5 187.5h73z" />
    <glyph glyph-name="Gdotaccent" unicode="&#x120;" horiz-adv-x="1851" 
d="M1731 469h-164v-412q0 -20 -1 -29.5t-7.5 -18.5t-20.5 -9q-15 0 -87 36.5t-114 72.5q-106 -132 -381 -132q-194 0 -351 56t-260 154t-158.5 229.5t-55.5 285.5q0 158 58 292t163 229.5t259.5 149.5t340.5 54q229 0 404 -139l135 121q21 18 39 18q26 0 31.5 -11.5
t5.5 -45.5v-440q0 -40 -8.5 -49t-47.5 -9q-35 0 -42.5 6.5t-12.5 36.5q-33 191 -162 303.5t-297 112.5q-143 0 -257.5 -49t-178.5 -129q-60 -79 -88.5 -181t-28.5 -267q0 -148 26 -256t89 -189q72 -92 193.5 -139t259.5 -47q110 0 184 43q28 17 46 36t24.5 40.5t8 34.5
t1.5 34v207h-295v96q111 -6 420 -6q258 0 330 6v-96zM1085 1673q0 -66 -46.5 -113t-112.5 -47t-113 47t-47 113t47 113t113 47t112.5 -47t46.5 -113z" />
    <glyph glyph-name="gdotaccent" unicode="&#x121;" 
d="M1143 813q0 -37 -24.5 -62.5t-63.5 -25.5t-63.5 24.5t-24.5 63.5q0 21 8 41q-65 -6 -127 -39q82 -87 82 -197q0 -56 -23 -108t-69.5 -96.5t-128 -71.5t-187.5 -27q-146 0 -250 54q-20 -27 -20 -68q0 -23 8.5 -47.5t36 -50t68.5 -31.5q10 -2 157 -2q123 0 180.5 -2
t128 -15t125.5 -40q48 -25 81 -60.5t47.5 -74t20 -67.5t5.5 -58q0 -115 -132 -190t-390 -75q-118 0 -211.5 17t-150 43.5t-94 62t-52 68.5t-14.5 67q0 36 16 67t37.5 50t49 33.5t44.5 20t29 8.5q-37 30 -59 74t-26.5 71t-4.5 51q0 95 69 182q-49 35 -77.5 93t-28.5 122
q0 56 23 108t69 97t127.5 72t187.5 27q174 0 275 -68q97 78 217 78q64 0 96.5 -38t32.5 -81zM702 618q0 27 -0.5 42t-4 43t-9.5 44.5t-19.5 38t-32 33.5t-48 20.5t-66.5 8.5t-66.5 -8.5t-48 -20.5t-32 -33.5t-19.5 -38t-9.5 -44.5t-4 -43t-0.5 -42q0 -32 1 -50t5.5 -49.5
t16 -50.5t30.5 -39.5t51.5 -30t75.5 -9.5t75.5 9.5t51.5 30t30.5 39.5t16 50.5t5.5 49.5t1 50zM934 -154q0 127 -295 127h-240q-21 0 -38.5 -2.5t-49 -12.5t-50.5 -37.5t-19 -70.5q0 -78 87 -133t259 -55q76 0 137.5 12t99.5 31t63.5 44t35.5 49t10 48zM666 1243
q0 -66 -47 -113t-113 -47t-113 47t-47 113t47 113t113 47t113 -47t47 -113z" />
    <glyph glyph-name="Gcommaaccent" unicode="&#x122;" horiz-adv-x="1851" 
d="M1731 469h-164v-412q0 -20 -1 -29.5t-7.5 -18.5t-20.5 -9q-15 0 -87 36.5t-114 72.5q-106 -132 -381 -132q-194 0 -351 56t-260 154t-158.5 229.5t-55.5 285.5q0 158 58 292t163 229.5t259.5 149.5t340.5 54q229 0 404 -139l135 121q21 18 39 18q26 0 31.5 -11.5
t5.5 -45.5v-440q0 -40 -8.5 -49t-47.5 -9q-35 0 -42.5 6.5t-12.5 36.5q-33 191 -162 303.5t-297 112.5q-143 0 -257.5 -49t-178.5 -129q-60 -79 -88.5 -181t-28.5 -267q0 -148 26 -256t89 -189q72 -92 193.5 -139t259.5 -47q110 0 184 43q28 17 46 36t24.5 40.5t8 34.5
t1.5 34v207h-295v96q111 -6 420 -6q258 0 330 6v-96zM1057 -260q0 -60 -17 -117t-41.5 -96.5t-51.5 -70t-47 -45.5t-28 -15q-9 0 -18.5 9.5t-9.5 21.5q0 8 12 20q20 18 27.5 24.5t33 36t39 55.5t28 69.5t17.5 91.5q-31 -31 -83 -31q-57 0 -89 36t-32 85q0 51 32.5 84.5
t85.5 33.5q64 0 103 -55.5t39 -136.5z" />
    <glyph glyph-name="gcommaaccent" unicode="&#x123;" 
d="M637 1116q0 -51 -33 -85t-86 -34q-64 0 -102.5 56t-38.5 137q0 60 17 117t41.5 96.5t51 70t46.5 45.5t28 15q9 0 19 -10t10 -21q0 -8 -12 -20q-59 -52 -88 -97q-51 -79 -58 -180q31 31 84 31q57 0 89 -36t32 -85zM1143 813q0 -37 -24.5 -62.5t-63.5 -25.5t-63.5 24.5
t-24.5 63.5q0 21 8 41q-65 -6 -127 -39q82 -87 82 -197q0 -56 -23 -108t-69.5 -96.5t-128 -71.5t-187.5 -27q-146 0 -250 54q-20 -27 -20 -68q0 -23 8.5 -47.5t36 -50t68.5 -31.5q10 -2 157 -2q123 0 180.5 -2t128 -15t125.5 -40q48 -25 81 -60.5t47.5 -74t20 -67.5t5.5 -58
q0 -115 -132 -190t-390 -75q-118 0 -211.5 17t-150 43.5t-94 62t-52 68.5t-14.5 67q0 36 16 67t37.5 50t49 33.5t44.5 20t29 8.5q-37 30 -59 74t-26.5 71t-4.5 51q0 95 69 182q-49 35 -77.5 93t-28.5 122q0 56 23 108t69 97t127.5 72t187.5 27q174 0 275 -68q97 78 217 78
q64 0 96.5 -38t32.5 -81zM702 618q0 27 -0.5 42t-4 43t-9.5 44.5t-19.5 38t-32 33.5t-48 20.5t-66.5 8.5t-66.5 -8.5t-48 -20.5t-32 -33.5t-19.5 -38t-9.5 -44.5t-4 -43t-0.5 -42q0 -32 1 -50t5.5 -49.5t16 -50.5t30.5 -39.5t51.5 -30t75.5 -9.5t75.5 9.5t51.5 30t30.5 39.5
t16 50.5t5.5 49.5t1 50zM934 -154q0 127 -295 127h-240q-21 0 -38.5 -2.5t-49 -12.5t-50.5 -37.5t-19 -70.5q0 -78 87 -133t259 -55q76 0 137.5 12t99.5 31t63.5 44t35.5 49t10 48z" />
    <glyph glyph-name="Hcircumflex" unicode="&#x124;" horiz-adv-x="1843" 
d="M1761 0q-78 6 -366 6q-289 0 -367 -6v96h221v586h-657v-586h221v-96q-78 6 -367 6q-288 0 -366 -6v96h221v1213h-221v96q78 -6 366 -6q289 0 367 6v-96h-221v-531h657v531h-221v96q78 -6 367 -6q288 0 366 6v-96h-221v-1213h221v-96zM1282 1540l-33 -49l-327 119
l-328 -119l-29 49l359 289z" />
    <glyph glyph-name="hcircumflex" unicode="&#x125;" horiz-adv-x="1308" 
d="M1260 0l-259 6l-258 -6v96h142v553q0 111 -28.5 155t-84.5 44q-51 0 -102.5 -20t-98 -58t-75.5 -102t-29 -144v-428h141v-96l-258 6l-258 -6v96h141v1133q0 58 -21 69t-120 11v96l363 16v-696h2q20 34 46.5 64.5t68 62.5t101.5 51t130 19q159 0 237 -69t78 -226v-531h142
v-96zM1014 1556l-33 -49l-328 119l-327 -119l-29 49l358 289z" />
    <glyph glyph-name="Hbar" unicode="&#x126;" horiz-adv-x="1843" 
d="M1761 0q-78 6 -366 6q-289 0 -367 -6v96h221v586h-657v-586h221v-96q-78 6 -367 6q-288 0 -366 -6v96h221v910h-221v98h221v205h-221v96q78 -6 366 -6q289 0 367 6v-96h-221v-205h657v205h-221v96q78 -6 367 -6q288 0 366 6v-96h-221v-205h221v-98h-221v-910h221v-96z
M1249 778v228h-657v-228h657z" />
    <glyph glyph-name="hbar" unicode="&#x127;" horiz-adv-x="1308" 
d="M1260 0l-259 6l-258 -6v96h142v553q0 111 -28.5 155t-84.5 44q-51 0 -102.5 -20t-98 -58t-75.5 -102t-29 -144v-428h141v-96l-258 6l-258 -6v96h141v971h-141v98h141v64q0 58 -21 69t-120 11v96l363 16v-256h198v-98h-198v-342h2q20 34 46.5 64.5t68 62.5t101.5 51
t130 19q159 0 237 -69t78 -226v-531h142v-96z" />
    <glyph glyph-name="Itilde" unicode="&#x128;" horiz-adv-x="892" 
d="M825 0q-84 6 -379 6q-294 0 -378 -6v96h233v1213h-233v96q84 -6 378 -6q295 0 379 6v-96h-233v-1213h233v-96zM840 1661q-12 -12 -51 -54t-50 -53q-63 -63 -147 -63q-56 0 -162 35t-164 35q-94 0 -155 -70l-54 51q11 11 50 53t51 54q63 63 147 63q56 0 162 -35t164 -35
q94 0 155 70z" />
    <glyph glyph-name="itilde" unicode="&#x129;" horiz-adv-x="653" 
d="M586 0l-240 6l-250 -6v96h142v633q0 58 -21 69t-115 11v96l357 17v-826h127v-96zM719 1303q-11 -11 -50 -53t-51 -54q-63 -63 -147 -63q-59 0 -162 34q-106 35 -164 35q-95 0 -155 -69l-53 51q12 11 50 52.5t50 53.5q64 64 147 64q56 0 162 -35t164 -35q95 0 156 70z" />
    <glyph glyph-name="Imacron" unicode="&#x12a;" horiz-adv-x="892" 
d="M825 0q-84 6 -379 6q-294 0 -378 -6v96h233v1213h-233v96q84 -6 378 -6q295 0 379 6v-96h-233v-1213h233v-96zM872 1532h-847v106h847v-106z" />
    <glyph glyph-name="imacron" unicode="&#x12b;" horiz-adv-x="653" 
d="M586 0l-240 6l-250 -6v96h142v633q0 58 -21 69t-115 11v96l357 17v-826h127v-96zM752 1190h-848v106h848v-106z" />
    <glyph glyph-name="Ibreve" unicode="&#x12c;" horiz-adv-x="892" 
d="M825 0q-84 6 -379 6q-294 0 -378 -6v96h233v1213h-233v96q84 -6 378 -6q295 0 379 6v-96h-233v-1213h233v-96zM811 1894q-3 -114 -55.5 -203t-133.5 -134.5t-173 -45.5t-173 45t-134 134t-56 204h74q3 -119 91.5 -187.5t197.5 -68.5t197 68.5t91 187.5h74z" />
    <glyph glyph-name="ibreve" unicode="&#x12d;" horiz-adv-x="653" 
d="M586 0l-240 6l-250 -6v96h142v633q0 58 -21 69t-115 11v96l357 17v-826h127v-96zM690 1434q-3 -114 -55.5 -203t-133.5 -134.5t-173 -45.5t-173 45t-134 134t-56 204h74q3 -119 91.5 -187.5t197.5 -68.5t197 68.5t91 187.5h74z" />
    <glyph glyph-name="Iogonek" unicode="&#x12e;" horiz-adv-x="892" 
d="M825 0l-163 6q-67 -42 -91 -110q-23 -60 5.5 -109t80.5 -49q61 0 95 47q15 20 55 -14q12 -9 16.5 -26.5t-4.5 -31.5q-91 -135 -225 -135q-101 0 -166.5 65t-65.5 152q0 52 37 114t90 97h-43q-294 0 -378 -6v96h233v1213h-233v96q84 -6 378 -6q295 0 379 6v-96h-233v-1213
h233v-96z" />
    <glyph glyph-name="iogonek" unicode="&#x12f;" horiz-adv-x="653" 
d="M479 1264q0 -67 -47.5 -113.5t-112.5 -46.5q-66 0 -112.5 47t-46.5 113t46.5 112.5t112.5 46.5q65 0 112.5 -46t47.5 -113zM586 0l-191 6q-68 -40 -92 -110q-21 -61 7 -109.5t81 -48.5q60 0 94 47q16 21 56 -14q12 -9 16.5 -26.5t-4.5 -31.5q-91 -135 -225 -135
q-101 0 -166.5 65t-65.5 152q0 52 36 113t87 96l-123 -4v96h142v633q0 58 -21 69t-115 11v96l357 17v-826h127v-96z" />
    <glyph glyph-name="Idotaccent" unicode="&#x130;" horiz-adv-x="892" 
d="M825 0q-84 6 -379 6q-294 0 -378 -6v96h233v1213h-233v96q84 -6 378 -6q295 0 379 6v-96h-233v-1213h233v-96zM606 1673q0 -66 -47 -113t-113 -47t-112.5 47t-46.5 113t46.5 113t112.5 47t113 -47t47 -113z" />
    <glyph glyph-name="dotlessi" unicode="&#x131;" horiz-adv-x="653" 
d="M586 0l-240 6l-250 -6v96h142v633q0 58 -21 69t-115 11v96l357 17v-826h127v-96z" />
    <glyph glyph-name="Jcircumflex" unicode="&#x134;" horiz-adv-x="1216" 
d="M1079 1309h-166v-1002q0 -156 -130 -243t-341 -87q-177 0 -286 69.5t-109 186.5q0 75 47.5 116.5t110.5 41.5q59 0 107 -40.5t48 -117.5q0 -31 -9.5 -57t-23.5 -42t-28 -27.5t-23 -16.5l-10 -4q76 -35 166 -35q48 0 85 15.5t58 42.5t34.5 53.5t18.5 60.5t6 49t1 33v1004
h-289v96q98 -6 408 -6q253 0 325 6v-96zM1073 1540l-33 -49l-327 119l-328 -119l-29 49l359 289z" />
    <glyph glyph-name="jcircumflex" unicode="&#x135;" horiz-adv-x="718" 
d="M547 -86q0 -78 -33 -141.5t-87 -102.5t-118.5 -59.5t-132.5 -20.5q-129 0 -210 50.5t-81 136.5q0 56 35.5 92.5t93.5 36.5q55 0 91 -36.5t36 -90.5q0 -67 -49 -103q47 -12 80 -12q44 0 75.5 24t48 63.5t23.5 79.5t7 83v813q0 27 -1.5 39t-12 23.5t-31.5 15.5
q-31 4 -111 4v96l377 17v-1008zM752 1075l-41 -45l-324 203l-324 -203l-36 45l362 379z" />
    <glyph glyph-name="Kcommaaccent" unicode="&#x136;" horiz-adv-x="1845" 
d="M1745 0q-76 6 -299 6q-277 0 -361 -6v96q111 0 150 17q-11 22 -16 28l-422 555l-205 -170v-430h221v-96q-78 6 -367 6q-288 0 -366 -6v96h221v1213h-221v96q78 -6 366 -6q289 0 367 6v-96h-221v-656l758 633q-8 3 -8 5t-19 7q-56 11 -119 11v96q74 -6 299 -6q127 0 209 6
v-96h-35q-147 0 -192 -37l-492 -410l553 -725q20 -27 41.5 -34t98.5 -7h59v-96zM1053 -260q0 -60 -17 -117t-41.5 -96.5t-51.5 -70t-47 -45.5t-28 -15q-9 0 -18.5 9.5t-9.5 21.5q0 8 12 20q20 18 27.5 24.5t33 36t39 55.5t28 69.5t17.5 91.5q-31 -31 -84 -31q-57 0 -88.5 36
t-31.5 85q0 51 32.5 84.5t85.5 33.5q64 0 103 -55.5t39 -136.5z" />
    <glyph glyph-name="kcommaaccent" unicode="&#x137;" horiz-adv-x="1243" 
d="M1202 0q-105 6 -213 6q-159 0 -250 -6v96q64 0 64 19q0 3 -8.5 14.5t-22.5 30t-20 26.5l-207 258q-58 -41 -117 -88v-260h141v-96l-247 6l-246 -6v96h141v1133q0 58 -21 69t-120 11v96l362 16v-936l387 306q-10 10 -15.5 13.5t-18 6t-35.5 2.5v96l235 -6q105 0 160 6v-96
q-65 0 -102.5 -5t-50.5 -11.5t-31 -20.5l-267 -207l347 -432q22 -27 40 -34t80 -7h35v-96zM752 -260q0 -60 -17 -117t-41.5 -96.5t-51.5 -70t-47 -45.5t-28 -15q-9 0 -18.5 9.5t-9.5 21.5q0 8 12 20q20 18 27.5 24.5t33 36t39 55.5t28 69.5t17.5 91.5q-31 -31 -84 -31
q-57 0 -88.5 36t-31.5 85q0 51 32.5 84.5t85.5 33.5q64 0 103 -55.5t39 -136.5z" />
    <glyph glyph-name="kgreenlandic" unicode="&#x138;" horiz-adv-x="1243" 
d="M1202 0q-105 6 -213 6q-159 0 -250 -6v96q64 0 64 19q0 3 -8.5 14.5t-22.5 30t-20 26.5l-207 258q-58 -41 -117 -88v-260h141v-96l-247 6l-246 -6v96h141v637q0 58 -21 69t-120 11v96l362 17v-441l387 306q-10 10 -15.5 13.5t-18 6t-35.5 2.5v96l235 -6q105 0 160 6v-96
q-65 0 -102.5 -5t-50.5 -11.5t-31 -20.5l-267 -207l347 -432q22 -27 40 -34t80 -7h35v-96z" />
    <glyph glyph-name="Lacute" unicode="&#x139;" horiz-adv-x="1417" 
d="M1317 561l-64 -561h-1173v96h221v1213h-221v96q78 -6 375 -6q323 0 413 6v-96h-276v-1213h211q76 0 138 19.5t102.5 47t73 73.5t49 81.5t29.5 90.5t17 81.5t9 71.5h96zM774 1714q-4 -23 -13.5 -40t-26 -27t-26.5 -14.5t-30 -10.5l-332 -111l-49 86q25 20 132 110.5
t142 117.5q51 37 84 37q58 0 94.5 -45.5t24.5 -102.5z" />
    <glyph glyph-name="lacute" unicode="&#x13a;" horiz-adv-x="653" 
d="M600 0l-252 6l-252 -6v96h142v1133q0 58 -21.5 69t-120.5 11v96l363 16v-1325h141v-96zM645 1731q-4 -23 -14 -40t-26 -27.5t-26.5 -15t-29.5 -10.5l-332 -110l-49 86q25 20 132 110t142 117q51 37 84 37q58 0 94.5 -45t24.5 -102z" />
    <glyph glyph-name="Lcommaaccent" unicode="&#x13b;" horiz-adv-x="1417" 
d="M1317 561l-64 -561h-1173v96h221v1213h-221v96q78 -6 375 -6q323 0 413 6v-96h-276v-1213h211q76 0 138 19.5t102.5 47t73 73.5t49 81.5t29.5 90.5t17 81.5t9 71.5h96zM838 -260q0 -60 -17 -117t-41.5 -96.5t-51.5 -70t-47 -45.5t-28 -15q-9 0 -18.5 9.5t-9.5 21.5
q0 8 12 20q20 18 27.5 24.5t33 36t39 55.5t28 69.5t17.5 91.5q-31 -31 -84 -31q-57 0 -88.5 36t-31.5 85q0 51 32.5 84.5t85.5 33.5q64 0 103 -55.5t39 -136.5z" />
    <glyph glyph-name="lcommaaccent" unicode="&#x13c;" horiz-adv-x="653" 
d="M600 0l-252 6l-252 -6v96h142v1133q0 58 -21.5 69t-120.5 11v96l363 16v-1325h141v-96zM457 -260q0 -60 -17 -117t-41.5 -96.5t-51.5 -70t-47 -45.5t-28 -15q-9 0 -18.5 9.5t-9.5 21.5q0 8 12 20q20 18 27.5 24.5t33 36t39 55.5t28 69.5t17.5 91.5q-31 -31 -84 -31
q-57 0 -88.5 36t-31.5 85q0 51 32.5 84.5t85.5 33.5q64 0 103 -55.5t39 -136.5z" />
    <glyph glyph-name="Lcaron" unicode="&#x13d;" horiz-adv-x="1417" 
d="M1317 561l-64 -561h-1173v96h221v1213h-221v96q78 -6 375 -6q323 0 413 6v-96h-276v-1213h211q76 0 138 19.5t102.5 47t73 73.5t49 81.5t29.5 90.5t17 81.5t9 71.5h96zM1260 1212q0 -60 -17 -117t-41.5 -96.5t-51.5 -70t-47 -45.5t-28 -15q-9 0 -18.5 9.5t-9.5 21.5
q0 9 12 21q21 19 27.5 24.5t33 35.5t39.5 55.5t27.5 69t17.5 91.5q-31 -31 -84 -31q-57 0 -89 36t-32 85q0 51 33 85t86 34q64 0 103 -56t39 -137z" />
    <glyph glyph-name="lcaron" unicode="&#x13e;" horiz-adv-x="653" 
d="M600 0l-252 6l-252 -6v96h142v1133q0 58 -21.5 69t-120.5 11v96l363 16v-1325h141v-96zM807 1229q0 -60 -17 -117t-41.5 -96.5t-51 -70t-46.5 -45.5t-28 -15q-10 0 -19.5 9.5t-9.5 20.5q0 9 12 21q56 49 84 90q54 81 62 186q-30 -30 -84 -30q-57 0 -89 36t-32 85
q0 50 33 84t86 34q64 0 102.5 -55.5t38.5 -136.5z" />
    <glyph glyph-name="Ldot" unicode="&#x13f;" horiz-adv-x="1417" 
d="M1317 561l-64 -561h-1173v96h221v1213h-221v96q78 -6 375 -6q323 0 413 6v-96h-276v-1213h211q76 0 138 19.5t102.5 47t73 73.5t49 81.5t29.5 90.5t17 81.5t9 71.5h96zM1315 877q0 -66 -47 -113t-113 -47t-113 47t-47 113t47 112.5t113 46.5t113 -46.5t47 -112.5z" />
    <glyph glyph-name="ldot" unicode="&#x140;" horiz-adv-x="892" 
d="M600 0l-252 6l-252 -6v96h142v1133q0 58 -21.5 69t-120.5 11v96l363 16v-1325h141v-96zM877 733q0 -66 -47 -113t-113 -47t-113 47t-47 113t47 113t113 47t113 -47t47 -113z" />
    <glyph glyph-name="Lslash" unicode="&#x141;" horiz-adv-x="1417" 
d="M1337 561l-63 -561h-1174v96h222v465l-136 -98l-59 78l195 145v623h-222v96q78 -6 375 -6q324 0 414 6v-96h-277v-406l344 252l62 -80l-406 -297v-682h211q76 0 138 19.5t102.5 47t73 73.5t49 81.5t29.5 90.5t17 81.5t9 71.5h96z" />
    <glyph glyph-name="lslash" unicode="&#x142;" horiz-adv-x="792" 
d="M694 905l-205 -151v-658h142v-96q-154 6 -252 6l-252 -6v96h141v496l-112 -84l-56 80l168 123v518q0 58 -21 69t-120 11v96l362 16v-544l146 106z" />
    <glyph glyph-name="Nacute" unicode="&#x143;" horiz-adv-x="1843" 
d="M1761 1309h-51q-62 0 -111 -6q-42 -4 -50.5 -12t-8.5 -42v-1183q0 -22 -1 -31t-6 -19t-16.5 -13t-31.5 -3q-24 0 -32 4t-23 23l-1020 1200v-1071q0 -34 8.5 -42t52.5 -12q55 -6 109 -6h51v-96q-84 6 -277 6q-196 0 -274 -6v96h51q62 0 111 6q42 4 50.5 12t8.5 42v1153
h-221v96h469q31 0 40 -4t27 -23l816 -958v829q0 34 -9 42t-53 12q-56 6 -108 6h-52v96q84 -6 277 -6q196 0 274 6v-96zM1241 1714q-4 -23 -13.5 -40t-26 -27t-26.5 -14.5t-30 -10.5l-332 -111l-49 86q25 20 132 110.5t142 117.5q51 37 84 37q58 0 94.5 -45.5t24.5 -102.5z
" />
    <glyph glyph-name="nacute" unicode="&#x144;" horiz-adv-x="1308" 
d="M1260 0l-259 6l-258 -6v96h142v553q0 111 -28.5 155t-84.5 44q-51 0 -102.5 -20t-98 -58t-75.5 -102t-29 -144v-428h141v-96l-258 6l-258 -6v96h141v633q0 58 -21 69t-120 11v96l352 17v-222q22 43 52 79.5t73 70t103.5 53t130.5 19.5q159 0 237 -69t78 -226v-531h142
v-96zM954 1315q0 -30 -14 -53.5t-26.5 -32t-36.5 -21.5l-310 -166l-61 76l229 271q17 18 26.5 27t28.5 17.5t41 8.5q49 0 86 -39.5t37 -87.5z" />
    <glyph glyph-name="Ncommaaccent" unicode="&#x145;" horiz-adv-x="1843" 
d="M1761 1309h-51q-62 0 -111 -6q-42 -4 -50.5 -12t-8.5 -42v-1183q0 -22 -1 -31t-6 -19t-16.5 -13t-31.5 -3q-24 0 -32 4t-23 23l-1020 1200v-1071q0 -34 8.5 -42t52.5 -12q55 -6 109 -6h51v-96q-84 6 -277 6q-196 0 -274 -6v96h51q62 0 111 6q42 4 50.5 12t8.5 42v1153
h-221v96h469q31 0 40 -4t27 -23l816 -958v829q0 34 -9 42t-53 12q-56 6 -108 6h-52v96q84 -6 277 -6q196 0 274 6v-96zM1053 -260q0 -60 -17 -117t-41.5 -96.5t-51.5 -70t-47 -45.5t-28 -15q-9 0 -18.5 9.5t-9.5 21.5q0 8 12 20q20 18 27.5 24.5t33 36t39 55.5t28 69.5
t17.5 91.5q-31 -31 -84 -31q-57 0 -88.5 36t-31.5 85q0 51 32.5 84.5t85.5 33.5q64 0 103 -55.5t39 -136.5z" />
    <glyph glyph-name="ncommaaccent" unicode="&#x146;" horiz-adv-x="1308" 
d="M1260 0l-259 6l-258 -6v96h142v553q0 111 -28.5 155t-84.5 44q-51 0 -102.5 -20t-98 -58t-75.5 -102t-29 -144v-428h141v-96l-258 6l-258 -6v96h141v633q0 58 -21 69t-120 11v96l352 17v-222q22 43 52 79.5t73 70t103.5 53t130.5 19.5q159 0 237 -69t78 -226v-531h142
v-96zM784 -260q0 -60 -17 -117t-41.5 -96.5t-51 -70t-46.5 -45.5t-28 -15q-10 0 -19.5 10t-9.5 21q0 7 13 20q20 18 27.5 24.5t33 36t39 55.5t28 69.5t17.5 91.5q-31 -31 -84 -31q-57 0 -89 36t-32 85q0 50 33 84t86 34q64 0 102.5 -55.5t38.5 -136.5z" />
    <glyph glyph-name="Ncaron" unicode="&#x147;" horiz-adv-x="1843" 
d="M1761 1309h-51q-62 0 -111 -6q-42 -4 -50.5 -12t-8.5 -42v-1183q0 -22 -1 -31t-6 -19t-16.5 -13t-31.5 -3q-24 0 -32 4t-23 23l-1020 1200v-1071q0 -34 8.5 -42t52.5 -12q55 -6 109 -6h51v-96q-84 6 -277 6q-196 0 -274 -6v96h51q62 0 111 6q42 4 50.5 12t8.5 42v1153
h-221v96h469q31 0 40 -4t27 -23l816 -958v829q0 34 -9 42t-53 12q-56 6 -108 6h-52v96q84 -6 277 -6q196 0 274 6v-96zM1282 1780l-358 -289l-359 289l33 49l328 -119l327 119z" />
    <glyph glyph-name="ncaron" unicode="&#x148;" horiz-adv-x="1308" 
d="M1260 0l-259 6l-258 -6v96h142v553q0 111 -28.5 155t-84.5 44q-51 0 -102.5 -20t-98 -58t-75.5 -102t-29 -144v-428h141v-96l-258 6l-258 -6v96h141v633q0 58 -21 69t-120 11v96l352 17v-222q22 43 52 79.5t73 70t103.5 53t130.5 19.5q159 0 237 -69t78 -226v-531h142
v-96zM1018 1409l-363 -379l-362 379l41 45l323 -203l324 203z" />
    <glyph glyph-name="napostrophe" unicode="&#x149;" horiz-adv-x="1961" 
d="M1913 0l-258 6l-258 -6v96h141v553q0 111 -28.5 155t-84.5 44q-51 0 -102.5 -20t-98 -58t-75.5 -102t-29 -144v-428h142v-96l-258 6l-259 -6v96h142v633q0 58 -21.5 69t-120.5 11v96l353 17v-222q22 43 51.5 79.5t72.5 70t103.5 53t130.5 19.5q159 0 237.5 -69t78.5 -226
v-531h141v-96zM166 1262q0 67 45 113t115 46q85 0 138.5 -73.5t53.5 -182.5q0 -79 -22.5 -154.5t-55.5 -128t-69 -94t-63.5 -61.5t-39.5 -20q-13 0 -26 11t-13 25q0 12 19.5 31t48 47t58.5 67.5t54.5 108.5t32.5 154q-30 -26 -55 -37.5t-61 -11.5q-71 0 -115.5 46.5
t-44.5 113.5z" />
    <glyph glyph-name="Eng" unicode="&#x14a;" horiz-adv-x="1843" 
d="M1708 702q0 -139 -30.5 -266.5t-87.5 -231t-151 -165.5t-210 -62q-54 0 -91.5 37.5t-37.5 91.5t37.5 92t91.5 38q36 0 66 -19t48 -51q25 57 37.5 157.5t14.5 176t2 202.5q0 120 -22.5 229t-67 199.5t-120.5 144.5t-173 54q-125 0 -237.5 -40.5t-184.5 -114.5v-1078h233
v-96q-84 6 -379 6q-294 0 -378 -6v96h233v1213h-233v96q84 -6 378 -6q72 0 146 6v-109q176 131 422 131q191 0 351 -98.5t251.5 -265t91.5 -361.5z" />
    <glyph glyph-name="eng" unicode="&#x14b;" horiz-adv-x="1212" 
d="M1118 96q0 -135 -47.5 -251.5t-140 -190.5t-211.5 -74q-48 0 -82.5 34t-34.5 83q0 47 35 82t82 35q38 0 68.5 -23t41.5 -57q26 37 39 103.5t15 118t2 140.5v553q0 111 -28.5 155t-84.5 44q-51 0 -102.5 -20t-98 -58t-75.5 -102t-29 -144v-428h141v-96l-258 6l-258 -6v96
h141v633q0 58 -21 69t-120 11v96l352 17v-222q22 43 52 79.5t73 70t103.5 53t130.5 19.5q159 0 237 -69t78 -226v-531z" />
    <glyph glyph-name="Omacron" unicode="&#x14c;" horiz-adv-x="1769" 
d="M1636 694q0 -157 -52 -289t-147.5 -227t-237.5 -148t-316 -53q-172 0 -313.5 52.5t-237.5 147t-148.5 227t-52.5 290.5q0 161 52.5 296t148.5 232t238 151t315 54q341 0 546 -200.5t205 -532.5zM1323 725q0 131 -16.5 235.5t-69.5 192.5q-59 96 -154 144.5t-200 48.5
q-98 0 -190 -44t-152 -133q-60 -93 -78.5 -203t-18.5 -241q0 -145 18 -252.5t66 -196.5q59 -109 156 -161t199 -52q96 0 189.5 46t156.5 149q40 66 62 155t27 156t5 156zM1309 1532h-848v106h848v-106z" />
    <glyph glyph-name="omacron" unicode="&#x14d;" 
d="M1110 446q0 -96 -34 -178.5t-97.5 -145t-164 -98.5t-226.5 -36q-247 0 -384.5 129.5t-137.5 328.5q0 102 35 190t99.5 153t164.5 102t223 37q244 0 383 -135t139 -347zM848 469q0 67 -1.5 104.5t-11.5 91t-30 85.5q-32 52 -90.5 78t-126.5 26q-76 0 -136.5 -31.5
t-89.5 -87.5q-16 -32 -24 -83.5t-9 -84t-1 -98.5q0 -40 0.5 -61t2.5 -60.5t6.5 -62t13.5 -55.5t21.5 -52.5t32.5 -43t45.5 -35.5t60.5 -20.5t77 -8.5t77 8.5t60.5 20.5t45.5 35.5t32.5 43t21.5 52.5t13.5 55.5t6.5 62t2.5 60.5t0.5 61zM1014 1190h-848v106h848v-106z" />
    <glyph glyph-name="Obreve" unicode="&#x14e;" horiz-adv-x="1769" 
d="M1636 694q0 -157 -52 -289t-147.5 -227t-237.5 -148t-316 -53q-172 0 -313.5 52.5t-237.5 147t-148.5 227t-52.5 290.5q0 161 52.5 296t148.5 232t238 151t315 54q341 0 546 -200.5t205 -532.5zM1323 725q0 131 -16.5 235.5t-69.5 192.5q-59 96 -154 144.5t-200 48.5
q-98 0 -190 -44t-152 -133q-60 -93 -78.5 -203t-18.5 -241q0 -145 18 -252.5t66 -196.5q59 -109 156 -161t199 -52q96 0 189.5 46t156.5 149q40 66 62 155t27 156t5 156zM1247 1894q-3 -114 -55.5 -203t-133.5 -134.5t-173 -45.5t-173 45t-134 134t-56 204h74
q3 -119 91.5 -187.5t197.5 -68.5t197.5 68.5t91.5 187.5h73z" />
    <glyph glyph-name="obreve" unicode="&#x14f;" 
d="M1110 446q0 -96 -34 -178.5t-97.5 -145t-164 -98.5t-226.5 -36q-247 0 -384.5 129.5t-137.5 328.5q0 102 35 190t99.5 153t164.5 102t223 37q244 0 383 -135t139 -347zM848 469q0 67 -1.5 104.5t-11.5 91t-30 85.5q-32 52 -90.5 78t-126.5 26q-76 0 -136.5 -31.5
t-89.5 -87.5q-16 -32 -24 -83.5t-9 -84t-1 -98.5q0 -40 0.5 -61t2.5 -60.5t6.5 -62t13.5 -55.5t21.5 -52.5t32.5 -43t45.5 -35.5t60.5 -20.5t77 -8.5t77 8.5t60.5 20.5t45.5 35.5t32.5 43t21.5 52.5t13.5 55.5t6.5 62t2.5 60.5t0.5 61zM952 1434q-3 -114 -55.5 -203
t-133.5 -134.5t-173 -45.5t-173 45t-134 134t-56 204h74q3 -119 91.5 -187.5t197.5 -68.5t197.5 68.5t91.5 187.5h73z" />
    <glyph glyph-name="Ohungarumlaut" unicode="&#x150;" horiz-adv-x="1769" 
d="M1636 694q0 -157 -52 -289t-147.5 -227t-237.5 -148t-316 -53q-172 0 -313.5 52.5t-237.5 147t-148.5 227t-52.5 290.5q0 161 52.5 296t148.5 232t238 151t315 54q341 0 546 -200.5t205 -532.5zM1323 725q0 131 -16.5 235.5t-69.5 192.5q-59 96 -154 144.5t-200 48.5
q-98 0 -190 -44t-152 -133q-60 -93 -78.5 -203t-18.5 -241q0 -145 18 -252.5t66 -196.5q59 -109 156 -161t199 -52q96 0 189.5 46t156.5 149q40 66 62 155t27 156t5 156zM905 1788q0 -45 -39 -84q-26 -27 -113.5 -108.5t-90.5 -84.5l-80 50l65 211q14 41 21.5 58.5t22 40.5
t34 31.5t47.5 8.5q48 0 90.5 -36t42.5 -87zM1298 1788q0 -46 -38 -84q-25 -27 -111.5 -107t-93.5 -86l-80 50l65 211q14 41 21.5 58.5t22 40.5t34 31.5t47.5 8.5q48 0 90.5 -36t42.5 -87z" />
    <glyph glyph-name="ohungarumlaut" unicode="&#x151;" 
d="M1110 446q0 -96 -34 -178.5t-97.5 -145t-164 -98.5t-226.5 -36q-247 0 -384.5 129.5t-137.5 328.5q0 102 35 190t99.5 153t164.5 102t223 37q244 0 383 -135t139 -347zM848 469q0 67 -1.5 104.5t-11.5 91t-30 85.5q-32 52 -90.5 78t-126.5 26q-76 0 -136.5 -31.5
t-89.5 -87.5q-16 -32 -24 -83.5t-9 -84t-1 -98.5q0 -40 0.5 -61t2.5 -60.5t6.5 -62t13.5 -55.5t21.5 -52.5t32.5 -43t45.5 -35.5t60.5 -20.5t77 -8.5t77 8.5t60.5 20.5t45.5 35.5t32.5 43t21.5 52.5t13.5 55.5t6.5 62t2.5 60.5t0.5 61zM610 1319q0 -45 -39 -84
q-26 -27 -113.5 -108.5t-90.5 -84.5l-80 50l65 211q14 41 21.5 58.5t22 40.5t34 31.5t47.5 8.5q48 0 90.5 -36t42.5 -87zM1004 1319q0 -45 -39 -84q-25 -27 -111.5 -107t-93.5 -86l-80 50l65 211q14 41 21.5 58.5t22 40.5t34 31.5t47.5 8.5q48 0 91 -36t43 -87z" />
    <glyph glyph-name="OE" unicode="&#x152;" horiz-adv-x="2394" 
d="M2327 561l-95 -561h-903q-61 0 -172 -10q-140 -13 -203 -13q-184 0 -333 54t-247 150t-151 228t-53 287q0 152 51.5 284t148 232t247 157.5t337.5 57.5q64 0 160 -8q164 -14 215 -14h869l63 -494h-96q-8 59 -15 98.5t-21 85.5t-32.5 75t-48 58t-69 45t-95 26t-125.5 10
h-291v-531h183q142 0 194.5 50.5t52.5 189.5h97v-576h-97q0 139 -52.5 189.5t-194.5 50.5h-183v-586h297q68 0 123.5 8t98 25.5t75 38.5t57 55t41.5 66t30.5 80.5t21.5 90t18 101.5h97zM1217 702l-3 250q0 51 -1 84.5t-3.5 72.5t-6 63t-10.5 51t-16.5 43t-23.5 33t-32 25.5
t-41.5 16t-52 10.5t-64.5 3q-104 0 -192.5 -39.5t-156 -115.5t-105.5 -197.5t-38 -274.5q0 -161 37.5 -290.5t103.5 -213t155.5 -128t195.5 -44.5q72 0 117.5 12t71 42t37 65t19.5 96q9 71 9 436z" />
    <glyph glyph-name="oe" unicode="&#x153;" horiz-adv-x="1830" 
d="M1763 240q0 -15 -11.5 -42t-40 -64t-69.5 -69t-109 -54.5t-149 -22.5q-137 0 -240 44t-163 109q-58 -62 -156.5 -107.5t-242.5 -45.5q-241 0 -378.5 132.5t-137.5 338.5q0 207 138.5 338t377.5 131q243 0 395 -148q145 148 379 148q203 0 305 -115q102 -116 102 -309
q0 -39 -12.5 -48.5t-52.5 -9.5h-602q1 -34 2.5 -54t8.5 -64.5t18 -73.5t34 -67t54 -61t79.5 -39.5t108.5 -16.5q82 0 155.5 41.5t106.5 126.5q10 24 18 31t33 7q49 0 49 -36zM1569 514q-2 36 -3.5 54.5t-7 60t-14 66.5t-24.5 59t-37.5 53t-54.5 33t-74 14q-15 0 -32.5 -2.5
t-48.5 -11.5t-62.5 -32t-55.5 -58q-55 -79 -59 -236h473zM862 469q0 28 -0.5 44t-3 50.5t-7 57t-14 56t-23 55.5t-35 47t-48.5 40t-65.5 25t-83.5 10q-63 0 -126 -27.5t-102 -87.5q-23 -37 -34.5 -91t-13 -88t-1.5 -91q0 -105 10 -166.5t37 -112.5q30 -58 92 -93.5
t138 -35.5q45 0 83.5 11t65.5 27t48.5 43t35 51t23 59t14 59.5t7 60.5t3 52.5t0.5 44.5z" />
    <glyph glyph-name="Racute" unicode="&#x154;" horiz-adv-x="1767" 
d="M1757 195q0 -14 -4 -35.5t-20 -55t-40.5 -60.5t-72 -47t-109.5 -20q-193 0 -301 54q-30 15 -53 32.5t-38 34t-25.5 41t-15.5 42t-7.5 49t-3 50t-0.5 56.5q0 122 -9.5 165.5t-56.5 94.5q-63 70 -182 70h-239v-570h221v-96q-74 6 -361 6q-286 0 -360 -6v96h221v1213h-221
v96h778q280 0 445 -109t165 -270q0 -108 -86 -197t-256 -133q196 -74 230 -239q1 -4 10.5 -82.5t11.5 -91.5q4 -35 7.5 -58t14.5 -59.5t26 -58.5t42 -39t62 -17q49 0 86.5 37t44.5 105q1 13 2.5 19.5t5.5 14t13.5 10.5t25.5 3q14 0 22.5 -1.5t17.5 -12t9 -31.5zM1155 1024
q0 27 -0.5 43t-3.5 43t-9 44t-17.5 40t-28 37.5t-42 31t-58 25.5t-77 15t-98.5 6h-241v-570h237q70 0 125 10.5t90 25t60 41t37 47t18 55t7 53.5t1 53zM1202 1714q-4 -23 -13.5 -40t-26 -27t-26.5 -14.5t-30 -10.5l-332 -111l-49 86q25 20 132 110.5t142 117.5q51 37 84 37
q58 0 94.5 -45.5t24.5 -102.5z" />
    <glyph glyph-name="racute" unicode="&#x155;" horiz-adv-x="970" 
d="M905 754q0 -58 -38 -91.5t-87 -33.5t-87 33t-38 92q0 26 9.5 49.5t19.5 34.5l10 10q-59 0 -105 -27.5t-74 -69.5t-46 -96.5t-24.5 -103.5t-6.5 -96v-359h178v-96q-74 6 -282 6l-258 -6v96h141v633q0 58 -21 69t-120 11v96l340 17v-232q85 232 272 232q86 0 151.5 -45.5
t65.5 -122.5zM784 1315q0 -30 -14 -53.5t-26.5 -32t-36.5 -21.5l-310 -166l-61 76l229 271q16 17 26.5 26.5t29.5 18t41 8.5q49 0 85.5 -39.5t36.5 -87.5z" />
    <glyph glyph-name="Rcommaaccent" unicode="&#x156;" horiz-adv-x="1767" 
d="M1757 195q0 -14 -4 -35.5t-20 -55t-40.5 -60.5t-72 -47t-109.5 -20q-193 0 -301 54q-30 15 -53 32.5t-38 34t-25.5 41t-15.5 42t-7.5 49t-3 50t-0.5 56.5q0 122 -9.5 165.5t-56.5 94.5q-63 70 -182 70h-239v-570h221v-96q-74 6 -361 6q-286 0 -360 -6v96h221v1213h-221
v96h778q280 0 445 -109t165 -270q0 -108 -86 -197t-256 -133q196 -74 230 -239q1 -4 10.5 -82.5t11.5 -91.5q4 -35 7.5 -58t14.5 -59.5t26 -58.5t42 -39t62 -17q49 0 86.5 37t44.5 105q1 13 2.5 19.5t5.5 14t13.5 10.5t25.5 3q14 0 22.5 -1.5t17.5 -12t9 -31.5zM1155 1024
q0 27 -0.5 43t-3.5 43t-9 44t-17.5 40t-28 37.5t-42 31t-58 25.5t-77 15t-98.5 6h-241v-570h237q70 0 125 10.5t90 25t60 41t37 47t18 55t7 53.5t1 53zM1014 -260q0 -60 -17 -117t-41.5 -96.5t-51.5 -70t-47 -45.5t-28 -15q-9 0 -18.5 9.5t-9.5 21.5q0 8 12 20
q20 18 27.5 24.5t33 36t39 55.5t28 69.5t17.5 91.5q-31 -31 -84 -31q-57 0 -88.5 36t-31.5 85q0 51 32.5 84.5t85.5 33.5q64 0 103 -55.5t39 -136.5z" />
    <glyph glyph-name="rcommaaccent" unicode="&#x157;" horiz-adv-x="970" 
d="M905 754q0 -58 -38 -91.5t-87 -33.5t-87 33t-38 92q0 26 9.5 49.5t19.5 34.5l10 10q-59 0 -105 -27.5t-74 -69.5t-46 -96.5t-24.5 -103.5t-6.5 -96v-359h178v-96q-74 6 -282 6l-258 -6v96h141v633q0 58 -21 69t-120 11v96l340 17v-232q85 232 272 232q86 0 151.5 -45.5
t65.5 -122.5zM459 -260q0 -60 -17 -117t-41.5 -96.5t-51.5 -70t-47 -45.5t-28 -15q-9 0 -18.5 9.5t-9.5 21.5q0 8 12 20q20 18 27.5 24.5t33 36t39 55.5t28 69.5t17.5 91.5q-31 -31 -84 -31q-57 0 -88.5 36t-31.5 85q0 51 32.5 84.5t85.5 33.5q64 0 103 -55.5t39 -136.5z
" />
    <glyph glyph-name="Rcaron" unicode="&#x158;" horiz-adv-x="1767" 
d="M1757 195q0 -14 -4 -35.5t-20 -55t-40.5 -60.5t-72 -47t-109.5 -20q-193 0 -301 54q-30 15 -53 32.5t-38 34t-25.5 41t-15.5 42t-7.5 49t-3 50t-0.5 56.5q0 122 -9.5 165.5t-56.5 94.5q-63 70 -182 70h-239v-570h221v-96q-74 6 -361 6q-286 0 -360 -6v96h221v1213h-221
v96h778q280 0 445 -109t165 -270q0 -108 -86 -197t-256 -133q196 -74 230 -239q1 -4 10.5 -82.5t11.5 -91.5q4 -35 7.5 -58t14.5 -59.5t26 -58.5t42 -39t62 -17q49 0 86.5 37t44.5 105q1 13 2.5 19.5t5.5 14t13.5 10.5t25.5 3q14 0 22.5 -1.5t17.5 -12t9 -31.5zM1155 1024
q0 27 -0.5 43t-3.5 43t-9 44t-17.5 40t-28 37.5t-42 31t-58 25.5t-77 15t-98.5 6h-241v-570h237q70 0 125 10.5t90 25t60 41t37 47t18 55t7 53.5t1 53zM1243 1780l-358 -289l-359 289l33 49l328 -119l327 119z" />
    <glyph glyph-name="rcaron" unicode="&#x159;" horiz-adv-x="970" 
d="M905 754q0 -58 -38 -91.5t-87 -33.5t-87 33t-38 92q0 26 9.5 49.5t19.5 34.5l10 10q-59 0 -105 -27.5t-74 -69.5t-46 -96.5t-24.5 -103.5t-6.5 -96v-359h178v-96q-74 6 -282 6l-258 -6v96h141v633q0 58 -21 69t-120 11v96l340 17v-232q85 232 272 232q86 0 151.5 -45.5
t65.5 -122.5zM848 1409l-363 -379l-362 379l41 45l323 -203l324 203z" />
    <glyph glyph-name="Sacute" unicode="&#x15a;" horiz-adv-x="1308" 
d="M1176 416q0 -82 -26 -157t-79 -139.5t-146 -103.5t-214 -39q-56 0 -115 6.5t-146 33.5t-149 73l-94 -94q-10 -9 -14 -11.5t-10 -5t-15 -2.5q-18 0 -26 7.5t-9.5 17t-1.5 33.5v373q0 38 7 48.5t42 10.5q32 0 38.5 -8.5t8.5 -38.5q4 -73 30 -131t68.5 -94.5t90.5 -61.5
t104.5 -37t101 -17t89.5 -5q76 0 131 23t82.5 60.5t40 76t12.5 79.5q0 97 -82 179q-32 30 -72 43t-188 45q-187 41 -255 67t-138 96q-111 116 -111 273q0 82 28.5 155t83.5 131t144.5 91.5t202.5 33.5q208 0 350 -112l92 90q18 16 23.5 19t17.5 3q26 0 31.5 -11.5t5.5 -45.5
v-375q0 -38 -7 -47.5t-42 -9.5q-31 0 -38 7.5t-13 45.5q-14 81 -46.5 143t-73.5 100t-93.5 62.5t-102 33.5t-102.5 9q-73 0 -127 -20.5t-81.5 -54.5t-40.5 -69t-13 -71q0 -85 61 -141t135 -72l297 -63q146 -31 249.5 -149.5t103.5 -282.5zM973 1714q-4 -23 -13.5 -40
t-26 -27t-26.5 -14.5t-30 -10.5l-332 -111l-49 86q25 20 132 110.5t142 117.5q51 37 84 37q58 0 94.5 -45.5t24.5 -102.5z" />
    <glyph glyph-name="sacute" unicode="&#x15b;" horiz-adv-x="929" 
d="M850 287q0 -61 -18.5 -110.5t-45 -80t-66.5 -52.5t-72.5 -32.5t-74.5 -16.5t-60.5 -6.5t-41.5 -0.5q-149 0 -242 65l-53 -35q-30 -21 -39.5 -25.5t-21.5 -4.5q-26 0 -31.5 11.5t-5.5 45.5v223q0 38 7 49t42 11q17 0 24 -1t13.5 -7.5t11.5 -20.5q10 -34 19.5 -59.5
t32.5 -61.5t52.5 -59.5t79 -40.5t111.5 -17q19 0 33.5 1t46 4.5t55 14t48 26t38 43.5t13.5 65q0 34 -17.5 61.5t-40.5 43.5t-59 28.5t-58 17t-53 9.5q-160 29 -207 47q-61 22 -110 65q-82 70 -82 172q0 55 18.5 99t45 71.5t66.5 47.5t72.5 29.5t74 15t60 6t40.5 0.5
q130 0 207 -39q80 39 92 39q18 0 26 -7.5t9.5 -17t1.5 -33.5v-163q0 -38 -7.5 -48t-42.5 -10q-30 0 -37.5 8t-9.5 33q-15 172 -241 172q-14 0 -25.5 -0.5t-37 -3t-45 -6.5t-44 -13.5t-40.5 -22.5t-27 -34t-11 -47q0 -20 8.5 -37t19 -29t31.5 -22.5t35.5 -16.5t40.5 -12.5
t37.5 -8.5t36.5 -7q134 -23 191.5 -40t113.5 -58q113 -89 113 -217zM764 1315q0 -30 -14.5 -53.5t-27 -32t-36.5 -21.5l-309 -166l-62 76l230 271q17 18 26.5 27t28.5 17.5t41 8.5q49 0 86 -39.5t37 -87.5z" />
    <glyph glyph-name="Scircumflex" unicode="&#x15c;" horiz-adv-x="1308" 
d="M1176 416q0 -82 -26 -157t-79 -139.5t-146 -103.5t-214 -39q-56 0 -115 6.5t-146 33.5t-149 73l-94 -94q-10 -9 -14 -11.5t-10 -5t-15 -2.5q-18 0 -26 7.5t-9.5 17t-1.5 33.5v373q0 38 7 48.5t42 10.5q32 0 38.5 -8.5t8.5 -38.5q4 -73 30 -131t68.5 -94.5t90.5 -61.5
t104.5 -37t101 -17t89.5 -5q76 0 131 23t82.5 60.5t40 76t12.5 79.5q0 97 -82 179q-32 30 -72 43t-188 45q-187 41 -255 67t-138 96q-111 116 -111 273q0 82 28.5 155t83.5 131t144.5 91.5t202.5 33.5q208 0 350 -112l92 90q18 16 23.5 19t17.5 3q26 0 31.5 -11.5t5.5 -45.5
v-375q0 -38 -7 -47.5t-42 -9.5q-31 0 -38 7.5t-13 45.5q-14 81 -46.5 143t-73.5 100t-93.5 62.5t-102 33.5t-102.5 9q-73 0 -127 -20.5t-81.5 -54.5t-40.5 -69t-13 -71q0 -85 61 -141t135 -72l297 -63q146 -31 249.5 -149.5t103.5 -282.5zM1014 1540l-33 -49l-328 119
l-327 -119l-29 49l358 289z" />
    <glyph glyph-name="scircumflex" unicode="&#x15d;" horiz-adv-x="929" 
d="M850 287q0 -61 -18.5 -110.5t-45 -80t-66.5 -52.5t-72.5 -32.5t-74.5 -16.5t-60.5 -6.5t-41.5 -0.5q-149 0 -242 65l-53 -35q-30 -21 -39.5 -25.5t-21.5 -4.5q-26 0 -31.5 11.5t-5.5 45.5v223q0 38 7 49t42 11q17 0 24 -1t13.5 -7.5t11.5 -20.5q10 -34 19.5 -59.5
t32.5 -61.5t52.5 -59.5t79 -40.5t111.5 -17q19 0 33.5 1t46 4.5t55 14t48 26t38 43.5t13.5 65q0 34 -17.5 61.5t-40.5 43.5t-59 28.5t-58 17t-53 9.5q-160 29 -207 47q-61 22 -110 65q-82 70 -82 172q0 55 18.5 99t45 71.5t66.5 47.5t72.5 29.5t74 15t60 6t40.5 0.5
q130 0 207 -39q80 39 92 39q18 0 26 -7.5t9.5 -17t1.5 -33.5v-163q0 -38 -7.5 -48t-42.5 -10q-30 0 -37.5 8t-9.5 33q-15 172 -241 172q-14 0 -25.5 -0.5t-37 -3t-45 -6.5t-44 -13.5t-40.5 -22.5t-27 -34t-11 -47q0 -20 8.5 -37t19 -29t31.5 -22.5t35.5 -16.5t40.5 -12.5
t37.5 -8.5t36.5 -7q134 -23 191.5 -40t113.5 -58q113 -89 113 -217zM827 1075l-41 -45l-323 203l-324 -203l-37 45l363 379z" />
    <glyph glyph-name="Scedilla" unicode="&#x15e;" horiz-adv-x="1308" 
d="M1176 416q0 -78 -24 -150t-72 -135t-133 -104t-195 -47v-48q88 0 152.5 -48t64.5 -122q0 -25 -7.5 -46.5t-25 -37.5t-35.5 -29t-49.5 -22t-56.5 -15.5t-66.5 -10.5t-68.5 -6.5t-74.5 -3.5t-73 -1h-74.5h-98v99h49q50 0 73.5 0.5t69.5 2t70 6t52 12.5t40.5 21t12.5 31
q0 72 -152 72v156q-153 26 -254 100l-94 -94q-10 -9 -14 -11.5t-10 -5t-15 -2.5q-18 0 -26 7.5t-9.5 17t-1.5 33.5v373q0 38 7 48.5t42 10.5q32 0 38.5 -8.5t8.5 -38.5q4 -73 30 -131t68.5 -94.5t90.5 -61.5t104.5 -37t101 -17t89.5 -5q76 0 131 23t82.5 60.5t40 76
t12.5 79.5q0 97 -82 179q-32 30 -72 43t-188 45q-187 41 -255 67t-138 96q-111 116 -111 273q0 82 28.5 155t83.5 131t144.5 91.5t202.5 33.5q208 0 350 -112l92 90q18 16 23.5 19t17.5 3q26 0 31.5 -11.5t5.5 -45.5v-375q0 -38 -7 -47.5t-42 -9.5q-31 0 -38 7.5t-13 45.5
q-14 81 -46.5 143t-73.5 100t-93.5 62.5t-102 33.5t-102.5 9q-73 0 -127 -20.5t-81.5 -54.5t-40.5 -69t-13 -71q0 -85 61 -141t135 -72l297 -63q146 -31 249.5 -149.5t103.5 -282.5z" />
    <glyph glyph-name="scedilla" unicode="&#x15f;" horiz-adv-x="929" 
d="M850 287q0 -63 -19.5 -113.5t-48 -81t-69 -52.5t-76 -31.5t-74.5 -14.5v-62q86 0 150.5 -48t64.5 -122q0 -25 -7.5 -46.5t-25 -37.5t-35.5 -29t-49.5 -22t-56 -15.5t-66 -10.5t-68.5 -6.5t-74.5 -3.5t-73 -1h-74.5h-98v99h49q50 0 73.5 0.5t69 2t69.5 6t52 12.5t40.5 21
t12.5 31q0 72 -149 72v162q-81 15 -138 57l-53 -35q-30 -21 -39.5 -25.5t-21.5 -4.5q-26 0 -31.5 11.5t-5.5 45.5v223q0 38 7 49t42 11q17 0 24 -1t13.5 -7.5t11.5 -20.5q10 -34 19.5 -59.5t32.5 -61.5t52.5 -59.5t79 -40.5t111.5 -17q19 0 33.5 1t46 4.5t55 14t48 26
t38 43.5t13.5 65q0 34 -17.5 61.5t-40.5 43.5t-59 28.5t-58 17t-53 9.5q-160 29 -207 47q-61 22 -110 65q-82 70 -82 172q0 55 18.5 99t45 71.5t66.5 47.5t72.5 29.5t74 15t60 6t40.5 0.5q130 0 207 -39q80 39 92 39q18 0 26 -7.5t9.5 -17t1.5 -33.5v-163q0 -38 -7.5 -48
t-42.5 -10q-30 0 -37.5 8t-9.5 33q-15 172 -241 172q-14 0 -25.5 -0.5t-37 -3t-45 -6.5t-44 -13.5t-40.5 -22.5t-27 -34t-11 -47q0 -20 8.5 -37t19 -29t31.5 -22.5t35.5 -16.5t40.5 -12.5t37.5 -8.5t36.5 -7q134 -23 191.5 -40t113.5 -58q113 -89 113 -217z" />
    <glyph glyph-name="Scaron" unicode="&#x160;" horiz-adv-x="1308" 
d="M1176 416q0 -82 -26 -157t-79 -139.5t-146 -103.5t-214 -39q-56 0 -115 6.5t-146 33.5t-149 73l-94 -94q-10 -9 -14 -11.5t-10 -5t-15 -2.5q-18 0 -26 7.5t-9.5 17t-1.5 33.5v373q0 38 7 48.5t42 10.5q32 0 38.5 -8.5t8.5 -38.5q4 -73 30 -131t68.5 -94.5t90.5 -61.5
t104.5 -37t101 -17t89.5 -5q76 0 131 23t82.5 60.5t40 76t12.5 79.5q0 97 -82 179q-32 30 -72 43t-188 45q-187 41 -255 67t-138 96q-111 116 -111 273q0 82 28.5 155t83.5 131t144.5 91.5t202.5 33.5q208 0 350 -112l92 90q18 16 23.5 19t17.5 3q26 0 31.5 -11.5t5.5 -45.5
v-375q0 -38 -7 -47.5t-42 -9.5q-31 0 -38 7.5t-13 45.5q-14 81 -46.5 143t-73.5 100t-93.5 62.5t-102 33.5t-102.5 9q-73 0 -127 -20.5t-81.5 -54.5t-40.5 -69t-13 -71q0 -85 61 -141t135 -72l297 -63q146 -31 249.5 -149.5t103.5 -282.5zM1014 1780l-359 -289l-358 289
l33 49l327 -119l328 119z" />
    <glyph glyph-name="scaron" unicode="&#x161;" horiz-adv-x="929" 
d="M850 287q0 -61 -18.5 -110.5t-45 -80t-66.5 -52.5t-72.5 -32.5t-74.5 -16.5t-60.5 -6.5t-41.5 -0.5q-149 0 -242 65l-53 -35q-30 -21 -39.5 -25.5t-21.5 -4.5q-26 0 -31.5 11.5t-5.5 45.5v223q0 38 7 49t42 11q17 0 24 -1t13.5 -7.5t11.5 -20.5q10 -34 19.5 -59.5
t32.5 -61.5t52.5 -59.5t79 -40.5t111.5 -17q19 0 33.5 1t46 4.5t55 14t48 26t38 43.5t13.5 65q0 34 -17.5 61.5t-40.5 43.5t-59 28.5t-58 17t-53 9.5q-160 29 -207 47q-61 22 -110 65q-82 70 -82 172q0 55 18.5 99t45 71.5t66.5 47.5t72.5 29.5t74 15t60 6t40.5 0.5
q130 0 207 -39q80 39 92 39q18 0 26 -7.5t9.5 -17t1.5 -33.5v-163q0 -38 -7.5 -48t-42.5 -10q-30 0 -37.5 8t-9.5 33q-15 172 -241 172q-14 0 -25.5 -0.5t-37 -3t-45 -6.5t-44 -13.5t-40.5 -22.5t-27 -34t-11 -47q0 -20 8.5 -37t19 -29t31.5 -22.5t35.5 -16.5t40.5 -12.5
t37.5 -8.5t36.5 -7q134 -23 191.5 -40t113.5 -58q113 -89 113 -217zM827 1409l-362 -379l-363 379l41 45l324 -203l324 203z" />
    <glyph glyph-name="Tcedilla" unicode="&#x162;" horiz-adv-x="1638" 
d="M1550 889h-96q-4 47 -7 75.5t-9.5 68t-14 63.5t-20.5 54t-29.5 47.5t-41 36.5t-54.5 29t-70 16.5t-88 6.5h-155v-1190h313v-96l-360 6v-74q86 0 150.5 -48t64.5 -122q0 -25 -7.5 -46.5t-25 -37.5t-35.5 -29t-49.5 -22t-56.5 -15.5t-66.5 -10.5t-68.5 -6.5t-74.5 -3.5
t-73 -1h-74.5h-98v99h49q50 0 73.5 0.5t69 2t69.5 6t52 12.5t40.5 21t12.5 31q0 72 -149 72v172l-361 -6v96h314v1190h-158q-49 0 -89 -6.5t-70 -16.5t-54.5 -29t-41.5 -37t-29.5 -48t-20.5 -54t-14 -63.5t-8.5 -68t-6.5 -74.5h-96l43 493h1378z" />
    <glyph glyph-name="tcedilla" unicode="&#x163;" horiz-adv-x="915" 
d="M801 -238q0 -25 -7.5 -46.5t-25 -37.5t-35.5 -29t-49.5 -22t-56.5 -15.5t-66.5 -10.5t-68.5 -6.5t-74.5 -3.5t-73 -1h-74.5h-98v99h49q50 0 73.5 0.5t69.5 2t70 6t52 12.5t40.5 21t12.5 31q0 72 -150 72v172q-178 56 -178 246v561h-168v74q73 2 132.5 38t96 94.5t56 130
t20.5 150.5h96v-391h299v-96h-299v-565q0 -178 119 -178q49 0 86 46t37 142v104h96v-108q0 -102 -52 -173.5t-144 -88.5v-60q86 0 150.5 -48t64.5 -122z" />
    <glyph glyph-name="Tcaron" unicode="&#x164;" horiz-adv-x="1638" 
d="M1550 889h-96q-4 47 -7 75.5t-9.5 68t-14 63.5t-20.5 54t-29.5 47.5t-41 36.5t-54.5 29t-70 16.5t-88 6.5h-155v-1190h313v-96q-111 6 -459 6t-459 -6v96h314v1190h-158q-49 0 -89 -6.5t-70 -16.5t-54.5 -29t-41.5 -37t-29.5 -48t-20.5 -54t-14 -63.5t-8.5 -68
t-6.5 -74.5h-96l43 493h1378zM1180 1780l-359 -289l-358 289l33 49l327 -119l328 119z" />
    <glyph glyph-name="tcaron" unicode="&#x165;" horiz-adv-x="915" 
d="M782 254q0 -116 -66.5 -191t-180.5 -75q-48 0 -90 6t-86.5 24t-76 46.5t-51.5 76.5t-20 111v561h-168v74q73 2 132.5 38t96 94.5t56 130t20.5 150.5h96v-391h299v-96h-299v-565q0 -178 119 -178q49 0 86 46t37 142v104h96v-108zM793 1341q0 -60 -17 -117t-41.5 -96.5
t-51.5 -70t-47 -45.5t-28 -15q-9 0 -18.5 9.5t-9.5 21.5q0 9 12 21q21 19 27.5 24.5t33 35.5t39.5 55.5t27.5 69t17.5 91.5q-31 -31 -84 -31q-57 0 -89 36t-32 85q0 51 33 85t86 34q64 0 103 -56t39 -137z" />
    <glyph glyph-name="Tbar" unicode="&#x166;" horiz-adv-x="1638" 
d="M1550 889h-96q-4 47 -7 75.5t-9.5 68t-14 63.5t-20.5 54t-29.5 47.5t-41 36.5t-54.5 29t-70 16.5t-88 6.5h-155v-1190h313v-96q-111 6 -459 6t-459 -6v96h314v1190h-158q-49 0 -89 -6.5t-70 -16.5t-54.5 -29t-41.5 -37t-29.5 -48t-20.5 -54t-14 -63.5t-8.5 -68
t-6.5 -74.5h-96l43 493h1378zM313 612v109h1012v-109h-1012z" />
    <glyph glyph-name="tbar" unicode="&#x167;" horiz-adv-x="915" 
d="M782 254q0 -116 -66.5 -191t-180.5 -75q-48 0 -90 6t-86.5 24t-76 46.5t-51.5 76.5t-20 111v561h-168v74q73 2 132.5 38t96 94.5t56 130t20.5 150.5h96v-391h299v-96h-299v-565q0 -178 119 -178q49 0 86 46t37 142v104h96v-108zM43 530v68h700v-68h-700z" />
    <glyph glyph-name="Utilde" unicode="&#x168;" horiz-adv-x="1812" 
d="M1731 1309h-52q-61 0 -110 -6q-43 -4 -51.5 -12t-8.5 -42v-780q0 -97 -34 -183.5t-100.5 -156.5t-177 -111t-251.5 -41q-155 0 -279 39t-203 107t-121 157.5t-42 192.5v836h-221v96q78 -6 366 -6q289 0 367 6v-96h-221v-852q0 -35 1 -58.5t8.5 -67t20.5 -74.5t39.5 -68
t64 -60t96 -39t132.5 -16q70 0 132.5 12.5t121 42.5t100.5 75t67.5 115t25.5 158v772q0 34 -9 42t-53 12q-56 6 -108 6h-51v96q84 -6 276 -6q197 0 275 6v-96zM1354 1661q-11 -12 -50 -54t-51 -53q-63 -63 -147 -63q-56 0 -162 35t-164 35q-94 0 -155 -70l-54 51
q11 11 50 53t51 54q63 63 147 63q56 0 162 -35t164 -35q94 0 155 70z" />
    <glyph glyph-name="utilde" unicode="&#x169;" horiz-adv-x="1308" 
d="M1260 0l-363 -12v159q-93 -159 -295 -159q-83 0 -144.5 11t-115 38.5t-81.5 81.5t-28 133v477q0 58 -21 69t-120 11v96l375 17v-699q0 -49 3.5 -73.5t19 -48t49.5 -32t92 -8.5q113 0 183.5 76t70.5 201v391q0 58 -21.5 69t-120.5 11v96l375 17v-746q0 -58 21.5 -69
t120.5 -11v-96zM1047 1303q-11 -11 -50 -53t-51 -54q-63 -63 -147 -63q-59 0 -162 34q-106 35 -164 35q-96 0 -156 -69l-53 51q12 12 51 53.5t50 52.5q64 64 147 64q56 0 162 -35t164 -35q94 0 155 70z" />
    <glyph glyph-name="Umacron" unicode="&#x16a;" horiz-adv-x="1812" 
d="M1731 1309h-52q-61 0 -110 -6q-43 -4 -51.5 -12t-8.5 -42v-780q0 -97 -34 -183.5t-100.5 -156.5t-177 -111t-251.5 -41q-155 0 -279 39t-203 107t-121 157.5t-42 192.5v836h-221v96q78 -6 366 -6q289 0 367 6v-96h-221v-852q0 -35 1 -58.5t8.5 -67t20.5 -74.5t39.5 -68
t64 -60t96 -39t132.5 -16q70 0 132.5 12.5t121 42.5t100.5 75t67.5 115t25.5 158v772q0 34 -9 42t-53 12q-56 6 -108 6h-51v96q84 -6 276 -6q197 0 275 6v-96zM1386 1532h-847v106h847v-106z" />
    <glyph glyph-name="umacron" unicode="&#x16b;" horiz-adv-x="1308" 
d="M1260 0l-363 -12v159q-93 -159 -295 -159q-83 0 -144.5 11t-115 38.5t-81.5 81.5t-28 133v477q0 58 -21 69t-120 11v96l375 17v-699q0 -49 3.5 -73.5t19 -48t49.5 -32t92 -8.5q113 0 183.5 76t70.5 201v391q0 58 -21.5 69t-120.5 11v96l375 17v-746q0 -58 21.5 -69
t120.5 -11v-96zM1079 1190h-848v106h848v-106z" />
    <glyph glyph-name="Ubreve" unicode="&#x16c;" horiz-adv-x="1812" 
d="M1731 1309h-52q-61 0 -110 -6q-43 -4 -51.5 -12t-8.5 -42v-780q0 -97 -34 -183.5t-100.5 -156.5t-177 -111t-251.5 -41q-155 0 -279 39t-203 107t-121 157.5t-42 192.5v836h-221v96q78 -6 366 -6q289 0 367 6v-96h-221v-852q0 -35 1 -58.5t8.5 -67t20.5 -74.5t39.5 -68
t64 -60t96 -39t132.5 -16q70 0 132.5 12.5t121 42.5t100.5 75t67.5 115t25.5 158v772q0 34 -9 42t-53 12q-56 6 -108 6h-51v96q84 -6 276 -6q197 0 275 6v-96zM1325 1894q-3 -114 -55.5 -203t-133.5 -134.5t-173 -45.5t-173 45t-134 134t-56 204h74q3 -119 91.5 -187.5
t197.5 -68.5t197 68.5t91 187.5h74z" />
    <glyph glyph-name="ubreve" unicode="&#x16d;" horiz-adv-x="1308" 
d="M1260 0l-363 -12v159q-93 -159 -295 -159q-83 0 -144.5 11t-115 38.5t-81.5 81.5t-28 133v477q0 58 -21 69t-120 11v96l375 17v-699q0 -49 3.5 -73.5t19 -48t49.5 -32t92 -8.5q113 0 183.5 76t70.5 201v391q0 58 -21.5 69t-120.5 11v96l375 17v-746q0 -58 21.5 -69
t120.5 -11v-96zM1018 1434q-3 -114 -56 -203t-134 -134.5t-173 -45.5t-173 45t-133.5 134t-55.5 204h74q3 -119 91 -187.5t197 -68.5t197.5 68.5t91.5 187.5h74z" />
    <glyph glyph-name="Uring" unicode="&#x16e;" horiz-adv-x="1812" 
d="M1731 1309h-52q-61 0 -110 -6q-43 -4 -51.5 -12t-8.5 -42v-780q0 -97 -34 -183.5t-100.5 -156.5t-177 -111t-251.5 -41q-155 0 -279 39t-203 107t-121 157.5t-42 192.5v836h-221v96q78 -6 366 -6q289 0 367 6v-96h-221v-852q0 -35 1 -58.5t8.5 -67t20.5 -74.5t39.5 -68
t64 -60t96 -39t132.5 -16q70 0 132.5 12.5t121 42.5t100.5 75t67.5 115t25.5 158v772q0 34 -9 42t-53 12q-56 6 -108 6h-51v96q84 -6 276 -6q197 0 275 6v-96zM1094 1602q0 24 -7 40.5t-18 26t-30 14.5t-35.5 6t-42.5 1t-43 -1t-36 -6t-29.5 -14.5t-18 -26t-7.5 -40.5
q0 -56 32 -72.5t102 -16.5t101.5 16.5t31.5 72.5zM1204 1599q0 -66 -58.5 -117.5t-184.5 -51.5q-124 0 -184 51.5t-60 122.5q0 66 59 118t185 52q123 0 183 -51.5t60 -123.5z" />
    <glyph glyph-name="uring" unicode="&#x16f;" horiz-adv-x="1308" 
d="M1260 0l-363 -12v159q-93 -159 -295 -159q-83 0 -144.5 11t-115 38.5t-81.5 81.5t-28 133v477q0 58 -21 69t-120 11v96l375 17v-699q0 -49 3.5 -73.5t19 -48t49.5 -32t92 -8.5q113 0 183.5 76t70.5 201v391q0 58 -21.5 69t-120.5 11v96l375 17v-746q0 -58 21.5 -69
t120.5 -11v-96zM788 1239q0 24 -7 40.5t-18 26t-30 14.5t-35.5 6t-42.5 1t-42.5 -1t-35.5 -6t-30 -14.5t-18 -26t-7 -40.5q0 -56 31.5 -72t101.5 -16t101.5 16t31.5 72zM899 1237q0 -66 -59 -118t-185 -52q-123 0 -183 51t-60 123q0 30 12.5 58t39.5 54t76 42t115 16
q124 0 184 -51.5t60 -122.5z" />
    <glyph glyph-name="Uhungarumlaut" unicode="&#x170;" horiz-adv-x="1812" 
d="M1731 1309h-52q-61 0 -110 -6q-43 -4 -51.5 -12t-8.5 -42v-780q0 -97 -34 -183.5t-100.5 -156.5t-177 -111t-251.5 -41q-155 0 -279 39t-203 107t-121 157.5t-42 192.5v836h-221v96q78 -6 366 -6q289 0 367 6v-96h-221v-852q0 -35 1 -58.5t8.5 -67t20.5 -74.5t39.5 -68
t64 -60t96 -39t132.5 -16q70 0 132.5 12.5t121 42.5t100.5 75t67.5 115t25.5 158v772q0 34 -9 42t-53 12q-56 6 -108 6h-51v96q84 -6 276 -6q197 0 275 6v-96zM983 1788q0 -45 -39 -84q-25 -27 -111.5 -107t-93.5 -86l-80 50l66 211q14 41 21.5 58.5t22 40.5t34 31.5
t47.5 8.5q48 0 90.5 -36t42.5 -87zM1376 1788q0 -45 -39 -84q-26 -27 -113.5 -108.5t-90.5 -84.5l-80 50l65 211q14 41 21.5 58.5t22 40.5t34 31.5t47.5 8.5q48 0 90.5 -36t42.5 -87z" />
    <glyph glyph-name="uhungarumlaut" unicode="&#x171;" horiz-adv-x="1308" 
d="M1260 0l-363 -12v159q-93 -159 -295 -159q-83 0 -144.5 11t-115 38.5t-81.5 81.5t-28 133v477q0 58 -21 69t-120 11v96l375 17v-699q0 -49 3.5 -73.5t19 -48t49.5 -32t92 -8.5q113 0 183.5 76t70.5 201v391q0 58 -21.5 69t-120.5 11v96l375 17v-746q0 -58 21.5 -69
t120.5 -11v-96zM676 1319q0 -45 -39 -84q-25 -27 -111.5 -107t-93.5 -86l-80 50l66 211q14 41 21.5 58.5t22 40.5t34 31.5t47.5 8.5q48 0 90.5 -36t42.5 -87zM1069 1319q0 -45 -39 -84q-25 -27 -111.5 -107t-93.5 -86l-80 50l66 211q14 41 21.5 58.5t22 40.5t34 31.5
t47.5 8.5q48 0 90.5 -36t42.5 -87z" />
    <glyph glyph-name="Uogonek" unicode="&#x172;" horiz-adv-x="1812" 
d="M1731 1309h-52q-61 0 -110 -6q-43 -4 -51.5 -12t-8.5 -42v-780q0 -89 -28.5 -169t-84 -147t-147 -112.5t-209.5 -58.5q-40 -34 -59 -86q-21 -60 6.5 -109t79.5 -49q60 0 94 47q16 21 56 -14q12 -9 16.5 -26.5t-4.5 -31.5q-91 -135 -225 -135q-101 0 -166.5 65t-65.5 152
q0 44 27 96t67 89q-269 20 -417 157.5t-148 335.5v836h-221v96q78 -6 366 -6q289 0 367 6v-96h-221v-852q0 -35 1 -58.5t8.5 -67t20.5 -74.5t39.5 -68t64 -60t96 -39t132.5 -16q70 0 132.5 12.5t121 42.5t100.5 75t67.5 115t25.5 158v772q0 34 -9 42t-53 12q-56 6 -108 6
h-51v96q84 -6 276 -6q197 0 275 6v-96z" />
    <glyph glyph-name="uogonek" unicode="&#x173;" horiz-adv-x="1308" 
d="M1294 -287q-91 -135 -225 -135q-101 0 -166 65t-65 152q0 47 29.5 101.5t74.5 93.5l-45 -2v159q-93 -159 -295 -159q-83 0 -144.5 11t-115 38.5t-81.5 81.5t-28 133v477q0 58 -21 69t-120 11v96l375 17v-699q0 -49 3.5 -73.5t19 -48t49.5 -32t92 -8.5q113 0 183.5 76
t70.5 201v391q0 58 -21.5 69t-120.5 11v96l375 17v-746q0 -58 21.5 -69t120.5 -11v-96l-140 -4q-52 -40 -73 -100q-23 -60 5.5 -109t80.5 -49q60 0 94 47q15 20 55 -14q12 -9 16.5 -26.5t-4.5 -31.5z" />
    <glyph glyph-name="Wcircumflex" unicode="&#x174;" horiz-adv-x="2435" 
d="M2384 1309q-76 0 -117 -4q-46 -4 -57.5 -11t-20.5 -34l-473 -1223q-7 -20 -12.5 -29t-20 -16.5t-38.5 -7.5q-35 0 -48 12t-24 41l-356 921l-357 -921q-7 -20 -13 -29.5t-20.5 -16.5t-38.5 -7t-38.5 7.5t-20 16.5t-12.5 29l-492 1272h-176v96q72 -6 313 -6q281 0 359 6
v-96h-197l363 -938l278 721l-84 217h-176v96q72 -6 314 -6q280 0 358 6v-96h-197l363 -938l352 915q-59 23 -209 23v96q74 -6 279 -6q54 0 219 6v-96zM1577 1540l-33 -49l-327 119l-328 -119l-29 49l359 289z" />
    <glyph glyph-name="wcircumflex" unicode="&#x175;" horiz-adv-x="1701" 
d="M1649 813q-58 0 -88 -6t-38 -13.5t-14 -23.5l-295 -723q-12 -31 -25 -43t-48 -12t-48.5 12t-25.5 43l-217 531l-217 -531q-12 -31 -25.5 -43t-48.5 -12t-48.5 12t-25.5 43l-313 766h-121v96l223 -6l252 6v-96h-114l215 -528l161 393l9 27q0 6 -43 108h-121v96
q99 -6 205 -6l233 6v-96h-115l234 -573l215 524q1 2 3 7t3.5 9.5t1.5 7.5q0 25 -119 25v96l197 -6q87 0 158 6v-96zM1214 1075l-40 -45l-324 203l-324 -203l-37 45l363 379z" />
    <glyph glyph-name="Ycircumflex" unicode="&#x176;" horiz-adv-x="1779" 
d="M1739 1309h-43q-54 0 -107 -6q-51 -7 -63 -15q-9 -7 -17 -20l-481 -707v-465h223v-96q-78 6 -362 6q-287 0 -361 -6v96h222v465l-510 748h-201v96q72 -6 338 -6q291 0 375 6v-96h-174l415 -609l383 564q7 9 15 24q-56 21 -156 21v96q76 -6 270 -6l234 6v-96zM1249 1540
l-32 -49l-328 119l-328 -119l-29 49l359 289z" />
    <glyph glyph-name="ycircumflex" unicode="&#x177;" horiz-adv-x="1243" 
d="M1188 813q-63 0 -95 -5.5t-40 -12.5t-17 -25l-440 -936q-47 -100 -134.5 -172t-197.5 -72q-92 0 -155.5 55.5t-63.5 133.5q0 56 35 87.5t82 31.5q52 0 85.5 -33t33.5 -84q0 -33 -14 -58.5t-26.5 -35t-25.5 -15.5q21 -8 49 -8q42 0 78.5 16.5t61 38t49.5 59t37 61t30 63.5
l47 98l-383 813h-131v96l234 -6l254 6v-96h-111l260 -553l236 504l10 24q0 11 -24 17.5t-48 6.5l-24 1v96l186 -6q88 0 162 6v-96zM985 1075l-41 -45l-323 203l-324 -203l-37 45l363 379z" />
    <glyph glyph-name="Ydieresis" unicode="&#x178;" horiz-adv-x="1779" 
d="M1739 1309h-43q-54 0 -107 -6q-51 -7 -63 -15q-9 -7 -17 -20l-481 -707v-465h223v-96q-78 6 -362 6q-287 0 -361 -6v96h222v465l-510 748h-201v96q72 -6 338 -6q291 0 375 6v-96h-174l415 -609l383 564q7 9 15 24q-56 21 -156 21v96q76 -6 270 -6l234 6v-96zM723 1634
q0 -59 -41.5 -101t-101.5 -42t-102 42t-42 101q0 60 42 102t102 42t101.5 -42t41.5 -102zM1343 1634q0 -59 -41.5 -101t-101.5 -42t-101.5 42t-41.5 101q0 60 41.5 102t101.5 42t101.5 -42t41.5 -102z" />
    <glyph glyph-name="Zacute" unicode="&#x179;" horiz-adv-x="1439" 
d="M1321 582l-37 -582h-1087q-21 0 -30 1t-19 5.5t-13.5 15.5t-3.5 31q0 19 2.5 27t13.5 26l820 1203h-267q-215 0 -321.5 -97t-118.5 -301h-96l24 494h1053q20 0 29 -1t19.5 -5.5t14 -15t3.5 -29.5q0 -17 -2.5 -23.5t-14.5 -25.5l-817 -1201h287q88 0 157.5 15.5t116 38.5
t81 63.5t53 76t31.5 91.5t17.5 94t8.5 99h96zM1038 1714q-4 -23 -13.5 -40t-26 -27t-26.5 -14.5t-30 -10.5l-332 -111l-49 86q25 20 132.5 110.5t142.5 117.5q51 37 84 37q58 0 94 -45.5t24 -102.5z" />
    <glyph glyph-name="zacute" unicode="&#x17a;" horiz-adv-x="1046" 
d="M946 414l-37 -414h-778q-19 0 -27.5 1t-19 4.5t-14.5 13.5t-4 26q0 10 1 15t4.5 11.5t12.5 18.5l571 746h-174q-156 0 -216.5 -62t-69.5 -223h-97l25 358h751q24 0 35 -1.5t21 -11.5t10 -30q0 -9 -2.5 -15.5t-4.5 -10.5t-13 -19l-568 -739h176q67 0 116.5 9.5t83 31
t55.5 47t35.5 67t20 80.5t11.5 97h96zM823 1315q0 -30 -14.5 -53.5t-27 -32t-36.5 -21.5l-309 -166l-61 76l229 271q17 18 26.5 27t28.5 17.5t41 8.5q49 0 86 -39.5t37 -87.5z" />
    <glyph glyph-name="Zdotaccent" unicode="&#x17b;" horiz-adv-x="1439" 
d="M1321 582l-37 -582h-1087q-21 0 -30 1t-19 5.5t-13.5 15.5t-3.5 31q0 19 2.5 27t13.5 26l820 1203h-267q-215 0 -321.5 -97t-118.5 -301h-96l24 494h1053q20 0 29 -1t19.5 -5.5t14 -15t3.5 -29.5q0 -17 -2.5 -23.5t-14.5 -25.5l-817 -1201h287q88 0 157.5 15.5t116 38.5
t81 63.5t53 76t31.5 91.5t17.5 94t8.5 99h96zM881 1673q0 -66 -47 -113t-113 -47t-113 47t-47 113t47 113t113 47t113 -47t47 -113z" />
    <glyph glyph-name="zdotaccent" unicode="&#x17c;" horiz-adv-x="1046" 
d="M946 414l-37 -414h-778q-19 0 -27.5 1t-19 4.5t-14.5 13.5t-4 26q0 10 1 15t4.5 11.5t12.5 18.5l571 746h-174q-156 0 -216.5 -62t-69.5 -223h-97l25 358h751q24 0 35 -1.5t21 -11.5t10 -30q0 -9 -2.5 -15.5t-4.5 -10.5t-13 -19l-568 -739h176q67 0 116.5 9.5t83 31
t55.5 47t35.5 67t20 80.5t11.5 97h96zM684 1243q0 -66 -47 -113t-113 -47t-112.5 47t-46.5 113t46.5 113t112.5 47t113 -47t47 -113z" />
    <glyph glyph-name="Zcaron" unicode="&#x17d;" horiz-adv-x="1439" 
d="M1321 582l-37 -582h-1087q-21 0 -30 1t-19 5.5t-13.5 15.5t-3.5 31q0 19 2.5 27t13.5 26l820 1203h-267q-215 0 -321.5 -97t-118.5 -301h-96l24 494h1053q20 0 29 -1t19.5 -5.5t14 -15t3.5 -29.5q0 -17 -2.5 -23.5t-14.5 -25.5l-817 -1201h287q88 0 157.5 15.5t116 38.5
t81 63.5t53 76t31.5 91.5t17.5 94t8.5 99h96zM1079 1780l-358 -289l-359 289l33 49l328 -119l328 119z" />
    <glyph glyph-name="zcaron" unicode="&#x17e;" horiz-adv-x="1046" 
d="M946 414l-37 -414h-778q-19 0 -27.5 1t-19 4.5t-14.5 13.5t-4 26q0 10 1 15t4.5 11.5t12.5 18.5l571 746h-174q-156 0 -216.5 -62t-69.5 -223h-97l25 358h751q24 0 35 -1.5t21 -11.5t10 -30q0 -9 -2.5 -15.5t-4.5 -10.5t-13 -19l-568 -739h176q67 0 116.5 9.5t83 31
t55.5 47t35.5 67t20 80.5t11.5 97h96zM887 1409l-363 -379l-362 379l41 45l323 -203l324 203z" />
    <glyph glyph-name="longs" unicode="&#x17f;" horiz-adv-x="718" 
d="M895 1255q0 -59 -38.5 -93t-88.5 -34q-46 0 -85.5 33t-39.5 94q0 70 47 101l-35 4q-20 0 -40 -3.5t-49.5 -18t-51 -39t-37.5 -72t-16 -111.5v-1020h178v-96q-74 6 -283 6l-258 -6v96h142v717h-154v96h154v207q0 83 37 146.5t99 99.5t134.5 54t151.5 18q112 0 172.5 -53.5
t60.5 -125.5z" />
    <glyph glyph-name="uni0180" unicode="&#x180;" horiz-adv-x="1308" 
d="M-20 1116q0 51 61 51h174v45q0 35 -2 49t-14 27.5t-36.5 17t-70.5 3.5h-20v96l366 18v-256h277q61 0 61 -49t-59 -49h-279v-246q127 99 305 99q216 0 351 -128.5t135 -336.5q0 -145 -69.5 -252.5t-184.5 -161t-258 -53.5q-97 0 -166.5 30.5t-138.5 94.5
q-62 -78 -83.5 -96.5t-43.5 -18.5h-70v1069h-176q-59 0 -59 47zM451 248v-8v-8v-6.5t0.5 -6.5t1 -6t1.5 -6.5t2.5 -6l3 -7t4 -7.5t5.5 -8q89 -115 225 -115q67 0 125.5 28.5t93.5 80.5q54 82 54 258v57q0 54 -2 89t-15.5 88t-38.5 88q-67 94 -194 94q-88 0 -162 -42t-96 -81
q-8 -12 -8 -43v-432z" />
    <glyph glyph-name="uni0181" unicode="&#x181;" horiz-adv-x="2017" 
d="M504 1405h807q237 0 372.5 -101.5t135.5 -250.5q0 -119 -95 -205t-260 -115q185 -14 302.5 -110t117.5 -242q0 -160 -134.5 -270.5t-377.5 -110.5h-950v96h221v1213h-139q-146 0 -234 -23q18 -12 30 -22t25 -35.5t13 -57.5q0 -55 -37 -92t-92 -37q-54 0 -91.5 37.5
t-37.5 96.5q0 56 28.5 98.5t71.5 66.5t102.5 39t112 20t109.5 5zM1528 1053q0 32 -5 63t-21.5 67.5t-42 63t-71 44.5t-104.5 18h-373v-541h320q143 0 220 80t77 205zM1583 383q0 138 -67 223q-70 88 -207 88h-398v-598h377q60 0 109 15t79 37t52 53.5t32 57.5t16 56.5
t6.5 43t0.5 24.5z" />
    <glyph glyph-name="uni0182" unicode="&#x182;" horiz-adv-x="1675" 
d="M889 768q136 0 247.5 -21.5t185.5 -58t124.5 -86.5t73 -105t22.5 -116q0 -160 -134.5 -270.5t-377.5 -110.5h-950v96h221v1213h-221v96h1255l49 -399h-96q-10 54 -21 92.5t-30 71t-39 53.5t-56.5 37.5t-74 25.5t-99 14.5t-124.5 7t-158 1.5h-117v-541h320zM1241 383
q0 138 -67 223q-70 88 -207 88h-398v-598h377q60 0 109 15t79 37t52 53.5t32 57.5t16 56.5t6.5 43t0.5 24.5z" />
    <glyph glyph-name="uni0183" unicode="&#x183;" horiz-adv-x="1308" 
d="M217 0l2 1405h887l37 -293h-96q-7 46 -21 79t-38.5 54.5t-51 34.5t-69.5 19.5t-83 8.5t-102 1l-244 -2v-486q121 101 301 101q221 0 355.5 -129.5t134.5 -335.5q0 -212 -143 -340.5t-373 -128.5q-172 0 -299 127q-16 -20 -50 -58l-51 -57h-96zM967 457q0 43 -0.5 67.5
t-5.5 71.5t-13.5 76t-27 66t-44.5 58.5t-66.5 36.5t-92.5 15q-81 0 -151.5 -37t-114.5 -94v-514q12 -18 28 -36.5t46 -45t74.5 -43.5t94.5 -17q59 0 119 25t100 82q25 37 37.5 92t14.5 94t2 103z" />
    <glyph glyph-name="uni0184" unicode="&#x184;" horiz-adv-x="1675" 
d="M301 780l-162 277l430 364v-653h320q136 0 247.5 -21.5t185.5 -58t124.5 -86.5t73 -105t22.5 -116q0 -160 -134.5 -270.5t-377.5 -110.5h-950v96h221v684zM1241 383q0 138 -67 223q-70 88 -207 88h-398v-598h377q60 0 109 15t79 37t52 53.5t32 57.5t16 56.5t6.5 43
t0.5 24.5z" />
    <glyph glyph-name="uni0185" unicode="&#x185;" horiz-adv-x="1308" 
d="M219 780l-162 277l381 364v-600q121 101 301 101q221 0 355.5 -129.5t134.5 -335.5q0 -212 -143 -340.5t-373 -128.5q-172 0 -299 127q-16 -20 -50 -58l-51 -57h-96zM967 457q0 43 -0.5 67.5t-5.5 71.5t-13.5 76t-27 66t-44.5 58.5t-66.5 36.5t-92.5 15q-81 0 -151.5 -37
t-114.5 -94v-514q12 -18 28 -36.5t46 -45t74.5 -43.5t94.5 -17q59 0 119 25t100 82q25 37 37.5 92t14.5 94t2 103z" />
    <glyph glyph-name="uni0186" unicode="&#x186;" horiz-adv-x="1699" 
d="M131 39v442q0 11 4 27q0 4 7.5 12t15.5 8q16 4 22 4q33 0 46 -9.5t15.5 -25t12 -56t27.5 -81.5q17 -37 38.5 -72t59.5 -75t82.5 -69t109.5 -48.5t138 -19.5q148 0 265 53t189 158q53 76 73.5 179.5t20.5 242.5q0 157 -31.5 267t-89 177t-147.5 113q-128 63 -293 63
q-3 0 -25 -1.5t-30 -2.5t-31 -3.5t-35.5 -5.5t-36 -9t-39.5 -13t-38.5 -17.5t-41 -23t-39.5 -29t-40 -36.5q-47 -48 -72.5 -96.5t-30.5 -81t-7.5 -59t-11.5 -39.5t-34 -13h-16q-35 0 -35 43q0 93 46 181t125 155.5t193 108t242 40.5q173 0 315.5 -42.5t236.5 -113.5
t158.5 -165.5t93 -195.5t28.5 -208q0 -215 -104.5 -380.5t-293 -255t-432.5 -89.5q-49 0 -101.5 7t-139.5 41t-156 92h-2q-18 -16 -41 -37.5t-35 -32t-27 -24t-23.5 -20t-18.5 -13t-17 -8.5t-14 -2q-8 0 -12 2q-3 0 -6.5 2t-10 16.5t-6.5 38.5z" />
    <glyph glyph-name="uni0187" unicode="&#x187;" horiz-adv-x="1783" 
d="M1466 1178v79q0 85 27 156t70 115.5t93.5 69t100.5 24.5q96 0 144.5 -46t48.5 -124q0 -55 -38 -91t-91 -36q-52 0 -89.5 35.5t-37.5 91.5q0 48 37 94q-83 -9 -125.5 -82.5t-40.5 -197.5l4 -336q0 -40 -8.5 -49t-47.5 -9q-35 0 -42.5 6.5t-12.5 36.5q-33 191 -162 303.5
t-299 112.5q-262 0 -417 -157q-136 -142 -136 -472q0 -150 26.5 -260.5t94.5 -193.5q75 -89 192 -131.5t247 -42.5q64 0 127 15t123.5 47t107 78t77 113t34.5 146q1 24 11.5 29.5t35.5 5.5q29 0 39 -7t10 -36q0 -89 -43 -176t-120 -156.5t-195.5 -112.5t-256.5 -43
q-188 0 -343 54.5t-260 150.5t-162.5 229.5t-57.5 290.5t57.5 290.5t162.5 229.5t260 150.5t343 54.5q58 0 119.5 -11t132 -36.5t139.5 -77.5t121 -124z" />
    <glyph glyph-name="uni0188" unicode="&#x188;" 
d="M78 457q0 75 19.5 143.5t61 128.5t101 104t146 69.5t190.5 25.5q160 0 260 -43v80q0 82 20 147t51 104.5t71 66t77 36.5t72 10q85 0 138.5 -47.5t53.5 -122.5q0 -55 -38 -91t-91 -36q-52 0 -89.5 35.5t-37.5 91.5q0 48 37 94q-83 -9 -124.5 -82t-41.5 -198v-209
q0 -47 -13.5 -80t-35.5 -47t-41 -19.5t-39 -5.5q-54 0 -91.5 35t-37.5 92q0 50 41 97q-54 8 -137 8q-76 0 -128.5 -28t-80.5 -81t-39.5 -116t-11.5 -146q0 -26 0.5 -41.5t2 -47t6 -54t12 -53t20 -54t29.5 -48t41.5 -44t54.5 -33.5q63 -26 121 -26q84 0 144.5 36.5t92.5 98.5
q2 5 8 18.5t9 18t10 12t16 10t23 2.5q47 0 47 -30q0 -12 -10 -37.5t-38 -63t-69.5 -69.5t-113.5 -55t-160 -23q-229 0 -368.5 128t-139.5 339z" />
    <glyph glyph-name="uni0189" unicode="&#x189;" horiz-adv-x="1806" 
d="M6 612v109h889v-109h-889zM1673 690q0 -214 -94 -372t-253.5 -238t-362.5 -80h-883v96h221v1213h-221v96h881q152 0 282.5 -49t226 -139t149.5 -225.5t54 -301.5zM1372 692q0 155 -18.5 258t-69.5 176q-69 98 -178 140.5t-227 42.5h-299v-1213h299q72 0 139.5 13
t142.5 53.5t121 105.5q50 69 70 163.5t20 260.5z" />
    <glyph glyph-name="uni018A" unicode="&#x18a;" horiz-adv-x="2148" 
d="M504 1405h799q152 0 282.5 -49t226 -139t149.5 -225.5t54 -301.5q0 -214 -94 -372t-253.5 -238t-362.5 -80h-883v96h221v1213h-139q-146 0 -234 -23q18 -12 30 -22t25 -35.5t13 -57.5q0 -55 -37 -92t-92 -37q-54 0 -91.5 37.5t-37.5 96.5q0 56 28.5 98.5t71.5 66.5
t102.5 39t112 20t109.5 5zM1714 692q0 155 -18.5 258t-69.5 176q-69 98 -178 140.5t-227 42.5h-299v-1213h299q72 0 139.5 13t142.5 53.5t121 105.5q50 69 70 163.5t20 260.5z" />
    <glyph glyph-name="uni018B" unicode="&#x18b;" horiz-adv-x="1675" 
d="M733 768h320v541h-117q-95 0 -158 -1.5t-124.5 -7t-99 -14.5t-74 -25.5t-56.5 -37.5t-39 -53.5t-30 -71t-21 -92.5h-96l49 399h1255v-96h-221v-1213h221v-96h-950q-243 0 -377.5 110.5t-134.5 270.5q0 61 22.5 116t73 105t124.5 86.5t185.5 58t247.5 21.5zM381 383
q0 -12 0.5 -24.5t6.5 -43t16 -56.5t32 -57.5t52 -53.5t79 -37t109 -15h377v598h-398q-136 0 -206 -88q-68 -86 -68 -223z" />
    <glyph glyph-name="uni018C" unicode="&#x18c;" horiz-adv-x="1308" 
d="M1090 1409v-1233q0 -58 21 -69t120 -11v-96l-375 -12v100q-124 -100 -287 -100q-224 0 -357.5 129.5t-133.5 335.5q0 214 143.5 341.5t370.5 127.5q157 0 276 -93v400q0 57 -20 68t-111 12h-10h-121q-53 0 -88 -0.5t-74 -5t-64.5 -12.5t-50.5 -22.5t-41 -35t-28 -50.5
t-18 -69h-97l37 293zM856 211v512q-40 52 -102 88.5t-142 36.5q-59 0 -119 -24.5t-100 -82.5q-25 -37 -37.5 -92t-14 -92t-1.5 -104q0 -33 0.5 -51.5t2.5 -55t6 -59.5t13 -56t21 -54t31 -45.5t43.5 -38t58 -23t74.5 -9.5q157 0 266 150z" />
    <glyph glyph-name="uni018D" unicode="&#x18d;" horiz-adv-x="1216" 
d="M1083 641q0 -72 -20.5 -138t-55 -115t-71 -84t-76.5 -60q-44 -26 -100 -49q57 -35 105 -73t92.5 -84t70 -98.5t25.5 -103.5q0 -31 -8.5 -59.5t-27.5 -55.5t-57 -43t-90 -16q-41 0 -91.5 9.5t-88.5 19.5t-109 36.5t-101.5 39t-120.5 50.5t-115 48v166q30 -12 202 -86.5
t295 -120t170 -45.5q16 0 27.5 10.5t16.5 26.5t6.5 28t1.5 23q0 53 -37 103.5t-86.5 84.5t-106 62.5t-88.5 40.5t-41 14q-111 44 -190 82q-51 26 -97.5 63t-90.5 88.5t-70.5 121.5t-26.5 147q0 89 36 170t98 140.5t149.5 94.5t185.5 35q137 0 249 -66t174 -174t62 -233z
M850 629q0 66 -14 131t-43 124.5t-80.5 96.5t-118.5 37q-104 0 -171 -85.5t-67 -203.5q0 -233 244 -424q32 -29 51 -29q24 0 55.5 20.5t65 60.5t56 111.5t22.5 160.5z" />
    <glyph glyph-name="Ereversed" unicode="&#x18e;" horiz-adv-x="1548" 
d="M1481 0h-1307l-94 561h96q11 -69 21 -115.5t27.5 -99.5t40 -87.5t58 -68t81.5 -52.5t109.5 -30.5t143.5 -11.5h312v578h-113q-72 0 -116.5 -15t-66 -49.5t-28 -72.5t-6.5 -103h-96v576h96q0 -65 6 -103t27.5 -72.5t66 -49.5t117.5 -15h113v526h-312q-81 0 -142.5 -11.5
t-104.5 -37t-71.5 -56t-47.5 -80t-29.5 -96.5t-19.5 -116h-97l64 494h1272v-97h-221v-1200h221v-96z" />
    <glyph glyph-name="uni018F" unicode="&#x18f;" horiz-adv-x="1628" 
d="M63 655q0 32 13.5 44t44.5 12h1093q0 205 -45 335t-157 205q-113 78 -273 78q-172 0 -315 -86t-180 -233q-1 -6 -3.5 -17t-3.5 -14.5t-3.5 -10.5t-6 -9.5t-10 -5.5t-15 -4t-20.5 -1h-4q-30 0 -39.5 12t-9.5 41v363v7.5v8v8t1 8t2 7.5t3 7.5t4.5 5.5t6 5t8 3t10.5 1
q31 0 174 -116h2q171 118 412 118q229 0 405.5 -90.5t273.5 -256t97 -382.5q0 -212 -90 -374.5t-262 -254.5t-402 -92q-164 0 -291 41.5t-204.5 107t-127.5 157t-69 182t-19 190.5zM344 631q2 -103 18 -187t41 -142t60.5 -102.5t72.5 -70t81 -41.5t81 -21.5t78 -5.5
q106 0 188.5 41.5t133.5 104.5q112 134 114 424h-868z" />
    <glyph glyph-name="uni0190" unicode="&#x190;" horiz-adv-x="1439" 
d="M96 383q0 104 81 193.5t241 136.5q19 6 53 12.5t45 9.5q-151 29 -252.5 113.5t-101.5 202.5q0 49 18.5 98t65 100t116 89.5t182.5 63.5t253 25q249 0 407 -99t158 -259q0 -67 -37 -101t-90 -34t-91 36t-38 91q0 43 26.5 80t79.5 47q-130 141 -407 141q-177 0 -275 -79.5
t-98 -202.5q0 -48 17.5 -94.5t53 -88.5t101.5 -68.5t152 -27.5h157q30 0 47 -7.5t17 -31.5q0 -37 -64 -37q-6 0 -19.5 1t-19.5 1h-116q-93 0 -164 -22t-111 -54.5t-65 -76.5t-33 -81.5t-8 -76.5q0 -52 17 -101t56 -97.5t116 -78.5t182 -30q81 0 163.5 14.5t164.5 46.5
t137.5 93t64.5 143q2 27 11.5 40t37.5 13q49 0 49 -43q0 -119 -84.5 -212.5t-230.5 -143.5t-326 -50q-142 0 -256 27t-184 69t-116.5 97.5t-64.5 108t-18 104.5z" />
    <glyph glyph-name="uni0191" unicode="&#x191;" horiz-adv-x="1482" 
d="M592 -92q0 -155 -135 -241.5t-348 -86.5q-177 0 -286.5 69.5t-109.5 186.5q0 75 47.5 116.5t110.5 41.5q59 0 107.5 -40.5t48.5 -117.5q0 -31 -10 -57t-23.5 -42t-27.5 -27.5t-24 -15.5l-10 -5q76 -35 166 -35q48 0 85 15.5t58 42.5t34.5 53.5t18.5 60.5t6 49t1 33v1388
h-221v97h1239l63 -494h-96q-9 68 -18.5 113.5t-27.5 95.5t-45.5 80.5t-69.5 57t-103.5 38.5t-142.5 12h-287v-551h102q49 0 85 6.5t59.5 22t37.5 33.5t21.5 48.5t9.5 58.5t2 71h97v-575h-97q0 52 -3.5 84t-15.5 65t-35 50.5t-63 28.5t-98 11h-102v-741z" />
    <glyph glyph-name="florin" unicode="&#x192;" horiz-adv-x="718" 
d="M895 1255q0 -59 -38.5 -93t-88.5 -34q-46 0 -85.5 33t-39.5 94q0 66 47 101q-14 4 -35 4q-20 0 -41.5 -3.5t-52.5 -18t-54.5 -39t-40.5 -72t-17 -111.5v-207h247v-96h-235v-717h178v-96q-74 6 -283 6l-258 -6v96h142v717h-154v96h154v207q0 83 37 146.5t99 99.5t134.5 54
t151.5 18q112 0 172.5 -53.5t60.5 -125.5z" />
    <glyph glyph-name="uni0193" unicode="&#x193;" horiz-adv-x="1783" 
d="M952 1427q58 0 119.5 -11t132 -36.5t139.5 -77.5t121 -124v79q0 85 27 156t70 115.5t93.5 69t100.5 24.5q96 0 144.5 -46t48.5 -124q0 -55 -38 -91t-91 -36q-52 0 -89.5 35.5t-37.5 91.5q0 48 37 94q-83 -9 -125.5 -82.5t-40.5 -197.5l4 -336q0 -40 -8.5 -49t-47.5 -9
q-35 0 -42.5 6.5t-12.5 36.5q-33 191 -162 303.5t-299 112.5q-141 0 -255.5 -49t-178.5 -129q-60 -79 -88.5 -181t-28.5 -267q0 -148 26 -256t89 -189q72 -92 193.5 -139t259.5 -47q110 0 184 43q28 17 46 36t24.5 40.5t8 34.5t1.5 34v207h-295v96q111 -6 420 -6
q258 0 330 6v-96h-164v-412q0 -20 -1 -29.5t-7.5 -18.5t-20.5 -9q-15 0 -87 36.5t-114 72.5q-106 -132 -381 -132q-194 0 -351 56t-260 154t-158.5 229.5t-55.5 285.5q0 158 58 292t163 229.5t259.5 149.5t340.5 54z" />
    <glyph glyph-name="uni0194" unicode="&#x194;" horiz-adv-x="1654" 
d="M53 1298v99q114 -6 230 -6q131 0 260 6v-99h-109l438 -1001q89 181 217.5 428t205.5 394t77 153q0 15 -20.5 19.5t-69.5 6.5v99q94 -6 191 -6q89 0 159 6v-99q-67 0 -98 -6.5t-40.5 -16t-23.5 -36.5l-505 -981q-23 -44 -23 -51q0 -14 31.5 -52.5t69 -81t69 -106.5
t31.5 -123q0 -50 -18.5 -94t-49.5 -74.5t-71 -52.5t-83.5 -32.5t-86.5 -10.5q-103 0 -163.5 75.5t-60.5 174.5q0 119 115 262l-539 1206h-133zM702 -184q0 -68 35.5 -114t87.5 -46q41 0 67 34t26 87q0 71 -41 152t-78 116q-28 -39 -45.5 -66.5t-34.5 -73.5t-17 -89z" />
    <glyph glyph-name="uni0195" unicode="&#x195;" horiz-adv-x="1806" 
d="M88 0v98h143v1131q0 52 -23 66t-110 14h-10v96l367 18v-702q18 32 43 62t66 64t103 54.5t136 20.5q63 0 112.5 -11t82 -28t56.5 -44t36.5 -52.5t19.5 -61t8.5 -61t1.5 -60.5v-45q0 -338 119 -444q58 -52 131 -52q61 0 109.5 37.5t76.5 92.5t47 124.5t26 127.5t7 106
q0 35 -21 58.5t-50.5 36.5t-59 27.5t-50.5 43t-21 71.5q0 51 35 92.5t92 41.5q18 0 37.5 -6t48 -24t51 -62.5t31.5 -110.5q6 -45 6 -135q0 -79 -11 -157t-38.5 -158t-68.5 -141t-107 -99.5t-148 -38.5q-45 0 -86.5 5.5t-90.5 22.5t-90.5 43.5t-81 71.5t-67.5 104.5
t-44.5 145.5t-16.5 190v60q0 49 -4 82.5t-15.5 66t-36.5 48.5t-63 16q-28 0 -62 -7.5t-78 -30.5t-78.5 -58.5t-58.5 -99t-24 -144.5v-408h143v-98q-135 6 -270 6q-22 0 -250 -6z" />
    <glyph glyph-name="uni0196" unicode="&#x196;" horiz-adv-x="727" 
d="M152 1354q0 27 11.5 36t39.5 9h112q28 0 39 -8.5t11 -28.5q0 -18 -26 -493t-26 -502q0 -40 25 -71.5t65 -31.5q30 0 54 22.5t24 55.5q0 13 0.5 17.5t2.5 15.5t8.5 15.5t17.5 4.5q30 0 78.5 -55.5t48.5 -134.5q0 -88 -64 -155.5t-159 -67.5q-175 0 -209 241
q-6 43 -19.5 325.5t-23.5 543.5z" />
    <glyph glyph-name="uni0197" unicode="&#x197;" horiz-adv-x="892" 
d="M825 0q-84 6 -379 6q-294 0 -378 -6v96h233v1213h-233v96q84 -6 378 -6q295 0 379 6v-96h-233v-1213h233v-96zM47 612v109h799v-109h-799z" />
    <glyph glyph-name="uni0198" unicode="&#x198;" horiz-adv-x="1894" 
d="M1341 1284q124 99 236.5 113.5t179.5 -58.5q40 -48 37 -98t-41 -86q-40 -38 -92.5 -35t-89.5 43q-51 51 -27 133q-59 -21 -139 -88l-412 -346l553 -725q20 -27 41.5 -34t98.5 -7h59v-96q-76 6 -299 6q-277 0 -361 -6v96q111 0 150 17q-11 22 -16 28l-422 555l-205 -170
v-430h221v-96q-78 6 -367 6q-288 0 -366 -6v96h221v1213h-221v96q78 -6 366 -6q289 0 367 6v-96h-221v-656z" />
    <glyph glyph-name="uni0199" unicode="&#x199;" horiz-adv-x="1243" 
d="M72 0v98h143v893q0 7 -1 20.5t-1 20.5q0 92 36 165t90.5 116t124.5 71.5t131 39t118 10.5q159 0 254.5 -61t95.5 -161q0 -60 -38 -95.5t-91 -35.5q-55 0 -91 37t-36 92q0 76 72 117q-78 31 -162 31q-111 0 -195 -85.5t-84 -246.5v-537q346 272 363 289q10 10 10 15
q0 9 -14.5 14t-29.5 5l-15 1v98l292 -6l105 6v-98q-33 0 -59 -1t-45.5 -4.5t-31.5 -5.5t-23.5 -8.5t-15 -8t-13.5 -10t-11 -9.5l-252 -197v-2q10 -12 21 -25t35 -42.5t52.5 -65.5t90 -112t131.5 -162q3 -4 11.5 -14.5t10.5 -12.5t8.5 -9.5t10 -8.5t10.5 -5.5t13.5 -5t16 -3
t21.5 -2.5t26.5 -0.5t33.5 -0.5h12v-98q-108 6 -215 6q-127 0 -250 -6v98h8q52 0 52 21q0 11 -39.5 60.5t-107 131t-107.5 135.5q-14 -11 -31 -24t-25.5 -20t-19 -15t-15.5 -12.5t-10.5 -9.5t-7.5 -9t-4.5 -7.5t-2.5 -8.5t-0.5 -9t-0.5 -12v-221h143v-98q-216 6 -239 6
q-129 0 -258 -6z" />
    <glyph glyph-name="uni019A" unicode="&#x19a;" horiz-adv-x="915" 
d="M82 745q0 22 10.5 33.5t22 14t28.5 2.5h201v442q-1 46 -25.5 59t-101.5 13h-16v96l366 18v-628h203q57 0 57 -50q0 -49 -57 -49h-203v-598h142v-98q-222 6 -244 6q-132 0 -264 -6v98h143v598h-203q-59 0 -59 49z" />
    <glyph glyph-name="uni019b" unicode="&#x19b;" horiz-adv-x="1243" 
d="M6 1384q0 39 53 39h11q97 0 158.5 -7.5t98.5 -26t54.5 -37t38.5 -54.5q156 -269 160 -278q37 21 73 42l60 35t47.5 27.5t37.5 22t27.5 16t21 11.5t14.5 7t11 4t7 1q21 0 52.5 -52t31.5 -73q-1 -14 -12 -23q-15 -11 -231 -136l-52 -30l422 -731q20 -34 38 -59t26 -33
t12.5 -16t4.5 -17q0 -10 -4.5 -15.5t-14.5 -7.5t-15.5 -2.5t-18.5 -0.5h-100q-35 0 -51 1.5t-38 9.5t-38 26.5t-35 50.5l-266 459l-271 -451q-2 -3 -10 -17t-12.5 -20t-14 -19t-17.5 -19.5t-19.5 -14t-24.5 -11t-28 -3.5q-47 0 -85 34t-38 82t55 107l399 442l-61 109
q-37 -21 -72.5 -42t-59.5 -35t-47 -27.5t-37 -22t-27.5 -16t-21 -11.5t-14.5 -7t-11 -4t-7 -1q-21 0 -52.5 51.5t-31.5 73.5q0 3 1 5.5t2.5 5t3 4.5t4.5 5t5 4t6 4t6 4t7.5 4.5t7.5 4.5q230 133 254 145q-29 50 -68 118t-56.5 99t-43 73t-38.5 60.5t-30.5 39.5t-32 31
t-30.5 17q-7 3 -30 7.5t-33.5 12t-10.5 25.5z" />
    <glyph glyph-name="uni019C" unicode="&#x19c;" horiz-adv-x="1705" 
d="M12 1409l197 -6l215 2l96 4v-96h-141v-1043q0 -94 12 -139q7 -41 33 -59q17 -12 72 -2q96 20 163 118q47 73 54 170q1 0 1 56l-1 55v844h-133v96l196 -6l215 2l96 4v-96h-141v-1043q0 -94 12 -139q7 -41 33 -59q17 -12 72 -2q97 20 164 118q46 72 53 170q2 0 1 56l-1 55
v844h-141v96l202 -6l218 2l96 4v-96h-142v-1000v-127q0 -44 11 -61q13 -15 41 -19q31 -4 90 -4v-96l-76 -4l-199 -8l-77 -4v211h-3q-9 -29 -38 -70q-38 -56 -96 -92t-124 -45q-32 -6 -96 -2q-60 3 -110 26q-45 24 -76 66.5t-37 91.5h-2q-14 -33 -41 -63q-84 -104 -205 -119
q-32 -6 -96 -2q-145 11 -201 114q-12 22 -19.5 45.5t-10 57t-3.5 47t-0.5 58t0.5 48.5v951h-133v96z" />
    <glyph glyph-name="uni019D" unicode="&#x19d;" horiz-adv-x="1843" 
d="M410 156q0 -576 -301 -576q-177 0 -286.5 69.5t-109.5 186.5q0 75 47.5 116.5t110.5 41.5q59 0 107.5 -40.5t48.5 -117.5q0 -31 -10 -57t-23.5 -42t-27.5 -27.5t-24 -15.5l-10 -5q76 -35 166 -35q42 0 75 13.5t54 31.5t36 51.5t22 59.5t11 69t4.5 66t0.5 65v1299h-221v96
h469q31 0 40 -4t27 -23l816 -958v829q0 34 -9 42t-53 12q-56 6 -108 6h-52v96q84 -6 277 -6q196 0 274 6v-96h-51q-62 0 -111 -6q-42 -4 -50.5 -12t-8.5 -42v-1183q0 -22 -1 -31t-6 -19t-16.5 -13t-31.5 -3q-24 0 -32 4t-23 23l-1020 1200v-1071z" />
    <glyph glyph-name="uni019E" unicode="&#x19e;" horiz-adv-x="1243" 
d="M88 0v98h143v635q0 48 -25 61t-100 13h-18v98l354 17v-134l2 -90q17 37 43.5 71.5t69 71t106.5 59t140 22.5q51 0 93.5 -7.5t73.5 -19t55 -31t39.5 -37t26.5 -45t16.5 -47t8.5 -50t3.5 -47.5t0.5 -46v-893h142v-98q-135 6 -269 6q-22 0 -250 -6v98h142v928q0 51 -3.5 84
t-15 67t-36.5 51t-64 17q-26 0 -59 -7t-77.5 -29.5t-79.5 -58t-60 -99t-25 -144.5v-410h143v-98q-135 6 -270 6q-22 0 -250 -6z" />
    <glyph glyph-name="uni019F" unicode="&#x19f;" horiz-adv-x="1769" 
d="M1636 694q0 -157 -52 -289t-147.5 -227t-237.5 -148t-316 -53q-172 0 -313.5 52.5t-237.5 147t-148.5 227t-52.5 290.5q0 161 52.5 296t148.5 232t238 151t315 54q341 0 546 -200.5t205 -532.5zM1323 678q-6 -5 -16.5 -12t-12.5 -9q-92 -63 -215 -63q-78 0 -233 35
q-153 35 -238 35q-78 0 -162 -35q10 -219 82 -353q59 -109 156 -161t199 -52q96 0 189.5 46t156.5 149q90 146 94 420zM444 748q1 1 3.5 2t3.5 2q92 63 213 63q80 0 235 -35q153 -35 238 -35q27 0 81 12t105 36q-8 228 -86 360q-59 96 -154 144.5t-200 48.5q-98 0 -190 -44
t-152 -133q-97 -148 -97 -421z" />
    <glyph glyph-name="Ohorn" unicode="&#x1a0;" horiz-adv-x="1769" 
d="M1634 694q0 -152 -51 -288t-153 -234q-105 -99 -247 -147t-300 -48t-300 48t-247 147q-102 98 -153.5 234t-51.5 288q0 155 51.5 294.5t153.5 238.5q103 102 245 151t302 49q251 0 430 -110q67 20 112 88h-10q-65 0 -101 40t-36 97q0 55 36 95t101 40q58 0 96.5 -49.5
t38.5 -116.5q0 -86 -41.5 -157.5t-109.5 -98.5q15 -12 31 -28q102 -99 153 -238.5t51 -294.5zM1321 731q0 144 -20.5 253.5t-83.5 195.5q-57 80 -145.5 123t-188.5 43q-101 0 -189.5 -43t-144.5 -123q-63 -87 -85 -197.5t-22 -251.5q0 -155 21.5 -274t85.5 -215
q55 -84 143.5 -131.5t190.5 -47.5q100 0 189.5 47.5t144.5 131.5q64 96 84 213.5t20 275.5z" />
    <glyph glyph-name="ohorn" unicode="&#x1a1;" 
d="M1171 1016q0 -90 -46.5 -162.5t-120.5 -97.5q104 -124 104 -310q0 -97 -36 -184t-105 -149q-144 -125 -381 -125q-235 0 -379 125q-69 62 -105 149t-36 184q0 102 35.5 193.5t105.5 157.5q145 131 379 131q209 0 348 -105q70 21 110 86h-10q-64 0 -100.5 41.5t-36.5 96.5
t36.5 96t100.5 41q60 0 98.5 -50t38.5 -118zM846 473q0 67 -1.5 105t-12.5 92t-33 86q-32 49 -89 73.5t-124 24.5q-65 0 -122 -24.5t-89 -73.5q-22 -32 -33 -86t-12.5 -92t-1.5 -105q0 -71 1.5 -111.5t12.5 -98t33 -91.5q32 -50 88 -75t123 -25t124 25t89 75q22 34 33 91.5
t12.5 98t1.5 111.5z" />
    <glyph glyph-name="uni01A2" unicode="&#x1a2;" horiz-adv-x="1974" 
d="M1401 -317v1484q0 17 -7.5 31t-21.5 14q-35 0 -70.5 -44.5t-35.5 -94.5v-956q-201 -140 -383 -140q-172 0 -313.5 52.5t-237.5 147t-148.5 227t-52.5 290.5q0 161 52.5 296t148.5 232t238 151t315 54q69 0 129 -19t95 -42t82.5 -42t94.5 -19q46 0 99 23t93 50.5
t89.5 50.5t89.5 23v-1769h233v-97q-84 6 -358 6q-281 0 -365 -6v97h234zM1049 98v1215q-76 33 -166 33q-98 0 -190 -44t-152 -133q-60 -93 -78.5 -203t-18.5 -241q0 -145 18 -252.5t66 -196.5q59 -109 156 -161t199 -52q86 0 166 35z" />
    </font>
</defs>
</svg>
